<?xml version="1.0" encoding="UTF-8" standalone="no"?>
<svg width="102px" height="200px" viewBox="0 0 102 200" version="1.1" xmlns="http://www.w3.org/2000/svg" xmlns:xlink="http://www.w3.org/1999/xlink">
    <!-- Generator: Sketch 42 (36781) - http://www.bohemiancoding.com/sketch -->
    <title>Group 10</title>
    <desc>Created with Sketch.</desc>
    <defs>
        <path d="M10.0873185,4.30581395 C9.88930839,4.19143579 9.68100708,4.09754095 9.47784429,3.99343984 C9.51882508,3.94733468 9.5529545,3.91663094 9.58711223,3.88417189 C9.94049545,3.55127199 10.2580081,3.16545804 10.4236299,2.71134277 C10.5038787,2.49112235 10.524362,2.39551466 10.5789889,2.19065319 C10.6831183,1.54535086 10.5636158,1.1526997 10.1743761,0.826637007 C9.6485905,0.386210313 9.05104954,0.333253792 8.41939333,0.592742164 C8.37501517,0.611512639 8.3459818,0.623474216 8.30333064,0.582493428 C7.49070779,-0.173761375 6.18644287,-0.180598584 5.36870981,0.565421638 C5.33112639,0.599536906 5.30212133,0.609799798 5.25264712,0.585876643 C4.9214459,0.435670374 4.57318706,0.403197169 4.218091,0.474881699 C3.54376946,0.611456016 2.98551062,1.17822245 3.08451567,1.94986451 C3.16987462,2.61908999 3.43448736,3.19951668 3.88857432,3.6997088 C3.98246916,3.80215369 4.08150253,3.89946006 4.18217796,4.00360364 C4.15658443,4.01553691 4.13267543,4.02752679 4.10706775,4.03943175 C1.78529019,5.08764813 0.218125379,7.35986653 0.0337755308,9.9428453 C-0.0174539939,10.6581476 -0.039635996,11.2983397 0.207933266,12.0665278 C0.557904954,13.1505865 1.47975329,13.9973387 2.66455814,13.9939414 C5.4540546,13.9871325 8.24188069,13.9939414 11.0314196,13.9905298 C11.9277027,13.988817 12.6173832,13.5927685 13.1175753,12.8723418 C13.371911,12.5052983 13.4641496,12.0836279 13.559729,11.6534358 C13.5990111,11.4776077 13.645088,11.8207705 13.645088,11.0764206 C13.645088,10.3320991 13.6297149,9.41707381 13.4180445,8.64026491 C12.9041921,6.75383215 11.8047745,5.29764813 10.0873327,4.30577149 L10.0873185,4.30581395 Z" id="path-1"></path>
        <mask id="mask-2" maskContentUnits="userSpaceOnUse" maskUnits="objectBoundingBox" x="0" y="0" width="13.6441214" height="13.9833828" fill="white">
            <use xlink:href="#path-1"></use>
        </mask>
    </defs>
    <g id="Page-1" stroke="none" stroke-width="1" fill="none" fill-rule="evenodd">
        <g id="Group-10">
            <path d="M9.22902231,5.60137813 C9.95930632,5.02798431 10.4304618,4.13970183 10.4304618,3.14142304 C10.4304618,1.41597727 9.02690064,0.0122776099 7.30124706,0.0122776099 C5.57587056,0.0122776099 4.17224016,1.41597727 4.17224016,3.14142304 C4.17224016,4.13970183 4.64381121,5.02791504 5.37367962,5.60137813 C3.45040675,6.36989763 2.08612012,8.2488395 2.08612012,10.4428778 L2.08612012,11.9876748 L12.5166511,11.9876748 L12.5166511,10.4428778 C12.5166511,8.24828537 11.1526415,6.3699669 9.22902231,5.60137813 L9.22902231,5.60137813 Z M7.3013856,1.05537227 C8.4518444,1.05537227 9.38729784,1.99096424 9.38729784,3.14149231 C9.38729784,4.29202038 8.4518444,5.22761236 7.3013856,5.22761236 C6.15085753,5.22761236 5.21519629,4.29202038 5.21519629,3.14149231 C5.21519629,1.99096424 6.15085753,1.05537227 7.3013856,1.05537227 L7.3013856,1.05537227 Z M11.4736257,10.9644598 L3.12907624,10.9644598 L3.12907624,10.4429471 C3.12907624,8.14230656 5.00074506,6.27077628 7.30193974,6.27077628 C9.60230321,6.27077628 11.4735564,8.14237583 11.4735564,10.4429471 L11.4735564,10.9644598 L11.4736257,10.9644598 L11.4736257,10.9644598 Z M3.81011128,5.78271964 C3.82438032,5.75120307 3.82438032,5.71767775 3.83151484,5.68498363 C3.83657135,5.66517321 3.84218199,5.646194 3.84481414,5.62534458 C3.84822279,5.58512411 3.84682761,5.54464077 3.84065811,5.50475039 C3.8385801,5.48327756 3.84370587,5.46291301 3.8385801,5.44150945 C3.83553234,5.42931842 3.82687394,5.42059076 3.82320278,5.40839973 C3.81516779,5.38505669 3.8039465,5.36413799 3.79279448,5.34224956 C3.77125238,5.29736442 3.74797861,5.25670458 3.7159079,5.22047784 C3.711267,5.21535206 3.70558709,5.21181944 3.70059985,5.20669366 C3.65405534,5.15815435 3.59829128,5.11939268 3.53657514,5.09267986 C2.97239385,4.84110142 2.60770208,4.28086837 2.60770208,3.66362841 C2.60770208,2.93736189 3.09963768,2.31187914 3.80450064,2.14238232 C4.08454108,2.07461605 4.25684632,1.79291559 4.18962623,1.51274354 C4.12125951,1.23276555 3.83864936,1.06257605 3.55998745,1.12775648 C2.38500806,1.41099003 1.56453816,2.45394616 1.56453816,3.66355914 C1.56453816,4.32360622 1.81563173,4.94243932 2.24245617,5.41297136 C0.885234798,6.11631044 7.37682641e-08,7.52298859 7.37682641e-08,9.11461015 L7.37682641e-08,9.92129587 C-7.34651067e-05,10.0596202 0.0548383386,10.1923012 0.152641903,10.2901178 C0.250445467,10.3879343 0.383119198,10.4428637 0.521443501,10.4428086 C0.659803799,10.4429189 0.792530946,10.3880138 0.890379473,10.2901913 C0.988228001,10.1923688 1.04316832,10.0596562 1.04309473,9.92129587 L1.04309473,9.11461015 C1.04309473,7.67212086 2.01276616,6.43466246 3.40413626,6.08423973 C3.57730425,6.05985768 3.73474857,5.95443301 3.81011128,5.78271964 L3.81011128,5.78271964 Z M12.3583063,5.41297136 C12.7851307,4.94243932 13.0359472,4.32360622 13.0359472,3.66348988 C13.0359472,2.48546273 12.2424915,1.44957186 11.1064403,1.14451914 C10.8289559,1.07005691 10.5426053,1.23470503 10.4671734,1.51267427 C10.3924012,1.790854 10.557194,2.07700114 10.8353285,2.1519412 C11.5169177,2.33473732 11.9929911,2.95654891 11.9929911,3.66355914 C11.9929911,4.28066056 11.6288535,4.83992388 11.0650185,5.09219499 C11.0024052,5.11922062 10.9458342,5.15850471 10.8986387,5.20773267 C10.8944827,5.21230431 10.8895647,5.21535206 10.8854087,5.22006223 C10.8527838,5.25615044 10.8294408,5.29791856 10.8074138,5.34328857 C10.7969545,5.365177 10.7852483,5.38554156 10.7774211,5.40833046 C10.7738885,5.42003662 10.7651608,5.42924915 10.7621824,5.44144018 C10.7570566,5.46291301 10.7621824,5.4832083 10.7601043,5.50461186 C10.7539209,5.54457132 10.7525489,5.58512785 10.7560176,5.62541384 C10.7584419,5.646194 10.7641911,5.66510395 10.7692476,5.68491436 C10.7763129,5.71760848 10.7763129,5.7511338 10.7906512,5.78271964 C10.8660831,5.95436374 11.0233889,6.05978841 11.1965569,6.08423973 C12.587927,6.43466246 13.5575985,7.67212086 13.5575985,9.11447161 L13.5575985,9.92129587 C13.5575433,10.0596506 13.6124895,10.1923524 13.710334,10.290171 C13.8081786,10.3879895 13.940895,10.4429005 14.0792497,10.4428086 C14.217574,10.4428637 14.3502477,10.3879343 14.4480513,10.2901178 C14.5458548,10.1923012 14.6007666,10.0596202 14.6006931,9.92129587 L14.6006931,9.11447161 C14.6007624,7.52298859 13.7156662,6.11637971 12.3583063,5.41297136 L12.3583063,5.41297136 Z" id="Shape" fill="#00B8B1" fill-rule="nonzero"></path>
            <g id="钱包" transform="translate(0.000000, 32.000000)" fill-rule="nonzero">
                <use id="Shape" stroke="#00B8B1" mask="url(#mask-2)" stroke-width="2" xlink:href="#path-1"></use>
                <polygon id="Shape" fill="#00B8B1" points="5.81431749 6.46369666 4.61932053 6.46369666 6.13870981 9.0586087 4.79003842 9.0586087 4.79003842 9.77560971 6.29234176 9.77560971 6.29234176 10.0145865 4.81220627 10.0128736 4.78999596 10.5779555 6.29229929 10.5779555 6.29229929 11.5169181 7.40195147 11.5169181 7.40195147 10.5779555 8.93841254 10.559185 8.92134075 9.96509808 7.38487968 9.9463276 7.38487968 9.72439434 8.92134075 9.72439434 8.92134075 9.05689585 7.55559757 9.07566633 9.04085743 6.46369666 7.84586047 6.46369666 6.92399798 8.64888574"></polygon>
            </g>
            <g id="Group" transform="translate(0.000000, 66.012325)" fill-rule="nonzero" fill="#00B8B1">
                <path d="M7.00014326,11.8595901 C6.83952224,11.859689 6.68617166,11.7926436 6.57717397,11.6746664 L0.159212396,4.72216237 C-0.0110178759,4.53758058 -0.042063132,4.26399281 0.082480804,4.04596164 L2.22179656,0.302445598 C2.3242774,0.123129802 2.51496299,0.0124523382 2.72149744,0.012409922 L11.2784882,0.012409922 C11.4850219,0.0124553218 11.6757061,0.12313198 11.7781891,0.302445598 L13.9175049,4.04597596 C14.0420146,4.26406502 14.0110985,4.53723866 13.8407733,4.7221767 L7.42311255,11.6746664 C7.31411279,11.7926407 7.16076356,11.8596855 7.00014326,11.8595901 L7.00014326,11.8595901 Z M1.29126124,4.25112839 L7.00014326,10.4352563 L12.7087388,4.25112839 L10.9446141,1.16357004 L3.05538587,1.16357004 L1.29126124,4.25112839 L1.29126124,4.25112839 Z" id="Shape"></path>
                <path d="M9.59024996,3.72950829 L4.41002225,3.72950829 C4.09216492,3.72950829 3.83443502,3.47206492 3.83443502,3.15392106 C3.83443502,2.83577721 4.09215059,2.57833384 4.41002225,2.57833384 L9.59024996,2.57833384 C9.90810729,2.57833384 10.1658372,2.83577721 10.1658372,3.15392106 C10.1658372,3.47206492 9.90812161,3.72950829 9.59024996,3.72950829 L9.59024996,3.72950829 Z" id="Shape"></path>
            </g>
            <g id="Group-Copy" transform="translate(0.000000, 98.024650)">
                <path d="M57.7122857,16.0855714 L40.7031429,33.1005714 L48.2588571,40.6562857 L65.268,23.6412857 C68.9638571,19.9454286 74.9088571,19.8751429 78.5168571,23.489 C82.1248571,27.097 82.0545714,33.042 78.3587143,36.7378571 L61.3495714,53.747 L68.9052857,61.3027143 L85.9202857,44.2935714 C93.8801429,36.3337143 94.0265714,23.5358571 86.2541429,15.7575714 C78.4758571,7.97928571 65.6721429,8.12571429 57.7122857,16.0855714 Z" id="Path" fill="#2E4050"></path>
                <path d="M19.9749335,13.2910843 C19.9749335,11.6391507 21.3214506,10.2999939 22.9749335,10.2999939 C24.6317877,10.2999939 25.9749335,11.6417646 25.9749335,13.2910843 L25.9749335,31.3089035 C25.9749335,32.9608371 24.6284164,34.2999939 22.9749335,34.2999939 C21.3180792,34.2999939 19.9749335,32.9582233 19.9749335,31.3089035 L19.9749335,13.2910843 Z M37.5193315,22.8977316 C38.6941377,21.7229253 40.5986377,21.7226881 41.7678267,22.891877 C42.9393996,24.0634499 42.9340133,25.9683312 41.7619722,27.1403722 L34.3447491,34.5575954 C33.1699428,35.7324016 31.2654428,35.7326389 30.0962538,34.5634499 C28.924681,33.391877 28.9300673,31.4869958 30.1021084,30.3149547 L37.5193315,22.8977316 Z M8.21838444,22.3008042 L16.2375792,30.3199989 C17.4076215,31.4900413 17.4099623,33.391877 16.2383895,34.5634499 C15.0692005,35.7326389 13.1669589,35.73466 11.9949385,34.5626396 L3.97574375,26.5434449 C2.80570143,25.3734026 2.80336061,23.4715668 3.97493349,22.2999939 C5.14412245,21.130805 7.04636407,21.1287838 8.21838444,22.3008042 Z" id="Combined-Shape" fill="#FFC636" opacity="0.187325093" transform="translate(22.870496, 22.870496) rotate(-45.000000) translate(-22.870496, -22.870496) "></path>
                <path d="M75.9749335,69.2910843 C75.9749335,67.6391507 77.3214506,66.2999939 78.9749335,66.2999939 C80.6317877,66.2999939 81.9749335,67.6417646 81.9749335,69.2910843 L81.9749335,87.3089035 C81.9749335,88.9608371 80.6284164,90.2999939 78.9749335,90.2999939 C77.3180792,90.2999939 75.9749335,88.9582233 75.9749335,87.3089035 L75.9749335,69.2910843 Z M93.5193315,78.8977316 C94.6941377,77.7229253 96.5986377,77.7226881 97.7678267,78.891877 C98.9393996,80.0634499 98.9340133,81.9683312 97.7619722,83.1403722 L90.3447491,90.5575954 C89.1699428,91.7324016 87.2654428,91.7326389 86.0962538,90.5634499 C84.924681,89.391877 84.9300673,87.4869958 86.1021084,86.3149547 L93.5193315,78.8977316 Z M64.2183844,78.3008042 L72.2375792,86.3199989 C73.4076215,87.4900413 73.4099623,89.391877 72.2383895,90.5634499 C71.0692005,91.7326389 69.1669589,91.73466 67.9949385,90.5626396 L59.9757437,82.5434449 C58.8057014,81.3734026 58.8033606,79.4715668 59.9749335,78.2999939 C61.1441224,77.130805 63.0463641,77.1287838 64.2183844,78.3008042 Z" id="Combined-Shape-Copy" fill="#FFC636" opacity="0.187325093" transform="translate(78.870496, 78.870496) scale(-1, -1) rotate(-45.000000) translate(-78.870496, -78.870496) "></path>
                <path d="M15.7517143,86.2482857 C23.5241429,94.0207143 36.3278571,93.8742857 44.2877143,85.9144286 L61.2968571,68.8994286 L53.7411429,61.3437143 L36.732,78.3587143 C33.0361429,82.0545714 27.0911429,82.1248571 23.4831429,78.511 C19.8751429,74.903 19.9454286,68.958 23.6354286,65.2621429 L40.6504286,48.2471429 L33.0947143,40.6914286 L16.0855714,57.7122857 C8.12571429,65.6721429 7.97928571,78.4758571 15.7517143,86.2482857 Z" id="Path" fill="#2E4050"></path>
            </g>
        </g>
    </g>
</svg>
