<?xml version="1.0" encoding="UTF-8" standalone="no"?>
<svg width="343px" height="971px" viewBox="0 0 343 971" version="1.1" xmlns="http://www.w3.org/2000/svg" xmlns:xlink="http://www.w3.org/1999/xlink">
    <!-- Generator: Sketch 42 (36781) - http://www.bohemiancoding.com/sketch -->
    <title>Group 21@3x</title>
    <desc>Created with Sketch.</desc>
    <defs>
        <path d="M176,56 L176,64.0001592 C176,66.2092103 174.200738,68 171.993311,68 L4.00668907,68 C1.7938558,68 5.32907052e-14,66.2161177 5.32907052e-14,64.0001592 L5.32907052e-14,56 C3.3137085,56 6,53.3137085 6,50 C6,46.6862915 3.3137085,44 5.32907052e-14,44 L5.32907052e-14,3.9998408 C5.32907052e-14,1.79078973 1.79926232,-5.15143483e-14 4.00668907,-5.15143483e-14 L171.993311,-5.15143483e-14 C174.206144,-5.15143483e-14 176,1.7838823 176,3.9998408 L176,44 C172.686292,44 170,46.6862915 170,50 C170,53.3137085 172.686292,56 176,56 Z" id="path-1"></path>
        <filter x="-50%" y="-50%" width="200%" height="200%" filterUnits="objectBoundingBox" id="filter-2">
            <feOffset dx="0" dy="2" in="SourceAlpha" result="shadowOffsetOuter1"></feOffset>
            <feGaussianBlur stdDeviation="2" in="shadowOffsetOuter1" result="shadowBlurOuter1"></feGaussianBlur>
            <feColorMatrix values="0 0 0 0 0.0554180535   0 0 0 0 0.398230294   0 0 0 0 0.515040391  0 0 0 0.517040308 0" type="matrix" in="shadowBlurOuter1"></feColorMatrix>
        </filter>
        <rect id="path-3" x="11" y="50" width="154" height="1"></rect>
        <mask id="mask-4" maskContentUnits="userSpaceOnUse" maskUnits="objectBoundingBox" x="0" y="0" width="154" height="1" fill="white">
            <use xlink:href="#path-3"></use>
        </mask>
        <filter x="-50%" y="-50%" width="200%" height="200%" filterUnits="objectBoundingBox" id="filter-5">
            <feOffset dx="0" dy="2" in="SourceAlpha" result="shadowOffsetOuter1"></feOffset>
            <feGaussianBlur stdDeviation="2" in="shadowOffsetOuter1" result="shadowBlurOuter1"></feGaussianBlur>
            <feColorMatrix values="0 0 0 0 0.518548044   0 0 0 0 0.47781942   0 0 0 0 0.0501688685  0 0 0 0.635954484 0" type="matrix" in="shadowBlurOuter1" result="shadowMatrixOuter1"></feColorMatrix>
            <feMerge>
                <feMergeNode in="shadowMatrixOuter1"></feMergeNode>
                <feMergeNode in="SourceGraphic"></feMergeNode>
            </feMerge>
        </filter>
        <rect id="path-6" x="11" y="50" width="154" height="1"></rect>
        <mask id="mask-7" maskContentUnits="userSpaceOnUse" maskUnits="objectBoundingBox" x="0" y="0" width="154" height="1" fill="white">
            <use xlink:href="#path-6"></use>
        </mask>
        <filter x="-50%" y="-50%" width="200%" height="200%" filterUnits="objectBoundingBox" id="filter-8">
            <feOffset dx="0" dy="2" in="SourceAlpha" result="shadowOffsetOuter1"></feOffset>
            <feGaussianBlur stdDeviation="2" in="shadowOffsetOuter1" result="shadowBlurOuter1"></feGaussianBlur>
            <feColorMatrix values="0 0 0 0 0.0514600318   0 0 0 0 0.58458227   0 0 0 0 0.505181086  0 0 0 0.553725091 0" type="matrix" in="shadowBlurOuter1" result="shadowMatrixOuter1"></feColorMatrix>
            <feMerge>
                <feMergeNode in="shadowMatrixOuter1"></feMergeNode>
                <feMergeNode in="SourceGraphic"></feMergeNode>
            </feMerge>
        </filter>
        <path d="M176,56 L176,64.0001592 C176,66.2092103 174.200738,68 171.993311,68 L4.00668907,68 C1.7938558,68 0,66.2161177 0,64.0001592 L0,56 C3.3137085,56 6,53.3137085 6,50 C6,46.6862915 3.3137085,44 0,44 L0,3.9998408 C0,1.79078973 1.79926232,-1.59161573e-12 4.00668907,-1.59161573e-12 L171.993311,-1.59161573e-12 C174.206144,-1.59161573e-12 176,1.7838823 176,3.9998408 L176,44 C172.686292,44 170,46.6862915 170,50 C170,53.3137085 172.686292,56 176,56 Z" id="path-9"></path>
        <rect id="path-11" x="11" y="50" width="154" height="1"></rect>
        <mask id="mask-12" maskContentUnits="userSpaceOnUse" maskUnits="objectBoundingBox" x="0" y="0" width="154" height="1" fill="white">
            <use xlink:href="#path-11"></use>
        </mask>
        <linearGradient x1="50%" y1="0%" x2="50%" y2="50%" id="linearGradient-13">
            <stop stop-color="#FFFFFF" stop-opacity="0" offset="0%"></stop>
            <stop stop-color="#FFFFFF" offset="100%"></stop>
        </linearGradient>
        <rect id="path-14" x="0" y="0" width="196" height="70"></rect>
        <filter x="-50%" y="-50%" width="200%" height="200%" filterUnits="objectBoundingBox" id="filter-16">
            <feGaussianBlur stdDeviation="3" in="SourceGraphic"></feGaussianBlur>
        </filter>
        <rect id="path-17" x="11.4265166" y="-2.72702848" width="154" height="1"></rect>
        <filter x="-50%" y="-50%" width="200%" height="200%" filterUnits="objectBoundingBox" id="filter-18">
            <feGaussianBlur stdDeviation="3" in="SourceGraphic"></feGaussianBlur>
        </filter>
        <mask id="mask-19" maskContentUnits="userSpaceOnUse" maskUnits="objectBoundingBox" x="0" y="0" width="154" height="1" fill="white">
            <use xlink:href="#path-17"></use>
        </mask>
        <filter x="-50%" y="-50%" width="200%" height="200%" filterUnits="objectBoundingBox" id="filter-20">
            <feGaussianBlur stdDeviation="3" in="SourceGraphic"></feGaussianBlur>
        </filter>
        <filter x="-50%" y="-50%" width="200%" height="200%" filterUnits="objectBoundingBox" id="filter-21">
            <feGaussianBlur stdDeviation="3" in="SourceGraphic"></feGaussianBlur>
        </filter>
        <filter x="-50%" y="-50%" width="200%" height="200%" filterUnits="objectBoundingBox" id="filter-22">
            <feGaussianBlur stdDeviation="3" in="SourceGraphic"></feGaussianBlur>
        </filter>
        <filter x="-50%" y="-50%" width="200%" height="200%" filterUnits="objectBoundingBox" id="filter-23">
            <feGaussianBlur stdDeviation="3" in="SourceGraphic"></feGaussianBlur>
        </filter>
        <rect id="path-24" x="13.6541771" y="-3.76472546" width="154" height="1"></rect>
        <filter x="-50%" y="-50%" width="200%" height="200%" filterUnits="objectBoundingBox" id="filter-25">
            <feGaussianBlur stdDeviation="3" in="SourceGraphic"></feGaussianBlur>
        </filter>
        <mask id="mask-26" maskContentUnits="userSpaceOnUse" maskUnits="objectBoundingBox" x="0" y="0" width="154" height="1" fill="white">
            <use xlink:href="#path-24"></use>
        </mask>
        <filter x="-50%" y="-50%" width="200%" height="200%" filterUnits="objectBoundingBox" id="filter-27">
            <feGaussianBlur stdDeviation="3" in="SourceGraphic"></feGaussianBlur>
        </filter>
        <filter x="-50%" y="-50%" width="200%" height="200%" filterUnits="objectBoundingBox" id="filter-28">
            <feGaussianBlur stdDeviation="3" in="SourceGraphic"></feGaussianBlur>
        </filter>
        <filter x="-50%" y="-50%" width="200%" height="200%" filterUnits="objectBoundingBox" id="filter-29">
            <feGaussianBlur stdDeviation="3" in="SourceGraphic"></feGaussianBlur>
        </filter>
        <filter x="-50%" y="-50%" width="200%" height="200%" filterUnits="objectBoundingBox" id="filter-30">
            <feGaussianBlur stdDeviation="3" in="SourceGraphic"></feGaussianBlur>
        </filter>
        <path d="M176,56 L176,64.0001592 C176,66.2092103 174.200738,68 171.993311,68 L4.00668907,68 C1.7938558,68 1.42108547e-14,66.2161177 1.42108547e-14,64.0001592 L1.42108547e-14,56 C3.3137085,56 6,53.3137085 6,50 C6,46.6862915 3.3137085,44 1.42108547e-14,44 L1.42108547e-14,3.9998408 C1.42108547e-14,1.79078973 1.79926232,-1.47082346e-12 4.00668907,-1.47082346e-12 L171.993311,-1.47082346e-12 C174.206144,-1.47082346e-12 176,1.7838823 176,3.9998408 L176,44 C172.686292,44 170,46.6862915 170,50 C170,53.3137085 172.686292,56 176,56 Z" id="path-31"></path>
        <rect id="path-33" x="15.0664984" y="-8.43168196" width="154" height="1"></rect>
        <filter x="-50%" y="-50%" width="200%" height="200%" filterUnits="objectBoundingBox" id="filter-34">
            <feGaussianBlur stdDeviation="3" in="SourceGraphic"></feGaussianBlur>
        </filter>
        <mask id="mask-35" maskContentUnits="userSpaceOnUse" maskUnits="objectBoundingBox" x="0" y="0" width="154" height="1" fill="white">
            <use xlink:href="#path-33"></use>
        </mask>
        <filter x="-50%" y="-50%" width="200%" height="200%" filterUnits="objectBoundingBox" id="filter-36">
            <feGaussianBlur stdDeviation="3" in="SourceGraphic"></feGaussianBlur>
        </filter>
        <filter x="-50%" y="-50%" width="200%" height="200%" filterUnits="objectBoundingBox" id="filter-37">
            <feGaussianBlur stdDeviation="3" in="SourceGraphic"></feGaussianBlur>
        </filter>
        <filter x="-50%" y="-50%" width="200%" height="200%" filterUnits="objectBoundingBox" id="filter-38">
            <feGaussianBlur stdDeviation="3" in="SourceGraphic"></feGaussianBlur>
        </filter>
        <rect id="path-39" x="0" y="81" width="189" height="70"></rect>
        <linearGradient x1="50%" y1="0%" x2="50%" y2="100%" id="linearGradient-41">
            <stop stop-color="#4EE8C2" offset="0%"></stop>
            <stop stop-color="#07758C" offset="100%"></stop>
        </linearGradient>
        <linearGradient x1="77.4816005%" y1="50%" x2="5.90218515%" y2="50%" id="linearGradient-42">
            <stop stop-color="#50E6E6" stop-opacity="0.410750679" offset="0%"></stop>
            <stop stop-color="#FFFFFF" stop-opacity="0" offset="100%"></stop>
        </linearGradient>
        <linearGradient x1="5.4684811%" y1="11.6459359%" x2="100%" y2="100%" id="linearGradient-43">
            <stop stop-color="#EEFEAF" stop-opacity="0.434103261" offset="0%"></stop>
            <stop stop-color="#FFFFFF" stop-opacity="0.249688632" offset="100%"></stop>
        </linearGradient>
        <linearGradient x1="5.4684811%" y1="11.6459359%" x2="100%" y2="100%" id="linearGradient-44">
            <stop stop-color="#FFFFFF" stop-opacity="0.434103261" offset="0%"></stop>
            <stop stop-color="#FFFFFF" stop-opacity="0.249688632" offset="100%"></stop>
        </linearGradient>
        <rect id="path-45" x="16" y="143" width="311" height="1"></rect>
        <mask id="mask-46" maskContentUnits="userSpaceOnUse" maskUnits="objectBoundingBox" x="0" y="0" width="311" height="1" fill="white">
            <use xlink:href="#path-45"></use>
        </mask>
    </defs>
    <g id="Page-1" stroke="none" stroke-width="1" fill="none" fill-rule="evenodd">
        <g id="Group-21">
            <g id="Group-13" transform="translate(0.000000, 220.000000)">
                <g id="优惠券图片-copy">
                    <g id="Group-33" transform="translate(4.000000, 0.000000)">
                        <g id="Group-32-Copy" transform="translate(94.339588, 63.368894) rotate(21.000000) translate(-94.339588, -63.368894) translate(6.339588, 29.368894)">
                            <g id="Combined-Shape">
                                <use fill="black" fill-opacity="1" filter="url(#filter-2)" xlink:href="#path-1"></use>
                                <use fill="#4AD1FF" fill-rule="evenodd" xlink:href="#path-1"></use>
                            </g>
                            <use id="Rectangle-48" stroke="#FFFFFF" mask="url(#mask-4)" stroke-width="2" stroke-dasharray="4" opacity="0.418435168" xlink:href="#path-3"></use>
                            <text id="120" font-family="SourceHanSansCN-Medium, Source Han Sans CN" font-size="36" font-weight="400" fill="#FFFFFF">
                                <tspan x="12" y="38">120</tspan>
                            </text>
                            <path d="M147.652913,29.909826 C148.011127,29.7328416 148.443997,29.880665 148.62212,30.2393444 C148.798363,30.5980238 148.650882,31.0313999 148.292669,31.2079357 L144.507813,33.0737862 L144.475382,33.0890396 C144.299273,33.1738306 144.069351,33.242471 143.850925,33.2483031 L143.829901,33.2483031 C143.623016,33.2500977 143.416131,33.2002998 143.234206,33.0758051 C143.02164,32.9297761 142.870312,32.7115178 142.822449,32.4008418 C142.793686,32.1955938 142.818557,31.9423424 142.926003,31.6296475 L142.923901,31.6296475 L144.270421,27.6081318 C143.583025,26.5453283 143.033136,25.3813587 142.650141,24.1426924 C142.243976,22.8291049 142.025594,21.4385775 142.025594,20.0020655 C142.025594,16.1357756 143.590406,12.6357917 146.120667,10.1024252 C148.650927,7.56905872 152.146502,6.00217498 156.00794,6.00217498 C159.867185,6.00217498 163.36276,7.56901388 165.892976,10.1024252 C168.423236,12.635702 169.988182,16.1358204 169.988182,20.0020655 C169.988182,23.8661123 168.423236,27.3663204 165.892976,29.8994626 C163.362715,32.4330983 159.86714,33.9999372 156.00794,33.9999372 C155.163312,33.9999372 154.328033,33.921427 153.504429,33.7738279 C152.667405,33.6224154 151.859189,33.3976519 151.08904,33.1060427 C150.715663,32.9665189 150.528012,32.5483961 150.667665,32.174239 C150.809376,31.8003062 151.226904,31.6103116 151.600549,31.7525272 C152.297696,32.0149755 153.019982,32.2166345 153.759311,32.3507748 C154.477348,32.481326 155.23032,32.5483961 156.007984,32.5483961 C159.466879,32.5483961 162.600573,31.1446341 164.868481,28.873671 C167.136165,26.6031566 168.538287,23.4656655 168.538287,20.0020206 C168.538287,16.5365813 167.136165,13.3990901 164.868481,11.1283514 C162.600573,8.85783695 159.466879,7.4539852 156.007984,7.4539852 C152.546853,7.4539852 149.413293,8.85783695 147.145519,11.1283514 C144.877835,13.3990901 143.475624,16.5365812 143.475624,20.0020206 C143.475624,21.2987845 143.670968,22.546872 144.030971,23.7166737 C144.402693,24.9136175 144.948512,26.0372103 145.64199,27.0558239 C145.802802,27.2628664 145.841137,27.5446058 145.73378,27.7902305 L144.504234,31.460918 L147.652913,29.909826 Z M149.660258,20.8365614 C149.660258,20.4357109 149.985906,20.1113517 150.386123,20.1113517 C150.78455,20.1113517 151.110198,20.4357108 151.110198,20.8365614 C151.110198,22.1920958 151.65794,23.4179762 152.542827,24.3037953 L152.54484,24.3037953 C153.429503,25.1898387 154.655381,25.740083 156.00785,25.740083 C157.358306,25.740083 158.583961,25.1898387 159.468982,24.3037953 L159.505214,24.2694751 C160.371001,23.3850019 160.90331,22.1732533 160.90331,20.8365614 C160.90331,20.4357109 161.228959,20.1113517 161.627296,20.1113517 C162.028094,20.1113517 162.353519,20.4357108 162.353519,20.8365614 C162.353519,22.5680474 161.659951,24.1386996 160.535838,25.2856212 C160.522418,25.3010989 160.508551,25.3143335 160.493566,25.3295869 C159.345969,26.4787516 157.75821,27.1900539 156.00785,27.1900539 C154.255254,27.1900539 152.667271,26.4787516 151.520032,25.3295869 L151.520032,25.3277924 L151.520032,25.3259979 C150.370824,24.1772817 149.660258,22.589133 149.660258,20.8365614 L149.660258,20.8365614 Z M160.694681,17.558739 C160.694681,17.9595895 160.369256,18.2838141 159.968682,18.2838141 C159.568555,18.2838141 159.24492,17.9595895 159.24492,17.558739 C159.24492,16.8377015 159.536124,16.1858427 160.007151,15.713974 C160.480191,15.24224 161.131488,14.9488362 161.851672,14.9488362 C162.569842,14.9488362 163.221363,15.24224 163.692166,15.713974 C164.165206,16.1857978 164.456634,16.8376566 164.456634,17.558739 C164.456634,17.9595895 164.132775,18.2838141 163.732425,18.2838141 C163.33185,18.2838141 163.006649,17.9595895 163.006649,17.558739 C163.006649,17.238552 162.878493,16.9489616 162.667805,16.7399899 C162.458684,16.5309285 162.169492,16.4005119 161.851672,16.4005119 C161.531615,16.4005119 161.242423,16.5309734 161.033525,16.7399899 C160.822838,16.9489616 160.694681,17.238552 160.694681,17.558739 L160.694681,17.558739 Z M149.007172,17.558739 C149.007172,17.9595895 148.681658,18.2838141 148.282962,18.2838141 C147.882835,18.2838141 147.557321,17.9595895 147.557321,17.558739 C147.557321,16.8377015 147.850181,16.1858427 148.321432,15.713974 C148.792683,15.24224 149.443979,14.9488362 150.164029,14.9488362 C150.882289,14.9488362 151.535375,15.24224 152.006625,15.713974 C152.477742,16.1857978 152.768947,16.8376566 152.768947,17.558739 C152.768947,17.9595895 152.445222,18.2838141 152.044961,18.2838141 C151.644521,18.2838141 151.318962,17.9595895 151.318962,17.558739 C151.318962,17.238552 151.190715,16.9489616 150.981907,16.7399899 C150.773098,16.5309285 150.481938,16.4005119 150.163984,16.4005119 C149.844151,16.4005119 149.554735,16.5309734 149.346061,16.7399899 C149.137342,16.9489616 149.007172,17.238552 149.007172,17.558739 L149.007172,17.558739 Z" id="Shape" fill="#FFFFFF" opacity="0.261135728"></path>
                        </g>
                        <g id="Group-32-Copy" filter="url(#filter-5)" transform="translate(93.235346, 61.438417) rotate(9.000000) translate(-93.235346, -61.438417) translate(5.235346, 27.438417)">
                            <path d="M176,56 L176,64.0001592 C176,66.2092103 174.200738,68 171.993311,68 L4.00668907,68 C1.7938558,68 0,66.2161177 0,64.0001592 L0,56 C3.3137085,56 6,53.3137085 6,50 C6,46.6862915 3.3137085,44 0,44 L0,3.9998408 C0,1.79078973 1.79926232,0 4.00668907,0 L171.993311,0 C174.206144,0 176,1.7838823 176,3.9998408 L176,44 C172.686292,44 170,46.6862915 170,50 C170,53.3137085 172.686292,56 176,56 Z" id="Combined-Shape" fill="#FDE700"></path>
                            <use id="Rectangle-48" stroke="#FFFFFF" mask="url(#mask-7)" stroke-width="2" stroke-dasharray="4" opacity="0.418435168" xlink:href="#path-6"></use>
                            <text id="120" font-family="SourceHanSansCN-Medium, Source Han Sans CN" font-size="36" font-weight="400" fill="#FFFFFF">
                                <tspan x="12" y="38">120</tspan>
                            </text>
                            <path d="M147.652913,29.909826 C148.011127,29.7328416 148.443997,29.880665 148.62212,30.2393444 C148.798363,30.5980238 148.650882,31.0313999 148.292669,31.2079357 L144.507813,33.0737862 L144.475382,33.0890396 C144.299273,33.1738306 144.069351,33.242471 143.850925,33.2483031 L143.829901,33.2483031 C143.623016,33.2500977 143.416131,33.2002998 143.234206,33.0758051 C143.02164,32.9297761 142.870312,32.7115178 142.822449,32.4008418 C142.793686,32.1955938 142.818557,31.9423424 142.926003,31.6296475 L142.923901,31.6296475 L144.270421,27.6081318 C143.583025,26.5453283 143.033136,25.3813587 142.650141,24.1426924 C142.243976,22.8291049 142.025594,21.4385775 142.025594,20.0020655 C142.025594,16.1357756 143.590406,12.6357917 146.120667,10.1024252 C148.650927,7.56905872 152.146502,6.00217498 156.00794,6.00217498 C159.867185,6.00217498 163.36276,7.56901388 165.892976,10.1024252 C168.423236,12.635702 169.988182,16.1358204 169.988182,20.0020655 C169.988182,23.8661123 168.423236,27.3663204 165.892976,29.8994626 C163.362715,32.4330983 159.86714,33.9999372 156.00794,33.9999372 C155.163312,33.9999372 154.328033,33.921427 153.504429,33.7738279 C152.667405,33.6224154 151.859189,33.3976519 151.08904,33.1060427 C150.715663,32.9665189 150.528012,32.5483961 150.667665,32.174239 C150.809376,31.8003062 151.226904,31.6103116 151.600549,31.7525272 C152.297696,32.0149755 153.019982,32.2166345 153.759311,32.3507748 C154.477348,32.481326 155.23032,32.5483961 156.007984,32.5483961 C159.466879,32.5483961 162.600573,31.1446341 164.868481,28.873671 C167.136165,26.6031566 168.538287,23.4656655 168.538287,20.0020206 C168.538287,16.5365813 167.136165,13.3990901 164.868481,11.1283514 C162.600573,8.85783695 159.466879,7.4539852 156.007984,7.4539852 C152.546853,7.4539852 149.413293,8.85783695 147.145519,11.1283514 C144.877835,13.3990901 143.475624,16.5365812 143.475624,20.0020206 C143.475624,21.2987845 143.670968,22.546872 144.030971,23.7166737 C144.402693,24.9136175 144.948512,26.0372103 145.64199,27.0558239 C145.802802,27.2628664 145.841137,27.5446058 145.73378,27.7902305 L144.504234,31.460918 L147.652913,29.909826 Z M149.660258,20.8365614 C149.660258,20.4357109 149.985906,20.1113517 150.386123,20.1113517 C150.78455,20.1113517 151.110198,20.4357108 151.110198,20.8365614 C151.110198,22.1920958 151.65794,23.4179762 152.542827,24.3037953 L152.54484,24.3037953 C153.429503,25.1898387 154.655381,25.740083 156.00785,25.740083 C157.358306,25.740083 158.583961,25.1898387 159.468982,24.3037953 L159.505214,24.2694751 C160.371001,23.3850019 160.90331,22.1732533 160.90331,20.8365614 C160.90331,20.4357109 161.228959,20.1113517 161.627296,20.1113517 C162.028094,20.1113517 162.353519,20.4357108 162.353519,20.8365614 C162.353519,22.5680474 161.659951,24.1386996 160.535838,25.2856212 C160.522418,25.3010989 160.508551,25.3143335 160.493566,25.3295869 C159.345969,26.4787516 157.75821,27.1900539 156.00785,27.1900539 C154.255254,27.1900539 152.667271,26.4787516 151.520032,25.3295869 L151.520032,25.3277924 L151.520032,25.3259979 C150.370824,24.1772817 149.660258,22.589133 149.660258,20.8365614 L149.660258,20.8365614 Z M160.694681,17.558739 C160.694681,17.9595895 160.369256,18.2838141 159.968682,18.2838141 C159.568555,18.2838141 159.24492,17.9595895 159.24492,17.558739 C159.24492,16.8377015 159.536124,16.1858427 160.007151,15.713974 C160.480191,15.24224 161.131488,14.9488362 161.851672,14.9488362 C162.569842,14.9488362 163.221363,15.24224 163.692166,15.713974 C164.165206,16.1857978 164.456634,16.8376566 164.456634,17.558739 C164.456634,17.9595895 164.132775,18.2838141 163.732425,18.2838141 C163.33185,18.2838141 163.006649,17.9595895 163.006649,17.558739 C163.006649,17.238552 162.878493,16.9489616 162.667805,16.7399899 C162.458684,16.5309285 162.169492,16.4005119 161.851672,16.4005119 C161.531615,16.4005119 161.242423,16.5309734 161.033525,16.7399899 C160.822838,16.9489616 160.694681,17.238552 160.694681,17.558739 L160.694681,17.558739 Z M149.007172,17.558739 C149.007172,17.9595895 148.681658,18.2838141 148.282962,18.2838141 C147.882835,18.2838141 147.557321,17.9595895 147.557321,17.558739 C147.557321,16.8377015 147.850181,16.1858427 148.321432,15.713974 C148.792683,15.24224 149.443979,14.9488362 150.164029,14.9488362 C150.882289,14.9488362 151.535375,15.24224 152.006625,15.713974 C152.477742,16.1857978 152.768947,16.8376566 152.768947,17.558739 C152.768947,17.9595895 152.445222,18.2838141 152.044961,18.2838141 C151.644521,18.2838141 151.318962,17.9595895 151.318962,17.558739 C151.318962,17.238552 151.190715,16.9489616 150.981907,16.7399899 C150.773098,16.5309285 150.481938,16.4005119 150.163984,16.4005119 C149.844151,16.4005119 149.554735,16.5309734 149.346061,16.7399899 C149.137342,16.9489616 149.007172,17.238552 149.007172,17.558739 L149.007172,17.558739 Z" id="Shape" fill="#FFFFFF" opacity="0.261135728"></path>
                        </g>
                        <g id="Group-32" filter="url(#filter-8)" transform="translate(90.628429, 56.631106) rotate(-5.000000) translate(-90.628429, -56.631106) translate(2.628429, 22.631106)">
                            <g id="Path-4" transform="translate(-0.000000, -0.000000)">
                                <mask id="mask-10" fill="white">
                                    <use xlink:href="#path-9"></use>
                                </mask>
                                <use id="Mask" fill="#4FDCC7" xlink:href="#path-9"></use>
                                <path d="M140.255982,-37.1400484 L68.2751165,95.0864762 C68.2751165,95.0864762 268.465446,65.5845128 268.802588,61.7309548 C269.139731,57.8773968 221.122092,-73.8126654 221.122092,-73.8126654 L140.255982,-37.1400484 Z" fill-opacity="0.322973279" fill="#15BEA4" mask="url(#mask-10)"></path>
                            </g>
                            <use id="Rectangle-48" stroke="#FFFFFF" mask="url(#mask-12)" stroke-width="2" stroke-dasharray="4" opacity="0.418435168" xlink:href="#path-11"></use>
                            <path d="M147.652913,29.909826 C148.011127,29.7328416 148.443997,29.880665 148.62212,30.2393444 C148.798363,30.5980238 148.650882,31.0313999 148.292669,31.2079357 L144.507813,33.0737862 L144.475382,33.0890396 C144.299273,33.1738306 144.069351,33.242471 143.850925,33.2483031 L143.829901,33.2483031 C143.623016,33.2500977 143.416131,33.2002998 143.234206,33.0758051 C143.02164,32.9297761 142.870312,32.7115178 142.822449,32.4008418 C142.793686,32.1955938 142.818557,31.9423424 142.926003,31.6296475 L142.923901,31.6296475 L144.270421,27.6081318 C143.583025,26.5453283 143.033136,25.3813587 142.650141,24.1426924 C142.243976,22.8291049 142.025594,21.4385775 142.025594,20.0020655 C142.025594,16.1357756 143.590406,12.6357917 146.120667,10.1024252 C148.650927,7.56905872 152.146502,6.00217498 156.00794,6.00217498 C159.867185,6.00217498 163.36276,7.56901388 165.892976,10.1024252 C168.423236,12.635702 169.988182,16.1358204 169.988182,20.0020655 C169.988182,23.8661123 168.423236,27.3663204 165.892976,29.8994626 C163.362715,32.4330983 159.86714,33.9999372 156.00794,33.9999372 C155.163312,33.9999372 154.328033,33.921427 153.504429,33.7738279 C152.667405,33.6224154 151.859189,33.3976519 151.08904,33.1060427 C150.715663,32.9665189 150.528012,32.5483961 150.667665,32.174239 C150.809376,31.8003062 151.226904,31.6103116 151.600549,31.7525272 C152.297696,32.0149755 153.019982,32.2166345 153.759311,32.3507748 C154.477348,32.481326 155.23032,32.5483961 156.007984,32.5483961 C159.466879,32.5483961 162.600573,31.1446341 164.868481,28.873671 C167.136165,26.6031566 168.538287,23.4656655 168.538287,20.0020206 C168.538287,16.5365813 167.136165,13.3990901 164.868481,11.1283514 C162.600573,8.85783695 159.466879,7.4539852 156.007984,7.4539852 C152.546853,7.4539852 149.413293,8.85783695 147.145519,11.1283514 C144.877835,13.3990901 143.475624,16.5365812 143.475624,20.0020206 C143.475624,21.2987845 143.670968,22.546872 144.030971,23.7166737 C144.402693,24.9136175 144.948512,26.0372103 145.64199,27.0558239 C145.802802,27.2628664 145.841137,27.5446058 145.73378,27.7902305 L144.504234,31.460918 L147.652913,29.909826 Z M149.660258,20.8365614 C149.660258,20.4357109 149.985906,20.1113517 150.386123,20.1113517 C150.78455,20.1113517 151.110198,20.4357108 151.110198,20.8365614 C151.110198,22.1920958 151.65794,23.4179762 152.542827,24.3037953 L152.54484,24.3037953 C153.429503,25.1898387 154.655381,25.740083 156.00785,25.740083 C157.358306,25.740083 158.583961,25.1898387 159.468982,24.3037953 L159.505214,24.2694751 C160.371001,23.3850019 160.90331,22.1732533 160.90331,20.8365614 C160.90331,20.4357109 161.228959,20.1113517 161.627296,20.1113517 C162.028094,20.1113517 162.353519,20.4357108 162.353519,20.8365614 C162.353519,22.5680474 161.659951,24.1386996 160.535838,25.2856212 C160.522418,25.3010989 160.508551,25.3143335 160.493566,25.3295869 C159.345969,26.4787516 157.75821,27.1900539 156.00785,27.1900539 C154.255254,27.1900539 152.667271,26.4787516 151.520032,25.3295869 L151.520032,25.3277924 L151.520032,25.3259979 C150.370824,24.1772817 149.660258,22.589133 149.660258,20.8365614 L149.660258,20.8365614 Z M160.694681,17.558739 C160.694681,17.9595895 160.369256,18.2838141 159.968682,18.2838141 C159.568555,18.2838141 159.24492,17.9595895 159.24492,17.558739 C159.24492,16.8377015 159.536124,16.1858427 160.007151,15.713974 C160.480191,15.24224 161.131488,14.9488362 161.851672,14.9488362 C162.569842,14.9488362 163.221363,15.24224 163.692166,15.713974 C164.165206,16.1857978 164.456634,16.8376566 164.456634,17.558739 C164.456634,17.9595895 164.132775,18.2838141 163.732425,18.2838141 C163.33185,18.2838141 163.006649,17.9595895 163.006649,17.558739 C163.006649,17.238552 162.878493,16.9489616 162.667805,16.7399899 C162.458684,16.5309285 162.169492,16.4005119 161.851672,16.4005119 C161.531615,16.4005119 161.242423,16.5309734 161.033525,16.7399899 C160.822838,16.9489616 160.694681,17.238552 160.694681,17.558739 L160.694681,17.558739 Z M149.007172,17.558739 C149.007172,17.9595895 148.681658,18.2838141 148.282962,18.2838141 C147.882835,18.2838141 147.557321,17.9595895 147.557321,17.558739 C147.557321,16.8377015 147.850181,16.1858427 148.321432,15.713974 C148.792683,15.24224 149.443979,14.9488362 150.164029,14.9488362 C150.882289,14.9488362 151.535375,15.24224 152.006625,15.713974 C152.477742,16.1857978 152.768947,16.8376566 152.768947,17.558739 C152.768947,17.9595895 152.445222,18.2838141 152.044961,18.2838141 C151.644521,18.2838141 151.318962,17.9595895 151.318962,17.558739 C151.318962,17.238552 151.190715,16.9489616 150.981907,16.7399899 C150.773098,16.5309285 150.481938,16.4005119 150.163984,16.4005119 C149.844151,16.4005119 149.554735,16.5309734 149.346061,16.7399899 C149.137342,16.9489616 149.007172,17.238552 149.007172,17.558739 L149.007172,17.558739 Z" id="Shape" fill="#FFFFFF" opacity="0.261135728"></path>
                            <text id="Coupon" font-family="Futura-Medium, Futura" font-size="24" font-weight="400" fill-opacity="0.609658062" fill="#FFFFFF">
                                <tspan x="12.4357787" y="33.0190265">Coupon</tspan>
                            </text>
                        </g>
                        <text id="Coupon" transform="translate(33.865381, 86.684135) rotate(-5.000000) translate(-33.865381, -86.684135) " font-family="SourceHanSansCN-Light, Source Han Sans CN" font-size="10" font-weight="300" fill-opacity="0.409137228" fill="#FFFFFF">
                            <tspan x="15.3653806" y="90.6841352">Coupon</tspan>
                        </text>
                    </g>
                    <rect id="Mask" fill="#FFFFFF" x="0" y="81" width="196" height="70"></rect>
                    <g id="Group-33-Copy" opacity="0.148052705" transform="translate(0.000000, 81.000000)">
                        <mask id="mask-15" fill="white">
                            <use xlink:href="#path-14"></use>
                        </mask>
                        <use id="Mask" fill="url(#linearGradient-13)" xlink:href="#path-14"></use>
                        <path d="M182.339588,4.36889448 L182.339588,12.3690537 C182.339588,14.5781048 180.540326,16.3688945 178.332899,16.3688945 L10.3462769,16.3688945 C8.13344362,16.3688945 6.33958782,14.5850122 6.33958782,12.3690537 L6.33958782,4.36889448 C9.65329632,4.36889448 12.3395878,1.68260298 12.3395878,-1.63110552 C12.3395878,-4.94481402 9.65329632,-7.63110552 6.33958782,-7.63110552 L6.33958782,-47.6312647 C6.33958782,-49.8403158 8.13885013,-51.6311055 10.3462769,-51.6311055 L178.332899,-51.6311055 C180.545732,-51.6311055 182.339588,-49.8472232 182.339588,-47.6312647 L182.339588,-7.63110552 C179.025879,-7.63110552 176.339588,-4.94481402 176.339588,-1.63110552 C176.339588,1.68260298 179.025879,4.36889448 182.339588,4.36889448 Z" id="Combined-Shape" fill="#4AD1FF" filter="url(#filter-16)" mask="url(#mask-15)" transform="translate(94.339588, -17.631106) rotate(21.000000) translate(-94.339588, 17.631106) "></path>
                        <g id="Rectangle-48" opacity="0.418435168" filter="url(#filter-18)" mask="url(#mask-15)" transform="translate(88.426517, -2.227028) rotate(21.000000) translate(-88.426517, 2.227028) " stroke-width="2" stroke="#FFFFFF" stroke-dasharray="4">
                            <use mask="url(#mask-19)" xlink:href="#path-17"></use>
                        </g>
                        <text id="120" filter="url(#filter-21)" mask="url(#mask-15)" transform="translate(55.912148, -43.093468) rotate(21.000000) translate(-55.912148, 43.093468) " font-family="SourceHanSansCN-Medium, Source Han Sans CN" font-size="36" font-weight="400" fill="#FFFFFF">
                            <tspan x="24.9121481" y="-29.0934675">120</tspan>
                        </text>
                        <path d="M154.492286,3.58001345 C154.850499,3.40302906 155.283369,3.55085252 155.461492,3.90953189 C155.637736,4.26821126 155.490254,4.70158744 155.132041,4.8781232 L151.347185,6.74397372 L151.314754,6.75922713 C151.138645,6.84401813 150.908723,6.91265846 150.690297,6.91849064 L150.669273,6.91849064 C150.462388,6.92028515 150.255503,6.87048726 150.073578,6.74599256 C149.861012,6.59996362 149.709684,6.38170532 149.661821,6.07102932 C149.633058,5.86578128 149.657929,5.61252987 149.765375,5.29983503 L149.763273,5.29983503 L151.109793,1.27831928 C150.422397,0.215515758 149.872508,-0.948453758 149.489514,-2.18712008 C149.083348,-3.50070757 148.864967,-4.89123501 148.864967,-6.32774701 C148.864967,-10.1940369 150.429778,-13.6940208 152.960039,-16.2273873 C155.490299,-18.7607538 158.985874,-20.3276375 162.847312,-20.3276375 C166.706557,-20.3276375 170.202132,-18.7607986 172.732348,-16.2273873 C175.262609,-13.6941105 176.827554,-10.1939921 176.827554,-6.32774701 C176.827554,-2.46370023 175.262608,1.03650791 172.732348,3.56965011 C170.202088,6.10328579 166.706512,7.67012469 162.847312,7.67012469 C162.002684,7.67012469 161.167405,7.59161452 160.343801,7.44401536 C159.506777,7.29260287 158.698561,7.06783944 157.928412,6.77623021 C157.555035,6.6367064 157.367384,6.21858361 157.507037,5.84442652 C157.648748,5.47049374 158.066276,5.28049911 158.439921,5.4227147 C159.137068,5.68516302 159.859354,5.88682202 160.598683,6.02096226 C161.31672,6.15151346 162.069692,6.21858361 162.847356,6.21858361 C166.306251,6.21858361 169.439945,4.81482157 171.707853,2.54385852 C173.975537,0.273344098 175.377659,-2.86414704 175.377659,-6.32779188 C175.377659,-9.79323124 173.975537,-12.9307224 171.707853,-15.2014611 C169.439945,-17.4719756 166.306251,-18.8758273 162.847356,-18.8758273 C159.386225,-18.8758273 156.252665,-17.4719756 153.984891,-15.2014611 C151.717207,-12.9307224 150.314996,-9.79323127 150.314996,-6.32779188 C150.314996,-5.03102802 150.51034,-3.78294046 150.870343,-2.61313877 C151.242065,-1.41619499 151.787884,-0.292602156 152.481362,0.726011375 C152.642174,0.93305393 152.680509,1.21479332 152.573152,1.46041804 L151.343606,5.13110547 L154.492286,3.58001345 Z M156.49963,-5.49325109 C156.49963,-5.89410163 156.825278,-6.21846085 157.225495,-6.21846085 C157.623922,-6.21846085 157.94957,-5.89410166 157.94957,-5.49325109 C157.94957,-4.13771673 158.497312,-2.91183634 159.382199,-2.02601721 L159.384212,-2.02601721 C160.268875,-1.13997376 161.494753,-0.589729543 162.847222,-0.589729543 C164.197679,-0.589729543 165.423333,-1.13997376 166.308354,-2.02601721 L166.344587,-2.06033737 C167.210373,-2.94481064 167.742682,-4.1565592 167.742682,-5.49325109 C167.742682,-5.89410163 168.068331,-6.21846085 168.466668,-6.21846085 C168.867466,-6.21846085 169.192891,-5.89410166 169.192891,-5.49325109 C169.192891,-3.76176513 168.499323,-2.1911129 167.37521,-1.04419131 C167.36179,-1.0287136 167.347923,-1.015479 167.332938,-1.00022562 C166.185341,0.148939113 164.597582,0.860241351 162.847222,0.860241351 C161.094626,0.860241351 159.506643,0.148939113 158.359404,-1.00022562 L158.359404,-1.00202014 L158.359404,-1.00381465 C157.210196,-2.15253076 156.49963,-3.74067955 156.49963,-5.49325109 L156.49963,-5.49325109 Z M167.534053,-8.77107355 C167.534053,-8.37022301 167.208628,-8.04599838 166.808054,-8.04599838 C166.407927,-8.04599838 166.084292,-8.37022298 166.084292,-8.77107355 C166.084292,-9.49211104 166.375496,-10.1439699 166.846523,-10.6158385 C167.319563,-11.0875725 167.97086,-11.3809763 168.691044,-11.3809763 C169.409214,-11.3809763 170.060735,-11.0875725 170.531538,-10.6158385 C171.004578,-10.1440147 171.296006,-9.49215591 171.296006,-8.77107355 C171.296006,-8.37022301 170.972147,-8.04599838 170.571797,-8.04599838 C170.171223,-8.04599838 169.846022,-8.37022298 169.846022,-8.77107355 C169.846022,-9.0912605 169.717865,-9.38085091 169.507177,-9.58982259 C169.298056,-9.79888399 169.008864,-9.92930061 168.691044,-9.92930061 C168.370987,-9.92930061 168.081795,-9.79883912 167.872897,-9.58982259 C167.66221,-9.38085091 167.534053,-9.0912605 167.534053,-8.77107355 L167.534053,-8.77107355 Z M155.846544,-8.77107355 C155.846544,-8.37022301 155.52103,-8.04599838 155.122335,-8.04599838 C154.722208,-8.04599838 154.396693,-8.37022298 154.396693,-8.77107355 C154.396693,-9.49211104 154.689553,-10.1439699 155.160804,-10.6158385 C155.632055,-11.0875725 156.283351,-11.3809763 157.003401,-11.3809763 C157.721661,-11.3809763 158.374747,-11.0875725 158.845998,-10.6158385 C159.317114,-10.1440147 159.608319,-9.49215591 159.608319,-8.77107355 C159.608319,-8.37022301 159.284594,-8.04599838 158.884333,-8.04599838 C158.483893,-8.04599838 158.158334,-8.37022298 158.158334,-8.77107355 C158.158334,-9.0912605 158.030088,-9.38085091 157.821279,-9.58982259 C157.61247,-9.79888399 157.32131,-9.92930061 157.003356,-9.92930061 C156.683523,-9.92930061 156.394107,-9.79883912 156.185433,-9.58982259 C155.976714,-9.38085091 155.846544,-9.0912605 155.846544,-8.77107355 L155.846544,-8.77107355 Z" id="Shape" fill="#FFFFFF" opacity="0.261135728" filter="url(#filter-22)" mask="url(#mask-15)" transform="translate(162.846260, -6.328756) rotate(21.000000) translate(-162.846260, 6.328756) "></path>
                        <path d="M181.235346,2.43841692 L181.235346,10.4385761 C181.235346,12.6476272 179.436083,14.4384169 177.228657,14.4384169 L9.24203486,14.4384169 C7.02920158,14.4384169 5.23534578,12.6545346 5.23534578,10.4385761 L5.23534578,2.43841692 C8.54905428,2.43841692 11.2353458,-0.247874576 11.2353458,-3.56158308 C11.2353458,-6.87529157 8.54905428,-9.56158308 5.23534578,-9.56158308 L5.23534578,-49.5617423 C5.23534578,-51.7707933 7.0346081,-53.5615831 9.24203486,-53.5615831 L177.228657,-53.5615831 C179.44149,-53.5615831 181.235346,-51.7777008 181.235346,-49.5617423 L181.235346,-9.56158308 C177.921637,-9.56158308 175.235346,-6.87529157 175.235346,-3.56158308 C175.235346,-0.247874576 177.921637,2.43841692 181.235346,2.43841692 Z" id="Combined-Shape" fill="#FDE700" filter="url(#filter-23)" mask="url(#mask-15)" transform="translate(93.235346, -19.561583) rotate(9.000000) translate(-93.235346, 19.561583) "></path>
                        <g id="Rectangle-48" opacity="0.418435168" filter="url(#filter-25)" mask="url(#mask-15)" transform="translate(90.654177, -3.264725) rotate(9.000000) translate(-90.654177, 3.264725) " stroke-width="2" stroke="#FFFFFF" stroke-dasharray="4">
                            <use mask="url(#mask-26)" xlink:href="#path-24"></use>
                        </g>
                        <text id="120" filter="url(#filter-28)" mask="url(#mask-15)" transform="translate(50.353715, -36.478017) rotate(9.000000) translate(-50.353715, 36.478017) " font-family="SourceHanSansCN-Medium, Source Han Sans CN" font-size="36" font-weight="400" fill="#FFFFFF">
                            <tspan x="19.3537151" y="-22.4780174">120</tspan>
                        </text>
                        <path d="M154.240899,-12.8407857 C154.599112,-13.0177701 155.031983,-12.8699466 155.210105,-12.5112673 C155.386349,-12.1525879 155.238868,-11.7192117 154.880655,-11.5426759 L151.095798,-9.67682543 L151.063368,-9.66157202 C150.887258,-9.57678102 150.657336,-9.50814068 150.43891,-9.50230851 L150.417886,-9.50230851 C150.211001,-9.50051399 150.004116,-9.55031188 149.822191,-9.67480658 C149.609625,-9.82083552 149.458297,-10.0390938 149.410434,-10.3497698 C149.381672,-10.5550179 149.406542,-10.8082693 149.513989,-11.1209641 L149.511886,-11.1209641 L150.858406,-15.1424799 C150.171011,-16.2052834 149.621121,-17.3692529 149.238127,-18.6079192 C148.831961,-19.9215067 148.61358,-21.3120342 148.61358,-22.7485462 C148.61358,-26.6148361 150.178392,-30.1148199 152.708652,-32.6481864 C155.238912,-35.1815529 158.734488,-36.7484367 162.595925,-36.7484367 C166.45517,-36.7484367 169.950746,-35.1815978 172.480961,-32.6481864 C175.011222,-30.1149096 176.576168,-26.6147912 176.576168,-22.7485462 C176.576168,-18.8844994 175.011222,-15.3842912 172.480961,-12.851149 C169.950701,-10.3175134 166.455126,-8.75067446 162.595925,-8.75067446 C161.751297,-8.75067446 160.916018,-8.82918463 160.092414,-8.97678378 C159.255391,-9.12819627 158.447175,-9.35295971 157.677025,-9.64456893 C157.303648,-9.78409274 157.115998,-10.2022155 157.255651,-10.5763726 C157.397361,-10.9503054 157.814889,-11.1403 158.188535,-10.9980844 C158.885681,-10.7356361 159.607968,-10.5339771 160.347297,-10.3998369 C161.065333,-10.2692857 161.818305,-10.2022155 162.59597,-10.2022155 C166.054865,-10.2022155 169.188559,-11.6059776 171.456466,-13.8769406 C173.724151,-16.147455 175.126272,-19.2849462 175.126272,-22.748591 C175.126272,-26.2140304 173.724151,-29.3515215 171.456466,-31.6222603 C169.188559,-33.8927747 166.054865,-35.2966264 162.59597,-35.2966264 C159.134838,-35.2966264 156.001278,-33.8927747 153.733505,-31.6222603 C151.465821,-29.3515215 150.063609,-26.2140304 150.063609,-22.748591 C150.063609,-21.4518272 150.258954,-20.2037396 150.618956,-19.0339379 C150.990678,-17.8369941 151.536497,-16.7134013 152.229976,-15.6947878 C152.390787,-15.4877452 152.429122,-15.2060058 152.321766,-14.9603811 L151.09222,-11.2896937 L154.240899,-12.8407857 Z M156.248243,-21.9140502 C156.248243,-22.3149008 156.573892,-22.63926 156.974108,-22.63926 C157.372535,-22.63926 157.698183,-22.3149008 157.698183,-21.9140502 C157.698183,-20.5585159 158.245926,-19.3326355 159.130812,-18.4468164 L159.132825,-18.4468164 C160.017488,-17.5607729 161.243366,-17.0105287 162.595836,-17.0105287 C163.946292,-17.0105287 165.171946,-17.5607729 166.056967,-18.4468164 L166.0932,-18.4811365 C166.958986,-19.3656098 167.491296,-20.5773583 167.491296,-21.9140502 C167.491296,-22.3149008 167.816944,-22.63926 168.215282,-22.63926 C168.61608,-22.63926 168.941504,-22.3149008 168.941504,-21.9140502 C168.941504,-20.1825643 168.247936,-18.611912 167.123823,-17.4649905 C167.110404,-17.4495127 167.096537,-17.4362781 167.081551,-17.4210248 C165.933954,-16.27186 164.346195,-15.5605578 162.595836,-15.5605578 C160.843239,-15.5605578 159.255257,-16.27186 158.108017,-17.4210248 L158.108017,-17.4228193 L158.108017,-17.4246138 C156.95881,-18.5733299 156.248243,-20.1614787 156.248243,-21.9140502 L156.248243,-21.9140502 Z M167.282666,-25.1918727 C167.282666,-24.7910222 166.957241,-24.4667975 166.556667,-24.4667975 C166.15654,-24.4667975 165.832905,-24.7910221 165.832905,-25.1918727 C165.832905,-25.9129102 166.12411,-26.564769 166.595137,-27.0366376 C167.068177,-27.5083716 167.719473,-27.8017754 168.439657,-27.8017754 C169.157828,-27.8017754 169.809348,-27.5083716 170.280151,-27.0366376 C170.753191,-26.5648139 171.04462,-25.9129551 171.04462,-25.1918727 C171.04462,-24.7910222 170.720761,-24.4667975 170.32041,-24.4667975 C169.919836,-24.4667975 169.594635,-24.7910221 169.594635,-25.1918727 C169.594635,-25.5120596 169.466478,-25.8016501 169.255791,-26.0106217 C169.046669,-26.2196831 168.757477,-26.3500998 168.439657,-26.3500998 C168.1196,-26.3500998 167.830408,-26.2196383 167.62151,-26.0106217 C167.410823,-25.8016501 167.282666,-25.5120596 167.282666,-25.1918727 L167.282666,-25.1918727 Z M155.595157,-25.1918727 C155.595157,-24.7910222 155.269643,-24.4667975 154.870948,-24.4667975 C154.470821,-24.4667975 154.145307,-24.7910221 154.145307,-25.1918727 C154.145307,-25.9129102 154.438167,-26.564769 154.909417,-27.0366376 C155.380668,-27.5083716 156.031965,-27.8017754 156.752014,-27.8017754 C157.470274,-27.8017754 158.12336,-27.5083716 158.594611,-27.0366376 C159.065727,-26.5648139 159.356932,-25.9129551 159.356932,-25.1918727 C159.356932,-24.7910222 159.033207,-24.4667975 158.632946,-24.4667975 C158.232506,-24.4667975 157.906947,-24.7910221 157.906947,-25.1918727 C157.906947,-25.5120596 157.778701,-25.8016501 157.569892,-26.0106217 C157.361084,-26.2196831 157.069924,-26.3500998 156.751969,-26.3500998 C156.432136,-26.3500998 156.142721,-26.2196383 155.934046,-26.0106217 C155.725327,-25.8016501 155.595157,-25.5120596 155.595157,-25.1918727 L155.595157,-25.1918727 Z" id="Shape" fill="#FFFFFF" opacity="0.261135728" filter="url(#filter-29)" mask="url(#mask-15)" transform="translate(162.594874, -22.749556) rotate(9.000000) translate(-162.594874, 22.749556) "></path>
                        <g id="Path-4" filter="url(#filter-30)" mask="url(#mask-15)">
                            <g transform="translate(90.628429, -24.368894) rotate(-5.000000) translate(-90.628429, 24.368894) translate(2.628429, -58.368894)">
                                <mask id="mask-32" fill="white">
                                    <use xlink:href="#path-31"></use>
                                </mask>
                                <use id="Mask" stroke="none" fill="#4FDCC7" fill-rule="evenodd" xlink:href="#path-31"></use>
                                <path d="M140.255982,-37.1400484 L68.2751165,95.0864762 C68.2751165,95.0864762 268.465446,65.5845128 268.802588,61.7309548 C269.139731,57.8773968 221.122092,-73.8126654 221.122092,-73.8126654 L140.255982,-37.1400484 Z" id="Path-4" stroke="none" fill-opacity="0.322973279" fill="#15BEA4" fill-rule="evenodd" mask="url(#mask-32)"></path>
                            </g>
                        </g>
                        <g id="Rectangle-48" opacity="0.418435168" filter="url(#filter-34)" mask="url(#mask-15)" transform="translate(92.066498, -7.931682) rotate(-5.000000) translate(-92.066498, 7.931682) " stroke-width="2" stroke="#FFFFFF" stroke-dasharray="4">
                            <use mask="url(#mask-35)" xlink:href="#path-33"></use>
                        </g>
                        <text id="120" filter="url(#filter-37)" mask="url(#mask-15)" transform="translate(44.928110, -30.408833) rotate(-5.000000) translate(-44.928110, 30.408833) " font-family="SourceHanSansCN-Medium, Source Han Sans CN" font-size="36" font-weight="400" fill="#FFFFFF">
                            <tspan x="13.9281098" y="-16.408833">120</tspan>
                        </text>
                        <path d="M148.802467,-34.3329892 C149.16068,-34.5099736 149.593551,-34.3621501 149.771673,-34.0034707 C149.947917,-33.6447914 149.800436,-33.2114152 149.442223,-33.0348794 L145.657366,-31.1690289 L145.624936,-31.1537755 C145.448826,-31.0689845 145.218904,-31.0003442 145.000478,-30.994512 L144.979454,-30.994512 C144.772569,-30.9927175 144.565684,-31.0425154 144.38376,-31.1670101 C144.171193,-31.313039 144.019865,-31.5312973 143.972002,-31.8419733 C143.94324,-32.0472214 143.968111,-32.3004728 144.075557,-32.6131676 L144.073454,-32.6131676 L145.419974,-36.6346834 C144.732579,-37.6974869 144.18269,-38.8614564 143.799695,-40.1001227 C143.393529,-41.4137102 143.175148,-42.8042376 143.175148,-44.2407496 C143.175148,-48.1070396 144.73996,-51.6070234 147.27022,-54.1403899 C149.800481,-56.6737564 153.296056,-58.2406402 157.157493,-58.2406402 C161.016739,-58.2406402 164.512314,-56.6738013 167.042529,-54.1403899 C169.57279,-51.6071131 171.137736,-48.1069947 171.137736,-44.2407496 C171.137736,-40.3767029 169.57279,-36.8764947 167.042529,-34.3433525 C164.512269,-31.8097169 161.016694,-30.2428779 157.157493,-30.2428779 C156.312865,-30.2428779 155.477586,-30.3213881 154.653982,-30.4689873 C153.816959,-30.6203998 153.008743,-30.8451632 152.238593,-31.1367724 C151.865216,-31.2762962 151.677566,-31.694419 151.817219,-32.0685761 C151.958929,-32.4425089 152.376457,-32.6325035 152.750103,-32.4902879 C153.44725,-32.2278396 154.169536,-32.0261806 154.908865,-31.8920404 C155.626901,-31.7614892 156.379874,-31.694419 157.157538,-31.694419 C160.616433,-31.694419 163.750127,-33.0981811 166.018035,-35.3691441 C168.285719,-37.6396585 169.68784,-40.7771497 169.68784,-44.2407945 C169.68784,-47.7062339 168.285719,-50.843725 166.018035,-53.1144638 C163.750127,-55.3849782 160.616433,-56.7888299 157.157538,-56.7888299 C153.696406,-56.7888299 150.562847,-55.3849782 148.295073,-53.1144638 C146.027389,-50.843725 144.625178,-47.7062339 144.625178,-44.2407945 C144.625178,-42.9440307 144.820522,-41.6959431 145.180524,-40.5261414 C145.552246,-39.3291976 146.098065,-38.2056048 146.791544,-37.1869913 C146.952355,-36.9799487 146.99069,-36.6982093 146.883334,-36.4525846 L145.653788,-32.7818972 L148.802467,-34.3329892 Z M150.809812,-43.4062537 C150.809812,-43.8071043 151.13546,-44.1314635 151.535676,-44.1314635 C151.934103,-44.1314635 152.259752,-43.8071043 152.259752,-43.4062537 C152.259752,-42.0507194 152.807494,-40.824839 153.692381,-39.9390199 L153.694393,-39.9390199 C154.579056,-39.0529764 155.804934,-38.5027322 157.157404,-38.5027322 C158.50786,-38.5027322 159.733514,-39.0529764 160.618535,-39.9390199 L160.654768,-39.97334 C161.520554,-40.8578133 162.052864,-42.0695618 162.052864,-43.4062537 C162.052864,-43.8071043 162.378512,-44.1314635 162.77685,-44.1314635 C163.177648,-44.1314635 163.503072,-43.8071043 163.503072,-43.4062537 C163.503072,-41.6747678 162.809504,-40.1041155 161.685391,-38.9571939 C161.671972,-38.9417162 161.658105,-38.9284816 161.64312,-38.9132283 C160.495522,-37.7640635 158.907763,-37.0527613 157.157404,-37.0527613 C155.404807,-37.0527613 153.816825,-37.7640635 152.669585,-38.9132283 L152.669585,-38.9150228 L152.669585,-38.9168173 C151.520378,-40.0655334 150.809812,-41.6536822 150.809812,-43.4062537 L150.809812,-43.4062537 Z M161.844234,-46.6840762 C161.844234,-46.2832256 161.51881,-45.959001 161.118235,-45.959001 C160.718108,-45.959001 160.394473,-46.2832256 160.394473,-46.6840762 C160.394473,-47.4051137 160.685678,-48.0569725 161.156705,-48.5288411 C161.629745,-49.0005751 162.281041,-49.2939789 163.001225,-49.2939789 C163.719396,-49.2939789 164.370916,-49.0005751 164.84172,-48.5288411 C165.314759,-48.0570174 165.606188,-47.4051585 165.606188,-46.6840762 C165.606188,-46.2832256 165.282329,-45.959001 164.881978,-45.959001 C164.481404,-45.959001 164.156203,-46.2832256 164.156203,-46.6840762 C164.156203,-47.0042631 164.028046,-47.2938535 163.817359,-47.5028252 C163.608237,-47.7118866 163.319045,-47.8423032 163.001225,-47.8423032 C162.681168,-47.8423032 162.391977,-47.7118418 162.183079,-47.5028252 C161.972391,-47.2938535 161.844234,-47.0042631 161.844234,-46.6840762 L161.844234,-46.6840762 Z M150.156726,-46.6840762 C150.156726,-46.2832256 149.831212,-45.959001 149.432516,-45.959001 C149.032389,-45.959001 148.706875,-46.2832256 148.706875,-46.6840762 C148.706875,-47.4051137 148.999735,-48.0569725 149.470985,-48.5288411 C149.942236,-49.0005751 150.593533,-49.2939789 151.313582,-49.2939789 C152.031843,-49.2939789 152.684928,-49.0005751 153.156179,-48.5288411 C153.627296,-48.0570174 153.9185,-47.4051585 153.9185,-46.6840762 C153.9185,-46.2832256 153.594775,-45.959001 153.194514,-45.959001 C152.794074,-45.959001 152.468515,-46.2832256 152.468515,-46.6840762 C152.468515,-47.0042631 152.340269,-47.2938535 152.13146,-47.5028252 C151.922652,-47.7118866 151.631492,-47.8423032 151.313538,-47.8423032 C150.993704,-47.8423032 150.704289,-47.7118418 150.495615,-47.5028252 C150.286895,-47.2938535 150.156726,-47.0042631 150.156726,-46.6840762 L150.156726,-46.6840762 Z" id="Shape" fill="#FFFFFF" opacity="0.261135728" filter="url(#filter-38)" mask="url(#mask-15)" transform="translate(157.156442, -44.241759) rotate(-5.000000) translate(-157.156442, 44.241759) "></path>
                        <text id="Coupon" mask="url(#mask-15)" transform="translate(33.865381, 5.684135) rotate(-5.000000) translate(-33.865381, -5.684135) " font-family="SourceHanSansCN-Light, Source Han Sans CN" font-size="10" font-weight="300" fill-opacity="0.409137228" fill="#FFFFFF">
                            <tspan x="15.3653806" y="9.68413515">Coupon</tspan>
                        </text>
                    </g>
                    <mask id="mask-40" fill="white">
                        <use xlink:href="#path-39"></use>
                    </mask>
                    <use id="Mask" fill="url(#linearGradient-13)" xlink:href="#path-39"></use>
                </g>
                <g id="diyiubu-copy" transform="translate(0.000000, 191.000000)">
                    <circle id="Oval-112" fill="#FFFFFF" cx="30" cy="30" r="30"></circle>
                    <path d="M18.3870968,33.7741935 C16.5164549,33.7741935 15,32.2577387 15,30.3870968 C15,28.5164549 16.5164549,27 18.3870968,27 C20.2577387,27 21.7741935,28.5164549 21.7741935,30.3870968 C21.7741935,32.2577387 20.2577387,33.7741935 18.3870968,33.7741935 Z M30,33.7741935 C28.1293581,33.7741935 26.6129032,32.2577387 26.6129032,30.3870968 C26.6129032,28.5164549 28.1293581,27 30,27 C31.8706419,27 33.3870968,28.5164549 33.3870968,30.3870968 C33.3870968,32.2577387 31.8706419,33.7741935 30,33.7741935 Z M41.6129032,33.7741935 C39.7422613,33.7741935 38.2258065,32.2577387 38.2258065,30.3870968 C38.2258065,28.5164549 39.7422613,27 41.6129032,27 C43.4835451,27 45,28.5164549 45,30.3870968 C45,32.2577387 43.4835451,33.7741935 41.6129032,33.7741935 Z" id="Icon-Copy" fill="#3D3D3D"></path>
                </g>
                <g id="Group-10-Copy" transform="translate(0.000000, 291.000000)">
                    <g id="dierbu">
                        <path d="M60,30 C60,46.5685714 46.5685714,60 30,60 C13.4314286,60 0,46.5685714 0,30 C0,13.4314286 13.4314286,0 30,0 C46.5685714,0 60,13.4314286 60,30" id="Fill-1" fill="#348BF4"></path>
                        <path d="M60,30 C60,46.5685714 46.5685714,60 30,60 C13.4314286,60 0,46.5685714 0,30 C0,13.4314286 13.4314286,0 30,0 C46.5685714,0 60,13.4314286 60,30" id="Fill-3" fill="#FFFFFF"></path>
                    </g>
                    <path d="M30.0327785,8.00658036 C29.1909709,8.00658036 28.3641253,8.05725893 27.5507159,8.15277232 C25.5571812,8.37783036 23.6463311,8.87474554 21.8500089,9.596375 C21.8500089,9.596375 36.6617181,24.2214643 37.056094,24.7651295 L37.056094,9.16894643 C36.6146667,9.01902232 36.1637405,8.88402679 35.7090738,8.7583125 C33.8998076,8.27269196 31.9962908,8.00658036 30.0327785,8.00658036 L30.0327785,8.00658036 Z" id="Shape" fill="#00B9B2"></path>
                    <path d="M45.5040447,14.3601607 C44.9102908,13.7677321 44.2882371,13.2201384 43.6458076,12.7123214 C42.0749978,11.4673571 40.3726801,10.4664063 38.5931902,9.71261161 C38.5931902,9.71261161 38.7022058,30.4979464 38.5931902,31.1616786 L49.6491499,20.132558 C49.4422908,19.7162277 49.2188949,19.3018125 48.9838345,18.8951071 C48.0462013,17.275308 46.8927025,15.7436071 45.5040447,14.3601607 L45.5040447,14.3601607 Z" id="Shape" fill="#00B9B2"></path>
                    <path d="M50.3571857,21.8629955 C50.3571857,21.8629955 35.7035123,36.6398259 35.1547919,37.0333705 L50.7876376,37.0333705 C50.9378971,36.5929286 51.0733423,36.1429107 51.1972215,35.6892589 C51.685651,33.8800536 51.9527025,31.9866295 51.9527025,30.0256339 C51.9527025,29.1875223 51.9000403,28.3607545 51.8040179,27.5490625 C51.578604,25.5599286 51.0826935,23.6533929 50.3571857,21.8629955 L50.3571857,21.8629955 Z" id="Shape" fill="#00B9B2"></path>
                    <path d="M28.6178389,38.6756607 L39.6735526,49.7048795 C40.0945056,49.4968125 40.5061074,49.2774509 40.9155928,49.0412946 C42.5390649,48.1093884 44.0723221,46.9565982 45.4628009,45.5692723 C46.0544385,44.9786607 46.6014362,44.3561786 47.1124564,43.715183 C48.3580895,42.1476339 49.3635436,40.4511295 50.1187293,38.6737455 C50.1188277,38.6737455 29.2850738,38.7826652 28.6178389,38.6756607 L28.6178389,38.6756607 Z" id="Shape" fill="#00B9B2"></path>
                    <path d="M22.9453826,35.2111518 L22.9453826,50.8090536 C23.3889754,50.9590268 23.8396555,51.0958884 24.2925503,51.2179196 C26.1039329,51.7053571 28.00366,51.9714687 29.9690917,51.9714687 C30.8069128,51.9714687 31.6355302,51.9189241 32.4473154,51.8252277 C34.4408993,51.5983527 36.3517987,51.1035982 38.1480224,50.3797098 C38.1498434,50.3797589 23.339906,35.7586473 22.9453826,35.2111518 L22.9453826,35.2111518 Z" id="Shape" fill="#00B9B2"></path>
                    <path d="M21.3895347,28.705683 L10.3375615,39.7347545 C10.5444206,40.156683 10.7680626,40.569183 11.002877,40.9740223 C11.9368188,42.5976027 13.0921879,44.1273393 14.4826667,45.5128973 C15.0745503,46.105375 15.6984251,46.6508571 16.3409038,47.1589687 C17.9134855,48.4057991 19.61034,49.404933 21.3953915,50.158433 C21.3953423,50.1584821 21.2825861,29.3712812 21.3895347,28.705683 L21.3895347,28.705683 Z" id="Shape" fill="#00B9B2"></path>
                    <path d="M8.80061298,24.2981696 C8.31395526,26.1055089 8.04724832,28.0009464 8.04724832,29.9619911 C8.04724832,30.7979911 8.0998613,31.6265759 8.19563758,32.4366473 C8.42119911,34.4275491 8.91528859,36.3342321 9.64434004,38.1227143 C9.64434004,38.1227143 24.2965369,23.3458348 24.8451588,22.9540089 L9.21034452,22.9540089 C9.06003579,23.3925848 8.92473826,23.8444196 8.80061298,24.2981696 L8.80061298,24.2981696 Z" id="Shape" fill="#00B9B2"></path>
                    <path d="M18.9789843,11.0211205 C17.351821,11.9547946 15.8185638,13.1078795 14.4317763,14.4912768 C13.8343311,15.0856696 13.2894497,15.7081027 12.7802506,16.3453661 C11.5325011,17.9129152 10.5292617,19.6112857 9.7721566,21.3904375 C9.7721566,21.3904375 30.6095034,21.2797991 31.2748188,21.3867054 L20.2208277,10.3575848 C19.8001208,10.5674196 19.3847785,10.7868795 18.9789843,11.0211205 L18.9789843,11.0211205 Z" id="Shape" fill="#00B9B2"></path>
                </g>
                <g id="Group-11-Copy" transform="translate(0.000000, 391.000000)">
                    <g id="dierbu-copy">
                        <path d="M60,30 C60,46.5685714 46.5685714,60 30,60 C13.4314286,60 0,46.5685714 0,30 C0,13.4314286 13.4314286,0 30,0 C46.5685714,0 60,13.4314286 60,30" id="Fill-1" fill="#348BF4"></path>
                        <path d="M60,30 C60,46.5685714 46.5685714,60 30,60 C13.4314286,60 0,46.5685714 0,30 C0,13.4314286 13.4314286,0 30,0 C46.5685714,0 60,13.4314286 60,30" id="Fill-3" fill="#FFFFFF"></path>
                    </g>
                    <path d="M18.5306182,22.5786329 C17.3462182,22.5786329 16.1843273,21.7931318 16.1843273,20.6266734 C16.1843273,19.4374686 17.3462909,18.674714 18.5080727,18.674714 C19.6924727,18.674714 20.4521455,19.4376146 20.4521455,20.6266734 C20.4746545,21.7933509 19.6923273,22.5786329 18.5305818,22.5786329 L18.5306182,22.5786329 Z M29.4121818,18.6746775 C30.5965818,18.6746775 31.3562545,19.4375781 31.3562545,20.6266369 C31.3562545,21.7933144 30.5964364,22.5785963 29.4121818,22.5785963 C28.2502182,22.5785963 27.0658909,21.7930953 27.0658909,20.6266369 C27.0658909,19.437432 28.2502182,18.6746775 29.4121818,18.6746775 Z M37.7914909,22.9149371 C38.2830545,22.9149371 38.7746545,22.9375375 39.2884727,23.004572 C37.9254182,16.7003002 31.222,12.0338093 23.5802182,12.0338093 C15.0224,12.0338093 8.00607273,17.889286 8.00603636,25.3155456 C8.00603636,29.6232414 10.3297818,33.1230913 14.2401091,35.8601501 L12.6760364,40.5715497 L18.1282182,37.8344544 C20.0722909,38.2157404 21.6364364,38.6199554 23.5804,38.6199554 C24.0494909,38.6199554 24.5411636,38.597355 25.0326909,38.5527018 C24.72,37.5206775 24.5411273,36.3989087 24.5411273,35.2770304 C24.5411273,28.4569655 30.3729455,22.9153022 37.7914545,22.9153022 L37.7914909,22.9149371 Z" id="Shape" fill="#00B9B2"></path>
                    <path d="M43.02,33.1228722 C42.2601818,33.1228722 41.4780727,32.3599716 41.4780727,31.5746897 C41.5005818,30.7891886 42.2604,30.0042718 43.02,30.0042718 C44.2043273,30.0042718 44.9863636,30.7897728 44.9863636,31.5746897 C44.9863636,32.3601907 44.2040364,33.1228722 43.02,33.1228722 Z M34.4620727,33.1228722 C33.7022545,33.1228722 32.9201455,32.3599716 32.9201455,31.5746897 C32.9201455,30.7894077 33.7024727,30.0042718 34.4620727,30.0042718 C35.6464,30.0042718 36.4061455,30.7897728 36.4061455,31.5746897 C36.4286545,32.3601907 35.6463273,33.1228722 34.4620727,33.1228722 Z M51.9800364,35.097359 C51.9800364,28.8379959 45.7459636,23.7450183 38.7519636,23.7450183 C31.3561455,23.7450183 25.5238909,28.8377039 25.5238909,35.097359 C25.5238909,41.3567221 31.3557091,46.4272454 38.7519636,46.4272454 C40.3160364,46.4272454 41.8802545,46.0233225 43.4220727,45.6417444 L47.7123636,47.9975538 L46.5280364,44.093927 C49.6563273,41.7381176 51.9799273,38.6199189 51.9799273,35.097432 L51.9800364,35.097359 Z" id="Shape" fill="#00B9B2"></path>
                </g>
                <g id="箭头-copy" transform="translate(30.000000, 721.000000) rotate(-90.000000) translate(-30.000000, -721.000000) translate(0.000000, 691.000000)" fill="#FFFFFF">
                    <path d="M24.5149304,26.7963457 C23.0335373,28.2056666 23.0335373,30.4909069 24.5149304,31.9004895 L51.5051764,57.6394357 C52.9867104,59.0488874 55.3887451,59.0488874 56.8703495,57.6394357 C58.351954,56.229984 58.351954,53.9447437 56.8703495,52.535292 L32.5563164,29.3483522 L56.8703495,6.16141242 C58.351954,4.75176444 58.351954,2.46658959 56.8703495,1.05713786 C55.3888155,-0.352379287 52.9867809,-0.352379287 51.5051764,1.05713786 L24.5150009,26.7961495 L24.5149304,26.7963457 Z M33.4663936,52.535292 L9.15236043,29.3483522 L33.4663936,6.16141242 C34.947998,4.75176444 34.947998,2.46658959 33.4663936,1.05713786 C31.9848595,-0.352379287 29.5828249,-0.352379287 28.1012204,1.05713786 L1.1110449,26.7962149 C-0.370348299,28.2055358 -0.370348299,30.4907761 1.1110449,31.9003586 L28.1012908,57.6393049 C29.5828249,59.0487566 31.9848595,59.0487566 33.466464,57.6393049 C34.947998,56.2297877 34.9480685,53.944482 33.466464,52.5351611 L33.4663936,52.535292 Z" id="Shape"></path>
                </g>
                <path d="M30,617 L4,591 L-7.28306304e-14,595 L26,621 L-6.39488462e-14,647 L4,651 L30,625 L56,651 L60,647 L34,621 L60,595 L56,591 L30,617 Z" id="Combined-Shape-Copy" fill="#D8D8D8"></path>
                <g id="Group-10-Copy" transform="translate(0.000000, 491.000000)" fill="#FFFFFF">
                    <path d="M29.9997941,60 C13.4572353,60 0,46.5426961 0,29.9997255 C0,13.4573038 13.4572352,0 29.9997941,0 C46.5426962,0 59.9999314,13.4573039 59.9999314,29.9997255 C59.9999314,46.5426961 46.5426962,60 29.9997941,60 L29.9997941,60 Z M29.9997941,4.30495915 C15.8313794,4.30495915 4.30489061,15.8313793 4.30489061,29.9997255 C4.30489061,44.1662187 15.8313108,55.6949722 29.9997941,55.6949722 C44.1662187,55.6949722 55.6949722,44.1662187 55.6949722,29.9997255 C55.6949722,15.8313794 44.1662187,4.30495915 29.9997941,4.30495915 L29.9997941,4.30495915 Z M32.5750334,29.4985015 L41.8408182,20.333461 C42.6828004,19.5023218 42.6893199,18.1457072 41.8578376,17.3037936 C41.0263553,16.4614682 39.6677505,16.4549487 38.8277585,17.2863624 L29.5492092,26.4623146 L20.4123056,17.2971368 C19.5743037,16.4594781 18.2199538,16.4549486 17.3822264,17.2929505 C16.5442246,18.1286191 16.5422344,19.4849591 17.3779716,20.322961 L26.5021792,29.4748939 L17.3027566,38.5756998 C16.4607744,39.4093782 16.4542549,40.7634535 17.2857372,41.6057103 C17.7055959,42.0300984 18.2565319,42.2419493 18.8094581,42.2419493 C19.3535314,42.2419493 19.8979478,42.0343533 20.3158163,41.6227297 L29.527935,32.5115612 L38.814994,41.8286101 C39.2328626,42.2485376 39.7815338,42.4584669 40.3321267,42.4584669 C40.880798,42.4584669 41.4271359,42.2485375 41.8450045,41.8329336 C42.6827319,40.9971964 42.6849965,39.6429152 41.849328,38.8029231 L32.5750334,29.4985015 L32.5750334,29.4985015 Z" id="Shape"></path>
                </g>
            </g>
            <g id="Group-20">
                <g id="Group-4-Copy-2" fill="url(#linearGradient-41)">
                    <path d="M0,135 L0,3.99060623 C0,1.78665527 1.78395358,0 4.00059083,0 L338.999409,0 C341.208874,0 343,1.78152323 343,3.99060623 L343,135 C338.581722,135 335,138.581722 335,143 C335,147.418278 338.581722,151 343,151 L343,176.009394 C343,178.213345 341.216046,180 338.999409,180 L4.00059083,180 C1.79112552,180 0,178.218477 0,176.009394 L0,151 C4.418278,151 8,147.418278 8,143 C8,138.581722 4.418278,135 0,135 Z" id="Combined-Shape"></path>
                </g>
                <polygon id="Triangle-Copy-5" fill="url(#linearGradient-42)" opacity="0.375408116" points="171.5 59 232 180 111 180"></polygon>
                <polygon id="Triangle-Copy-6" fill="url(#linearGradient-42)" opacity="0.150419776" points="91.5 59 152 180 31 180"></polygon>
                <polygon id="Triangle-Copy-7" fill="url(#linearGradient-42)" opacity="0.216767724" points="267.5 59 328 180 207 180"></polygon>
                <polygon id="Triangle-Copy-8" fill="url(#linearGradient-43)" opacity="0.130946828" transform="translate(171.500000, 60.500000) scale(-1, -1) translate(-171.500000, -60.500000) " points="171.5 0 232 121 111 121"></polygon>
                <polygon id="Triangle-Copy-9" fill="url(#linearGradient-44)" opacity="0.110074627" transform="translate(60.500000, 74.500000) rotate(-90.000000) translate(-60.500000, -74.500000) " points="60.5 135 -2.84217094e-14 14 121 14"></polygon>
                <polygon id="Triangle-Copy-10" fill="url(#linearGradient-44)" opacity="0.12266791" transform="translate(267.500000, 86.500000) scale(-1, -1) translate(-267.500000, -86.500000) " points="267.5 26 328 147 207 147"></polygon>
                <use id="Rectangle-39-Copy" stroke="#FFFFFF" mask="url(#mask-46)" stroke-width="2" stroke-dasharray="4,6" opacity="0.3" xlink:href="#path-45"></use>
            </g>
        </g>
    </g>
</svg>