<?xml version="1.0" encoding="UTF-8" standalone="no"?>
<svg width="106px" height="185px" viewBox="0 0 106 185" version="1.1" xmlns="http://www.w3.org/2000/svg" xmlns:xlink="http://www.w3.org/1999/xlink">
    <!-- Generator: Sketch 42 (36781) - http://www.bohemiancoding.com/sketch -->
    <title>share_button</title>
    <desc>Created with Sketch.</desc>
    <defs></defs>
    <g id="7-27修改" stroke="none" stroke-width="1" fill="none" fill-rule="evenodd">
        <g id="share_button" transform="translate(0.000000, -11.000000)" fill="#FFFFFF">
            <path d="M33.5378309,39.718655 L22.5853803,43.594521 C19.4232888,44.7135126 18.2457127,43.2857798 20.0988039,40.3547153 L40.3118363,8.38468414 C42.1425789,5.48893596 45.1697514,5.45343577 47.0227506,8.38468414 L67.235783,40.3548073 C69.0665256,43.2505555 67.9756767,44.7364129 64.7492066,43.594613 L53.796756,39.718747 L45.6043067,91.1307392 C44.5345188,97.8442287 42.8016316,97.8541614 41.7302802,91.1307392 L33.5378309,39.718747 L33.5378309,39.718655 Z" id="Shape-Copy-2" fill-rule="nonzero" transform="translate(43.669239, 51.184561) rotate(30.000000) translate(-43.669239, -51.184561) "></path>
            <g id="Group-11-Copy" transform="translate(0.000000, 147.000000)">
                <g id="Group-10">
                    <path d="M1.5,7.00032171 L1.5,41.9996783 C1.5,45.0314057 3.9670406,47.5 7.0029638,47.5 L98.9970362,47.5 C102.035715,47.5 104.5,45.0370529 104.5,41.9996783 L104.5,7.00032171 C104.5,3.96853584 102.034307,1.5 99.0001729,1.5 L7.00166627,1.5 C3.96823414,1.5 1.5,3.96543538 1.5,7.00032171 Z M0.5,7.00032171 C0.5,3.41289649 3.41620321,0.5 7.00166627,0.5 L99.0001729,0.5 C102.58685,0.5 105.5,3.41650886 105.5,7.00032171 L105.5,41.9996783 C105.5,45.5894592 102.587878,48.5 98.9970362,48.5 L7.0029638,48.5 C3.41461486,48.5 0.5,45.5835496 0.5,41.9996783 L0.5,7.00032171 Z" id="Rectangle-7-Copy" fill-rule="nonzero"></path>
                    <path d="M4.5,14.4603829 L0.627869785,24.3171813 L1.55862717,24.6828187 L4.5,17.1953331 L4.5,14.4603829 Z M4.5,32.0021214 L1.41722521,40.0194323 L0.48384815,39.660535 L4.5,29.215809 L4.5,32.0021214 Z M9.9637637,42.2365729 L8.26958673,48.1345188 L7.3084533,47.8584345 L8.92353907,42.2358291 C8.95107503,42.2363243 8.97867129,42.2365729 9.00632572,42.2365729 L9.9637637,42.2365729 Z M18.4027633,42.2365729 L17.0488048,47.9361112 L16.0758804,47.7049873 L17.3749342,42.2365729 L18.4027633,42.2365729 Z M27.6411803,42.2365729 L26.7346169,47.557728 L25.7488214,47.3897784 L26.6267712,42.2365729 L27.6411803,42.2365729 Z M35.9606623,42.2365729 L35.4593795,47.484203 L34.4639111,47.3891103 L34.9561101,42.2365729 L35.9606623,42.2365729 Z M45.1118638,42.2365729 L44.9383959,47.4056508 L43.9389586,47.372111 L44.1113008,42.2365729 L45.1118638,42.2365729 Z M54.6046083,42.2365729 L54.8569595,47.6855667 L53.8580302,47.7318287 L53.6035365,42.2365729 L54.6046083,42.2365729 Z M63.7289131,42.2365729 L64.3839972,47.4331383 L63.3918494,47.5582094 L62.7209987,42.2365729 L63.7289131,42.2365729 Z M74.3417282,42.2365729 L75.4732186,47.3935771 L74.4964531,47.6078878 L73.3179411,42.2365729 L74.3417282,42.2365729 Z M84.2997839,42.2365729 L85.769502,47.4723961 L84.8067142,47.7426548 L83.2611334,42.2365729 L84.2997839,42.2365729 Z M95.3937899,42.2365729 L97.4510317,47.7578236 L96.5139666,48.1069781 L94.3266282,42.2365729 L95.3937899,42.2365729 Z M100.860825,29.7188044 L105.647231,40.4802118 L104.733531,40.8866026 L100.860825,32.1794904 L100.860825,29.7188044 Z M100.860825,12.711638 L105.412794,19.7415897 L104.573397,20.2851083 L100.860825,14.5515014 L100.860825,12.711638 Z" id="Combined-Shape" fill-rule="nonzero"></path>
                    <path d="M5.5,4.99879765 L5.5,37.7377752 C5.5,39.6702569 7.06941825,41.2365729 9.00632572,41.2365729 L96.354499,41.2365729 C98.287938,41.2365729 99.8608247,39.6680299 99.8608247,37.7377752 L99.8608247,4.99879765 C99.8608247,3.06594199 98.2970132,1.5 96.3678582,1.5 L8.99500883,1.5 C7.06336302,1.5 5.5,3.0654899 5.5,4.99879765 Z M4.5,4.99879765 C4.5,2.51350926 6.5107737,0.5 8.99500883,0.5 L96.3678582,0.5 C98.849603,0.5 100.860825,2.51396178 100.860825,4.99879765 L100.860825,37.7377752 C100.860825,40.2209346 98.8396046,42.2365729 96.354499,42.2365729 L9.00632572,42.2365729 C6.51757596,42.2365729 4.5,40.2229851 4.5,37.7377752 L4.5,4.99879765 Z" id="Rectangle-7" fill-rule="nonzero"></path>
                    <text id="朕知道了" font-family="HiraMaruProN-W4, Hiragino Maru Gothic ProN" font-size="16" font-weight="normal" letter-spacing="-0.385882199">
                        <tspan x="21.1804124" y="27">朕知道了</tspan>
                    </text>
                </g>
            </g>
        </g>
    </g>
</svg>