<?xml version="1.0" encoding="UTF-8" standalone="no"?>
<svg width="14px" height="230px" viewBox="0 0 14 230" version="1.1" xmlns="http://www.w3.org/2000/svg" xmlns:xlink="http://www.w3.org/1999/xlink">
    <!-- Generator: Sketch 42 (36781) - http://www.bohemiancoding.com/sketch -->
    <title>Group 14@3x</title>
    <desc>Created with Sketch.</desc>
    <defs>
        <ellipse id="path-1" cx="7" cy="4" rx="4" ry="4"></ellipse>
        <mask id="mask-2" maskContentUnits="userSpaceOnUse" maskUnits="objectBoundingBox" x="0" y="0" width="8" height="8" fill="white">
            <use xlink:href="#path-1"></use>
        </mask>
        <path d="M14,14 C14,10.1340068 10.8659932,7.99873265 7,7.99873265 C3.13400675,7.99873265 0,10.1340068 0,14" id="path-3"></path>
        <mask id="mask-4" maskContentUnits="userSpaceOnUse" maskUnits="objectBoundingBox" x="0" y="0" width="14" height="6.00126735" fill="white">
            <use xlink:href="#path-3"></use>
        </mask>
    </defs>
    <g id="Page-1" stroke="none" stroke-width="1" fill="none" fill-rule="evenodd">
        <g id="Group-14">
            <path d="M6.13987994,175.36395 C5.2912624,174.516057 1,170.272545 1,167.523079 C1.000573,164.477586 3.69179863,162 7.00004244,162 C10.3087744,162 13,164.477586 13,167.523607 C13,170.267035 8.72074943,174.495074 7.86226351,175.361938 C6.9891766,176.212352 6.9891766,176.212352 6.13987994,175.36395 L6.13987994,175.36395 L6.13987994,175.36395 M7.00006367,162.726236 C4.14113914,162.726236 1.81493769,164.867724 1.81493769,167.499537 C1.81493769,169.986169 5.01817339,173.158868 6.93198241,175.055009 L7.00006367,175.122119 L7.07077649,175.052489 C8.98409739,173.155332 12.1861659,169.98064 12.1861659,167.499537 C12.1850835,164.867724 9.85937018,162.726236 7.00006367,162.726236 L7.00006367,162.726236 L7.00006367,162.726236 M7.00006367,170.264632 C5.37825276,170.264632 4.05847814,169.050085 4.05847814,167.556624 C4.05847814,166.064141 5.37776465,164.849144 7.00006367,164.849144 C8.62174724,164.849144 9.94154308,166.063692 9.94154308,167.556624 C9.94152184,169.050632 8.62225656,170.264632 7.00006367,170.264632 L7.00006367,170.264632 L7.00006367,170.264632 M7.00006367,165.624965 C5.8314982,165.624965 4.88103465,166.499449 4.88103465,167.575204 C4.88103465,168.65096 5.83149818,169.525893 7.00006367,169.525893 C8.16860792,169.525893 9.11898657,168.650432 9.11898657,167.575204 C9.11947467,166.499449 8.16860792,165.624965 7.00006367,165.624965 L7.00006367,165.624965 L7.00006367,165.624965" id="Shape-Copy-5" fill="#00B8B1" fill-rule="nonzero"></path>
            <path d="M7,68 C3.13396414,68 0,64.8659243 0,61 C0,57.1340618 3.13396414,54 7,54 C10.8659243,54 14,57.1340618 14,61 C14,64.8659243 10.8659243,68 7,68 Z M7,54.793245 C3.57214741,54.793245 0.793258964,57.5721195 0.793258964,60.9999861 C0.793258964,64.4278526 3.57214741,67.206741 7,67.206741 C10.4278665,67.206741 13.206741,64.4278526 13.206741,61 C13.206741,57.5721335 10.4278526,54.793245 7,54.793245 Z M10.5856594,62.7551175 C10.489249,62.9616733 10.2431614,63.0504283 10.0366195,62.9535996 L6.74717729,61.8538884 C6.58984462,61.7804582 6.50228884,61.6206992 6.51117131,61.4573287 C6.5091494,61.4407908 6.50149402,61.4270697 6.50149402,61.4101275 L6.50149402,56.8660538 C6.50149402,56.6377171 6.68625498,56.4529562 6.91459163,56.4529562 C7.14292829,56.4529562 7.32768924,56.6377171 7.32768924,56.8660538 L7.32768924,61.1825996 L10.3867869,62.2056454 C10.5937331,62.3024741 10.682488,62.5481574 10.5856594,62.7551175 Z" id="Shape-Copy" fill="#00B8B1" fill-rule="nonzero"></path>
            <g id="Group-4-Copy" transform="translate(0.000000, 216.000000)" fill-rule="nonzero" fill="#00B8B1">
                <path d="M2.50203336,4.88693743 C2.69713966,4.88693743 2.82721052,4.75579949 2.82721052,4.55909258 L2.82721052,2.32974753 C2.82721052,1.31342847 4.94086208,0.690523229 7.02199592,0.690523229 C9.0055766,0.690523229 11.1192282,1.28064398 11.1192282,2.32974753 L11.1192282,4.55909258 C11.1192282,4.75579949 11.249299,4.88693743 11.4444053,4.88693743 C11.6395116,4.88693743 11.7695825,4.75579949 11.7695825,4.55909258 L11.7695825,2.32974753 C11.7695825,1.80519576 11.5094407,1.05115258 10.1762144,0.52660081 C9.33075376,0.198755956 8.22515141,0.00204904061 7.02199592,0.00204904061 C4.61568491,0.00204904061 2.17685619,0.723307726 2.17685619,2.29696305 L2.17685619,4.5263081 C2.17685619,4.723015 2.33944477,4.88693743 2.50203336,4.88693743 Z" id="Shape"></path>
                <path d="M6.98947821,5.93604099 C7.1845845,5.93604099 7.31465536,5.80490305 7.31465536,5.60819613 L7.31465536,4.06732529 L8.84298803,4.06732529 C9.03809433,4.06732529 9.16816519,3.93618735 9.16816519,3.73948043 C9.16816519,3.54277352 9.03809433,3.41163558 8.84298803,3.41163558 L7.31465536,3.41163558 L7.31465536,1.87076474 C7.31465536,1.67405782 7.1845845,1.54291988 6.98947821,1.54291988 C6.79437191,1.54291988 6.66430105,1.67405782 6.66430105,1.87076474 L6.66430105,3.41163558 L5.13596838,3.41163558 C4.94086208,3.41163558 4.81079122,3.54277352 4.81079122,3.73948043 C4.81079122,3.93618735 4.94086208,4.06732529 5.13596838,4.06732529 L6.66430105,4.06732529 L6.66430105,5.60819613 C6.66430103,5.77211855 6.79437191,5.93604099 6.98947821,5.93604099 Z" id="Shape"></path>
                <path d="M13.2979152,13.5092572 C12.51749,11.4438346 10.7615333,10.1980241 8.29018685,9.8701793 C10.0136258,9.31284303 11.2818168,7.67361874 11.2818168,5.73933407 C11.2818168,5.54262715 11.1517459,5.41148922 10.9566396,5.41148922 C10.7615333,5.41148922 10.6314624,5.54262715 10.6314624,5.73933407 C10.6314624,7.7719722 9.00557662,9.41119649 6.98947822,9.41119649 C4.97337982,9.41119649 3.347494,7.77197219 3.347494,5.73933407 C3.347494,5.54262715 3.21742314,5.41148922 3.02231685,5.41148922 C2.82721055,5.41148922 2.69713969,5.54262715 2.69713969,5.73933407 C2.69713969,7.67361874 3.96533062,9.31284303 5.68876959,9.8701793 C3.21742316,10.1980241 1.46146648,11.4438346 0.68104129,13.5092572 C0.616005852,13.6731797 0.713559001,13.8698866 0.876147587,13.9354555 C0.908665298,13.9354555 0.941183025,13.96824 1.00621845,13.96824 C1.13628931,13.96824 1.26636018,13.902671 1.29887789,13.7715331 C2.33944482,11.0504208 4.97337984,10.4603 7.02199596,10.4603 C9.03809438,10.4603 11.6720294,11.0176363 12.745114,13.7715331 C12.8101495,13.9354555 13.0052558,14.033809 13.1678443,13.96824 C13.2653974,13.8698866 13.3629506,13.6731797 13.2979152,13.5092572 Z" id="Shape"></path>
            </g>
            <g id="Group-10-Copy" stroke="#00B8B1" stroke-width="1.6">
                <use id="Oval-2" mask="url(#mask-2)" xlink:href="#path-1"></use>
                <use id="Oval-2-Copy" mask="url(#mask-4)" xlink:href="#path-3"></use>
            </g>
            <path d="M12.375,108 L1.875,108 C1.35,108 1,108.35 1,108.875 L1,121.125 C1,121.65 1.35,122 1.875,122 L12.375,122 C12.9,122 13.25,121.65 13.25,121.125 L13.25,108.875 C13.25,108.35 12.9,108 12.375,108 Z M8.875,108.875 L8.875,109.75 L5.375,109.75 L5.375,108.875 L8.875,108.875 Z M12.375,121.125 L1.875,121.125 L1.875,108.875 L4.5,108.875 L4.5,109.75 C4.5,110.275 4.85,110.625 5.375,110.625 L8.875,110.625 C9.4,110.625 9.75,110.275 9.75,109.75 L9.75,108.875 L12.375,108.875 L12.375,121.125 Z M4.0625,112.375 C3.8,112.375 3.625,112.55 3.625,112.8125 C3.625,113.075 3.8,113.25 4.0625,113.25 L10.1875,113.25 C10.45,113.25 10.625,113.075 10.625,112.8125 C10.625,112.55 10.45,112.375 10.1875,112.375 L4.0625,112.375 Z M10.1875,115 L4.0625,115 C3.8,115 3.625,115.175 3.625,115.4375 C3.625,115.7 3.8,115.875 4.0625,115.875 L10.1875,115.875 C10.45,115.875 10.625,115.7 10.625,115.4375 C10.625,115.175 10.45,115 10.1875,115 Z M6.6875,117.625 L4.0625,117.625 C3.8,117.625 3.625,117.8 3.625,118.0625 C3.625,118.325 3.8,118.5 4.0625,118.5 L6.6875,118.5 C6.95,118.5 7.125,118.325 7.125,118.0625 C7.125,117.8 6.95,117.625 6.6875,117.625 Z" id="Combined-Shape-Copy-2" fill="#00B8B1" fill-rule="nonzero"></path>
        </g>
    </g>
</svg>