<?xml version="1.0" encoding="UTF-8" standalone="no"?>
<svg width="14px" height="410px" viewBox="0 0 14 410" version="1.1" xmlns="http://www.w3.org/2000/svg" xmlns:xlink="http://www.w3.org/1999/xlink">
    <!-- Generator: Sketch 42 (36781) - http://www.bohemiancoding.com/sketch -->
    <title>Group 28@3x</title>
    <desc>Created with Sketch.</desc>
    <defs>
        <circle id="path-1" cx="7" cy="4" r="4"></circle>
        <mask id="mask-2" maskContentUnits="userSpaceOnUse" maskUnits="objectBoundingBox" x="0" y="0" width="8" height="8" fill="white">
            <use xlink:href="#path-1"></use>
        </mask>
        <path d="M14,14 C14,10.1340068 10.8659932,7.99873265 7,7.99873265 C3.13400675,7.99873265 0,10.1340068 0,14" id="path-3"></path>
        <mask id="mask-4" maskContentUnits="userSpaceOnUse" maskUnits="objectBoundingBox" x="0" y="0" width="14" height="6.00126735" fill="white">
            <use xlink:href="#path-3"></use>
        </mask>
    </defs>
    <g id="Page-1" stroke="none" stroke-width="1" fill="none" fill-rule="evenodd">
        <g id="Group-28">
            <path d="M11.9166969,37.6348625 L10.2936865,37.6348625 L10.2719547,37.4607881 C10.0277837,35.507201 8.49282642,33.9722437 6.538855,33.7276198 L6.36516499,33.7059566 L6.36516499,32.0833168 C6.36516499,32.0371761 6.32793394,32 6.28223254,32 L5.71860489,32 C5.67245047,32 5.6348762,32.0371899 5.6348762,32.0833168 L5.6348762,33.7059428 L5.46121365,33.727606 C3.5076129,33.9718593 1.97218882,35.5068166 1.72800418,37.4607881 L1.70627233,37.6348625 L0.0833442979,37.6348625 C0.0375742605,37.6348625 0,37.6720523 0,37.7182068 L0,38.2814363 C0,38.3275907 0.0375742605,38.365165 0.0833442979,38.365165 L1.70627233,38.365165 L1.72800418,38.5392394 C1.97185935,40.4924283 3.50720106,42.0273719 5.46119993,42.2720096 L5.63486247,42.2936728 L5.63486247,43.9166832 C5.63486247,43.962769 5.67243673,44 5.71859117,44 L6.28221881,44 C6.3279202,44 6.36515127,43.962769 6.36515127,43.9166832 L6.36515127,42.2936728 L6.53884127,42.2720096 C8.49281269,42.0273719 10.0281681,40.4924283 10.2719409,38.539157 L10.2936728,38.3651513 L11.9166832,38.3651513 C11.9623708,38.3651513 12,38.3275084 12,38.2814226 L12,37.718193 C12.0000137,37.6720386 11.9623708,37.6348625 11.9166969,37.6348625 L11.9166969,37.6348625 Z M5.63486247,41.5591282 L5.40345884,41.5199752 C3.9068583,41.2672241 2.73233659,40.0923867 2.48043665,38.5965686 L2.44122872,38.3651513 L5.63486247,38.3651513 L5.63486247,41.5591282 L5.63486247,41.5591282 Z M5.63486247,37.6348625 L2.44122873,37.6348625 L2.48043666,37.4034451 C2.73233659,35.9072427 3.90724271,34.7323366 5.40384324,34.4800385 L5.63486249,34.4408169 L5.63486247,37.6348625 L5.63486247,37.6348625 Z M9.51965946,38.5965686 C9.26770461,40.0923866 8.09318289,41.2672241 6.59656863,41.5199752 L6.36515127,41.5591282 L6.36515127,38.3651513 L9.55874383,38.3651513 L9.51965946,38.5965686 L9.51965946,38.5965686 Z M6.36515127,37.6348625 L6.36515127,34.4408169 L6.59617051,34.4800385 C8.09277106,34.7323366 9.26770462,35.9072427 9.51965946,37.4034451 L9.55874383,37.6348625 L6.36515127,37.6348625 L6.36515127,37.6348625 Z" id="Shape-Copy-4" fill="#00B8B1" fill-rule="nonzero"></path>
            <path d="M6,69.2 L0.8,64 L-1.45439216e-14,64.8 L5.2,70 L-1.24344979e-14,75.2 L0.8,76 L6,70.8 L11.2,76 L12,75.2 L6.8,70 L12,64.8 L11.2,64 L6,69.2 Z" id="Combined-Shape-Copy" fill="#D8D8D8"></path>
            <g id="Group-22" transform="translate(0.000000, 158.004688)" stroke="#00B8B1" stroke-width="1.6">
                <use id="Oval-2" mask="url(#mask-2)" xlink:href="#path-1"></use>
                <use id="Oval-2-Copy" mask="url(#mask-4)" xlink:href="#path-3"></use>
            </g>
            <path d="M11.375,192.004688 L0.875,192.004688 C0.35,192.004688 0,192.354688 0,192.879688 L0,205.129688 C0,205.654688 0.35,206.004688 0.875,206.004688 L11.375,206.004688 C11.9,206.004688 12.25,205.654688 12.25,205.129688 L12.25,192.879688 C12.25,192.354688 11.9,192.004688 11.375,192.004688 Z M7.875,192.879688 L7.875,193.754688 L4.375,193.754688 L4.375,192.879688 L7.875,192.879688 Z M11.375,205.129688 L0.875,205.129688 L0.875,192.879688 L3.5,192.879688 L3.5,193.754688 C3.5,194.279688 3.85,194.629688 4.375,194.629688 L7.875,194.629688 C8.4,194.629688 8.75,194.279688 8.75,193.754688 L8.75,192.879688 L11.375,192.879688 L11.375,205.129688 Z M3.0625,196.379688 C2.8,196.379688 2.625,196.554688 2.625,196.817188 C2.625,197.079688 2.8,197.254688 3.0625,197.254688 L9.1875,197.254688 C9.45,197.254688 9.625,197.079688 9.625,196.817188 C9.625,196.554688 9.45,196.379688 9.1875,196.379688 L3.0625,196.379688 Z M9.1875,199.004688 L3.0625,199.004688 C2.8,199.004688 2.625,199.179688 2.625,199.442188 C2.625,199.704688 2.8,199.879688 3.0625,199.879688 L9.1875,199.879688 C9.45,199.879688 9.625,199.704688 9.625,199.442188 C9.625,199.179688 9.45,199.004688 9.1875,199.004688 Z M5.6875,201.629688 L3.0625,201.629688 C2.8,201.629688 2.625,201.804688 2.625,202.067188 C2.625,202.329688 2.8,202.504688 3.0625,202.504688 L5.6875,202.504688 C5.95,202.504688 6.125,202.329688 6.125,202.067188 C6.125,201.804688 5.95,201.629688 5.6875,201.629688 Z" id="Combined-Shape-Copy-4" fill="#00B8B1" fill-rule="nonzero"></path>
            <g id="Group-26" transform="translate(0.000000, 226.004688)" fill-rule="nonzero" fill="#00B8B1">
                <path d="M7,14 C3.13396414,14 0,10.8659243 0,7 C0,3.13406175 3.13396414,0 7,0 C10.8659243,0 14,3.13406175 14,7 C14,10.8659243 10.8659243,14 7,14 Z M7,0.79324502 C3.57214741,0.79324502 0.793258964,3.57211952 0.793258964,6.99998606 C0.793258964,10.4278526 3.57214741,13.206741 7,13.206741 C10.4278665,13.206741 13.206741,10.4278526 13.206741,7 C13.206741,3.57213347 10.4278526,0.79324502 7,0.79324502 Z M10.5856594,8.75511753 C10.489249,8.96167331 10.2431614,9.05042829 10.0366195,8.9535996 L6.74717729,7.85388845 C6.58984462,7.78045817 6.50228884,7.6206992 6.51117131,7.45732869 C6.5091494,7.44079084 6.50149402,7.42706972 6.50149402,7.41012749 L6.50149402,2.86605378 C6.50149402,2.63771713 6.68625498,2.45295618 6.91459163,2.45295618 C7.14292829,2.45295618 7.32768924,2.63771713 7.32768924,2.86605378 L7.32768924,7.1825996 L10.3867869,8.20564542 C10.5937331,8.3024741 10.682488,8.54815737 10.5856594,8.75511753 Z" id="Shape-Copy"></path>
            </g>
            <path d="M5.13987994,307.368638 C4.2912624,306.520744 0,302.277232 0,299.527767 C0.000573001855,296.482274 2.69179863,294.004688 6.00004244,294.004688 C9.30877438,294.004688 12,296.482274 12,299.528294 C12,302.271723 7.72074943,306.499761 6.86226351,307.366625 C5.9891766,308.217039 5.9891766,308.217039 5.13987994,307.368638 L5.13987994,307.368638 L5.13987994,307.368638 M6.00006367,294.730923 C3.14113914,294.730923 0.814937695,296.872412 0.814937695,299.504224 C0.814937695,301.990856 4.01817339,305.163556 5.93198241,307.059696 L6.00006367,307.126807 L6.07077649,307.057176 C7.98409739,305.160019 11.1861659,301.985327 11.1861659,299.504224 C11.1850835,296.872412 8.85937018,294.730923 6.00006367,294.730923 L6.00006367,294.730923 L6.00006367,294.730923 M6.00006367,302.26932 C4.37825276,302.26932 3.05847814,301.054772 3.05847814,299.561312 C3.05847814,298.068829 4.37776465,296.853832 6.00006367,296.853832 C7.62174724,296.853832 8.94154308,298.068379 8.94154308,299.561312 C8.94152184,301.055319 7.62225656,302.26932 6.00006367,302.26932 L6.00006367,302.26932 L6.00006367,302.26932 M6.00006367,297.629653 C4.8314982,297.629653 3.88103465,298.504136 3.88103465,299.579892 C3.88103465,300.655647 4.83149818,301.53058 6.00006367,301.53058 C7.16860792,301.53058 8.11898657,300.65512 8.11898657,299.579892 C8.11947467,298.504136 7.16860792,297.629653 6.00006367,297.629653 L6.00006367,297.629653 L6.00006367,297.629653" id="Shape-Copy-5" fill="#00B8B1" fill-rule="nonzero"></path>
            <g id="Group-24" transform="translate(0.000000, 260.004688)" fill-rule="nonzero" fill="#00B8B1">
                <path d="M2.50203336,4.88693743 C2.69713966,4.88693743 2.82721052,4.75579949 2.82721052,4.55909258 L2.82721052,2.32974753 C2.82721052,1.31342847 4.94086208,0.690523229 7.02199592,0.690523229 C9.0055766,0.690523229 11.1192282,1.28064398 11.1192282,2.32974753 L11.1192282,4.55909258 C11.1192282,4.75579949 11.249299,4.88693743 11.4444053,4.88693743 C11.6395116,4.88693743 11.7695825,4.75579949 11.7695825,4.55909258 L11.7695825,2.32974753 C11.7695825,1.80519576 11.5094407,1.05115258 10.1762144,0.52660081 C9.33075376,0.198755956 8.22515141,0.00204904061 7.02199592,0.00204904061 C4.61568491,0.00204904061 2.17685619,0.723307726 2.17685619,2.29696305 L2.17685619,4.5263081 C2.17685619,4.723015 2.33944477,4.88693743 2.50203336,4.88693743 Z" id="Shape"></path>
                <path d="M6.98947821,5.93604099 C7.1845845,5.93604099 7.31465536,5.80490305 7.31465536,5.60819613 L7.31465536,4.06732529 L8.84298803,4.06732529 C9.03809433,4.06732529 9.16816519,3.93618735 9.16816519,3.73948043 C9.16816519,3.54277352 9.03809433,3.41163558 8.84298803,3.41163558 L7.31465536,3.41163558 L7.31465536,1.87076474 C7.31465536,1.67405782 7.1845845,1.54291988 6.98947821,1.54291988 C6.79437191,1.54291988 6.66430105,1.67405782 6.66430105,1.87076474 L6.66430105,3.41163558 L5.13596838,3.41163558 C4.94086208,3.41163558 4.81079122,3.54277352 4.81079122,3.73948043 C4.81079122,3.93618735 4.94086208,4.06732529 5.13596838,4.06732529 L6.66430105,4.06732529 L6.66430105,5.60819613 C6.66430103,5.77211855 6.79437191,5.93604099 6.98947821,5.93604099 Z" id="Shape"></path>
                <path d="M13.2979152,13.5092572 C12.51749,11.4438346 10.7615333,10.1980241 8.29018685,9.8701793 C10.0136258,9.31284303 11.2818168,7.67361874 11.2818168,5.73933407 C11.2818168,5.54262715 11.1517459,5.41148922 10.9566396,5.41148922 C10.7615333,5.41148922 10.6314624,5.54262715 10.6314624,5.73933407 C10.6314624,7.7719722 9.00557662,9.41119649 6.98947822,9.41119649 C4.97337982,9.41119649 3.347494,7.77197219 3.347494,5.73933407 C3.347494,5.54262715 3.21742314,5.41148922 3.02231685,5.41148922 C2.82721055,5.41148922 2.69713969,5.54262715 2.69713969,5.73933407 C2.69713969,7.67361874 3.96533062,9.31284303 5.68876959,9.8701793 C3.21742316,10.1980241 1.46146648,11.4438346 0.68104129,13.5092572 C0.616005852,13.6731797 0.713559001,13.8698866 0.876147587,13.9354555 C0.908665298,13.9354555 0.941183025,13.96824 1.00621845,13.96824 C1.13628931,13.96824 1.26636018,13.902671 1.29887789,13.7715331 C2.33944482,11.0504208 4.97337984,10.4603 7.02199596,10.4603 C9.03809438,10.4603 11.6720294,11.0176363 12.745114,13.7715331 C12.8101495,13.9354555 13.0052558,14.033809 13.1678443,13.96824 C13.2653974,13.8698866 13.3629506,13.6731797 13.2979152,13.5092572 Z" id="Shape"></path>
            </g>
            <path d="M7,362.004688 C3.1346,362.004688 0,365.139288 0,369.004688 C0,372.870088 3.1346,376.004688 7,376.004688 C10.8654,376.004688 14,372.870088 14,369.004688 C14,365.139288 10.8654,362.004688 7,362.004688 Z M7,375.135288 C3.6148,375.135288 0.8694,372.391288 0.8694,369.004688 C0.8694,365.618088 3.6148,362.875488 7,362.875488 C10.3852,362.875488 13.1306,365.619488 13.1306,369.006088 C13.1306,372.392688 10.3852,375.135288 7,375.135288 Z M3.619,368.010688 L4.893,369.288888 L5.565,368.639288 L4.2784,367.352688 C3.9494,367.106288 4.032,366.612088 4.2784,366.283088 C4.5248,365.954088 5.019,365.954088 5.3494,366.283088 L6.6668,367.517888 L7.2954,366.911688 L6.006,365.622288 C5.348,364.881688 4.277,364.881688 3.619,365.622288 C2.8784,366.281688 2.8784,367.351288 3.619,368.010688 Z M9.1644,368.698088 L8.5064,369.356088 L9.7118,370.644088 C10.0408,370.890488 10.0408,371.384688 9.7118,371.715088 C9.4654,372.044088 8.9712,372.044088 8.6408,371.715088 L7.3528,370.427088 L6.6934,371.085088 L7.9814,372.373087 C8.6394,373.031088 9.7104,373.031088 10.3684,372.373087 C11.109,371.715088 11.109,370.644088 10.451,369.986088 L9.1644,368.698088 Z M10.535,365.541088 C10.3586,365.364688 9.9582,365.375888 9.7944,365.541088 L3.619,371.715088 C3.4538,371.961488 3.4538,372.291888 3.619,372.455688 C3.8248,372.661488 4.1132,372.702088 4.3596,372.455688 L10.535,366.280288 C10.7002,366.033888 10.7002,365.704888 10.535,365.541088 L10.535,365.541088 Z" id="Shape-Copy-10" fill="#00B9B2" fill-rule="nonzero"></path>
            <path d="M7.93879604,339.044562 C7.93879604,339.193116 7.82044419,339.313523 7.67442568,339.313523 L1.32338885,339.313523 C1.17737033,339.313523 1.05901848,339.193116 1.05901848,339.044562 L1.05901848,329.888972 C1.05901848,329.740419 1.17737033,329.620012 1.32338885,329.620012 L7.67442568,329.620012 C7.82044419,329.620012 7.93879604,329.740419 7.93879604,329.888972 L7.93879604,339.044562 Z M4.49890726,341.347924 C4.12540727,341.347924 3.82261099,341.039871 3.82261099,340.659887 C3.82261099,340.279903 4.12540727,339.971849 4.49890726,339.971849 C4.87240725,339.971849 5.17520354,340.279903 5.17520354,340.659887 C5.17520354,341.039871 4.87240725,341.347924 4.49890726,341.347924 Z M3.97016654,328.544171 L5.02918502,328.544171 C5.17520354,328.544171 5.29355539,328.664578 5.29355539,328.813132 C5.29355539,328.961685 5.17520354,329.082092 5.02918502,329.082092 L3.97016654,329.082092 C3.82414803,329.082092 3.70579618,328.961685 3.70579618,328.813132 C3.70425914,328.664578 3.82261099,328.544171 3.97016654,328.544171 L3.97016654,328.544171 Z M7.41005532,328.004688 L1.58775921,328.004688 C0.710111088,328.004688 0,328.728691 0,329.620012 L0,340.389363 C0,341.280684 0.710111088,342.004688 1.58775921,342.004688 L7.41005532,342.004688 C8.28770344,342.004688 8.99781453,341.280684 8.99781453,340.389363 L8.99781453,329.620012 C8.99781453,328.728691 8.28770344,328.004688 7.41005532,328.004688 Z" id="Shape-Copy-10" fill="#00B9B2" fill-rule="nonzero"></path>
            <path d="M10.4296875,409.995313 L3.5625,409.995313 C2.66875,409.995313 1.9453125,409.273438 1.9453125,408.38125 L1.9453125,401.04375 C1.9453125,400.68125 2.23125,400.407813 2.5828125,400.407813 C2.934375,400.407813 3.2203125,400.68125 3.2203125,401.04375 L3.2203125,408.38125 C3.2203125,408.559375 3.384375,408.723438 3.5640625,408.723438 L10.43125,408.723438 C10.6109375,408.723438 10.775,408.559375 10.775,408.38125 L10.775,401.057813 C10.775,400.220313 12.05,400.220313 12.05,401.057813 L12.05,408.379688 C12.046875,409.271875 11.3234375,409.995313 10.4296875,409.995313 Z M9.7921875,397.61875 C9.7921875,397.417188 9.6515625,397.276563 9.4640625,397.276563 L4.54375,397.276563 C4.3640625,397.276563 4.2,397.440625 4.2,397.61875 L4.2,398.451563 L9.7921875,398.451563 L9.7921875,397.61875 L9.7921875,397.61875 Z M13.371875,398.451563 C14.1953125,398.451563 14.1953125,399.721875 13.371875,399.721875 L0.61875,399.721875 C-0.20625,399.721875 -0.20625,398.451563 0.61875,398.451563 L2.925,398.451563 L2.925,397.61875 C2.925,396.728125 3.65,396.004688 4.54375,396.004688 L9.4640625,396.004688 C10.3453125,396.004688 11.0671875,396.729688 11.0671875,397.61875 L11.0671875,398.451563 L13.371875,398.451563 L13.371875,398.451563 Z M4.8875,406.423438 L4.8875,401.04375 C4.8875,400.221875 6.1625,400.221875 6.1625,401.04375 L6.1625,406.423438 C6.1609375,407.246875 4.8875,407.246875 4.8875,406.423438 Z M7.8296875,406.423438 L7.8296875,401.04375 C7.8296875,400.221875 9.1046875,400.221875 9.1046875,401.04375 L9.1046875,406.423438 C9.1046875,407.246875 7.8296875,407.246875 7.8296875,406.423438 Z" id="Shape-Copy-10" fill="#FE7065" fill-rule="nonzero"></path>
            <g id="Group-25" fill-rule="nonzero" fill="#FFFFFF">
                <path d="M1.2631579,6 C1.2631579,3.384 3.384,1.2631579 6,1.2631579 L6,2.68421053 C6,2.946 6.21221053,3.15789475 6.47368421,3.15789475 C6.73547368,3.15789475 7.13147368,2.68421053 7.13147368,2.68421053 L9.78947368,0 L6,0 C2.68642105,0 0,2.68642105 0,6 C0,7.57642105 0.612631582,9.00631579 1.60705263,10.0771579 L2.50010527,9.18410527 C1.73431579,8.34252632 1.2631579,7.22778947 1.2631579,6 Z" id="Shape"></path>
                <path d="M10.3929474,1.9228421 L9.49989473,2.81589473 C10.266,3.65747368 10.7368421,4.77221053 10.7368421,6 C10.7368421,8.616 8.616,10.7368421 6,10.7368421 L6,9.31610525 L6,9.31578947 C6,9.05431579 5.78778947,8.84210525 5.52631579,8.84210525 C5.26452632,8.84210525 4.86852632,9.31578947 4.86852632,9.31578947 L4.86852632,9.31578947 L4.86852632,9.31578947 L2.21052632,12 L6,12 C9.31389473,12 12,9.31357895 12,6 C12,4.42357895 11.3873684,2.99368421 10.3929474,1.9228421 Z" id="Shape"></path>
            </g>
            <path d="M5.76923077,101 L10,96.7692308 L9.23076923,96 L5,100.230769 L0.769230769,96 L9.43689571e-15,96.7692308 L4.23076923,101 L1.0658141e-14,105.230769 L0.769230769,106 L5,101.769231 L9.23076923,106 L10,105.230769 L5.76923077,101 Z" id="Combined-Shape-Copy-2" fill="#FFFFFF"></path>
            <g id="Group-27" transform="translate(0.000000, 126.000000)" fill="#00B9B2">
                <path d="M5.5,5.5 L0,5.5 L0,6.5 L5.5,6.5 L5.5,12 L6.5,12 L6.5,6.5 L12,6.5 L12,5.5 L6.5,5.5 L6.5,0 L5.5,-1.8369702e-16 L5.5,5.5 Z" id="Combined-Shape"></path>
            </g>
        </g>
    </g>
</svg>