<?xml version="1.0" encoding="UTF-8" standalone="no"?>
<svg width="375px" height="146px" viewBox="0 0 375 146" version="1.1" xmlns="http://www.w3.org/2000/svg" xmlns:xlink="http://www.w3.org/1999/xlink">
    <!-- Generator: Sketch 42 (36781) - http://www.bohemiancoding.com/sketch -->
    <title>4acb4699beb085787de425b639b763df copy 2@3x</title>
    <desc>Created with Sketch.</desc>
    <defs>
        <rect id="path-1" x="0" y="0" width="375" height="146"></rect>
        <linearGradient x1="100%" y1="0%" x2="0%" y2="100%" id="linearGradient-3">
            <stop stop-color="#4FDCC7" offset="0%"></stop>
            <stop stop-color="#19A4C2" offset="100%"></stop>
        </linearGradient>
        <rect id="path-4" x="0" y="0" width="438" height="238.113537"></rect>
    </defs>
    <g id="Page-1" stroke="none" stroke-width="1" fill="none" fill-rule="evenodd">
        <g id="4acb4699beb085787de425b639b763df-copy-2">
            <mask id="mask-2" fill="white">
                <use xlink:href="#path-1"></use>
            </mask>
            <use id="Mask" fill="#4FDCC7" xlink:href="#path-1"></use>
            <g id="Group-2" mask="url(#mask-2)">
                <g transform="translate(-1.000000, -1.676856)" id="Path-2-+-Path-2-Copy-+-Path-2-Copy-2-+-Path-2-Copy-2-Mask">
                    <g>
                        <mask id="mask-5" fill="white">
                            <use xlink:href="#path-4"></use>
                        </mask>
                        <use id="Mask" fill="url(#linearGradient-3)" xlink:href="#path-4"></use>
                        <path d="M-30.2939569,128.197537 C-30.2939569,128.197537 25.4498303,154.462726 74.6175388,154.462726 C123.785247,154.462726 211.789287,127.544695 211.789287,127.544695 C211.789287,127.544695 287.26131,105.416579 345.253109,123.887334 C403.244907,142.358088 549.899645,159.285104 584.528492,159.285104 C619.157339,159.285104 711.166456,102.715038 711.166456,102.715038 L694.017834,187.811797 L267.373732,303.660685 L-21.7670179,293.399155 L-105.12,198.311381 L-30.2939569,128.197537 Z" id="Path-2" fill-opacity="0.814424819" fill="#F4F7F9" opacity="0.201201026" mask="url(#mask-5)"></path>
                        <path d="M-142.421957,128.197537 C-142.421957,128.197537 -86.6781697,154.462726 -37.5104612,154.462726 C11.6572472,154.462726 99.661287,127.544695 99.661287,127.544695 C99.661287,127.544695 175.13331,105.416579 233.125109,123.887334 C291.116907,142.358088 437.771645,159.285104 472.400492,159.285104 C507.029339,159.285104 599.038456,102.715038 599.038456,102.715038 L581.889834,187.811797 L155.245732,303.660685 L-133.895018,293.399155 L-217.248,198.311381 L-142.421957,128.197537 Z" id="Path-2-Copy" fill="#DBF9F9" opacity="0.227728545" mask="url(#mask-5)"></path>
                        <path d="M-5.76595687,108.632768 C-5.76595687,108.632768 49.9778303,134.897957 99.1455388,134.897957 C148.313247,134.897957 236.317287,107.979925 236.317287,107.979925 C236.317287,107.979925 311.78931,85.8518103 369.781109,104.322565 C427.772907,122.793319 574.427645,139.720335 609.056492,139.720335 C643.685339,139.720335 735.694456,83.1502686 735.694456,83.1502686 L718.545834,168.247028 L291.901732,284.095916 L2.76098214,273.834386 L-80.592,178.746611 L-5.76595687,108.632768 Z" id="Path-2-Copy-2" fill="#FDFFD9" opacity="0.116180037" mask="url(#mask-5)"></path>
                        <path d="M-85.5849305,186.644181 C-85.5849305,186.644181 10.1375711,77.5859115 139.759002,108.103938 C269.380434,138.621964 375.748497,190.969134 476.70365,167.824372 C577.658803,144.679609 530.431033,260.271345 530.431033,260.271345 C530.431033,260.271345 125.060196,321.096035 125.060196,321.096035 C125.060196,321.096035 -186.88,294.145275 -186.88,284.28461 C-186.88,274.423945 -85.5849305,186.644181 -85.5849305,186.644181 Z" id="Path-3" fill="#0BEDF3" opacity="0.1" mask="url(#mask-5)"></path>
                    </g>
                </g>
            </g>
        </g>
    </g>
</svg>