<?xml version="1.0" encoding="UTF-8" standalone="no"?>
<svg width="15px" height="110px" viewBox="0 0 15 110" version="1.1" xmlns="http://www.w3.org/2000/svg" xmlns:xlink="http://www.w3.org/1999/xlink">
    <!-- Generator: Sketch 42 (36781) - http://www.bohemiancoding.com/sketch -->
    <title>自助预约svg</title>
    <desc>Created with Sketch.</desc>
    <defs></defs>
    <g id="Page-2" stroke="none" stroke-width="1" fill="none" fill-rule="evenodd">
        <g id="自助预约svg" fill-rule="nonzero" fill="#60e0cd">
            <path d="M6.66581729,85.3639502 C5.84279022,84.5160567 1.68093293,80.2725448 1.68093293,77.5230792 C1.68148865,74.4775864 4.29155906,72 7.50004117,72 C10.7089967,72 13.3190671,74.4775864 13.3190671,77.5236067 C13.3190671,80.2670353 9.16885941,84.4950737 8.33626154,85.3619379 C7.489503,86.2123517 7.489503,86.2123517 6.66581729,85.3639502 L6.66581729,85.3639502 L6.66581729,85.3639502 M7.50006176,72.7262356 C4.72734949,72.7262356 2.47129578,74.8677241 2.47129578,77.4995369 C2.47129578,79.9861689 5.57793635,83.1588682 7.43403352,85.055009 L7.50006176,85.1221191 L7.5686422,85.0524887 C9.42426598,83.155332 12.5297745,79.9806399 12.5297745,77.4995369 C12.5287248,74.8677241 10.2731445,72.7262356 7.50006176,72.7262356 L7.50006176,72.7262356 L7.50006176,72.7262356 M7.50006176,80.2646322 C5.92715735,80.2646322 4.64718117,79.0500846 4.64718117,77.5566245 C4.64718117,76.0641412 5.92668396,74.8491442 7.50006176,74.8491442 C9.07284267,74.8491442 10.3528394,76.0636918 10.3528394,77.5566245 C10.3528188,79.0506317 9.07333663,80.2646322 7.50006176,80.2646322 L7.50006176,80.2646322 L7.50006176,80.2646322 M7.50006176,75.6249652 C6.36673495,75.6249652 5.44493309,76.4994488 5.44493309,77.5752043 C5.44493309,78.6509598 6.36673493,79.5258928 7.50006176,79.5258928 C8.63336799,79.5258928 9.55508751,78.6504323 9.55508751,77.5752043 C9.55556089,76.4994488 8.63336799,75.6249652 7.50006176,75.6249652 L7.50006176,75.6249652 L7.50006176,75.6249652" id="Shape-Copy-4"></path>
            <path d="M14.4028131,102.574006 L12.5093009,102.574006 L12.4839471,102.370919 C12.199081,100.091735 10.4082975,98.300951 8.12866416,98.0155564 L7.92602582,97.9902827 L7.92602582,96.097203 C7.92602582,96.0433722 7.8825896,96 7.82927129,96 L7.17170571,96 C7.11785888,96 7.07402223,96.0433882 7.07402223,96.097203 L7.07402223,97.9902667 L6.87141592,98.0155404 C4.59221505,98.3005026 2.80088696,100.091286 2.51600487,102.370919 L2.49065105,102.574006 L0.597235014,102.574006 C0.543836637,102.574006 0.5,102.617394 0.5,102.671241 L0.5,103.328342 C0.5,103.382189 0.543836637,103.426026 0.597235014,103.426026 L2.49065105,103.426026 L2.51600487,103.629113 C2.80050257,105.907833 4.59173457,107.698601 6.87139991,107.984011 L7.07400622,108.009285 L7.07400622,109.902797 C7.07400622,109.956564 7.11784286,110 7.1716897,110 L7.82925528,110 C7.88257357,110 7.92600981,109.956564 7.92600981,109.902797 L7.92600981,108.009285 L8.12864815,107.984011 C10.4082815,107.698601 12.1995295,105.907833 12.4839311,103.629017 L12.5092849,103.42601 L14.402797,103.42601 C14.4560993,103.42601 14.5,103.382093 14.5,103.328326 L14.5,102.671225 C14.500016,102.617378 14.4560993,102.574006 14.4028131,102.574006 L14.4028131,102.574006 Z M7.07400622,107.152316 L6.80403531,107.106638 C5.05800134,106.811761 3.68772602,105.441118 3.39384276,103.695997 L3.34810017,103.42601 L7.07400622,103.42601 L7.07400622,107.152316 L7.07400622,107.152316 Z M7.07400622,102.574006 L3.34810019,102.574006 L3.39384277,102.304019 C3.68772602,100.55845 5.05844982,99.187726 6.80448378,98.8933783 L7.07400623,98.8476197 L7.07400622,102.574006 L7.07400622,102.574006 Z M11.6062694,103.695997 C11.312322,105.441118 9.94204671,106.811761 8.19599674,107.106638 L7.92600981,107.152316 L7.92600981,103.42601 L11.6518678,103.42601 L11.6062694,103.695997 L11.6062694,103.695997 Z M7.92600981,102.574006 L7.92600981,98.8476197 L8.19553226,98.8933783 C9.94156624,99.187726 11.3123221,100.55845 11.6062694,102.304019 L11.6518678,102.574006 L7.92600981,102.574006 L7.92600981,102.574006 Z" id="Shape-Copy-4"></path>
            <g id="Group-4-Copy" transform="translate(0.500000, 0.000000)">
                <path d="M1.47368421,7 C1.47368421,3.948 3.948,1.47368421 7,1.47368421 L7,3.13157895 C7,3.437 7.24757895,3.68421054 7.55263158,3.68421054 C7.85805263,3.68421054 8.32005263,3.13157895 8.32005263,3.13157895 L11.4210526,0 L7,0 C3.13415789,0 0,3.13415789 0,7 C0,8.83915789 0.714736846,10.5073684 1.87489474,11.7566842 L2.91678948,10.7147895 C2.02336842,9.73294737 1.47368421,8.43242105 1.47368421,7 Z" id="Shape"></path>
                <path d="M12.1251053,2.24331579 L11.0832105,3.28521052 C11.977,4.26705263 12.5263158,5.56757895 12.5263158,7 C12.5263158,10.052 10.052,12.5263158 7,12.5263158 L7,10.8687895 L7,10.868421 C7,10.5633684 6.75242105,10.3157895 6.44736842,10.3157895 C6.14194737,10.3157895 5.67994737,10.868421 5.67994737,10.868421 L5.67994737,10.868421 L5.67994737,10.868421 L2.57894737,14 L7,14 C10.8662105,14 14,10.8658421 14,7 C14,5.16084211 13.2852632,3.49263158 12.1251053,2.24331579 Z" id="Shape"></path>
            </g>
            <path d="M7.50000001,38 C3.63396415,38 0.50000001,34.8659243 0.50000001,31 C0.50000001,27.1340618 3.63396415,24 7.50000001,24 C11.3659243,24 14.5,27.1340618 14.5,31 C14.5,34.8659243 11.3659243,38 7.50000001,38 Z M7.50000001,24.793245 C4.07214742,24.793245 1.29325897,27.5721195 1.29325897,30.9999861 C1.29325897,34.4278526 4.07214742,37.206741 7.50000001,37.206741 C10.9278665,37.206741 13.706741,34.4278526 13.706741,31 C13.706741,27.5721335 10.9278526,24.793245 7.50000001,24.793245 Z M11.0856594,32.7551175 C10.989249,32.9616733 10.7431614,33.0504283 10.5366195,32.9535996 L7.2471773,31.8538884 C7.08984463,31.7804582 7.00228885,31.6206992 7.01117132,31.4573287 C7.00914941,31.4407908 7.00149403,31.4270697 7.00149403,31.4101275 L7.00149403,26.8660538 C7.00149403,26.6377171 7.18625499,26.4529562 7.41459164,26.4529562 C7.6429283,26.4529562 7.82768925,26.6377171 7.82768925,26.8660538 L7.82768925,31.1825996 L10.8867869,32.2056454 C11.0937331,32.3024741 11.1824881,32.5481574 11.0856594,32.7551175 Z" id="Shape-Copy"></path>
            <g id="Group-4-Copy" transform="translate(0.500000, 48.000000)">
                <path d="M2.50203336,4.88693743 C2.69713966,4.88693743 2.82721052,4.75579949 2.82721052,4.55909258 L2.82721052,2.32974753 C2.82721052,1.31342847 4.94086208,0.690523229 7.02199592,0.690523229 C9.0055766,0.690523229 11.1192282,1.28064398 11.1192282,2.32974753 L11.1192282,4.55909258 C11.1192282,4.75579949 11.249299,4.88693743 11.4444053,4.88693743 C11.6395116,4.88693743 11.7695825,4.75579949 11.7695825,4.55909258 L11.7695825,2.32974753 C11.7695825,1.80519576 11.5094407,1.05115258 10.1762144,0.52660081 C9.33075376,0.198755956 8.22515141,0.00204904061 7.02199592,0.00204904061 C4.61568491,0.00204904061 2.17685619,0.723307726 2.17685619,2.29696305 L2.17685619,4.5263081 C2.17685619,4.723015 2.33944477,4.88693743 2.50203336,4.88693743 Z" id="Shape"></path>
                <path d="M6.98947821,5.93604099 C7.1845845,5.93604099 7.31465536,5.80490305 7.31465536,5.60819613 L7.31465536,4.06732529 L8.84298803,4.06732529 C9.03809433,4.06732529 9.16816519,3.93618735 9.16816519,3.73948043 C9.16816519,3.54277352 9.03809433,3.41163558 8.84298803,3.41163558 L7.31465536,3.41163558 L7.31465536,1.87076474 C7.31465536,1.67405782 7.1845845,1.54291988 6.98947821,1.54291988 C6.79437191,1.54291988 6.66430105,1.67405782 6.66430105,1.87076474 L6.66430105,3.41163558 L5.13596838,3.41163558 C4.94086208,3.41163558 4.81079122,3.54277352 4.81079122,3.73948043 C4.81079122,3.93618735 4.94086208,4.06732529 5.13596838,4.06732529 L6.66430105,4.06732529 L6.66430105,5.60819613 C6.66430103,5.77211855 6.79437191,5.93604099 6.98947821,5.93604099 Z" id="Shape"></path>
                <path d="M13.2979152,13.5092572 C12.51749,11.4438346 10.7615333,10.1980241 8.29018685,9.8701793 C10.0136258,9.31284303 11.2818168,7.67361874 11.2818168,5.73933407 C11.2818168,5.54262715 11.1517459,5.41148922 10.9566396,5.41148922 C10.7615333,5.41148922 10.6314624,5.54262715 10.6314624,5.73933407 C10.6314624,7.7719722 9.00557662,9.41119649 6.98947822,9.41119649 C4.97337982,9.41119649 3.347494,7.77197219 3.347494,5.73933407 C3.347494,5.54262715 3.21742314,5.41148922 3.02231685,5.41148922 C2.82721055,5.41148922 2.69713969,5.54262715 2.69713969,5.73933407 C2.69713969,7.67361874 3.96533062,9.31284303 5.68876959,9.8701793 C3.21742316,10.1980241 1.46146648,11.4438346 0.68104129,13.5092572 C0.616005852,13.6731797 0.713559001,13.8698866 0.876147587,13.9354555 C0.908665298,13.9354555 0.941183025,13.96824 1.00621845,13.96824 C1.13628931,13.96824 1.26636018,13.902671 1.29887789,13.7715331 C2.33944482,11.0504208 4.97337984,10.4603 7.02199596,10.4603 C9.03809438,10.4603 11.6720294,11.0176363 12.745114,13.7715331 C12.8101495,13.9354555 13.0052558,14.033809 13.1678443,13.96824 C13.2653974,13.8698866 13.3629506,13.6731797 13.2979152,13.5092572 Z" id="Shape"></path>
            </g>
        </g>
    </g>
</svg>
