<?xml version="1.0" encoding="UTF-8" standalone="no"?>
<svg width="12px" height="130px" viewBox="0 0 12 130" version="1.1" xmlns="http://www.w3.org/2000/svg" xmlns:xlink="http://www.w3.org/1999/xlink">
    <!-- Generator: Sketch 42 (36781) - http://www.bohemiancoding.com/sketch -->
    <title>arrow@2x</title>
    <desc>Created with Sketch.</desc>
    <defs></defs>
    <g id="Page-2" stroke="none" stroke-width="1" fill="none" fill-rule="evenodd">
        <g id="arrow">
            <path d="M8.73873141,5.25570968 C9.08708953,5.61284402 9.08708953,6.38717474 8.73873141,6.74432527 L3.7267099,11.8834982 C3.40382336,12.2146164 3.00001212,11.8004798 3,11.1381786 L3,0.860836463 C3,0.199555116 3.40381124,-0.214613874 3.72669778,0.116520571 C3.7267099,0.116536761 8.73873141,5.25570968 8.73873141,5.25570968 Z" id="Shape-Copy-24" fill="#EDF3F7"></path>
            <path d="M8.73873141,74.2557097 C9.08708953,74.612844 9.08708953,75.3871747 8.73873141,75.7443253 L3.7267099,80.8834982 C3.40382336,81.2146164 3.00001212,80.8004798 3,80.1381786 L3,69.8608365 C3,69.1995551 3.40381124,68.7853861 3.72669778,69.1165206 C3.7267099,69.1165368 8.73873141,74.2557097 8.73873141,74.2557097 Z" id="Shape-Copy-33" fill="#EDF3F7" transform="translate(6.000000, 75.000000) rotate(90.000000) translate(-6.000000, -75.000000) "></path>
            <path d="M8.73873141,27.2557097 C9.08708953,27.612844 9.08708953,28.3871747 8.73873141,28.7443253 L3.7267099,33.8834982 C3.40382336,34.2146164 3.00001212,33.8004798 3,33.1381786 L3,22.8608365 C3,22.1995551 3.40381124,21.7853861 3.72669778,22.1165206 C3.7267099,22.1165368 8.73873141,27.2557097 8.73873141,27.2557097 Z" id="Shape-Copy-25" fill="#00B9B2"></path>
            <path d="M8.73873141,96.2557097 C9.08708953,96.612844 9.08708953,97.3871747 8.73873141,97.7443253 L3.7267099,102.883498 C3.40382336,103.214616 3.00001212,102.80048 3,102.138179 L3,91.8608365 C3,91.1995551 3.40381124,90.7853861 3.72669778,91.1165206 C3.7267099,91.1165368 8.73873141,96.2557097 8.73873141,96.2557097 Z" id="Shape-Copy-34" fill="#00B9B2" transform="translate(6.000000, 97.000000) rotate(90.000000) translate(-6.000000, -97.000000) "></path>
            <path d="M8.73873141,49.2557097 C9.08708953,49.612844 9.08708953,50.3871747 8.73873141,50.7443253 L3.7267099,55.8834982 C3.40382336,56.2146164 3.00001212,55.8004798 3,55.1381786 L3,44.8608365 C3,44.1995551 3.40381124,43.7853861 3.72669778,44.1165206 C3.7267099,44.1165368 8.73873141,49.2557097 8.73873141,49.2557097 Z" id="Shape-Copy-32" fill="#FFFFFF"></path>
            <path d="M8.73873141,118.25571 C9.08708953,118.612844 9.08708953,119.387175 8.73873141,119.744325 L3.7267099,124.883498 C3.40382336,125.214616 3.00001212,124.80048 3,124.138179 L3,113.860836 C3,113.199555 3.40381124,112.785386 3.72669778,113.116521 C3.7267099,113.116537 8.73873141,118.25571 8.73873141,118.25571 Z" id="Shape-Copy-35" fill="#FFFFFF" transform="translate(6.000000, 119.000000) rotate(90.000000) translate(-6.000000, -119.000000) "></path>
        </g>
    </g>
</svg>
