<?xml version="1.0" encoding="UTF-8" standalone="no"?>
<svg width="375px" height="1357px" viewBox="0 0 375 1357" version="1.1" xmlns="http://www.w3.org/2000/svg" xmlns:xlink="http://www.w3.org/1999/xlink">
    <!-- Generator: Sketch 41 (35326) - http://www.bohemiancoding.com/sketch -->
    <title>Group 39</title>
    <desc>Created with Sketch.</desc>
    <defs>
        <rect id="path-1" x="0" y="0" width="375" height="190"></rect>
        <filter x="-50%" y="-50%" width="200%" height="200%" filterUnits="objectBoundingBox" id="filter-3">
            <feOffset dx="0" dy="2" in="SourceAlpha" result="shadowOffsetOuter1"></feOffset>
            <feGaussianBlur stdDeviation="6" in="shadowOffsetOuter1" result="shadowBlurOuter1"></feGaussianBlur>
            <feColorMatrix values="0 0 0 0 0.160784314   0 0 0 0 0.705882353   0 0 0 0 0.764705882  0 0 0 0.4 0" type="matrix" in="shadowBlurOuter1" result="shadowMatrixOuter1"></feColorMatrix>
            <feMerge>
                <feMergeNode in="shadowMatrixOuter1"></feMergeNode>
                <feMergeNode in="SourceGraphic"></feMergeNode>
            </feMerge>
        </filter>
        <linearGradient x1="100%" y1="0%" x2="0%" y2="100%" id="linearGradient-4">
            <stop stop-color="#4FDCC7" offset="0%"></stop>
            <stop stop-color="#19A4C2" offset="100%"></stop>
        </linearGradient>
        <path d="M0,0.955458807 L375,0.955458807 L375,142.5 C375,142.5 318.489813,180.285168 188.5,179.016231 C58.5101871,177.747293 0,142.5 0,142.5 L0,0.955458807 Z" id="path-5"></path>
        <rect id="path-7" x="0" y="0" width="375" height="299"></rect>
        <path d="M336.734694,107.142857 L336.734694,126.101567 C336.734694,128.310968 334.943198,130.102041 332.73328,130.102041 L4.0014142,130.102041 C1.79149416,130.102041 1.01959257e-13,128.312389 1.01959257e-13,126.101567 L1.01959257e-13,107.142857 C6.34000351,107.142857 11.4795918,102.003269 11.4795918,95.6632653 C11.4795918,89.3232618 6.34000351,84.1836735 1.01959257e-13,84.1836735 L1.01959257e-13,4.00047359 C1.01959257e-13,1.79107304 1.79149538,-9.85606155e-14 4.0014142,-9.85606155e-14 L332.73328,-9.85606155e-14 C334.9432,-9.85606155e-14 336.734694,1.78965186 336.734694,4.00047359 L336.734694,84.1836735 C330.39469,84.1836735 325.255102,89.3232618 325.255102,95.6632653 C325.255102,102.003269 330.39469,107.142857 336.734694,107.142857 Z" id="path-9"></path>
        <filter x="-50%" y="-50%" width="200%" height="200%" filterUnits="objectBoundingBox" id="filter-10">
            <feOffset dx="0" dy="2" in="SourceAlpha" result="shadowOffsetOuter1"></feOffset>
            <feGaussianBlur stdDeviation="2" in="shadowOffsetOuter1" result="shadowBlurOuter1"></feGaussianBlur>
            <feColorMatrix values="0 0 0 0 0.0554180535   0 0 0 0 0.398230294   0 0 0 0 0.515040391  0 0 0 0.517040308 0" type="matrix" in="shadowBlurOuter1"></feColorMatrix>
        </filter>
        <rect id="path-11" x="21.0459184" y="95.6632653" width="294.642857" height="1.91326531"></rect>
        <mask id="mask-12" maskContentUnits="userSpaceOnUse" maskUnits="objectBoundingBox" x="0" y="0" width="294.642857" height="1.91326531" fill="white">
            <use xlink:href="#path-11"></use>
        </mask>
        <filter x="-50%" y="-50%" width="200%" height="200%" filterUnits="objectBoundingBox" id="filter-13">
            <feOffset dx="0" dy="2" in="SourceAlpha" result="shadowOffsetOuter1"></feOffset>
            <feGaussianBlur stdDeviation="2" in="shadowOffsetOuter1" result="shadowBlurOuter1"></feGaussianBlur>
            <feColorMatrix values="0 0 0 0 0.518548044   0 0 0 0 0.47781942   0 0 0 0 0.0501688685  0 0 0 0.635954484 0" type="matrix" in="shadowBlurOuter1" result="shadowMatrixOuter1"></feColorMatrix>
            <feMerge>
                <feMergeNode in="shadowMatrixOuter1"></feMergeNode>
                <feMergeNode in="SourceGraphic"></feMergeNode>
            </feMerge>
        </filter>
        <rect id="path-14" x="21.0459184" y="95.6632653" width="294.642857" height="1.91326531"></rect>
        <mask id="mask-15" maskContentUnits="userSpaceOnUse" maskUnits="objectBoundingBox" x="0" y="0" width="294.642857" height="1.91326531" fill="white">
            <use xlink:href="#path-14"></use>
        </mask>
        <filter x="-50%" y="-50%" width="200%" height="200%" filterUnits="objectBoundingBox" id="filter-16">
            <feOffset dx="0" dy="2" in="SourceAlpha" result="shadowOffsetOuter1"></feOffset>
            <feGaussianBlur stdDeviation="2" in="shadowOffsetOuter1" result="shadowBlurOuter1"></feGaussianBlur>
            <feColorMatrix values="0 0 0 0 0.0514600318   0 0 0 0 0.58458227   0 0 0 0 0.505181086  0 0 0 0.553725091 0" type="matrix" in="shadowBlurOuter1" result="shadowMatrixOuter1"></feColorMatrix>
            <feMerge>
                <feMergeNode in="shadowMatrixOuter1"></feMergeNode>
                <feMergeNode in="SourceGraphic"></feMergeNode>
            </feMerge>
        </filter>
        <path d="M336.734694,107.142857 L336.734694,126.101567 C336.734694,128.310968 334.943198,130.102041 332.73328,130.102041 L4.0014142,130.102041 C1.79149416,130.102041 2.92283204e-13,128.312389 2.92283204e-13,126.101567 L2.92283204e-13,107.142857 C6.34000351,107.142857 11.4795918,102.003269 11.4795918,95.6632653 C11.4795918,89.3232618 6.34000351,84.1836735 2.92283204e-13,84.1836735 L2.92283204e-13,4.00047359 C2.92283204e-13,1.79107304 1.79149538,-3.48020932e-12 4.0014142,-3.48020932e-12 L332.73328,-3.48020932e-12 C334.9432,-3.48020932e-12 336.734694,1.78965186 336.734694,4.00047359 L336.734694,84.1836735 C330.39469,84.1836735 325.255102,89.3232618 325.255102,95.6632653 C325.255102,102.003269 330.39469,107.142857 336.734694,107.142857 Z" id="path-17"></path>
        <rect id="path-19" x="21.0459184" y="95.6632653" width="294.642857" height="1.91326531"></rect>
        <mask id="mask-20" maskContentUnits="userSpaceOnUse" maskUnits="objectBoundingBox" x="0" y="0" width="294.642857" height="1.91326531" fill="white">
            <use xlink:href="#path-19"></use>
        </mask>
        <linearGradient x1="50%" y1="0%" x2="50%" y2="50%" id="linearGradient-21">
            <stop stop-color="#FFFFFF" stop-opacity="0" offset="0%"></stop>
            <stop stop-color="#FFFFFF" offset="100%"></stop>
        </linearGradient>
        <rect id="path-22" x="0" y="0" width="375" height="133.928571"></rect>
        <filter x="-50%" y="-50%" width="200%" height="200%" filterUnits="objectBoundingBox" id="filter-24">
            <feGaussianBlur stdDeviation="3" in="SourceGraphic"></feGaussianBlur>
        </filter>
        <rect id="path-25" x="21.8619579" y="-5.21752898" width="294.642857" height="1.91326531"></rect>
        <filter x="-50%" y="-50%" width="200%" height="200%" filterUnits="objectBoundingBox" id="filter-26">
            <feGaussianBlur stdDeviation="3" in="SourceGraphic"></feGaussianBlur>
        </filter>
        <mask id="mask-27" maskContentUnits="userSpaceOnUse" maskUnits="objectBoundingBox" x="0" y="0" width="294.642857" height="1.91326531" fill="white">
            <use xlink:href="#path-25"></use>
        </mask>
        <filter x="-50%" y="-50%" width="200%" height="200%" filterUnits="objectBoundingBox" id="filter-28">
            <feGaussianBlur stdDeviation="3" in="SourceGraphic"></feGaussianBlur>
        </filter>
        <filter x="-50%" y="-50%" width="200%" height="200%" filterUnits="objectBoundingBox" id="filter-29">
            <feGaussianBlur stdDeviation="3" in="SourceGraphic"></feGaussianBlur>
        </filter>
        <filter x="-50%" y="-50%" width="200%" height="200%" filterUnits="objectBoundingBox" id="filter-30">
            <feGaussianBlur stdDeviation="3" in="SourceGraphic"></feGaussianBlur>
        </filter>
        <filter x="-50%" y="-50%" width="200%" height="200%" filterUnits="objectBoundingBox" id="filter-31">
            <feGaussianBlur stdDeviation="3" in="SourceGraphic"></feGaussianBlur>
        </filter>
        <rect id="path-32" x="26.1240633" y="-7.2029186" width="294.642857" height="1.91326531"></rect>
        <filter x="-50%" y="-50%" width="200%" height="200%" filterUnits="objectBoundingBox" id="filter-33">
            <feGaussianBlur stdDeviation="3" in="SourceGraphic"></feGaussianBlur>
        </filter>
        <mask id="mask-34" maskContentUnits="userSpaceOnUse" maskUnits="objectBoundingBox" x="0" y="0" width="294.642857" height="1.91326531" fill="white">
            <use xlink:href="#path-32"></use>
        </mask>
        <filter x="-50%" y="-50%" width="200%" height="200%" filterUnits="objectBoundingBox" id="filter-35">
            <feGaussianBlur stdDeviation="3" in="SourceGraphic"></feGaussianBlur>
        </filter>
        <filter x="-50%" y="-50%" width="200%" height="200%" filterUnits="objectBoundingBox" id="filter-36">
            <feGaussianBlur stdDeviation="3" in="SourceGraphic"></feGaussianBlur>
        </filter>
        <filter x="-50%" y="-50%" width="200%" height="200%" filterUnits="objectBoundingBox" id="filter-37">
            <feGaussianBlur stdDeviation="3" in="SourceGraphic"></feGaussianBlur>
        </filter>
        <filter x="-50%" y="-50%" width="200%" height="200%" filterUnits="objectBoundingBox" id="filter-38">
            <feGaussianBlur stdDeviation="3" in="SourceGraphic"></feGaussianBlur>
        </filter>
        <path d="M336.734694,107.142857 L336.734694,126.101567 C336.734694,128.310968 334.943198,130.102041 332.73328,130.102041 L4.0014142,130.102041 C1.79149416,130.102041 2.71891353e-14,128.312389 2.71891353e-14,126.101567 L2.71891353e-14,107.142857 C6.34000351,107.142857 11.4795918,102.003269 11.4795918,95.6632653 C11.4795918,89.3232618 6.34000351,84.1836735 2.71891353e-14,84.1836735 L2.71891353e-14,4.00047359 C2.71891353e-14,1.79107304 1.79149538,-2.8140755e-12 4.0014142,-2.8140755e-12 L332.73328,-2.8140755e-12 C334.9432,-2.8140755e-12 336.734694,1.78965186 336.734694,4.00047359 L336.734694,84.1836735 C330.39469,84.1836735 325.255102,89.3232618 325.255102,95.6632653 C325.255102,102.003269 330.39469,107.142857 336.734694,107.142857 Z" id="path-39"></path>
        <rect id="path-41" x="28.8262088" y="-16.1320446" width="294.642857" height="1.91326531"></rect>
        <filter x="-50%" y="-50%" width="200%" height="200%" filterUnits="objectBoundingBox" id="filter-42">
            <feGaussianBlur stdDeviation="3" in="SourceGraphic"></feGaussianBlur>
        </filter>
        <mask id="mask-43" maskContentUnits="userSpaceOnUse" maskUnits="objectBoundingBox" x="0" y="0" width="294.642857" height="1.91326531" fill="white">
            <use xlink:href="#path-41"></use>
        </mask>
        <filter x="-50%" y="-50%" width="200%" height="200%" filterUnits="objectBoundingBox" id="filter-44">
            <feGaussianBlur stdDeviation="3" in="SourceGraphic"></feGaussianBlur>
        </filter>
        <filter x="-50%" y="-50%" width="200%" height="200%" filterUnits="objectBoundingBox" id="filter-45">
            <feGaussianBlur stdDeviation="3" in="SourceGraphic"></feGaussianBlur>
        </filter>
        <filter x="-50%" y="-50%" width="200%" height="200%" filterUnits="objectBoundingBox" id="filter-46">
            <feGaussianBlur stdDeviation="3" in="SourceGraphic"></feGaussianBlur>
        </filter>
        <rect id="path-47" x="0" y="154.97449" width="361.607143" height="133.928571"></rect>
        <rect id="path-49" x="0" y="0" width="216.363636" height="154.513075"></rect>
        <mask id="mask-50" maskContentUnits="userSpaceOnUse" maskUnits="objectBoundingBox" x="0" y="0" width="216.363636" height="154.513075" fill="white">
            <use xlink:href="#path-49"></use>
        </mask>
        <rect id="path-51" x="216.363636" y="0" width="38.6363636" height="154.513075"></rect>
        <mask id="mask-52" maskContentUnits="userSpaceOnUse" maskUnits="objectBoundingBox" x="0" y="0" width="38.6363636" height="154.513075" fill="white">
            <use xlink:href="#path-51"></use>
        </mask>
        <rect id="path-53" x="0" y="0" width="375" height="485"></rect>
        <polygon id="path-55" points="0 105.602344 375 8 375 425.102344 0 425.102344"></polygon>
        <filter x="-50%" y="-50%" width="200%" height="200%" filterUnits="objectBoundingBox" id="filter-56">
            <feMorphology radius="1" operator="dilate" in="SourceAlpha" result="shadowSpreadOuter1"></feMorphology>
            <feOffset dx="0" dy="-3" in="shadowSpreadOuter1" result="shadowOffsetOuter1"></feOffset>
            <feGaussianBlur stdDeviation="5" in="shadowOffsetOuter1" result="shadowBlurOuter1"></feGaussianBlur>
            <feColorMatrix values="0 0 0 0 0.147732311   0 0 0 0 0.657498937   0 0 0 0 0.548263232  0 0 0 0.311452672 0" type="matrix" in="shadowBlurOuter1"></feColorMatrix>
        </filter>
        <linearGradient x1="50%" y1="0%" x2="50%" y2="100%" id="linearGradient-57">
            <stop stop-color="#51E2C0" offset="0%"></stop>
            <stop stop-color="#138695" offset="100%"></stop>
        </linearGradient>
        <polygon id="path-58" points="0 0 375 72.1093558 375 476 0 476"></polygon>
        <filter x="-50%" y="-50%" width="200%" height="200%" filterUnits="objectBoundingBox" id="filter-60">
            <feMorphology radius="0.5" operator="dilate" in="SourceAlpha" result="shadowSpreadOuter1"></feMorphology>
            <feOffset dx="0" dy="-3" in="shadowSpreadOuter1" result="shadowOffsetOuter1"></feOffset>
            <feGaussianBlur stdDeviation="4.5" in="shadowOffsetOuter1" result="shadowBlurOuter1"></feGaussianBlur>
            <feColorMatrix values="0 0 0 0 0.31662981   0 0 0 0 0.70958227   0 0 0 0 0.625378172  0 0 0 0.502009737 0" type="matrix" in="shadowBlurOuter1"></feColorMatrix>
        </filter>
        <linearGradient x1="77.4816005%" y1="50%" x2="5.90218515%" y2="50%" id="linearGradient-61">
            <stop stop-color="#50E6E6" stop-opacity="0.410750679" offset="0%"></stop>
            <stop stop-color="#FFFFFF" stop-opacity="0" offset="100%"></stop>
        </linearGradient>
        <linearGradient x1="5.4684811%" y1="11.6459359%" x2="100%" y2="100%" id="linearGradient-62">
            <stop stop-color="#EEFEAF" stop-opacity="0.434103261" offset="0%"></stop>
            <stop stop-color="#FFFFFF" stop-opacity="0.249688632" offset="100%"></stop>
        </linearGradient>
        <linearGradient x1="11.6459359%" y1="94.5315189%" x2="100%" y2="1.11022302e-14%" id="linearGradient-63">
            <stop stop-color="#FFFFFF" stop-opacity="0.434103261" offset="0%"></stop>
            <stop stop-color="#FFFFFF" stop-opacity="0.249688632" offset="100%"></stop>
        </linearGradient>
        <rect id="path-64" x="0" y="0" width="375" height="187.5"></rect>
    </defs>
    <g id="02-08迭代" stroke="none" stroke-width="1" fill="none" fill-rule="evenodd">
        <g id="Group-39">
            <g id="Group-38" transform="translate(0.000000, 198.000000)">
                <g id="Group-2-Copy">
                    <mask id="mask-2" fill="white">
                        <use xlink:href="#path-1"></use>
                    </mask>
                    <use id="Mask" fill="#FFFFFF" xlink:href="#path-1"></use>
                    <g filter="url(#filter-3)" mask="url(#mask-2)" id="Path-2-+-Path-2-Copy-+-Path-2-Copy-2-+-Path-2-Copy-2-Mask">
                        <g>
                            <mask id="mask-6" fill="white">
                                <use xlink:href="#path-5"></use>
                            </mask>
                            <use id="Mask" fill="url(#linearGradient-4)" xlink:href="#path-5"></use>
                            <path d="M-25.9366069,86.0493739 C-25.9366069,86.0493739 21.7892383,112.898849 63.8848791,112.898849 C105.98052,112.898849 181.326444,85.3820085 181.326444,85.3820085 C181.326444,85.3820085 245.942903,62.7616392 295.593415,81.6432873 C345.243927,100.524935 470.804491,117.828504 500.452476,117.828504 C530.100461,117.828504 608.87539,60 608.87539,60 L594.193351,146.989792 L228.915867,265.415813 L-18.6361454,254.926009 L-90,157.722945 L-25.9366069,86.0493739 Z" id="Path-2" fill-opacity="0.814424819" fill="#F4F7F9" opacity="0.201201026" mask="url(#mask-6)"></path>
                            <path d="M-121.936607,86.0493739 C-121.936607,86.0493739 -74.2107617,112.898849 -32.1151209,112.898849 C9.98051987,112.898849 85.3264443,85.3820085 85.3264443,85.3820085 C85.3264443,85.3820085 149.942903,62.7616392 199.593415,81.6432873 C249.243927,100.524935 374.804491,117.828504 404.452476,117.828504 C434.100461,117.828504 512.87539,60 512.87539,60 L498.193351,146.989792 L132.915867,265.415813 L-114.636145,254.926009 L-186,157.722945 L-121.936607,86.0493739 Z" id="Path-2-Copy" fill="#DBF9F9" opacity="0.227728545" mask="url(#mask-6)"></path>
                            <path d="M-4.93660691,66.0493739 C-4.93660691,66.0493739 42.7892383,92.898849 84.8848791,92.898849 C126.98052,92.898849 202.326444,65.3820085 202.326444,65.3820085 C202.326444,65.3820085 266.942903,42.7616392 316.593415,61.6432873 C366.243927,80.5249354 491.804491,97.828504 521.452476,97.828504 C551.100461,97.828504 629.87539,40 629.87539,40 L615.193351,126.989792 L249.915867,245.415813 L2.36385457,234.926009 L-69,137.722945 L-4.93660691,66.0493739 Z" id="Path-2-Copy-2" fill="#FDFFD9" opacity="0.116180037" mask="url(#mask-6)"></path>
                            <path d="M-73.2747693,145.796201 C-73.2747693,145.796201 8.67942735,34.3118602 119.65668,65.5087794 C230.633933,96.7056987 321.70248,150.217366 408.136687,126.557733 C494.570893,102.8981 454.136158,221.061249 454.136158,221.061249 L107.072085,283.239024 C107.072085,283.239024 -160,255.688727 -160,245.608704 C-160,235.528682 -73.2747693,145.796201 -73.2747693,145.796201 Z" id="Path-3" fill="#0BEDF3" opacity="0.1" mask="url(#mask-6)"></path>
                        </g>
                    </g>
                </g>
                <g id="优惠券图片-copy-2" transform="translate(0.000000, 200.000000)">
                    <mask id="mask-8" fill="white">
                        <use xlink:href="#path-7"></use>
                    </mask>
                    <g id="Mask"></g>
                    <g mask="url(#mask-8)">
                        <g transform="translate(0.000000, 9.000000)">
                            <g id="Group-33" stroke="none" stroke-width="1" fill="none" fill-rule="evenodd" transform="translate(7.653061, 0.000000)">
                                <g id="Group-32-Copy" transform="translate(180.496660, 121.241507) rotate(21.000000) translate(-180.496660, -121.241507) translate(12.129313, 56.190487)">
                                    <g id="Combined-Shape">
                                        <use fill="black" fill-opacity="1" filter="url(#filter-10)" xlink:href="#path-9"></use>
                                        <use fill="#4AD1FF" fill-rule="evenodd" xlink:href="#path-9"></use>
                                    </g>
                                    <use id="Rectangle-48" stroke="#FFFFFF" mask="url(#mask-12)" stroke-width="2" stroke-dasharray="4" opacity="0.418435168" xlink:href="#path-11"></use>
                                    <text id="120" font-family="SourceHanSansCN-Medium, Source Han Sans CN" font-size="36" font-weight="400" fill="#FFFFFF">
                                        <tspan x="22.9591837" y="43.4795918">120</tspan>
                                    </text>
                                    <path d="M282.499197,57.2254323 C283.184553,56.8868142 284.01275,57.1696397 284.353545,57.8558885 C284.690746,58.5421373 284.408576,59.3713009 283.723219,59.7090607 L276.481785,63.2789277 L276.419736,63.3081115 C276.082792,63.4703392 275.64289,63.6016664 275.224984,63.6128249 L275.184759,63.6128249 C274.788933,63.6162583 274.393107,63.5209817 274.045037,63.2827903 C273.638342,63.0033982 273.348811,62.5858122 273.257236,61.9914066 C273.202206,61.5987126 273.24979,61.1141755 273.455363,60.5159073 L273.451341,60.5159073 L276.02759,52.8216807 C274.712421,50.7882556 273.660337,48.5612731 272.927566,46.1913758 C272.150464,43.6781344 271.732642,41.0176865 271.732642,38.269258 C271.732642,30.8720196 274.726542,24.1756219 279.567602,19.3286197 C284.408661,14.4816175 291.096624,11.4837531 298.484578,11.4837531 C305.868339,11.4837531 312.556301,14.4815317 317.397275,19.3286197 C322.238335,24.1754503 325.232492,30.8721054 325.232492,38.269258 C325.232492,45.6622046 322.238335,52.3590314 317.397275,57.2056045 C312.556216,62.0531217 305.868253,65.0509002 298.484578,65.0509002 C296.868581,65.0509002 295.270471,64.9006895 293.694698,64.6182931 C292.09325,64.3286009 290.546918,63.8985688 289.073418,63.3406429 C288.359048,63.0736969 288.000023,62.273717 288.267217,61.5578553 C288.538347,60.8424227 289.337188,60.4789125 290.052071,60.7510087 C291.385898,61.2531419 292.767823,61.6389691 294.182356,61.895615 C295.55615,62.1453941 296.996786,62.273717 298.484664,62.273717 C305.102447,62.273717 311.098035,59.5879478 315.437145,55.242993 C319.775826,50.8988966 322.458457,44.8960436 322.458457,38.2691721 C322.458457,31.6388672 319.775826,25.6360143 315.437145,21.2914886 C311.098035,16.9473921 305.102447,14.2614513 298.484664,14.2614513 C291.862601,14.2614513 285.86727,16.9473921 281.528417,21.2914886 C277.189736,25.6360143 274.506934,31.6388672 274.506934,38.2691721 C274.506934,40.7502254 274.880679,43.138148 275.569459,45.376289 C276.280662,47.66636 277.324958,49.8160912 278.651767,51.7649692 C278.959442,52.1610965 279.032787,52.7001387 278.827386,53.170084 L276.474938,60.1930829 L282.499197,57.2254323 Z M286.339779,39.8658701 C286.339779,39.0989366 286.962831,38.4783514 287.728551,38.4783514 C288.490848,38.4783514 289.113899,39.0989366 289.113899,39.8658701 C289.113899,42.4593669 290.161876,44.8048013 291.854898,46.4996083 L291.85875,46.4996083 C293.551345,48.1948445 295.896775,49.2476077 298.484407,49.2476077 C301.068188,49.2476077 303.41319,48.1948445 305.10647,46.4996083 L305.175793,46.4339448 C306.832272,44.7417128 307.850721,42.4233163 307.850721,39.8658701 C307.850721,39.0989366 308.473773,38.4783514 309.235899,38.4783514 C310.002731,38.4783514 310.625355,39.0989366 310.625355,39.8658701 C310.625355,43.1786621 309.298375,46.1837365 307.147649,48.3781018 C307.121973,48.4077147 307.095442,48.433036 307.066772,48.4622198 C304.871114,50.6608768 301.833309,52.0217867 298.484407,52.0217867 C295.131226,52.0217867 292.092993,50.6608768 289.89802,48.4622198 L289.89802,48.4587864 L289.89802,48.455353 C287.699281,46.2575544 286.339779,43.2190044 286.339779,39.8658701 L286.339779,39.8658701 Z M307.451557,33.5945261 C307.451557,34.3614595 306.828934,34.9817872 306.062529,34.9817872 C305.29698,34.9817872 304.67778,34.3614595 304.67778,33.5945261 C304.67778,32.21499 305.234932,30.9678112 306.136131,30.0650013 C307.041182,29.162449 308.287285,28.6010897 309.665188,28.6010897 C311.039239,28.6010897 312.28577,29.162449 313.186542,30.0650013 C314.091593,30.9677253 314.649173,32.2149042 314.649173,33.5945261 C314.649173,34.3614595 314.029545,34.9817872 313.263568,34.9817872 C312.497163,34.9817872 311.874967,34.3614595 311.874967,33.5945261 C311.874967,32.9819235 311.629769,32.4278602 311.226668,32.0280419 C310.826563,31.628052 310.273262,31.3785304 309.665188,31.3785304 C309.052834,31.3785304 308.499534,31.6281379 308.099856,32.0280419 C307.696756,32.4278602 307.451557,32.9819235 307.451557,33.5945261 L307.451557,33.5945261 Z M285.090253,33.5945261 C285.090253,34.3614595 284.467458,34.9817872 283.704647,34.9817872 C282.939099,34.9817872 282.316304,34.3614595 282.316304,33.5945261 C282.316304,32.21499 282.876622,30.9678112 283.77825,30.0650013 C284.679877,29.162449 285.92598,28.6010897 287.303626,28.6010897 C288.677849,28.6010897 289.927375,29.162449 290.829003,30.0650013 C291.730374,30.9677253 292.287526,32.2149042 292.287526,33.5945261 C292.287526,34.3614595 291.668154,34.9817872 290.902348,34.9817872 C290.1362,34.9817872 289.51332,34.3614595 289.51332,33.5945261 C289.51332,32.9819235 289.267951,32.4278602 288.868444,32.0280419 C288.468938,31.628052 287.911872,31.3785304 287.303541,31.3785304 C286.691615,31.3785304 286.137886,31.6281379 285.738637,32.0280419 C285.339302,32.4278602 285.090253,32.9819235 285.090253,33.5945261 L285.090253,33.5945261 Z" id="Shape" fill="#FFFFFF" opacity="0.261135728"></path>
                                </g>
                                <g id="Group-32-Copy" filter="url(#filter-13)" transform="translate(178.383952, 117.547992) rotate(9.000000) translate(-178.383952, -117.547992) translate(10.016605, 52.496971)">
                                    <path d="M336.734694,107.142857 L336.734694,126.101567 C336.734694,128.310968 334.943198,130.102041 332.73328,130.102041 L4.0014142,130.102041 C1.79149416,130.102041 0,128.312389 0,126.101567 L0,107.142857 C6.34000351,107.142857 11.4795918,102.003269 11.4795918,95.6632653 C11.4795918,89.3232618 6.34000351,84.1836735 0,84.1836735 L0,4.00047359 C0,1.79107304 1.79149538,0 4.0014142,0 L332.73328,0 C334.9432,0 336.734694,1.78965186 336.734694,4.00047359 L336.734694,84.1836735 C330.39469,84.1836735 325.255102,89.3232618 325.255102,95.6632653 C325.255102,102.003269 330.39469,107.142857 336.734694,107.142857 Z" id="Combined-Shape" fill="#FDE700"></path>
                                    <use id="Rectangle-48" stroke="#FFFFFF" mask="url(#mask-15)" stroke-width="2" stroke-dasharray="4" opacity="0.418435168" xlink:href="#path-14"></use>
                                    <text id="120" font-family="SourceHanSansCN-Medium, Source Han Sans CN" font-size="36" font-weight="400" fill="#FFFFFF">
                                        <tspan x="22.9591837" y="43.4795918">120</tspan>
                                    </text>
                                    <path d="M282.499197,57.2254323 C283.184553,56.8868142 284.01275,57.1696397 284.353545,57.8558885 C284.690746,58.5421373 284.408576,59.3713009 283.723219,59.7090607 L276.481785,63.2789277 L276.419736,63.3081115 C276.082792,63.4703392 275.64289,63.6016664 275.224984,63.6128249 L275.184759,63.6128249 C274.788933,63.6162583 274.393107,63.5209817 274.045037,63.2827903 C273.638342,63.0033982 273.348811,62.5858122 273.257236,61.9914066 C273.202206,61.5987126 273.24979,61.1141755 273.455363,60.5159073 L273.451341,60.5159073 L276.02759,52.8216807 C274.712421,50.7882556 273.660337,48.5612731 272.927566,46.1913758 C272.150464,43.6781344 271.732642,41.0176865 271.732642,38.269258 C271.732642,30.8720196 274.726542,24.1756219 279.567602,19.3286197 C284.408661,14.4816175 291.096624,11.4837531 298.484578,11.4837531 C305.868339,11.4837531 312.556301,14.4815317 317.397275,19.3286197 C322.238335,24.1754503 325.232492,30.8721054 325.232492,38.269258 C325.232492,45.6622046 322.238335,52.3590314 317.397275,57.2056045 C312.556216,62.0531217 305.868253,65.0509002 298.484578,65.0509002 C296.868581,65.0509002 295.270471,64.9006895 293.694698,64.6182931 C292.09325,64.3286009 290.546918,63.8985688 289.073418,63.3406429 C288.359048,63.0736969 288.000023,62.273717 288.267217,61.5578553 C288.538347,60.8424227 289.337188,60.4789125 290.052071,60.7510087 C291.385898,61.2531419 292.767823,61.6389691 294.182356,61.895615 C295.55615,62.1453941 296.996786,62.273717 298.484664,62.273717 C305.102447,62.273717 311.098035,59.5879478 315.437145,55.242993 C319.775826,50.8988966 322.458457,44.8960436 322.458457,38.2691721 C322.458457,31.6388672 319.775826,25.6360143 315.437145,21.2914886 C311.098035,16.9473921 305.102447,14.2614513 298.484664,14.2614513 C291.862601,14.2614513 285.86727,16.9473921 281.528417,21.2914886 C277.189736,25.6360143 274.506934,31.6388672 274.506934,38.2691721 C274.506934,40.7502254 274.880679,43.138148 275.569459,45.376289 C276.280662,47.66636 277.324958,49.8160912 278.651767,51.7649692 C278.959442,52.1610965 279.032787,52.7001387 278.827386,53.170084 L276.474938,60.1930829 L282.499197,57.2254323 Z M286.339779,39.8658701 C286.339779,39.0989366 286.962831,38.4783514 287.728551,38.4783514 C288.490848,38.4783514 289.113899,39.0989366 289.113899,39.8658701 C289.113899,42.4593669 290.161876,44.8048013 291.854898,46.4996083 L291.85875,46.4996083 C293.551345,48.1948445 295.896775,49.2476077 298.484407,49.2476077 C301.068188,49.2476077 303.41319,48.1948445 305.10647,46.4996083 L305.175793,46.4339448 C306.832272,44.7417128 307.850721,42.4233163 307.850721,39.8658701 C307.850721,39.0989366 308.473773,38.4783514 309.235899,38.4783514 C310.002731,38.4783514 310.625355,39.0989366 310.625355,39.8658701 C310.625355,43.1786621 309.298375,46.1837365 307.147649,48.3781018 C307.121973,48.4077147 307.095442,48.433036 307.066772,48.4622198 C304.871114,50.6608768 301.833309,52.0217867 298.484407,52.0217867 C295.131226,52.0217867 292.092993,50.6608768 289.89802,48.4622198 L289.89802,48.4587864 L289.89802,48.455353 C287.699281,46.2575544 286.339779,43.2190044 286.339779,39.8658701 L286.339779,39.8658701 Z M307.451557,33.5945261 C307.451557,34.3614595 306.828934,34.9817872 306.062529,34.9817872 C305.29698,34.9817872 304.67778,34.3614595 304.67778,33.5945261 C304.67778,32.21499 305.234932,30.9678112 306.136131,30.0650013 C307.041182,29.162449 308.287285,28.6010897 309.665188,28.6010897 C311.039239,28.6010897 312.28577,29.162449 313.186542,30.0650013 C314.091593,30.9677253 314.649173,32.2149042 314.649173,33.5945261 C314.649173,34.3614595 314.029545,34.9817872 313.263568,34.9817872 C312.497163,34.9817872 311.874967,34.3614595 311.874967,33.5945261 C311.874967,32.9819235 311.629769,32.4278602 311.226668,32.0280419 C310.826563,31.628052 310.273262,31.3785304 309.665188,31.3785304 C309.052834,31.3785304 308.499534,31.6281379 308.099856,32.0280419 C307.696756,32.4278602 307.451557,32.9819235 307.451557,33.5945261 L307.451557,33.5945261 Z M285.090253,33.5945261 C285.090253,34.3614595 284.467458,34.9817872 283.704647,34.9817872 C282.939099,34.9817872 282.316304,34.3614595 282.316304,33.5945261 C282.316304,32.21499 282.876622,30.9678112 283.77825,30.0650013 C284.679877,29.162449 285.92598,28.6010897 287.303626,28.6010897 C288.677849,28.6010897 289.927375,29.162449 290.829003,30.0650013 C291.730374,30.9677253 292.287526,32.2149042 292.287526,33.5945261 C292.287526,34.3614595 291.668154,34.9817872 290.902348,34.9817872 C290.1362,34.9817872 289.51332,34.3614595 289.51332,33.5945261 C289.51332,32.9819235 289.267951,32.4278602 288.868444,32.0280419 C288.468938,31.628052 287.911872,31.3785304 287.303541,31.3785304 C286.691615,31.3785304 286.137886,31.6281379 285.738637,32.0280419 C285.339302,32.4278602 285.090253,32.9819235 285.090253,33.5945261 L285.090253,33.5945261 Z" id="Shape" fill="#FFFFFF" opacity="0.261135728"></path>
                                </g>
                                <g id="Group-32" filter="url(#filter-16)" transform="translate(173.396228, 108.350329) rotate(-5.000000) translate(-173.396228, -108.350329) translate(5.028881, 43.299309)">
                                    <g id="Path-4" transform="translate(0.000000, -0.000000)">
                                        <mask id="mask-18" fill="white">
                                            <use xlink:href="#path-17"></use>
                                        </mask>
                                        <use id="Mask" fill="#4FDCC7" xlink:href="#path-17"></use>
                                        <path d="M268.346904,-71.0587661 L130.628412,181.925656 C130.628412,181.925656 513.645623,125.480573 514.290667,118.107694 C514.93571,110.734815 423.065227,-141.223212 423.065227,-141.223212 L268.346904,-71.0587661 Z" fill-opacity="0.322973279" fill="#15BEA4" mask="url(#mask-18)"></path>
                                    </g>
                                    <use id="Rectangle-48" stroke="#FFFFFF" mask="url(#mask-20)" stroke-width="2" stroke-dasharray="4" opacity="0.418435168" xlink:href="#path-19"></use>
                                    <path d="M282.499197,57.2254323 C283.184553,56.8868142 284.01275,57.1696397 284.353545,57.8558885 C284.690746,58.5421373 284.408576,59.3713009 283.723219,59.7090607 L276.481785,63.2789277 L276.419736,63.3081115 C276.082792,63.4703392 275.64289,63.6016664 275.224984,63.6128249 L275.184759,63.6128249 C274.788933,63.6162583 274.393107,63.5209817 274.045037,63.2827903 C273.638342,63.0033982 273.348811,62.5858122 273.257236,61.9914066 C273.202206,61.5987126 273.24979,61.1141755 273.455363,60.5159073 L273.451341,60.5159073 L276.02759,52.8216807 C274.712421,50.7882556 273.660337,48.5612731 272.927566,46.1913758 C272.150464,43.6781344 271.732642,41.0176865 271.732642,38.269258 C271.732642,30.8720196 274.726542,24.1756219 279.567602,19.3286197 C284.408661,14.4816175 291.096624,11.4837531 298.484578,11.4837531 C305.868339,11.4837531 312.556301,14.4815317 317.397275,19.3286197 C322.238335,24.1754503 325.232492,30.8721054 325.232492,38.269258 C325.232492,45.6622046 322.238335,52.3590314 317.397275,57.2056045 C312.556216,62.0531217 305.868253,65.0509002 298.484578,65.0509002 C296.868581,65.0509002 295.270471,64.9006895 293.694698,64.6182931 C292.09325,64.3286009 290.546918,63.8985688 289.073418,63.3406429 C288.359048,63.0736969 288.000023,62.273717 288.267217,61.5578553 C288.538347,60.8424227 289.337188,60.4789125 290.052071,60.7510087 C291.385898,61.2531419 292.767823,61.6389691 294.182356,61.895615 C295.55615,62.1453941 296.996786,62.273717 298.484664,62.273717 C305.102447,62.273717 311.098035,59.5879478 315.437145,55.242993 C319.775826,50.8988966 322.458457,44.8960436 322.458457,38.2691721 C322.458457,31.6388672 319.775826,25.6360143 315.437145,21.2914886 C311.098035,16.9473921 305.102447,14.2614513 298.484664,14.2614513 C291.862601,14.2614513 285.86727,16.9473921 281.528417,21.2914886 C277.189736,25.6360143 274.506934,31.6388672 274.506934,38.2691721 C274.506934,40.7502254 274.880679,43.138148 275.569459,45.376289 C276.280662,47.66636 277.324958,49.8160912 278.651767,51.7649692 C278.959442,52.1610965 279.032787,52.7001387 278.827386,53.170084 L276.474938,60.1930829 L282.499197,57.2254323 Z M286.339779,39.8658701 C286.339779,39.0989366 286.962831,38.4783514 287.728551,38.4783514 C288.490848,38.4783514 289.113899,39.0989366 289.113899,39.8658701 C289.113899,42.4593669 290.161876,44.8048013 291.854898,46.4996083 L291.85875,46.4996083 C293.551345,48.1948445 295.896775,49.2476077 298.484407,49.2476077 C301.068188,49.2476077 303.41319,48.1948445 305.10647,46.4996083 L305.175793,46.4339448 C306.832272,44.7417128 307.850721,42.4233163 307.850721,39.8658701 C307.850721,39.0989366 308.473773,38.4783514 309.235899,38.4783514 C310.002731,38.4783514 310.625355,39.0989366 310.625355,39.8658701 C310.625355,43.1786621 309.298375,46.1837365 307.147649,48.3781018 C307.121973,48.4077147 307.095442,48.433036 307.066772,48.4622198 C304.871114,50.6608768 301.833309,52.0217867 298.484407,52.0217867 C295.131226,52.0217867 292.092993,50.6608768 289.89802,48.4622198 L289.89802,48.4587864 L289.89802,48.455353 C287.699281,46.2575544 286.339779,43.2190044 286.339779,39.8658701 L286.339779,39.8658701 Z M307.451557,33.5945261 C307.451557,34.3614595 306.828934,34.9817872 306.062529,34.9817872 C305.29698,34.9817872 304.67778,34.3614595 304.67778,33.5945261 C304.67778,32.21499 305.234932,30.9678112 306.136131,30.0650013 C307.041182,29.162449 308.287285,28.6010897 309.665188,28.6010897 C311.039239,28.6010897 312.28577,29.162449 313.186542,30.0650013 C314.091593,30.9677253 314.649173,32.2149042 314.649173,33.5945261 C314.649173,34.3614595 314.029545,34.9817872 313.263568,34.9817872 C312.497163,34.9817872 311.874967,34.3614595 311.874967,33.5945261 C311.874967,32.9819235 311.629769,32.4278602 311.226668,32.0280419 C310.826563,31.628052 310.273262,31.3785304 309.665188,31.3785304 C309.052834,31.3785304 308.499534,31.6281379 308.099856,32.0280419 C307.696756,32.4278602 307.451557,32.9819235 307.451557,33.5945261 L307.451557,33.5945261 Z M285.090253,33.5945261 C285.090253,34.3614595 284.467458,34.9817872 283.704647,34.9817872 C282.939099,34.9817872 282.316304,34.3614595 282.316304,33.5945261 C282.316304,32.21499 282.876622,30.9678112 283.77825,30.0650013 C284.679877,29.162449 285.92598,28.6010897 287.303626,28.6010897 C288.677849,28.6010897 289.927375,29.162449 290.829003,30.0650013 C291.730374,30.9677253 292.287526,32.2149042 292.287526,33.5945261 C292.287526,34.3614595 291.668154,34.9817872 290.902348,34.9817872 C290.1362,34.9817872 289.51332,34.3614595 289.51332,33.5945261 C289.51332,32.9819235 289.267951,32.4278602 288.868444,32.0280419 C288.468938,31.628052 287.911872,31.3785304 287.303541,31.3785304 C286.691615,31.3785304 286.137886,31.6281379 285.738637,32.0280419 C285.339302,32.4278602 285.090253,32.9819235 285.090253,33.5945261 L285.090253,33.5945261 Z" id="Shape" fill="#FFFFFF" opacity="0.261135728"></path>
                                    <text id="Coupon" font-family="Futura-Medium, Futura" font-size="24" font-weight="400" fill-opacity="0.609658062" fill="#FFFFFF">
                                        <tspan x="23.792944" y="40.3425252">Coupon</tspan>
                                    </text>
                                </g>
                                <text id="Coupon" transform="translate(64.793458, 161.283422) rotate(-5.000000) translate(-64.793458, -161.283422) " font-family="SourceHanSansCN-Light, Source Han Sans CN" font-size="10" font-weight="300" fill-opacity="0.409137228" fill="#FFFFFF">
                                    <tspan x="29.3980497" y="165.283422">Coupon</tspan>
                                </text>
                            </g>
                            <rect id="Mask" stroke="none" fill="#FFFFFF" fill-rule="evenodd" x="0" y="154.97449" width="375" height="133.928571"></rect>
                            <g id="Group-33-Copy" opacity="0.148052705" stroke="none" stroke-width="1" fill="none" fill-rule="evenodd" transform="translate(0.000000, 154.974490)">
                                <mask id="mask-23" fill="white">
                                    <use xlink:href="#path-22"></use>
                                </mask>
                                <use id="Mask" fill="url(#linearGradient-21)" xlink:href="#path-22"></use>
                                <path d="M348.864007,8.35885424 L348.864007,27.3175643 C348.864007,29.5269649 347.072512,31.3180379 344.862593,31.3180379 L16.1307276,31.3180379 C13.9208076,31.3180379 12.1293134,29.528386 12.1293134,27.3175643 L12.1293134,8.35885424 C18.4693169,8.35885424 23.6089053,3.21926591 23.6089053,-3.1207376 C23.6089053,-9.4607411 18.4693169,-14.6003294 12.1293134,-14.6003294 L12.1293134,-94.7835293 C12.1293134,-96.9929299 13.9208088,-98.7840029 16.1307276,-98.7840029 L344.862593,-98.7840029 C347.072513,-98.7840029 348.864007,-96.994351 348.864007,-94.7835293 L348.864007,-14.6003294 C342.524004,-14.6003294 337.384415,-9.4607411 337.384415,-3.1207376 C337.384415,3.21926591 342.524004,8.35885424 348.864007,8.35885424 Z" id="Combined-Shape" fill="#4AD1FF" filter="url(#filter-24)" mask="url(#mask-23)" transform="translate(180.496660, -33.732982) rotate(21.000000) translate(-180.496660, 33.732982) "></path>
                                <g id="Rectangle-48" opacity="0.418435168" filter="url(#filter-26)" mask="url(#mask-23)" transform="translate(169.183386, -4.260896) rotate(21.000000) translate(-169.183386, 4.260896) " stroke-width="2" stroke="#FFFFFF" stroke-dasharray="4">
                                    <use mask="url(#mask-27)" xlink:href="#path-25"></use>
                                </g>
                                <text id="120" filter="url(#filter-29)" mask="url(#mask-23)" transform="translate(106.974773, -98.888012) rotate(21.000000) translate(-106.974773, 98.888012) " font-family="SourceHanSansCN-Medium, Source Han Sans CN" font-size="36" font-weight="400" fill="#FFFFFF">
                                    <tspan x="47.6635487" y="-84.8880118">120</tspan>
                                </text>
                                <path d="M295.58473,6.84951553 C296.270087,6.51089743 297.098283,6.79372293 297.439079,7.47997172 C297.77628,8.16622052 297.494109,8.99538413 296.808753,9.33314388 L289.567318,12.9030109 L289.50527,12.9321948 C289.168326,13.0944224 288.728424,13.2257496 288.310517,13.2369081 L288.270293,13.2369081 C287.874467,13.2403415 287.47864,13.1450649 287.13057,12.9068735 C286.723875,12.6274814 286.434344,12.2098954 286.342769,11.6154898 C286.287739,11.2227958 286.335324,10.7382587 286.540896,10.1399905 L286.536874,10.1399905 L289.113124,2.44576392 C287.797954,0.412338822 286.74587,-1.81464367 286.0131,-4.18454097 C285.235997,-6.69778234 284.818176,-9.35823025 284.818176,-12.1066588 C284.818176,-19.5038972 287.812076,-26.2002949 292.653135,-31.0472971 C297.494195,-35.8942993 304.182157,-38.8921636 311.570112,-38.8921636 C318.953872,-38.8921636 325.641835,-35.8943851 330.482809,-31.0472971 C335.323868,-26.2004665 338.318025,-19.5038114 338.318025,-12.1066588 C338.318025,-4.71371217 335.323868,1.98311463 330.482809,6.82968772 C325.641749,11.6772049 318.953787,14.6749835 311.570112,14.6749835 C309.954114,14.6749835 308.356004,14.5247727 306.780231,14.2423763 C305.178783,13.9526841 303.632451,13.522652 302.158951,12.9647262 C301.444582,12.6977801 301.085557,11.8978003 301.35275,11.1819385 C301.62388,10.4665059 302.422721,10.1029958 303.137605,10.3750919 C304.471431,10.8772252 305.853356,11.2630523 307.267889,11.5196982 C308.641683,11.7694773 310.082319,11.8978003 311.570197,11.8978003 C318.187981,11.8978003 324.183569,9.21203107 328.522678,4.86707625 C332.86136,0.522979779 335.54399,-5.47987316 335.54399,-12.1067447 C335.54399,-18.7370496 332.86136,-24.7399025 328.522678,-29.0844282 C324.183569,-33.4285247 318.187981,-36.1144655 311.570197,-36.1144655 C304.948134,-36.1144655 298.952803,-33.4285247 294.613951,-29.0844282 C290.275269,-24.7399025 287.592467,-18.7370496 287.592467,-12.1067447 C287.592467,-9.62569136 287.966212,-7.23776874 288.654993,-4.99962775 C289.366196,-2.70955674 290.410492,-0.559825554 291.737301,1.38905238 C292.044975,1.78517971 292.118321,2.32422191 291.912919,2.79416717 L289.560471,9.81716608 L295.58473,6.84951553 Z M299.425313,-10.5100467 C299.425313,-11.2769802 300.048364,-11.8975654 300.814084,-11.8975654 C301.576381,-11.8975654 302.199433,-11.2769802 302.199433,-10.5100467 C302.199433,-7.91654987 303.247409,-5.57111545 304.940432,-3.87630845 L304.944283,-3.87630845 C306.636878,-2.18107224 308.982308,-1.12830907 311.569941,-1.12830907 C314.153722,-1.12830907 316.498724,-2.18107224 318.192003,-3.87630845 L318.261326,-3.941972 C319.917805,-5.63420402 320.936255,-7.95260051 320.936255,-10.5100467 C320.936255,-11.2769802 321.559306,-11.8975654 322.321432,-11.8975654 C323.088265,-11.8975654 323.710888,-11.2769802 323.710888,-10.5100467 C323.710888,-7.19725472 322.383908,-4.19218029 320.233182,-1.997815 C320.207507,-1.96820204 320.180976,-1.94288075 320.152305,-1.91369698 C317.956647,0.284960038 314.918843,1.64586993 311.569941,1.64586993 C308.216759,1.64586993 305.178527,0.284960038 302.983553,-1.91369698 L302.983553,-1.91713036 L302.983553,-1.92056375 C300.784815,-4.11836242 299.425313,-7.1569124 299.425313,-10.5100467 L299.425313,-10.5100467 Z M320.537091,-16.7813907 C320.537091,-16.0144573 319.914467,-15.3941295 319.148062,-15.3941295 C318.382513,-15.3941295 317.763313,-16.0144572 317.763313,-16.7813907 C317.763313,-18.1609267 318.320465,-19.4081056 319.221665,-20.3109155 C320.126715,-21.2134678 321.372819,-21.7748271 322.750721,-21.7748271 C324.124773,-21.7748271 325.371304,-21.2134678 326.272075,-20.3109155 C327.177126,-19.4081914 327.734706,-18.1610126 327.734706,-16.7813907 C327.734706,-16.0144573 327.115078,-15.3941295 326.349101,-15.3941295 C325.582696,-15.3941295 324.9605,-16.0144572 324.9605,-16.7813907 C324.9605,-17.3939933 324.715302,-17.9480566 324.312202,-18.3478749 C323.912096,-18.7478648 323.358796,-18.9973864 322.750721,-18.9973864 C322.138368,-18.9973864 321.585067,-18.7477789 321.18539,-18.3478749 C320.782289,-17.9480566 320.537091,-17.3939933 320.537091,-16.7813907 L320.537091,-16.7813907 Z M298.175786,-16.7813907 C298.175786,-16.0144573 297.552991,-15.3941295 296.790181,-15.3941295 C296.024632,-15.3941295 295.401837,-16.0144572 295.401837,-16.7813907 C295.401837,-18.1609267 295.962156,-19.4081056 296.863783,-20.3109155 C297.765411,-21.2134678 299.011514,-21.7748271 300.38916,-21.7748271 C301.763382,-21.7748271 303.012909,-21.2134678 303.914536,-20.3109155 C304.815907,-19.4081914 305.373059,-18.1610126 305.373059,-16.7813907 C305.373059,-16.0144573 304.753688,-15.3941295 303.987882,-15.3941295 C303.221734,-15.3941295 302.598853,-16.0144572 302.598853,-16.7813907 C302.598853,-17.3939933 302.353484,-17.9480566 301.953978,-18.3478749 C301.554472,-18.7478648 300.997405,-18.9973864 300.389074,-18.9973864 C299.777148,-18.9973864 299.22342,-18.7477789 298.82417,-18.3478749 C298.424835,-17.9480566 298.175786,-17.3939933 298.175786,-16.7813907 L298.175786,-16.7813907 Z" id="Shape" fill="#FFFFFF" opacity="0.261135728" filter="url(#filter-30)" mask="url(#mask-23)" transform="translate(311.568100, -12.108590) rotate(21.000000) translate(-311.568100, 12.108590) "></path>
                                <path d="M346.751299,4.6653385 L346.751299,23.6240486 C346.751299,25.8334491 344.959804,27.6245222 342.749885,27.6245222 L14.0180197,27.6245222 C11.8080996,27.6245222 10.0166055,25.8348703 10.0166055,23.6240486 L10.0166055,4.6653385 C16.356609,4.6653385 21.4961973,-0.474249827 21.4961973,-6.81425333 C21.4961973,-13.1542568 16.356609,-18.2938452 10.0166055,-18.2938452 L10.0166055,-98.477045 C10.0166055,-100.686446 11.8081008,-102.477519 14.0180197,-102.477519 L342.749885,-102.477519 C344.959805,-102.477519 346.751299,-100.687867 346.751299,-98.477045 L346.751299,-18.2938452 C340.411296,-18.2938452 335.271707,-13.1542568 335.271707,-6.81425333 C335.271707,-0.474249827 340.411296,4.6653385 346.751299,4.6653385 Z" id="Combined-Shape" fill="#FDE700" filter="url(#filter-31)" mask="url(#mask-23)" transform="translate(178.383952, -37.426498) rotate(9.000000) translate(-178.383952, 37.426498) "></path>
                                <g id="Rectangle-48" opacity="0.418435168" filter="url(#filter-33)" mask="url(#mask-23)" transform="translate(173.445492, -6.246286) rotate(9.000000) translate(-173.445492, 6.246286) " stroke-width="2" stroke="#FFFFFF" stroke-dasharray="4">
                                    <use mask="url(#mask-34)" xlink:href="#path-32"></use>
                                </g>
                                <text id="120" filter="url(#filter-36)" mask="url(#mask-23)" transform="translate(96.340016, -86.230901) rotate(9.000000) translate(-96.340016, 86.230901) " font-family="SourceHanSansCN-Medium, Source Han Sans CN" font-size="36" font-weight="400" fill="#FFFFFF">
                                    <tspan x="37.0287917" y="-72.2309007">120</tspan>
                                </text>
                                <path d="M295.103761,-24.5678298 C295.789117,-24.9064479 296.617314,-24.6236224 296.958109,-23.9373736 C297.29531,-23.2511248 297.01314,-22.4219612 296.327783,-22.0842014 L289.086349,-18.5143344 L289.0243,-18.4851505 C288.687356,-18.3229229 288.247454,-18.1915957 287.829548,-18.1804372 L287.789323,-18.1804372 C287.393497,-18.1770038 286.997671,-18.2722804 286.649601,-18.5104718 C286.242906,-18.7898639 285.953375,-19.2074499 285.8618,-19.8018555 C285.80677,-20.1945495 285.854354,-20.6790866 286.059927,-21.2773548 L286.055905,-21.2773548 L288.632154,-28.9715814 C287.316985,-31.0050065 286.264901,-33.231989 285.53213,-35.6018863 C284.755028,-38.1151276 284.337206,-40.7755756 284.337206,-43.5240041 C284.337206,-50.9212425 287.331106,-57.6176402 292.172166,-62.4646424 C297.013225,-67.3116446 303.701188,-70.3095089 311.089142,-70.3095089 C318.472903,-70.3095089 325.160865,-67.3117304 330.001839,-62.4646424 C334.842899,-57.6178118 337.837055,-50.9211567 337.837055,-43.5240041 C337.837055,-36.1310575 334.842899,-29.4342307 330.001839,-24.5876576 C325.16078,-19.7401404 318.472817,-16.7423618 311.089142,-16.7423618 C309.473145,-16.7423618 307.875035,-16.8925726 306.299262,-17.174969 C304.697814,-17.4646612 303.151482,-17.8946933 301.677982,-18.4526191 C300.963612,-18.7195652 300.604587,-19.519545 300.871781,-20.2354068 C301.142911,-20.9508394 301.941752,-21.3143496 302.656635,-21.0422534 C303.990462,-20.5401201 305.372387,-20.154293 306.786919,-19.8976471 C308.160714,-19.647868 309.60135,-19.519545 311.089228,-19.519545 C317.707011,-19.519545 323.702599,-22.2053142 328.041709,-26.5502691 C332.38039,-30.8943655 335.063021,-36.8972185 335.063021,-43.52409 C335.063021,-50.1543949 332.38039,-56.1572478 328.041709,-60.5017735 C323.702599,-64.84587 317.707011,-67.5318108 311.089228,-67.5318108 C304.467165,-67.5318108 298.471834,-64.84587 294.132981,-60.5017735 C289.7943,-56.1572478 287.111498,-50.1543949 287.111498,-43.52409 C287.111498,-41.0430367 287.485243,-38.655114 288.174023,-36.4169731 C288.885226,-34.126902 289.929522,-31.9771709 291.256331,-30.0282929 C291.564006,-29.6321656 291.637351,-29.0931234 291.43195,-28.6231781 L289.079502,-21.6001792 L295.103761,-24.5678298 Z M298.944343,-41.927392 C298.944343,-42.6943255 299.567395,-43.3149107 300.333115,-43.3149107 C301.095412,-43.3149107 301.718463,-42.6943255 301.718463,-41.927392 C301.718463,-39.3338952 302.766439,-36.9884608 304.459462,-35.2936537 L304.463314,-35.2936537 C306.155909,-33.5984175 308.501339,-32.5456544 311.088971,-32.5456544 C313.672752,-32.5456544 316.017754,-33.5984175 317.711034,-35.2936537 L317.780357,-35.3593173 C319.436836,-37.0515493 320.455285,-39.3699458 320.455285,-41.927392 C320.455285,-42.6943255 321.078337,-43.3149107 321.840462,-43.3149107 C322.607295,-43.3149107 323.229919,-42.6943255 323.229919,-41.927392 C323.229919,-38.6146 321.902939,-35.6095256 319.752213,-33.4151603 C319.726537,-33.3855473 319.700006,-33.3602261 319.671336,-33.3310423 C317.475678,-31.1323853 314.437873,-29.7714754 311.088971,-29.7714754 C307.73579,-29.7714754 304.697557,-31.1323853 302.502584,-33.3310423 L302.502584,-33.3344757 L302.502584,-33.3379091 C300.303845,-35.5357077 298.944343,-38.5742577 298.944343,-41.927392 L298.944343,-41.927392 Z M320.056121,-48.198736 C320.056121,-47.4318026 319.433498,-46.8114748 318.667093,-46.8114748 C317.901544,-46.8114748 317.282344,-47.4318025 317.282344,-48.198736 C317.282344,-49.578272 317.839496,-50.8254509 318.740695,-51.7282608 C319.645746,-52.6308131 320.891849,-53.1921724 322.269752,-53.1921724 C323.643803,-53.1921724 324.890334,-52.6308131 325.791106,-51.7282608 C326.696157,-50.8255367 327.253737,-49.5783579 327.253737,-48.198736 C327.253737,-47.4318026 326.634109,-46.8114748 325.868132,-46.8114748 C325.101727,-46.8114748 324.479531,-47.4318025 324.479531,-48.198736 C324.479531,-48.8113386 324.234333,-49.3654019 323.831232,-49.7652202 C323.431127,-50.1652101 322.877826,-50.4147317 322.269752,-50.4147317 C321.657398,-50.4147317 321.104098,-50.1651242 320.70442,-49.7652202 C320.30132,-49.3654019 320.056121,-48.8113386 320.056121,-48.198736 L320.056121,-48.198736 Z M297.694817,-48.198736 C297.694817,-47.4318026 297.072022,-46.8114748 296.309211,-46.8114748 C295.543663,-46.8114748 294.920868,-47.4318025 294.920868,-48.198736 C294.920868,-49.578272 295.481186,-50.8254509 296.382814,-51.7282608 C297.284441,-52.6308131 298.530544,-53.1921724 299.90819,-53.1921724 C301.282413,-53.1921724 302.531939,-52.6308131 303.433567,-51.7282608 C304.334938,-50.8255367 304.89209,-49.5783579 304.89209,-48.198736 C304.89209,-47.4318026 304.272718,-46.8114748 303.506912,-46.8114748 C302.740764,-46.8114748 302.117884,-47.4318025 302.117884,-48.198736 C302.117884,-48.8113386 301.872515,-49.3654019 301.473008,-49.7652202 C301.073502,-50.1652101 300.516436,-50.4147317 299.908105,-50.4147317 C299.296179,-50.4147317 298.74245,-50.1651242 298.343201,-49.7652202 C297.943866,-49.3654019 297.694817,-48.8113386 297.694817,-48.198736 L297.694817,-48.198736 Z" id="Shape" fill="#FFFFFF" opacity="0.261135728" filter="url(#filter-37)" mask="url(#mask-23)" transform="translate(311.087131, -43.525935) rotate(9.000000) translate(-311.087131, 43.525935) "></path>
                                <g id="Path-4" filter="url(#filter-38)" mask="url(#mask-23)">
                                    <g transform="translate(173.396228, -46.624160) rotate(-5.000000) translate(-173.396228, 46.624160) translate(5.028881, -111.675181)">
                                        <mask id="mask-40" fill="white">
                                            <use xlink:href="#path-39"></use>
                                        </mask>
                                        <use id="Mask" stroke="none" fill="#4FDCC7" fill-rule="evenodd" xlink:href="#path-39"></use>
                                        <path d="M268.346904,-71.0587661 L130.628412,181.925656 C130.628412,181.925656 513.645623,125.480573 514.290667,118.107694 C514.93571,110.734815 423.065227,-141.223212 423.065227,-141.223212 L268.346904,-71.0587661 Z" id="Path-4" stroke="none" fill-opacity="0.322973279" fill="#15BEA4" fill-rule="evenodd" mask="url(#mask-40)"></path>
                                    </g>
                                </g>
                                <g id="Rectangle-48" opacity="0.418435168" filter="url(#filter-42)" mask="url(#mask-23)" transform="translate(176.147637, -15.175412) rotate(-5.000000) translate(-176.147637, 15.175412) " stroke-width="2" stroke="#FFFFFF" stroke-dasharray="4">
                                    <use mask="url(#mask-43)" xlink:href="#path-41"></use>
                                </g>
                                <text id="120" filter="url(#filter-45)" mask="url(#mask-23)" transform="translate(85.959394, -74.618941) rotate(-5.000000) translate(-85.959394, 74.618941) " font-family="SourceHanSansCN-Medium, Source Han Sans CN" font-size="36" font-weight="400" fill="#FFFFFF">
                                    <tspan x="26.6481693" y="-60.6189408">120</tspan>
                                </text>
                                <path d="M284.698598,-65.6881171 C285.383954,-66.0267352 286.212151,-65.7439097 286.552946,-65.0576609 C286.890147,-64.3714121 286.607977,-63.5422485 285.92262,-63.2044887 L278.681186,-59.6346217 L278.619137,-59.6054378 C278.282193,-59.4432102 277.842291,-59.311883 277.424385,-59.3007245 L277.38416,-59.3007245 C276.988334,-59.2972911 276.592508,-59.3925677 276.244438,-59.6307591 C275.837743,-59.9101512 275.548212,-60.3277372 275.456637,-60.9221428 C275.401607,-61.3148368 275.449191,-61.7993739 275.654764,-62.3976421 L275.650742,-62.3976421 L278.226991,-70.0918687 C276.911822,-72.1252938 275.859738,-74.3522763 275.126967,-76.7221736 C274.349865,-79.2354149 273.932043,-81.8958628 273.932043,-84.6442914 C273.932043,-92.0415298 276.925943,-98.7379275 281.767003,-103.58493 C286.608062,-108.431932 293.296025,-111.429796 300.683979,-111.429796 C308.06774,-111.429796 314.755702,-108.432018 319.596676,-103.58493 C324.437736,-98.7380991 327.431893,-92.041444 327.431893,-84.6442914 C327.431893,-77.2513448 324.437736,-70.554518 319.596676,-65.7079449 C314.755617,-60.8604276 308.067654,-57.8626491 300.683979,-57.8626491 C299.067982,-57.8626491 297.469872,-58.0128599 295.894099,-58.2952563 C294.292651,-58.5849485 292.746319,-59.0149806 291.272819,-59.5729064 C290.558449,-59.8398525 290.199424,-60.6398323 290.466618,-61.3556941 C290.737748,-62.0711267 291.536589,-62.4346368 292.251472,-62.1625407 C293.585299,-61.6604074 294.967224,-61.2745803 296.381757,-61.0179344 C297.755551,-60.7681553 299.196187,-60.6398323 300.684065,-60.6398323 C307.301848,-60.6398323 313.297436,-63.3256015 317.636546,-67.6705563 C321.975227,-72.0146528 324.657858,-78.0175058 324.657858,-84.6443773 C324.657858,-91.2746822 321.975227,-97.2775351 317.636546,-101.622061 C313.297436,-105.966157 307.301848,-108.652098 300.684065,-108.652098 C294.062002,-108.652098 288.066671,-105.966157 283.727818,-101.622061 C279.389137,-97.2775351 276.706335,-91.2746822 276.706335,-84.6443773 C276.706335,-82.163324 277.08008,-79.7754013 277.76886,-77.5372603 C278.480063,-75.2471893 279.524359,-73.0974581 280.851168,-71.1485802 C281.158843,-70.7524529 281.232188,-70.2134107 281.026787,-69.7434654 L278.674339,-62.7204665 L284.698598,-65.6881171 Z M288.53918,-83.0476793 C288.53918,-83.8146128 289.162232,-84.435198 289.927952,-84.435198 C290.690249,-84.435198 291.3133,-83.8146128 291.3133,-83.0476793 C291.3133,-80.4541825 292.361277,-78.108748 294.054299,-76.413941 L294.058151,-76.413941 C295.750746,-74.7187048 298.096176,-73.6659417 300.683808,-73.6659417 C303.267589,-73.6659417 305.612591,-74.7187048 307.305871,-76.413941 L307.375194,-76.4796046 C309.031673,-78.1718366 310.050122,-80.4902331 310.050122,-83.0476793 C310.050122,-83.8146128 310.673174,-84.435198 311.4353,-84.435198 C312.202132,-84.435198 312.824756,-83.8146128 312.824756,-83.0476793 C312.824756,-79.7348873 311.497776,-76.7298129 309.34705,-74.5354476 C309.321374,-74.5058346 309.294843,-74.4805133 309.266173,-74.4513296 C307.070515,-72.2526726 304.03271,-70.8917627 300.683808,-70.8917627 C297.330627,-70.8917627 294.292394,-72.2526726 292.097421,-74.4513296 L292.097421,-74.454763 L292.097421,-74.4581963 C289.898682,-76.655995 288.53918,-79.694545 288.53918,-83.0476793 L288.53918,-83.0476793 Z M309.650958,-89.3190233 C309.650958,-88.5520899 309.028335,-87.9317621 308.26193,-87.9317621 C307.496381,-87.9317621 306.877181,-88.5520898 306.877181,-89.3190233 C306.877181,-90.6985593 307.434333,-91.9457382 308.335532,-92.8485481 C309.240583,-93.7511004 310.486686,-94.3124596 311.864589,-94.3124596 C313.23864,-94.3124596 314.485171,-93.7511004 315.385943,-92.8485481 C316.290994,-91.945824 316.848574,-90.6986452 316.848574,-89.3190233 C316.848574,-88.5520899 316.228946,-87.9317621 315.462969,-87.9317621 C314.696564,-87.9317621 314.074368,-88.5520898 314.074368,-89.3190233 C314.074368,-89.9316259 313.82917,-90.4856892 313.426069,-90.8855074 C313.025964,-91.2854974 312.472663,-91.535019 311.864589,-91.535019 C311.252235,-91.535019 310.698935,-91.2854115 310.299257,-90.8855074 C309.896157,-90.4856892 309.650958,-89.9316259 309.650958,-89.3190233 L309.650958,-89.3190233 Z M287.289654,-89.3190233 C287.289654,-88.5520899 286.666859,-87.9317621 285.904048,-87.9317621 C285.1385,-87.9317621 284.515705,-88.5520898 284.515705,-89.3190233 C284.515705,-90.6985593 285.076023,-91.9457382 285.977651,-92.8485481 C286.879278,-93.7511004 288.125381,-94.3124596 289.503027,-94.3124596 C290.87725,-94.3124596 292.126776,-93.7511004 293.028404,-92.8485481 C293.929775,-91.945824 294.486927,-90.6986452 294.486927,-89.3190233 C294.486927,-88.5520899 293.867555,-87.9317621 293.101749,-87.9317621 C292.335601,-87.9317621 291.712721,-88.5520898 291.712721,-89.3190233 C291.712721,-89.9316259 291.467352,-90.4856892 291.067845,-90.8855074 C290.668339,-91.2854974 290.111273,-91.535019 289.502942,-91.535019 C288.891016,-91.535019 288.337287,-91.2854115 287.938038,-90.8855074 C287.538703,-90.4856892 287.289654,-89.9316259 287.289654,-89.3190233 L287.289654,-89.3190233 Z" id="Shape" fill="#FFFFFF" opacity="0.261135728" filter="url(#filter-46)" mask="url(#mask-23)" transform="translate(300.681968, -84.646223) rotate(-5.000000) translate(-300.681968, 84.646223) "></path>
                                <text id="Coupon" mask="url(#mask-23)" transform="translate(64.793458, 6.308932) rotate(-5.000000) translate(-64.793458, -6.308932) " font-family="SourceHanSansCN-Light, Source Han Sans CN" font-size="10" font-weight="300" fill-opacity="0.409137228" fill="#FFFFFF">
                                    <tspan x="29.3980497" y="10.3089321">Coupon</tspan>
                                </text>
                            </g>
                            <mask id="mask-48" fill="white">
                                <use xlink:href="#path-47"></use>
                            </mask>
                            <use id="Mask" stroke="none" fill="url(#linearGradient-21)" fill-rule="evenodd" xlink:href="#path-47"></use>
                        </g>
                    </g>
                </g>
                <g id="Group-37" transform="translate(60.000000, 1004.000000)">
                    <use id="Rectangle" stroke="#4FDCC7" mask="url(#mask-50)" stroke-width="8" fill="#FFFFFF" xlink:href="#path-49"></use>
                    <use id="Rectangle-Copy" stroke="#4FDCC7" mask="url(#mask-52)" stroke-width="4" fill="#4FDCC7" xlink:href="#path-51"></use>
                    <path d="M193.331418,86.5932479 C195.657018,86.5932479 197.493018,85.6632479 198.937338,83.9990373 L197.419578,82.2124584 C196.342458,83.3871952 195.069498,84.1214058 193.429338,84.1214058 C190.246938,84.1214058 188.239578,81.5027216 188.239578,77.2198268 C188.239578,72.9858794 190.393818,70.3916689 193.502778,70.3916689 C194.971578,70.3916689 196.097658,71.0524584 197.027898,72.0069321 L198.570138,70.1958794 C197.468538,68.9966689 195.705978,67.9198268 193.453818,67.9198268 C188.900538,67.9198268 185.326458,71.4440373 185.326458,77.3177216 C185.326458,83.2158794 188.802618,86.5932479 193.331418,86.5932479 Z M208.974138,86.5932479 C213.600858,86.5932479 216.832218,82.9956163 216.832218,77.1953531 C216.832218,71.39509 213.600858,67.9198268 208.974138,67.9198268 C204.347418,67.9198268 201.140538,71.39509 201.140538,77.1953531 C201.140538,82.9956163 204.347418,86.5932479 208.974138,86.5932479 Z M208.974138,84.1214058 C205.987578,84.1214058 204.053658,81.4293005 204.053658,77.1953531 C204.053658,72.9614058 205.987578,70.3916689 208.974138,70.3916689 C211.960698,70.3916689 213.919098,72.9614058 213.919098,77.1953531 C213.919098,81.4293005 211.960698,84.1214058 208.974138,84.1214058 Z M227.187258,86.5932479 C231.177498,86.5932479 233.870298,84.41509 233.870298,78.5414058 L233.870298,68.2624584 L231.128538,68.2624584 L231.128538,78.7371952 C231.128538,82.7998268 229.463898,84.1214058 227.187258,84.1214058 C224.935098,84.1214058 223.319418,82.7998268 223.319418,78.7371952 L223.319418,68.2624584 L220.479738,68.2624584 L220.479738,78.5414058 C220.479738,84.41509 223.197018,86.5932479 227.187258,86.5932479 Z M238.521498,86.27509 L241.361178,86.27509 L241.361178,79.4469321 L244.078458,79.4469321 C247.995258,79.4469321 250.859418,77.6358794 250.859418,73.6956163 C250.859418,69.6329847 247.995258,68.2624584 243.980538,68.2624584 L238.521498,68.2624584 L238.521498,86.27509 Z M241.361178,77.1708794 L241.361178,70.538511 L243.711258,70.538511 C246.575418,70.538511 248.068698,71.3216689 248.068698,73.6956163 C248.068698,76.0695637 246.697818,77.1708794 243.809178,77.1708794 L241.361178,77.1708794 Z M261.214458,86.5932479 C265.841178,86.5932479 269.072538,82.9956163 269.072538,77.1953531 C269.072538,71.39509 265.841178,67.9198268 261.214458,67.9198268 C256.587738,67.9198268 253.380858,71.39509 253.380858,77.1953531 C253.380858,82.9956163 256.587738,86.5932479 261.214458,86.5932479 Z M261.214458,84.1214058 C258.227898,84.1214058 256.293978,81.4293005 256.293978,77.1953531 C256.293978,72.9614058 258.227898,70.3916689 261.214458,70.3916689 C264.201018,70.3916689 266.159418,72.9614058 266.159418,77.1953531 C266.159418,81.4293005 264.201018,84.1214058 261.214458,84.1214058 Z M272.817978,86.27509 L275.510778,86.27509 L275.510778,77.7827216 C275.510778,75.8248268 275.290458,73.7445637 275.143578,71.8845637 L275.265978,71.8845637 L277.150938,75.653511 L283.124058,86.27509 L286.037178,86.27509 L286.037178,68.2624584 L283.344378,68.2624584 L283.344378,76.6569321 C283.344378,78.6148268 283.564698,80.7929847 283.711578,82.6529847 L283.589178,82.6529847 L281.704218,78.83509 L275.731098,68.2624584 L272.817978,68.2624584 L272.817978,86.27509 Z" id="COUPON" fill="#FFFFFF" transform="translate(235.681818, 77.256537) rotate(-270.000000) translate(-235.681818, -77.256537) "></path>
                </g>
                <g id="Group-36" transform="translate(0.000000, 509.000000)">
                    <mask id="mask-54" fill="white">
                        <use xlink:href="#path-53"></use>
                    </mask>
                    <use id="Mask" fill="#FFFFFF" xlink:href="#path-53"></use>
                    <g mask="url(#mask-54)">
                        <g transform="translate(0.000000, 9.000000)">
                            <g id="Rectangle-41-Copy" stroke="none" fill="none">
                                <use fill="black" fill-opacity="1" filter="url(#filter-56)" xlink:href="#path-55"></use>
                                <use fill="#1FCBA6" fill-rule="evenodd" xlink:href="#path-55"></use>
                            </g>
                            <mask id="mask-59" fill="white">
                                <use xlink:href="#path-58"></use>
                            </mask>
                            <g id="Rectangle-41-Copy-2" stroke="none" fill="none">
                                <use fill="black" fill-opacity="1" filter="url(#filter-60)" xlink:href="#path-58"></use>
                                <use fill="url(#linearGradient-57)" fill-rule="evenodd" xlink:href="#path-58"></use>
                            </g>
                            <g id="Group-5-Copy" stroke="none" stroke-width="1" fill="none" fill-rule="evenodd" mask="url(#mask-59)">
                                <g transform="translate(-42.000000, 122.000000)">
                                    <polygon id="Triangle-Copy-5" fill="url(#linearGradient-61)" opacity="0.375408116" points="389.679225 150 527.358451 417.033776 252 417.033776"></polygon>
                                    <polygon id="Triangle-Copy-6" fill="url(#linearGradient-61)" opacity="0.150419776" points="207.679225 150 345.358451 417.033776 70 417.033776"></polygon>
                                    <polyline id="Triangle-Copy-8" fill="url(#linearGradient-62)" opacity="0.130946828" points="389.679225 267.033776 252 0 527.358451 0"></polyline>
                                    <polyline id="Triangle-Copy-9" fill="url(#linearGradient-63)" opacity="0.110074627" points="275.358451 162.516888 -2.84217094e-14 296.033776 -1.15608672e-14 29"></polyline>
                                </g>
                            </g>
                        </g>
                    </g>
                </g>
            </g>
            <g id="Group-2-Copy">
                <g id="Path-2-+-Path-2-Copy-+-Path-2-Copy-2-+-Path-2-Copy-2-Mask">
                    <mask id="mask-65" fill="white">
                        <use xlink:href="#path-64"></use>
                    </mask>
                    <use id="Mask" fill="url(#linearGradient-4)" xlink:href="#path-64"></use>
                    <path d="M-25.9366069,131.049374 C-25.9366069,131.049374 21.7892383,157.898849 63.8848791,157.898849 C105.98052,157.898849 181.326444,130.382009 181.326444,130.382009 C181.326444,130.382009 245.942903,107.761639 295.593415,126.643287 C345.243927,145.524935 470.804491,162.828504 500.452476,162.828504 C530.100461,162.828504 608.87539,105 608.87539,105 L594.193351,191.989792 L228.915867,310.415813 L-18.6361454,299.926009 L-90,202.722945 L-25.9366069,131.049374 Z" id="Path-2" fill-opacity="0.814424819" fill="#F4F7F9" opacity="0.201201026" mask="url(#mask-65)"></path>
                    <path d="M-121.936607,131.049374 C-121.936607,131.049374 -74.2107617,157.898849 -32.1151209,157.898849 C9.98051987,157.898849 85.3264443,130.382009 85.3264443,130.382009 C85.3264443,130.382009 149.942903,107.761639 199.593415,126.643287 C249.243927,145.524935 374.804491,162.828504 404.452476,162.828504 C434.100461,162.828504 512.87539,105 512.87539,105 L498.193351,191.989792 L132.915867,310.415813 L-114.636145,299.926009 L-186,202.722945 L-121.936607,131.049374 Z" id="Path-2-Copy" fill="#DBF9F9" opacity="0.227728545" mask="url(#mask-65)"></path>
                    <path d="M-4.93660691,111.049374 C-4.93660691,111.049374 42.7892383,137.898849 84.8848791,137.898849 C126.98052,137.898849 202.326444,110.382009 202.326444,110.382009 C202.326444,110.382009 266.942903,87.7616392 316.593415,106.643287 C366.243927,125.524935 491.804491,142.828504 521.452476,142.828504 C551.100461,142.828504 629.87539,85 629.87539,85 L615.193351,171.989792 L249.915867,290.415813 L2.36385457,279.926009 L-69,182.722945 L-4.93660691,111.049374 Z" id="Path-2-Copy-2" fill="#FDFFD9" opacity="0.116180037" mask="url(#mask-65)"></path>
                    <path d="M-73.2747693,190.796201 C-73.2747693,190.796201 8.67942735,79.3118602 119.65668,110.508779 C230.633933,141.705699 321.70248,195.217366 408.136687,171.557733 C494.570893,147.8981 454.136158,266.061249 454.136158,266.061249 L107.072085,328.239024 C107.072085,328.239024 -160,300.688727 -160,290.608704 C-160,280.528682 -73.2747693,190.796201 -73.2747693,190.796201 Z" id="Path-3" fill="#0BEDF3" opacity="0.1" mask="url(#mask-65)"></path>
                </g>
            </g>
        </g>
    </g>
</svg>