<?xml version="1.0" encoding="UTF-8" standalone="no"?>
<svg width="15px" height="226px" viewBox="0 0 15 226" version="1.1" xmlns="http://www.w3.org/2000/svg" xmlns:xlink="http://www.w3.org/1999/xlink">
    <!-- Generator: Sketch 42 (36781) - http://www.bohemiancoding.com/sketch -->
    <title>Group 16@3x</title>
    <desc>Created with Sketch.</desc>
    <defs></defs>
    <g id="Page-1" stroke="none" stroke-width="1" fill="none" fill-rule="evenodd">
        <g id="Group-16">
            <g id="Group-15" transform="translate(0.500000, 0.000000)">
                <rect id="Rectangle-26-Copy-5" fill="#F9F9F9" x="0" y="0" width="14" height="14" rx="0.56"></rect>
                <g id="店铺-(1)-copy-4" transform="translate(1.680000, 1.960000)" fill-rule="nonzero">
                    <g id="Group">
                        <path d="M10.5004687,2.94165277 C10.3614376,2.94168613 10.248739,3.05438472 10.2487057,3.19341576 L10.2487057,4.38490859 C10.2487057,4.92191433 9.59518552,5.3756437 8.82182715,5.3756437 C8.04846877,5.3756437 7.39494862,4.92191433 7.39494862,4.38490859 L7.39494862,3.1934762 C7.39494862,3.05441465 7.28221696,2.94168299 7.14315541,2.94168299 C7.00409386,2.94168299 6.8913622,3.05441465 6.8913622,3.1934762 L6.8913622,4.38496902 C6.8913622,4.92197477 6.23784205,5.37570413 5.46448367,5.37570413 C4.6911253,5.37570413 4.03760514,4.92197477 4.03760514,4.38496902 L4.03760514,3.1934762 C4.03757178,3.05444516 3.92487319,2.94174657 3.78584215,2.94171321 C3.75629052,2.94171321 3.7282497,2.94775649 3.70190101,2.957184 C3.67501975,2.94723372 3.64662218,2.9419999 3.61795987,2.94171321 C3.47892883,2.94174657 3.36623024,3.05444516 3.36619688,3.1934762 L3.36619688,4.38496902 C3.36619688,4.92197477 2.71267672,5.37570413 1.93931835,5.37570413 C1.16595997,5.37570413 0.512439816,4.92197477 0.512439816,4.38496902 L0.512439816,3.1934762 C0.512439816,3.05439796 0.39969463,2.94165277 0.260616393,2.94165277 C0.121538157,2.94165277 0.00879297049,3.05439796 0.00879297049,3.1934762 L0.00879297049,4.38496902 C0.00879297049,4.85749298 0.294337889,5.27870951 0.737974977,5.55283263 C0.702380066,5.59616294 0.680201233,5.37576456 0.680201233,5.37576456 L0.680201233,9.82422201 C0.680234594,9.96325305 0.792933184,10.0759516 0.931964223,10.075985 L9.66099683,10.075985 C9.80002787,10.0759516 9.91272646,9.96325305 9.91275982,9.82422201 L9.91275982,5.7114687 C9.91275982,5.681071 9.90653524,5.65236543 9.89662426,5.62535197 C10.4119951,5.35678867 10.7520504,4.90118589 10.7520504,4.38484816 L10.7520504,3.1934762 C10.7520504,3.05449231 10.6394525,2.94178619 10.5004687,2.94165277 L10.5004687,2.94165277 Z M9.4093547,9.57239858 L1.18390851,9.57239858 L1.18390851,5.75999622 C1.41609128,5.83674586 1.6714198,5.87935098 1.93931835,5.87935098 C2.72476328,5.87935098 3.40076443,5.51391391 3.70190101,4.99165377 C4.00303759,5.51385348 4.67903874,5.87935098 5.46448367,5.87935098 C6.18363384,5.87935098 6.81092616,5.57283588 7.14312519,5.12025474 C7.47532422,5.57283588 8.10261655,5.87935098 8.82176671,5.87935098 C9.02675473,5.87935098 9.22400734,5.8541505 9.40929427,5.80797986 L9.40929427,9.57239858 L9.4093547,9.57239858 L9.4093547,9.57239858 Z" id="Shape" fill="#9397A2"></path>
                        <polygon id="Shape" fill="#E5E6E8" points="4.03766557 7.22228837 6.38777579 7.22228837 6.38777579 9.90810271 4.03766557 9.90810271"></polygon>
                        <path d="M6.47171693,10.075985 L4.12160671,10.075985 C3.98257568,10.0759516 3.86987709,9.96325305 3.86984372,9.82422201 L3.86984372,7.13834723 C3.86987709,6.99931619 3.98257568,6.8866176 4.12160671,6.88658424 L6.47171693,6.88658424 C6.61074797,6.8866176 6.72344656,6.99931619 6.72347992,7.13834723 L6.72347992,9.82422201 C6.72344656,9.96325305 6.61074797,10.0759516 6.47171693,10.075985 L6.47171693,10.075985 Z M4.3733697,9.57239858 L6.21989351,9.57239858 L6.21989351,7.39011022 L4.3733697,7.39011022 L4.3733697,9.57239858 Z" id="Shape" fill="#9397A2"></path>
                        <polygon id="Shape" fill="#E5E6E8" points="10.5004687 3.36135848 0.260676826 3.36135848 1.60361422 0.339719134 9.15759171 0.339719134 10.5004687 3.36135848"></polygon>
                        <path d="M10.5038529,3.52918033 L0.260676826,3.52918033 C0.175393691,3.52921857 0.0958862218,3.48609003 0.049413477,3.4145813 C0.00294073225,3.34307257 -0.00418160901,3.25290173 0.030488341,3.17498376 L1.37342573,0.153404852 C1.41388015,0.0625128291 1.5040655,0.00396813715 1.60355378,0.00401500328 L9.15753128,0.00401500328 C9.25706408,0.00401500328 9.34729023,0.0626348066 9.38765933,0.153586151 L10.7150051,3.14041621 C10.7654779,3.21778185 10.7694572,3.31659579 10.7253688,3.39776947 C10.6812804,3.47894314 10.5962266,3.52939995 10.5038529,3.52918033 L10.5038529,3.52918033 Z M0.648111423,3.02559391 L10.1129132,3.02559391 L8.99393972,0.507601416 L1.7672662,0.507601416 L0.648111423,3.02559391 Z" id="Shape" fill="#9397A2"></path>
                    </g>
                </g>
            </g>
            <path d="M6.63987994,67.3639502 C5.7912624,66.5160567 1.5,62.2725448 1.5,59.5230792 C1.500573,56.4775864 4.19179863,54 7.50004244,54 C10.8087744,54 13.5,56.4775864 13.5,59.5236067 C13.5,62.2670353 9.22074943,66.4950737 8.36226351,67.3619379 C7.4891766,68.2123517 7.4891766,68.2123517 6.63987994,67.3639502 L6.63987994,67.3639502 L6.63987994,67.3639502 M7.50006367,54.7262356 C4.64113914,54.7262356 2.31493769,56.8677241 2.31493769,59.4995369 C2.31493769,61.9861689 5.51817339,65.1588682 7.43198241,67.055009 L7.50006367,67.1221191 L7.57077649,67.0524887 C9.48409739,65.155332 12.6861659,61.9806399 12.6861659,59.4995369 C12.6850835,56.8677241 10.3593702,54.7262356 7.50006367,54.7262356 L7.50006367,54.7262356 L7.50006367,54.7262356 M7.50006367,62.2646322 C5.87825276,62.2646322 4.55847814,61.0500846 4.55847814,59.5566245 C4.55847814,58.0641412 5.87776465,56.8491442 7.50006367,56.8491442 C9.12174724,56.8491442 10.4415431,58.0636918 10.4415431,59.5566245 C10.4415218,61.0506317 9.12225656,62.2646322 7.50006367,62.2646322 L7.50006367,62.2646322 L7.50006367,62.2646322 M7.50006367,57.6249652 C6.3314982,57.6249652 5.38103465,58.4994488 5.38103465,59.5752043 C5.38103465,60.6509598 6.33149818,61.5258928 7.50006367,61.5258928 C8.66860792,61.5258928 9.61898657,60.6504323 9.61898657,59.5752043 C9.61947467,58.4994488 8.66860792,57.6249652 7.50006367,57.6249652 L7.50006367,57.6249652 L7.50006367,57.6249652" id="Shape-Copy-5" fill="#00B9B2" fill-rule="nonzero"></path>
            <path d="M5.92460727,112.170488 L4.43777955,113.681842 C5.21194721,115.399397 6.85431816,117.312518 8.75987064,117.954754 L10.0456158,116.673826 C10.0456158,116.673826 13.0937901,117.204986 13.7786535,117.538807 C14.3730297,117.825953 14.5687894,118.463463 14.4759366,119.250454 C14.3753954,120.096528 13.2670759,121.96061 11.2686706,121.981289 C9.27085678,122.001378 6.32854654,120.497705 4.22072872,118.278532 C2.1129109,116.06054 0.233380872,113.247579 0.533821787,110.859427 C0.834854126,108.470685 2.91724093,108.044102 3.43828119,108.005698 C3.96523565,107.967294 4.38336898,108.121502 4.70096106,108.514406 C5.10963169,109.020751 5.92460727,112.170488 5.92460727,112.170488 M4.23610562,109.008344 C3.98830101,108.684567 3.56247923,108.63021 3.13665744,108.730652 C2.75814919,108.819277 1.37955117,109.390613 1.18438285,110.920874 C0.967923447,112.622476 2.23829176,115.502202 4.51762113,117.705422 C6.79754192,119.908643 8.99407262,121.194298 10.8818825,121.348506 C12.7696924,121.502714 13.690532,119.841879 13.8253756,119.342624 C13.9596277,118.84396 13.8484409,118.340569 13.5769795,118.139686 C13.2315908,117.883854 10.2620753,117.353285 10.2620753,117.353285 L8.91482244,118.679708 C6.69936634,117.959481 4.61343102,115.944146 3.7257109,113.480958 L5.19716173,112.000328 C5.1965703,112.000328 4.48450166,109.33153 4.23610562,109.008344" id="Shape-Copy" fill="#00B9B2" fill-rule="nonzero"></path>
            <path d="M7.5,175.967558 C3.63781095,175.967558 0.506965174,172.836601 0.506965174,168.974523 C0.506965174,165.112431 3.63781095,161.981488 7.5,161.981488 C11.3620776,161.981488 14.4930348,165.112431 14.4930348,168.974523 C14.4930348,172.836601 11.3620776,175.967558 7.5,175.967558 Z M7.5,162.773944 C4.07555821,162.773944 1.29943483,165.550053 1.29943483,168.974509 C1.29943483,172.398965 4.07555821,175.175088 7.5,175.175088 C10.9244557,175.175088 13.7005652,172.398965 13.7005652,168.974523 C13.7005652,165.550067 10.9244418,162.773944 7.5,162.773944 Z M11.0820915,170.727894 C10.9857771,170.934244 10.7399343,171.022911 10.533598,170.926179 L7.24742886,169.827562 C7.09025274,169.754205 7.00278408,169.594605 7.01165771,169.431397 C7.00963781,169.414875 7.00199005,169.401168 7.00199005,169.384242 L7.00199005,164.84469 C7.00199005,164.616581 7.18656716,164.432004 7.41467662,164.432004 C7.64278607,164.432004 7.82736318,164.616581 7.82736318,164.84469 L7.82736318,169.156941 L10.8834169,170.178969 C11.0901572,170.275701 11.1788239,170.52114 11.0820915,170.727894 Z" id="Shape-Copy-2" fill="#00B9B2" fill-rule="nonzero"></path>
            <g id="Group-5-Copy" transform="translate(0.500000, 215.967558)" fill-rule="nonzero" fill="#00B9B2">
                <path d="M11.7864521,4.78824315 C11.7864521,3.66116438 12.3536747,2.637217 13.2597576,2.0316884 L13.2597576,1.47551554 C13.2607372,1.28002402 13.1838148,1.09219259 13.045995,0.9535434 C12.9081752,0.814894206 12.7208087,0.736846224 12.5253148,0.736652795 L1.471103,0.736652795 C1.27560912,0.736846224 1.0882426,0.814894206 0.950422812,0.9535434 C0.812603023,1.09219259 0.735680631,1.28002402 0.736660155,1.47551554 L0.736660155,2.0316884 C1.65842182,2.64622938 2.21207639,3.68077341 2.21207639,4.78861148 C2.21207639,5.89644954 1.65842182,6.93099358 0.736660155,7.54553456 L0.736660155,8.10097076 C0.735680631,8.29646228 0.812603023,8.48429371 0.950422812,8.62294291 C1.0882426,8.7615921 1.27560912,8.83964008 1.471103,8.83983351 L12.5253148,8.83983351 C12.7208087,8.83964008 12.9081752,8.7615921 13.045995,8.62294291 C13.1838148,8.48429371 13.2607372,8.29646228 13.2597576,8.10097076 L13.2597576,7.54479791 C12.3389079,6.9298459 11.7861045,5.89555071 11.7864521,4.78824315 L11.7864521,4.78824315 Z M1.471103,9.57648631 C1.08023747,9.5762919 0.705501331,9.42063248 0.429532514,9.14383451 C0.153563698,8.86703655 -0.00097082065,8.49183512 7.36940525e-06,8.10097076 L7.36940525e-06,7.11827594 C0.900395497,6.69171564 1.47443544,5.78456261 1.47443544,4.78824315 C1.47443544,3.79192369 0.900395497,2.88477066 7.36940525e-06,2.45821037 L7.36940525e-06,1.47551554 C7.36940525e-06,0.660777555 0.655628351,0 1.471103,0 L12.5253148,0 C13.3378428,0 13.9964104,0.658567594 13.9964104,1.47551554 L13.9964104,2.45821037 C13.0960223,2.88477066 12.5219824,3.79192369 12.5219824,4.78824315 C12.5219824,5.78456261 13.0960223,6.69171564 13.9964104,7.11827594 L13.9964104,8.10097076 C13.9964104,8.91570875 13.3407894,9.57648631 12.5253148,9.57648631 L1.471103,9.57648631 Z M5.15657692,0.736652795 L5.15657692,2.57828478 L5.89322971,2.57828478 L5.89322971,0.736652795 L5.15657692,0.736652795 Z M5.15657692,4.05159036 L5.15657692,6.26154874 L5.89322971,6.26154874 L5.89322971,4.05159036 L5.15657692,4.05159036 Z M5.15657692,7.73485432 L5.15657692,8.83983351 L5.89322971,8.83983351 L5.89322971,7.73485432 L5.15657692,7.73485432 L5.15657692,7.73485432 Z" id="Shape"></path>
            </g>
        </g>
    </g>
</svg>
