<?xml version="1.0" encoding="UTF-8" standalone="no"?>
<svg width="83px" height="253px" viewBox="0 0 83 253" version="1.1" xmlns="http://www.w3.org/2000/svg" xmlns:xlink="http://www.w3.org/1999/xlink">
  <!-- Generator: Sketch 42 (36781) - http://www.bohemiancoding.com/sketch -->
  <title>Coupon_status@1x</title>
  <desc>Created with Sketch.</desc>
  <defs>
    <path d="M59.65625,0 L23.34375,0 C23.34375,0 0,28.5 0,28.5 L0,57 C0,57 2.32140625,57 5.1875,57 L83,57 C83,57 83,54.6811364 83,51.8181818 L83,28.5 C83,28.5 59.65625,0 59.65625,0 Z" id="path-1"></path>
    <mask id="mask-2" maskContentUnits="userSpaceOnUse" maskUnits="objectBoundingBox" x="0" y="0" width="83" height="57" fill="white">
      <use xlink:href="#path-1"></use>
    </mask>
    <linearGradient x1="0%" y1="50%" x2="100%" y2="50%" id="linearGradient-3">
      <stop stop-color="#00B9B2" offset="0%"></stop>
      <stop stop-color="#2BDEAD" offset="100%"></stop>
    </linearGradient>
  </defs>
  <g id="优惠券新增" stroke="none" stroke-width="1" fill="none" fill-rule="evenodd">
    <g id="Coupon_status">
      <g id="Group-13-Copy">
        <g id="quesheng2">
          <g id="Group-10">
            <g id="抽屉2" transform="translate(0.000000, 40.000000)" stroke="#717E8C" fill-rule="nonzero" stroke-width="10" fill="#AFB7BE">
              <use id="Shape" mask="url(#mask-2)" xlink:href="#path-1"></use>
            </g>
            <polygon id="Path" fill="#FFFFFF" points="59.46875 70.9090909 49.09375 81.2727273 33.53125 81.2727273 23.15625 70.9090909 5 70.9090909 5 69.2275909 24.4038438 45 58.22375 45 78.0434109 69.0930482 78.0434109 71.0184172"></polygon>
            <path d="M33.9100501,51.2155186 C32.9668454,51.7415833 31.9953931,52.2165173 31,52.638215 L31.2769764,53.3709037 C32.3138673,52.9561226 33.3178693,52.4651034 34.2805509,51.9019696 L33.9208413,51.2155186 L33.9100501,51.2155186 Z M37.6042669,48.7258 C36.8335876,49.332111 36.0315521,49.898397 35.2014072,50.4223655 C35.0304325,50.5447262 34.9826164,50.7761195 35.0913435,50.9549895 C35.2000706,51.1338595 35.4291626,51.2006881 35.6186703,51.1088164 C36.4963615,50.5575216 37.3272905,49.9635458 38.1114573,49.3660133 C38.2193268,49.2808978 38.2728526,49.1451919 38.251744,49.0103393 C38.2315977,48.8732137 38.1459103,48.7540676 38.0215299,48.6902326 C37.838078,48.6439949 37.6977913,48.6439949 37.6042669,48.7364702 L37.6042669,48.7258 Z M41.8524363,44.688899 C41.7681342,44.6240833 41.6602065,44.597194 41.5549081,44.6147722 C41.4496098,44.6323504 41.3565924,44.692785 41.2984837,44.7813743 C40.6388696,45.7309431 39.8831789,46.6116294 39.043105,47.4098058 C38.9039297,47.5678074 38.9039297,47.803099 39.043105,47.9611007 C39.2017279,48.0981971 39.4384347,48.0981971 39.5970576,47.9611007 C40.4837219,47.1331446 41.2739956,46.2097709 41.953155,45.2081832 C42.0121767,45.1295565 42.0295612,45.0277424 41.9999172,44.9343141 C42.0394852,44.8880765 41.9459608,44.7956013 41.8524363,44.703126 L41.8524363,44.688899 Z M43.6509839,36.298547 C43.6557736,36.4412708 43.7464281,36.5673235 43.8811981,36.6186537 C44.0193845,36.672982 44.175865,36.6556422 44.298461,36.5724161 C44.4063306,36.4873006 44.4598564,36.3515947 44.4387478,36.216742 C44.2552959,34.473939 43.6078188,33.1437178 42.5898408,32.2723163 C42.4197051,32.1477904 42.1825043,32.1675892 42.0358881,32.3185539 C41.9642715,32.3960957 41.928607,32.4996579 41.9374831,32.6043011 C41.9463592,32.7089443 41.9989716,32.8051857 42.0826504,32.8698488 C42.9603416,33.5598565 43.5142943,34.7513648 43.654581,36.3198875 L43.6509839,36.298547 Z M37.2805283,32.4074724 C37.3447574,32.4085333 37.408102,32.3925678 37.4639801,32.3612348 C38.4754173,31.8954979 39.6166856,31.7826514 40.7013658,32.0411281 C40.9189008,32.1039868 41.1467829,31.9805753 41.2103548,31.7654807 C41.2739266,31.5503862 41.1491149,31.3250606 40.93158,31.2622019 C39.6850854,30.9331931 38.3614027,31.0464575 37.1906009,31.5823086 C37.0061826,31.6603238 36.9068933,31.8596954 36.9567897,32.0517984 C36.9487968,32.1421729 36.9791073,32.2317725 37.0404839,32.2992037 C37.1018606,32.3666349 37.1887944,32.4058452 37.2805283,32.4074724 L37.2805283,32.4074724 Z M35.1546451,36.3518981 C35.0700112,36.0375347 35.0540701,35.7089517 35.1078828,35.3880214 L35.4675923,34.1965131 C35.6296779,33.8961757 35.831712,33.6186543 36.0683072,33.3713493 C36.2074825,33.2133476 36.2074825,32.978056 36.0683072,32.8200544 C35.9096843,32.682958 35.6729775,32.682958 35.5143545,32.8200544 C34.5096348,33.7978217 34.0901823,35.2211573 34.4064492,36.5795296 C34.4254189,36.679276 34.4865819,36.7662577 34.5745396,36.8185762 C34.6624973,36.8708946 34.7688701,36.8835655 34.8668774,36.8533987 C35.0589718,36.7654525 35.1742375,36.5674251 35.1546451,36.3590117 L35.1546451,36.3518981 Z M35.2481695,37.7283569 C35.1583665,37.7865066 35.0972035,37.8790967 35.0794452,37.9837757 C35.0616869,38.0884548 35.0889471,38.1957107 35.1546451,38.2796518 C35.6164921,38.925635 36.1591696,39.5112225 36.7697407,40.0224548 L37.5071453,40.6199873 C37.6852773,40.7201921 37.9112089,40.670775 38.0299775,40.5056303 C38.1487462,40.3404855 38.1217795,40.1132472 37.9675735,39.979774 L37.2733341,39.4284791 C36.7119607,38.9629498 36.2181145,38.4231803 35.8057192,37.824389 C35.7476106,37.7357996 35.6545931,37.675365 35.5492948,37.6577868 C35.4439964,37.6402086 35.3360686,37.667098 35.2517666,37.7319137 L35.2481695,37.7283569 Z M41.4351733,42.1778399 C41.5305742,42.1778399 41.6220677,42.1403672 41.6895264,42.0736654 C41.756985,42.0069635 41.7948828,41.9164964 41.7948828,41.8221658 C41.7897575,41.62946 41.6586511,41.4623742 41.4711442,41.4095839 C40.6660421,41.2917883 39.8859175,41.0442762 39.1618091,40.6768952 C38.9751207,40.6121401 38.7691901,40.6978777 38.6855765,40.875171 C38.6019628,41.0524643 38.6679037,41.263559 38.8380705,41.3633462 C39.6359196,41.767591 40.4927832,42.0460077 41.3776197,42.1885101 L41.4351733,42.1778399 Z M44.3919856,41.2139631 C44.2516989,41.2602007 44.068247,41.3064384 43.9315574,41.352676 C44.2046538,40.4400948 44.3901253,39.5040869 44.48551,38.5570776 C44.4753694,38.4600363 44.4434152,38.3664644 44.3919856,38.2832085 C44.3291204,38.193864 44.2250495,38.1417442 44.1150092,38.1444956 C44.0112399,38.1335949 43.9075336,38.1656309 43.8284955,38.2330029 C43.7494573,38.3003748 43.7021314,38.3970783 43.6977462,38.5001697 C43.6201345,39.5181957 43.4022965,40.5209751 43.050269,41.4807187 C42.8953235,41.47348 42.7401506,41.489063 42.5898408,41.5269563 C42.3911788,41.5269563 42.2301313,41.686197 42.2301313,41.8826304 C42.2345166,41.9857218 42.2818425,42.0824253 42.3608807,42.1497973 C42.4399188,42.2171692 42.5436252,42.2492052 42.6473944,42.2383045 L42.7876811,42.2383045 C42.6378091,42.6130144 42.4685214,42.9798444 42.2804907,43.3373374 C42.1948784,43.5270973 42.2757907,43.7498554 42.4639425,43.8423946 C42.5489756,43.8940166 42.651874,43.908395 42.7480441,43.8820932 C42.8442143,43.8557913 42.9250145,43.7911728 42.971133,43.7036817 C43.2405025,43.2177109 43.4725686,42.7124174 43.6653723,42.1920668 C43.9939497,42.1380195 44.318435,42.0619674 44.636588,41.9644354 C44.854123,41.9015768 44.9789348,41.6762512 44.9153629,41.4611566 C44.8517911,41.246062 44.6239089,41.1226505 44.4063739,41.1855091 L44.3919856,41.2139631 Z M49.0106558,38.5072832 C48.181852,39.2529271 47.2666041,39.8988297 46.2840576,40.4314801 C46.1130829,40.5538408 46.0652668,40.7852341 46.1739939,40.9641041 C46.282721,41.1429741 46.511813,41.2098027 46.7013207,41.1179311 C47.7273308,40.5440974 48.691536,39.8683836 49.5789968,39.1012589 C49.6694275,39.0044233 49.719533,38.877389 49.7192835,38.7455849 C49.6725213,38.606872 49.5789968,38.4717158 49.4423072,38.4717158 C49.3098711,38.3867415 49.1351718,38.4061002 49.0250442,38.5179534 L49.0106558,38.5072832 Z M53.0286112,34.5948681 C52.9445154,34.5437941 52.8498295,34.5121809 52.7516348,34.5023929 C52.6441645,34.5097904 52.5442777,34.5598148 52.4746585,34.6411058 C51.8573221,35.483726 51.1780299,36.2802214 50.4422997,37.0241222 C50.370683,37.101664 50.3350185,37.2052262 50.3438946,37.3098694 C50.3527707,37.4145126 50.4053831,37.510754 50.4890619,37.5754171 C50.6476849,37.7125135 50.8843917,37.7125135 51.0430146,37.5754171 C51.7815674,36.7837192 52.4756502,35.9525648 53.1221356,35.0856984 C53.1735653,35.0024425 53.2055195,34.9088706 53.2156601,34.8118293 C53.1688979,34.7655917 53.1221356,34.6731165 53.0322083,34.584198 L53.0286112,34.5948681 Z M56.2659968,29.5976471 C56.1788656,29.5601336 56.0837778,29.5442599 55.9890205,29.5514095 C55.8937498,29.5862611 55.8128096,29.6512872 55.7588064,29.73636 C55.1515282,30.8240621 54.4888102,31.8805876 53.7732099,32.9018595 C53.6902522,33.0235239 53.6727848,33.1776377 53.7264476,33.3144414 C53.7783603,33.4476994 53.9058432,33.5373369 54.0501862,33.5420728 C54.1941992,33.5453551 54.3299055,33.4755795 54.4098957,33.3571223 C55.1041351,32.2901 55.7947774,31.2017373 56.4422545,30.1027043 C56.4799159,30.0164692 56.4959581,29.9225163 56.4890168,29.8288353 C56.4505446,29.7227493 56.3660923,29.6392444 56.2588027,29.6012038 L56.2659968,29.5976471 Z M58.7551868,24.6182097 C58.6524145,24.5716326 58.5342205,24.5716326 58.4314482,24.6182097 C58.3241586,24.6562503 58.2397063,24.7397552 58.2012341,24.8458412 C58.2012341,24.8458412 57.6940437,26.0373494 56.8163524,27.7801525 C56.7585221,27.9027751 56.7712453,28.0465891 56.8497294,28.1574211 C56.9282134,28.2682531 57.0605347,28.3292651 57.1968491,28.3174745 C57.3331634,28.3056838 57.4527615,28.2228818 57.5105918,28.1002591 C58.0447323,27.1333884 58.5250605,26.1383899 58.9494299,25.1197102 C59.0350422,24.9299503 58.9541298,24.7071922 58.765978,24.614653 L58.7551868,24.6182097 Z" id="Shape" fill="url(#linearGradient-3)" fill-rule="nonzero"></path>
            <path d="M61.9479566,25.8914164 L65.8195799,28.0305267 L61.1913646,34.1030281 L61.9479566,25.8914164 Z M46.9993535,17.1245711 L82.9611176,0 L75.5311476,26.9785053 L62.024798,22.5307923 L75.5075041,8.0830314 L57.7748789,21.946336 L46.9993535,17.1245711 Z" id="Combined-Shape" fill="url(#linearGradient-3)"></path>
          </g>
        </g>
      </g>
      <g id="Group-14-Copy-3" transform="translate(0.000000, 225.000000)" fill-rule="nonzero" fill="#C5C8D0">
        <path d="M18.4977545,5.52088604 C21.2696006,5.52088604 23.7277271,6.87008169 25.2604416,8.95086094 L26.3327047,9.24005147 C24.7316824,6.57023109 21.8221232,4.78462063 18.4978022,4.78462063 C16.8916026,4.78462063 15.3826277,5.20175605 14.070822,5.93360377 L15.1409617,6.22219406 C16.1691337,5.7714458 17.3043363,5.52091005 18.4977306,5.52091005 L18.4977545,5.52088604 Z M24.0215247,5.04214305 L24.6088095,5.52088604 L24.7896355,4.80293965 L25.4469937,4.41682408 L24.7896355,4.03032434 L24.6088095,3.31261804 L24.0215247,3.79136103 L23.2526265,3.73417116 L23.5469727,4.41682408 L23.2526265,5.09911685 L24.0215247,5.04214305 Z M13.8351923,3.43585716 L13.2312779,3.01295953 L13.0994579,3.76166167 L12.4813475,4.22578306 L13.1480345,4.54728993 L13.3697783,5.25707321 L13.9135208,4.70668685 L14.6690342,4.68130916 L14.338351,4.02002441 L14.5835004,3.29461118 L13.8351685,3.43595318 L13.8351923,3.43585716 Z M19.0487263,2.59834507 L18.6013018,2.01060043 L18.2493603,2.68364967 L17.5202109,2.93673039 L18.0581319,3.44687736 L18.055245,4.19096974 L18.7393966,3.83316099 L19.4667805,4.04004807 L19.3515424,3.30880059 L19.8043112,2.69255706 L19.0486785,2.59839309 L19.0487263,2.59834507 Z M27.6740475,7.02280405 L27.0398801,6.58103521 L26.9497415,7.31948544 L26.352078,7.75746084 L27.0438645,8.10084008 L27.3085065,8.81292824 L27.8260043,8.28662308 L28.5870769,8.28914404 L28.2156427,7.6207526 L28.4213535,6.90974485 L27.6740475,7.02282806 L27.6740475,7.02280405 Z M35.9106132,12.5848178 L4.11415475,4.01111703 C3.33373276,3.80055656 2.53150381,4.26683876 2.3221188,5.05217891 L0.0501387923,13.5846079 C-0.158792905,14.3700201 0.304306804,15.1772806 1.0847288,15.3879371 L32.881569,23.9613018 C33.661991,24.1715982 34.4642199,23.705532 34.6735572,22.920336 L36.9451316,14.3877389 C37.154278,13.6023987 36.6909636,12.7953303 35.9105893,12.5848178 L35.9106132,12.5848178 Z M36.1440479,14.5531381 L34.0611729,22.3742713 C33.9046591,22.9633844 33.3029396,23.312886 32.7177543,23.1551937 L1.62749309,14.7724619 C1.04206924,14.6143375 0.694756376,14.0089221 0.851461121,13.4197849 L2.93416911,5.59853171 C3.09089769,5.00941856 3.69273643,4.65991696 4.278208,4.81756123 L35.3679444,13.200245 C35.9535352,13.3581534 36.3008719,13.9638569 36.1440956,14.5531381 L36.1440479,14.5531381 Z M18.4977545,0.735929272 C24.5913925,0.735929272 29.71746,4.90176143 31.2189671,10.557627 L32.0286401,10.7758464 C30.5864937,4.59888565 25.0759413,0 18.4977545,0 C14.5092279,0 10.9131788,1.69099029 8.37844165,4.39900925 L9.18711248,4.61722866 C11.5699405,2.21926418 14.8616942,0.736025292 18.4977545,0.736025292 L18.4977545,0.735929272 Z M21.8548098,21.7499366 C20.8263753,22.2011411 19.6915544,22.4516769 18.4977784,22.4516769 C15.7261708,22.4516769 13.267758,21.1022891 11.735139,19.0216059 L10.6628282,18.7324394 C12.2637312,21.4027159 15.1732666,23.1877021 18.4978022,23.1877021 C20.1040257,23.1877021 21.6127859,22.7709749 22.9248063,22.0389831 L21.8548336,21.7499607 L21.8548098,21.7499366 Z M14.0061169,23.2787689 L13.423747,22.8006022 L13.2442571,23.5167719 L12.5922433,23.9019991 L13.2442571,24.2880187 L13.423747,25.0041884 L14.0061169,24.5260216 L14.7688834,24.5834036 L14.4768514,23.9019751 L14.7688834,23.221291 L14.0061169,23.2786969 L14.0061169,23.2787689 Z M18.4954879,25.5460035 L18.9394767,26.1320435 L19.2881256,25.460915 L20.0115251,25.2084585 L19.4779703,24.6998961 L19.4810719,23.9573163 L18.8024316,24.3143327 L18.0807023,24.1076377 L18.1949861,24.8374207 L17.745987,25.4519595 L18.4954641,25.5460755 L18.4954879,25.5460035 Z M9.24840579,20.9189551 L9.84478086,21.4032922 L9.98581033,20.6749978 L10.6076905,20.2813674 L9.94751693,19.8908101 L9.73529272,19.16314 L9.18644444,19.6506703 L8.43341235,19.5945128 L8.75414649,20.2859291 L8.50095668,20.97905 L9.24842965,20.9189551 L9.24840579,20.9189551 Z M18.4977545,27.2364415 C12.4040687,27.2364415 7.278049,23.0703453 5.77658959,17.4146237 L4.96713142,17.1966444 C6.40889606,23.3737493 11.9196393,27.9726829 18.4978261,27.9726829 C22.4865675,27.9726829 26.0824734,26.2814526 28.617139,23.5735536 L27.8085874,23.3554543 C25.4254253,25.7534187 22.1338864,27.2364896 18.4977784,27.2364896 L18.4977545,27.2364415 Z M23.7860858,24.5351691 L24.3860397,24.9579707 L24.5154261,24.2114294 L25.1281922,23.7500451 L24.4658236,23.4286102 L24.2442467,22.7203155 L23.7057532,23.2681809 L22.9559659,23.2924302 L23.2851222,23.9524184 L23.0435993,24.6753347 L23.7860858,24.5351691 L23.7860858,24.5351691 Z M12.1580127,10.3294438 L8.49659052,9.31608854 L7.95876501,9.19921187 L8.34446669,7.7880005 L9.27484135,8.06950811 L13.143549,9.14024532 L14.078433,9.37500704 L13.8118346,10.2599132 L13.2088983,12.4659004 L13.0268794,13.2223815 L12.1041872,12.9430107 L9.09520831,12.1102524 L8.83536189,13.0609438 C8.77173042,13.2937368 8.76049292,13.4450666 8.80200728,13.5150773 C8.8433546,13.5852321 8.90464791,13.6380763 8.98572018,13.673754 C9.06674472,13.7095757 9.27104781,13.7726958 9.59853397,13.8633785 C10.7011693,14.1792432 11.3487693,14.3571512 11.5415724,14.3971745 C11.7342562,14.4372458 11.8710388,14.435181 11.951968,14.3909321 C12.0328255,14.3467552 12.1027557,14.2622909 12.1616393,14.1373712 C12.2196304,14.0149698 12.2668526,13.8876906 12.3027642,13.7569938 L12.3864132,13.4206493 C13.0358026,13.8240755 13.5203036,14.0753555 13.839988,14.1744413 C13.6328695,14.649847 13.4770953,14.9835506 13.372379,15.1754799 C13.2675433,15.3675053 13.1469131,15.5217403 13.0104884,15.638617 C12.8739921,15.7552775 12.694359,15.8333554 12.4717085,15.8729465 C12.2490103,15.9124656 11.9852749,15.8953711 11.6806932,15.821831 C11.3760161,15.7480748 10.3135828,15.4567234 8.49315484,14.9476569 C8.00691208,14.8130854 7.66520606,14.6585384 7.46801291,14.4842077 C7.27070047,14.3097811 7.15627358,14.1142984 7.12458907,13.8977836 C7.09292841,13.6812689 7.10896155,13.456711 7.17256916,13.2240141 L8.01702823,10.1342732 L8.12801946,9.63766745 L9.67089777,10.0646947 L9.54680805,10.397846 L9.46105945,10.7416574 L11.8636188,11.4065675 L12.1580366,10.3295639 L12.1580127,10.3294438 Z M16.3877043,16.1817045 L16.3450686,16.3376921 L16.1244938,17.2352992 L14.804266,16.8698795 L15.0684309,16.0242763 L15.6490353,13.9000405 C15.5665836,13.963091 15.4835191,14.0253258 15.3998538,14.0867358 C15.3008874,13.6227345 15.1528434,13.1475209 14.9554594,12.6615271 C15.4701418,12.3087123 15.8745727,11.9519599 16.1686088,11.5911981 C16.4625017,11.2305562 16.6708608,10.9567076 16.7936383,10.769532 C16.9162011,10.5825486 17.0654618,10.3188798 17.2409912,9.97862175 C17.4444592,10.1202279 17.8450249,10.3562621 18.4428315,10.6867004 C18.3561524,10.8225203 18.2844328,10.9439107 18.2277681,11.0506074 L19.0276589,11.2959812 L19.664761,11.4723046 L19.8183402,10.8197112 L21.1232984,11.1808572 L20.9236239,11.8206778 L21.8755431,12.0841305 L22.8564508,12.3316411 L22.5519168,13.4457629 L21.585229,13.1462484 L20.6256988,12.8806829 L20.5668868,13.0960932 L21.2500841,13.2851415 L22.2407262,13.5273941 L21.9522015,14.4620953 L21.7430789,15.2271477 L21.5037511,16.2235045 L20.2986182,15.889945 L20.3671646,15.6692046 L19.8682529,15.5311279 C19.8400279,15.6139595 19.8129004,15.6929737 19.7869181,15.7682905 C19.7608166,15.8436553 19.7203282,15.9362827 19.6654767,16.0462927 C19.6106492,16.1562548 19.5304358,16.3031909 19.4253139,16.4870772 C19.5406712,16.5882759 19.7876578,16.7419106 20.1662972,16.9477653 C20.5448651,17.153692 20.9995426,17.3328485 21.5304014,17.4850906 C21.3035279,17.7310887 21.1440078,17.9120218 21.051865,18.027746 C20.959603,18.1433022 20.8369448,18.3104301 20.6836519,18.5290096 C20.0623921,18.223901 19.6063307,17.9844335 19.3153486,17.8107991 C19.0242948,17.6370207 18.751159,17.4429065 18.4960844,17.2285046 C18.2132381,17.3365219 17.9436573,17.4018028 17.6871511,17.4240353 C17.4305972,17.4461478 17.0558944,17.4423543 16.5632098,17.4125829 C16.5531175,17.3085512 16.5299745,17.1263455 16.4938045,16.8660381 C16.4576345,16.6056826 16.4306741,16.4423481 16.412947,16.3762989 C16.3952676,16.3099855 16.3868931,16.2451608 16.3877521,16.1815364 L16.3877043,16.1817045 Z M17.0786796,14.9828303 L17.3756981,13.9865215 L17.5766609,13.2512405 L17.8114317,12.3015816 L18.7858736,12.6032328 L19.323222,12.7519217 L19.3821055,12.5365114 L18.7372732,12.3581232 L17.787048,12.1191358 L17.9778708,11.420973 C17.7864754,11.698303 17.6237821,11.9408437 17.4899818,12.1487151 L16.4100839,16.1000253 C16.8503984,16.2005037 17.1104596,16.245905 17.190315,16.2360373 L17.4813211,16.2287385 C17.2792607,15.9811078 17.1191919,15.7610637 17.00121,15.5685582 C17.3619792,15.4767231 17.6872227,15.3643601 17.9768687,15.2314213 L17.0787035,14.9828063 L17.0786796,14.9828303 Z M18.309914,15.0999231 L18.2683997,15.3121402 L18.2377411,15.3036649 C18.3081169,15.4153513 18.3830744,15.5240466 18.4624196,15.6294695 C18.5495282,15.4512493 18.6005145,15.3455129 18.6151638,15.3121882 L18.655342,15.1954796 L18.309914,15.0998991 L18.309914,15.0999231 Z M18.9472547,14.157851 L19.0365582,13.8310381 L18.6834477,13.7333448 L18.5941919,14.0601577 L18.9472786,14.157851 L18.9472547,14.157851 Z M20.264691,14.170936 L20.1753397,14.4977489 L20.6512993,14.6294632 L20.7406506,14.3026504 L20.264691,14.170936 Z M21.8194033,18.0285624 C22.1775719,17.7653738 22.4568871,17.488692 22.6573966,17.1979169 C22.8579777,16.9072378 23.0231046,16.5948784 23.1531352,16.2605266 C23.2827601,15.9263189 23.3755948,15.6577522 23.4311143,15.4546586 L24.1172701,12.9442112 L24.3012932,12.1802632 L25.1702791,12.4447003 L29.9753977,13.7746646 L30.7183852,13.956318 L30.4801549,14.7372404 L29.1729063,19.5204205 C29.1079387,19.7580634 29.0412295,19.9365956 28.9728501,20.0562333 C28.9043753,20.175703 28.7984898,20.2756051 28.6555517,20.3558678 C28.5124942,20.4361305 28.2849765,20.453033 27.972927,20.4066472 C27.660782,20.3601655 27.2729808,20.2887622 26.8094993,20.1924374 C26.8203312,20.0516236 26.8329525,19.8899458 26.8471247,19.707476 C26.8610821,19.5249103 26.8479836,19.2256839 26.8075906,18.8097729 C27.3043074,19.0059519 27.5806164,19.0876552 27.6363983,19.0551947 C27.6920132,19.0225903 27.7577443,18.8678031 27.8335199,18.5904491 L27.9654592,18.1076966 L26.9521989,17.8272934 L26.6050531,19.0973548 L26.4174751,19.8443523 L24.9513029,19.4385733 L25.1773413,18.7022358 L25.5244156,17.4321744 L24.4957903,17.1475216 C24.4035239,17.320787 24.3096353,17.4931725 24.2141369,17.6646553 C24.1276964,17.8192984 23.99392,18.0218878 23.8126168,18.2725916 C23.6313136,18.5231754 23.4871587,18.7030041 23.3803189,18.8120058 L22.9777013,19.2279167 C22.5926199,18.7643956 22.2065365,18.3646428 21.8194033,18.0285624 Z M25.9711481,15.798254 L25.0116895,15.5326884 L24.8837824,16.0006033 L25.8433125,16.2661688 L25.971172,15.798254 L25.9711481,15.798254 Z M26.4217696,14.1493758 L25.4623111,13.8838103 L25.3324475,14.359216 L26.2919061,14.6247815 L26.4217696,14.1493758 Z M28.412144,16.4738001 L27.406614,16.1954618 L27.2787069,16.6634006 L28.2842369,16.941691 L28.412144,16.4737761 L28.412144,16.4738001 Z M28.8627655,14.824922 L27.8495053,14.5445188 L27.7293284,15.0146425 L28.7348584,15.2929328 L28.8627655,14.824946 L28.8627655,14.824922 Z" id="Shape"></path>
      </g>
      <g id="Group-Copy" transform="translate(0.000000, 147.000000)" fill-rule="nonzero" fill="#C5C8D0">
        <path d="M18.422611,5.73096599 C21.19171,5.73096599 23.6474515,7.07036518 25.1786323,9.13609698 L26.2498495,9.42321541 C24.650427,6.77272091 21.7436865,5 18.422611,5 C16.8180012,5 15.3105413,5.41408311 14,6.14061716 L15.0691523,6.42713125 C16.096302,5.97970794 17.2304223,5.73096599 18.422611,5.73096599 L18.422611,5.73096599 Z" id="Shape-Copy"></path>
        <polygon id="Shape-Copy-2" points="23.7681841 4.71696927 24.3549109 5.19229357 24.5356127 4.47950857 25.1922935 4.09619715 24.5356127 3.71248282 24.3549109 3 23.7681841 3.47532429 23 3.41856538 23.2940685 4.09624751 23 4.77362745"></polygon>
        <polygon id="Shape-Copy-3" points="13.3525439 3.41982446 12.7491973 3 12.6174985 3.74325451 12 4.20402393 12.6660483 4.52312274 12.8875943 5.22779933 13.4307573 4.68136272 14.1855449 4.65618131 13.8551648 3.9996516 14.1000792 3.27946326"></polygon>
        <polygon id="Shape-Copy-4" points="19.5270007 2.58345328 19.0800307 2 18.7284478 2.66816355 18 2.9193733 18.5373713 3.42582182 18.5345006 4.1644933 19.2180248 3.80928433 19.94471 4.01466391 19.8296309 3.28873423 20.2819394 2.67697705"></polygon>
        <polygon id="Shape-Copy-5" points="27.3206139 7.43855943 26.6870496 7 26.5970009 7.73313157 26 8.1679138 26.691129 8.50876936 26.9555338 9.21571228 27.4725081 8.69319803 28.2328356 8.6956658 27.8617624 8.03213564 28.0672931 7.32630071"></polygon>
        <path d="M35.8751866,12.5618065 L4.11004648,4.05018774 C3.33037966,3.84118203 2.52895611,4.30406673 2.3197993,5.08373355 L0.0500980903,13.554357 C-0.158655799,14.3340238 0.304027435,15.1354977 1.08369425,15.3446545 L32.8491869,23.8559208 C33.6288034,24.0646747 34.4302773,23.6019914 34.6394341,22.8224254 L36.9087828,14.3516508 C37.1176877,13.5720344 36.6548534,12.7707619 35.8751866,12.5618065 L35.8751866,12.5618065 Z M36.1084168,14.515884 L34.0276266,22.2803703 C33.87125,22.8651834 33.2701697,23.2121832 32.6855581,23.0556556 L1.62585001,14.7337032 C1.04103695,14.5767223 0.694037096,13.975642 0.850615108,13.3907786 L2.93125429,5.62614116 C3.0878323,5.0413281 3.68906365,4.69432825 4.27392707,4.85080555 L35.3330812,13.1728083 C35.9180454,13.3295374 36.2649948,13.9308694 36.1084168,14.515884 L36.1084168,14.515884 Z" id="Shape-Copy-6"></path>
        <path d="M18.1092785,0.730663805 C24.1969348,0.730663805 29.3179774,4.86630752 30.8179837,10.4811576 L31.6269113,10.6977681 C30.1861317,4.56564146 24.6810222,0 18.1092785,0 C14.1246729,0 10.5321419,1.67874389 8,4.3671616 L8.80787,4.58377209 C11.1882687,2.20312157 14.4768097,0.730663805 18.1092785,0.730663805 L18.1092785,0.730663805 Z" id="Shape-Copy-7"></path>
        <path d="M22.180949,21.9956309 C21.1535474,22.4435578 20.01983,22.6922998 18.8271881,22.6922998 C16.0582906,22.6922998 13.6023477,21.3526488 12.0712172,19.2870681 L11,19 C12.5992714,21.6509478 15.5060119,23.423014 18.8272384,23.423014 C20.4318482,23.423014 21.9391571,23.0092834 23.2498999,22.2825479 L22.180949,21.9956309 L22.180949,21.9956309 Z" id="Shape-Copy-8"></path>
        <polygon id="Shape-Copy-9" points="14.412526 23.4747199 13.8307347 23 13.6513927 23.7110223 13 24.0934776 13.6513927 24.4766883 13.8307347 25.1877106 14.412526 24.7129906 15.1745659 24.769951 14.8828141 24.0934272 15.1745659 23.4177093"></polygon>
        <polygon id="Shape-Copy-10" points="18.748593 25.5772124 19.1922391 26.1590037 19.5405483 25.492754 20.2632548 25.2420982 19.7302147 24.737211 19.7332868 24 19.0553529 24.3544535 18.3343588 24.149225 18.4485816 24.8736942 18 25.483739"></polygon>
        <polygon id="Shape-Copy-11" points="8.81421571 20.7430572 9.40995751 21.2239214 9.55087269 20.5008624 10.1721988 20.1100973 9.5126473 19.7224043 9.30061983 19 8.75231981 19.4839363 8 19.428235 8.32040827 20.1146803 8.06748618 20.8027371"></polygon>
        <path d="M18.5173306,26.9670539 C12.4296743,26.9670539 7.3087324,22.831108 5.80867581,17.216409 L5,17 C6.44032629,23.1323784 11.9456373,27.6979695 18.5173306,27.6979695 C22.502188,27.6979695 26.0945176,26.0190242 28.6267098,23.3307072 L27.8189406,23.1141471 C25.4381893,25.4947976 22.1498497,26.9670539 18.5173306,26.9670539 L18.5173306,26.9670539 Z" id="Shape-Copy-12"></path>
        <polygon id="Shape-Copy-13" points="23.8294757 24.8017299 24.4287932 25.221504 24.5580242 24.4803647 25.1701843 24.0222645 24.5084672 23.7032161 24.2870722 23 23.7490462 23.5439185 23 23.5680422 23.3288189 24.2232625 23.087581 24.9409327"></polygon>
        <path d="M12.0100118,10.483995 L8.34208761,9.5153669 L7.80370905,9.4048205 L8.17473194,8 L9.1069981,8.26989436 L12.9825682,9.29336759 L13.9188634,9.51692815 L13.661459,10.3980257 L13.0815311,12.5940461 L12.9074269,13.3468695 L11.9828159,13.0789897 L8.96850037,12.2829549 L8.71860005,13.2293731 C8.65740922,13.4611428 8.64773956,13.6114254 8.68989323,13.6805736 C8.73194618,13.7497721 8.79369101,13.8016962 8.87502697,13.8362451 C8.95636293,13.8708947 9.16103744,13.9315819 9.4891512,14.0182059 C10.5938597,14.3205843 11.2425832,14.4905588 11.4355735,14.5282806 C11.6283624,14.5660527 11.7650471,14.562628 11.8454765,14.5178554 C11.9258052,14.4731333 11.9948022,14.3885741 12.0524173,14.2640772 C12.1099316,14.1395803 12.1556611,14.01322 12.1895049,13.8849962 L12.2696825,13.5502849 C12.922435,13.9441222 13.4089902,14.188684 13.7293481,14.2837187 C13.5272925,14.7576832 13.3749953,15.0905814 13.2723055,15.2821616 C13.169515,15.4738425 13.0506084,15.6283053 12.915485,15.7456003 C12.7803615,15.8627945 12.6016742,15.942116 12.3796749,15.983766 C12.1575245,16.0252146 11.8939255,16.0109619 11.5888779,15.941008 C11.2837296,15.8709029 10.2195128,15.5924469 8.39582477,15.1056399 C7.90871557,14.9770132 7.56579513,14.8271839 7.36701309,14.6559503 C7.16818066,14.4848678 7.05189292,14.2920285 7.01804912,14.0773822 C6.98425567,13.8627862 6.99790398,13.6396789 7.05909481,13.4080099 L7.87134637,10.3322014 L7.97715865,9.83814218 L9.52279361,10.2462825 L9.40217466,10.5782742 L9.3200329,10.9203888 L11.7268721,11.556018 L12.0100118,10.483995 Z" id="Shape-Copy-14"></path>
        <path d="M21.4528916,16.9846181 C21.3652099,17.109115 21.2925867,17.2178483 21.2352235,17.3108181 C21.1777595,17.4036367 21.0319088,17.6959929 20.7979231,18.1878362 C20.4593339,18.1194939 19.996701,18.0026521 19.409823,17.8372102 L18.1102608,17.4939876 C17.7770101,17.4060038 17.4993598,17.3259269 17.2769576,17.2541095 C17.0546058,17.1821914 16.8573346,17.1037765 16.6852448,17.018764 C16.5129536,16.9337516 16.3143227,16.7982252 16.0892512,16.6122353 C15.864079,16.4262455 15.7215523,16.3225988 15.6613183,16.3015471 C15.5690536,16.2771715 15.4772926,16.2766175 15.3861359,16.3000362 C15.2948785,16.3233542 15.0346538,16.4523838 14.6053107,16.6870242 C14.5075565,16.4344546 14.4018449,16.2009222 14.2885789,15.986427 L14.0878328,15.624973 L14,15.4594304 C14.3033353,15.3075362 14.71903,15.1351946 15.2470338,14.9424561 L15.6961191,13.241754 L15.2039736,13.1117676 L14.727088,13.017438 L15.0629073,11.7457264 L15.5492107,11.8978725 L16.6642435,12.1922936 L17.3774818,12.35698 L17.1689294,13.0533467 L16.577267,15.2936864 C16.7840567,15.5486733 16.9969907,15.7288211 17.2160186,15.8340291 C17.4349458,15.9393881 17.8593029,16.0869512 18.4891907,16.2770708 C19.1189274,16.4670897 19.671609,16.6170199 20.1471347,16.7267604 C20.6226605,16.836501 21.0579967,16.9226214 21.4528916,16.9846181 Z M15.7840525,10.3859303 C16.2654707,10.265261 16.6669631,10.136584 16.9882276,10 C17.2326383,10.4864545 17.4359027,11.0040835 17.5980709,11.5530887 C17.4401331,11.5904579 17.3252052,11.6207763 17.2532367,11.6439432 L16.7425577,11.8333578 L16.3591959,11.9457172 C16.253988,11.5963 16.1677668,11.3308879 16.1004821,11.1497328 C16.0331974,10.9685778 15.9277376,10.713893 15.7840525,10.3859303 Z M21.8748816,11.3062604 L21.7014321,11.8695686 L21.5725536,12.357534 L22.4165841,12.5567189 L22.0826786,13.8210272 L21.2522965,13.5701196 L20.6919094,15.692157 C20.6450719,15.8696356 20.5310505,16.0727992 20.3499962,16.301799 C20.1687908,16.5308491 19.5304924,16.4769609 18.4349499,16.1401343 C18.4545914,16.0239977 18.4716644,15.9178832 18.4861689,15.8214384 C18.5005727,15.7251951 18.5081775,15.608454 18.5086811,15.4715175 C18.5091847,15.3345307 18.5003208,15.1240644 18.482291,14.8396656 C18.652618,14.9004535 18.8231465,14.9508163 18.9935743,14.9905022 C19.167729,15.0365338 19.2859305,15.0360806 19.347625,14.9890417 C19.4094201,14.9421035 19.4532861,14.8694804 19.4792734,14.7708196 L19.8912916,13.2106802 L18.1380611,12.7476947 L17.4305139,12.5924765 L17.7644193,11.3281683 L18.4582679,11.5351595 L20.2114984,11.9981449 L20.3403769,11.5101796 L20.4600389,10.9327195 L21.8748816,11.3062604 Z M17.4548391,13.2791232 C18.0350691,13.1792537 18.4387271,13.0934355 18.6662663,13.0216181 C18.9058423,13.7545482 19.0376418,14.1796104 19.0616145,14.296704 L19.118323,14.5804985 C18.450512,14.7416595 18.0325006,14.850141 17.8642888,14.9058927 C17.7951407,14.5448416 17.7336477,14.2532409 17.6800616,14.0306876 C17.6262741,13.8081846 17.5511832,13.55768 17.4548391,13.2791232 Z" id="Shape-Copy-15"></path>
        <path d="M25.6215904,18.7538556 C25.4274921,18.8450123 25.1589072,18.9585301 24.8159867,19.0947616 C24.6432423,18.6061918 24.5310339,18.3048711 24.478858,18.1910511 L24.2992642,17.8431447 C24.4790595,17.7851268 24.6795035,17.7114963 24.9004956,17.6222031 L23.8162848,17.3358904 C23.8813032,17.421608 24.0206571,17.5586452 24.2342458,17.746851 C23.8995345,18.0169468 23.6216828,18.2229811 23.4004893,18.3650043 C23.1791951,18.5069267 22.9323669,18.6473383 22.6599544,18.7863397 C22.5056931,18.5188627 22.285809,18.1786115 22,17.7656867 C22.2940181,17.6693427 22.5131468,17.5821646 22.6571341,17.5043037 C22.8011214,17.4264428 22.9721535,17.3133782 23.1703312,17.1652612 L22.8242883,17.073903 L22.3031842,16.9600327 L22.5882881,15.8805057 L23.0976073,16.038796 L23.2898926,16.0895617 L23.9127799,13.7309198 L23.3474573,13.5974583 L23.6208266,12.5623009 L24.1763285,12.7327287 L24.250513,12.4517545 L24.3368852,12 L25.5442331,12.318847 L25.4058361,12.780523 L25.3374937,13.0393879 L26.0295292,13.2221042 L26.1037136,12.94113 L26.1919997,12.5136001 L27.3992972,12.8324471 L27.2494678,13.2437602 L27.1752834,13.5247344 L27.5732504,13.6061207 L27.299881,14.6412781 L26.9192892,14.5248897 L26.2887467,16.8815171 L26.7039881,16.991157 C26.7701145,16.8029511 26.8440471,16.5588929 26.9261385,16.2588312 C27.0079781,15.958971 27.0764212,15.7053942 27.1310648,15.4983022 L27.3206305,14.7495582 L27.6467298,13.5147626 L27.7661904,12.96888 L28.5196685,13.1994913 L30.3266865,13.6767294 L30.8188824,13.775088 L30.6495626,14.2919616 L29.2846294,19.4601942 C29.1883357,19.8249217 29.0369954,20.0446044 28.8308604,20.1194939 C28.6246247,20.1941316 28.435613,20.2298892 28.2637751,20.2267163 C28.0918364,20.2234931 27.7800905,20.1939805 27.3288397,20.1380274 C27.3471717,20.0268263 27.3597624,19.9378352 27.3664103,19.8711045 C27.3730582,19.8043234 27.3809148,19.6654227 27.3901312,19.4542514 C27.3993476,19.2431305 27.4020169,19.1027189 27.3984915,19.033319 L27.374418,18.781807 C27.53709,18.851207 27.676041,18.8958788 27.7915229,18.9156211 C27.8901333,18.936572 27.9661812,18.9340538 28.0195658,18.9086206 C28.0727993,18.8831874 28.1112261,18.8260256 28.1346952,18.7373367 L28.3845955,17.7909186 L27.9001555,17.662997 C27.7189501,18.0580933 27.5360827,18.4237778 27.3514022,18.7598992 C27.166621,19.09592 26.8225422,19.5112621 26.3190147,20.005825 C25.942049,19.6267944 25.5615579,19.3022564 25.1777429,19.0321103 C25.3695245,18.9298233 25.5173394,18.837055 25.6215904,18.7538556 Z M24.4588136,16.3982354 L25.1431436,16.5789372 L25.199701,16.3644923 L24.515371,16.1838409 L24.4588136,16.3982354 Z M24.755501,15.2743387 L25.4398813,15.4550405 L25.4886829,15.2702593 L24.8043529,15.0894568 L24.755501,15.2743387 Z M25.0308849,14.2318284 L25.7152149,14.4125301 L25.7621027,14.2351019 L25.0777223,14.0543498 L25.0308849,14.2318284 Z M25.8688215,18.5344248 C25.9653167,18.4386347 26.0568763,18.3310094 26.1433492,18.2113977 L26.2381824,18.0704321 L26.2923224,17.9897006 L26.092382,17.9369203 L25.5463987,17.7926812 C25.5678532,17.8564909 25.6190722,17.9793762 25.6999046,18.1614881 C25.7806362,18.3438015 25.8369418,18.4678955 25.8688215,18.5344248 Z M28.1834967,16.5909236 L28.6679367,16.7188451 L28.8046717,16.2012161 L28.3201814,16.0733449 L28.1834967,16.5909236 Z M28.6012563,15.0086245 L29.0857466,15.136546 L29.2009768,14.7003536 L28.7165368,14.5724321 L28.6012563,15.0086245 Z" id="Shape-Copy-16"></path>
      </g>
    </g>
  </g>
</svg>
