<?xml version="1.0" encoding="UTF-8" standalone="no"?>
<svg width="374px" height="331px" viewBox="0 0 374 331" version="1.1" xmlns="http://www.w3.org/2000/svg" xmlns:xlink="http://www.w3.org/1999/xlink">
    <!-- Generator: Sketch 42 (36781) - http://www.bohemiancoding.com/sketch -->
    <title>Group 4@2x</title>
    <desc>Created with Sketch.</desc>
    <defs>
        <linearGradient x1="86.9205729%" y1="100%" x2="0%" y2="11.1002604%" id="linearGradient-1">
            <stop stop-color="#FFA8BF" offset="0%"></stop>
            <stop stop-color="#FF72C0" offset="100%"></stop>
        </linearGradient>
        <rect id="path-2" x="0" y="0" width="34" height="34" rx="17"></rect>
        <filter x="-50%" y="-50%" width="200%" height="200%" filterUnits="objectBoundingBox" id="filter-3">
            <feOffset dx="0" dy="2" in="SourceAlpha" result="shadowOffsetOuter1"></feOffset>
            <feGaussianBlur stdDeviation="2" in="shadowOffsetOuter1" result="shadowBlurOuter1"></feGaussianBlur>
            <feComposite in="shadowBlurOuter1" in2="SourceAlpha" operator="out" result="shadowBlurOuter1"></feComposite>
            <feColorMatrix values="0 0 0 0 0   0 0 0 0 0   0 0 0 0 0  0 0 0 0.155740489 0" type="matrix" in="shadowBlurOuter1"></feColorMatrix>
        </filter>
        <mask id="mask-4" maskContentUnits="userSpaceOnUse" maskUnits="objectBoundingBox" x="0" y="0" width="34" height="34" fill="white">
            <use xlink:href="#path-2"></use>
        </mask>
        <linearGradient x1="0%" y1="100%" x2="100%" y2="0%" id="linearGradient-5">
            <stop stop-color="#83E5FC" offset="0%"></stop>
            <stop stop-color="#C2F4FF" offset="100%"></stop>
        </linearGradient>
        <rect id="path-6" x="77" y="138" width="180.71875" height="38" rx="19"></rect>
        <mask id="mask-7" maskContentUnits="userSpaceOnUse" maskUnits="objectBoundingBox" x="0" y="0" width="180.71875" height="38" fill="white">
            <use xlink:href="#path-6"></use>
        </mask>
    </defs>
    <g id="Page-1" stroke="none" stroke-width="1" fill="none" fill-rule="evenodd">
        <g id="Group-4" transform="translate(0.000000, 0.000000)">
            <g id="Group-2" transform="translate(4.000000, 240.000000)">
                <g id="Rectangle-72-Copy-9">
                    <use fill="black" fill-opacity="1" filter="url(#filter-3)" xlink:href="#path-2"></use>
                    <use stroke="#FFFFFF" mask="url(#mask-4)" stroke-width="4" fill="url(#linearGradient-1)" fill-rule="evenodd" xlink:href="#path-2"></use>
                </g>
                <path d="M22.9947335,14.3764013 C22.9947335,13.60479 22.3671724,12.9772288 21.5951599,12.9772288 C20.8231473,12.9772288 20.1955862,13.60479 20.1955862,14.3764013 C20.1955862,15.0372665 20.6570282,15.5893918 21.2741567,15.7354483 C20.7196238,16.8409028 19.9869342,17.8685141 19.5945078,17.8685141 C19.2125141,17.8685141 18.4425078,16.754232 17.663674,14.6191599 C18.2238245,14.37279 18.6054169,13.8170533 18.6054169,13.1754483 C18.6054169,12.3023197 17.8947962,11.5921003 17.0216677,11.5921003 C16.1481379,11.5921003 15.4375172,12.302721 15.4375172,13.1754483 C15.4375172,13.8186583 15.8207147,14.3751975 16.3824702,14.6203636 C15.5534796,16.9171411 14.8320251,17.7633856 14.5358997,17.7633856 C13.9857806,17.7633856 13.2217931,16.6936426 12.7246395,15.735047 C13.3421693,15.5893918 13.8044138,15.0368652 13.8044138,14.3755987 C13.8044138,13.6039875 13.1764514,12.9764263 12.4048401,12.9764263 C11.6332288,12.9764263 11.0052665,13.6039875 11.0052665,14.3755987 C11.0052665,14.9044514 11.3037994,15.3602759 11.7379561,15.5982194 L12.0152226,21.1844765 C12.0216426,21.3144828 12.0906583,21.4332539 12.2006019,21.5030721 C12.2587837,21.5403887 13.6639749,22.4078997 17.0216677,22.4078997 C20.3793605,22.4078997 21.7845517,21.5371787 21.8427335,21.5002633 C21.9530784,21.4296426 22.022094,21.310069 22.0281129,21.1792602 L22.2752853,15.5909969 C22.7018182,15.3522508 22.9947335,14.9000376 22.9947335,14.3764013 Z M20.9976928,14.3764013 C20.9976928,14.047373 21.2657304,13.7797367 21.5947586,13.7797367 C21.9237868,13.7797367 22.1918245,14.047373 22.1918245,14.3764013 C22.1918245,14.7058307 21.9237868,14.9734671 21.5947586,14.9734671 C21.2657304,14.9734671 20.9976928,14.7058307 20.9976928,14.3764013 Z M16.2396238,13.1758495 C16.2396238,12.7453041 16.5903197,12.3950094 17.0212665,12.3950094 C17.4522132,12.3950094 17.8025078,12.7453041 17.8025078,13.1758495 C17.8025078,13.5750972 17.5007649,13.9065329 17.1003135,13.9474608 C17.0738307,13.9498683 17.047348,13.9554859 17.022069,13.963511 C16.99679,13.9554859 16.9703072,13.9502696 16.9430219,13.9474608 C16.5421693,13.9073354 16.2396238,13.5754984 16.2396238,13.1758495 Z M12.4044389,13.7797367 C12.7338683,13.7797367 13.0015047,14.047373 13.0015047,14.3764013 C13.0015047,14.7058307 12.7338683,14.9734671 12.4044389,14.9734671 C12.0750094,14.9734671 11.807373,14.7058307 11.807373,14.3764013 C11.807373,14.047373 12.0750094,13.7797367 12.4044389,13.7797367 Z M21.2360376,20.9132288 C20.7886395,21.1190721 19.4701191,21.6065956 17.0212665,21.6065956 C14.5688025,21.6065956 13.2494796,21.1194734 12.8048903,20.9152351 L12.6167022,17.1298056 C13.1202759,17.8624953 13.7963887,18.5662947 14.5350972,18.5662947 C15.3484389,18.5662947 16.1842508,17.4355611 17.0228715,15.2025831 C17.8931912,17.5045768 18.7566897,18.6710219 19.5941066,18.6710219 C20.255373,18.6710219 20.9025956,17.9319122 21.4021567,17.1498683 L21.2360376,20.9132288 Z" id="Shape-Copy" fill="#FFFFFF" fill-rule="nonzero"></path>
            </g>
            <path d="M5.00950906,330.999993 C4.74429152,330.999993 2.28574312,328.836165 1.2080891,327.669639 C0.60302164,327.014664 0,325.912366 0,325.105569 C0,323.393048 1.2468791,322 2.77962246,322 C3.71558935,322 4.50994986,322.779124 5.00003365,323.584091 C5.49011743,322.779124 6.28418183,322 7.22043137,322 C8.75309398,322 10,323.393048 10,325.105569 C10,325.914156 9.45704768,327.060318 8.78624449,327.674794 C7.60165549,328.759945 5.29016453,330.999993 5.00950906,330.999993 Z" id="Shape-Copy-4" fill="#FF7ABF" fill-rule="nonzero"></path>
            <g id="Group">
                <polygon id="_矩形_3-copy" fill="url(#linearGradient-5)" fill-rule="nonzero" points="0 0 373.84375 0 373.84375 189.609835 0 189.609835"></polygon>
                <use id="_矩形_11-copy-2" stroke="#FFFFFF" mask="url(#mask-7)" stroke-width="4" fill="url(#linearGradient-1)" fill-rule="nonzero" xlink:href="#path-6"></use>
                <path d="M100.013313,163.599991 C99.6420081,163.599991 96.2000404,160.570632 94.6913247,158.937495 C93.8442303,158.02053 93,156.477312 93,155.347796 C93,152.950268 94.7456307,151 96.8914714,151 C98.2018251,151 99.3139298,152.090774 100.000047,153.217727 C100.686164,152.090774 101.797855,151 103.108604,151 C105.254332,151 107,152.950268 107,155.347796 C107,156.479818 106.239867,158.084446 105.300742,158.944711 C103.642318,160.463923 100.40623,163.599991 100.013313,163.599991 Z" id="Shape-Copy-4" fill="#FFFFFF" fill-rule="nonzero"></path>
                <rect id="Rectangle-Copy" fill="#FFFFFF" opacity="0.2" x="118" y="151" width="1" height="14"></rect>
                <path d="M41,101.906383 C41,86.4941131 53.4914779,74 68.9100143,74 L299.25074,74 C311.926992,74 322.203125,84.2694247 322.203125,96.9629541 L322.203125,106.849811 C322.203125,119.531901 311.924368,129.812766 299.25074,129.812766 L68.9100143,129.812766 C53.495739,129.812766 41,117.322041 41,101.906383 L41,101.906383 Z" id="_矩形_9-copy" stroke="#000000" stroke-width="1.5625" fill-opacity="0.382302989" fill="#FFFFFF" fill-rule="nonzero"></path>
                <circle id="_路径_80-copy" fill="#000000" fill-rule="nonzero" cx="38" cy="58" r="22"></circle>
                <rect id="_矩形_10-copy" stroke="#000000" stroke-width="1.5625" fill="#FFFFFF" fill-rule="nonzero" x="39" y="72" width="281.203125" height="48.6870248" rx="22.953125"></rect>
                <g id="_编组_29-copy" transform="translate(243.000000, 44.000000)" stroke="#000000" stroke-width="1.5625" fill="#FFFFFF">
                    <ellipse id="_路径_81" cx="50.40625" cy="49.9209917" rx="49.734375" ry="49.7179339"></ellipse>
                </g>
                <path d="M68.0625,92.0747934 C67.0927674,93.7949816 65.8885342,95.3720582 64.484375,96.7607438 C65.0625,98.4164463 65.734375,99.4161157 66.375,99.4161157 C67.015625,99.4161157 67.09375,98.3852066 67.1875,95.8391736 C67.7866665,96.4631227 68.5036064,96.9621603 69.296875,97.307438 C68.890625,101.071818 68.09375,101.993388 66.171875,101.993388 C64.609375,101.993388 63.390625,100.696942 62.46875,98.5882645 C61.2242018,99.6109934 59.8725814,100.496065 58.4375,101.228017 C57.953953,100.475394 57.3821932,99.783217 56.734375,99.1661983 C58.4636219,98.3697841 60.0814599,97.3510931 61.546875,96.1359504 C61.0400845,94.2391349 60.6745015,92.3074064 60.453125,90.3566116 L56.078125,90.3566116 L56.078125,92.8089256 L59.390625,92.1997521 L59.578125,94.5271074 L56.0625,95.23 L56.0625,98.916281 C56.0625,100.322066 55.765625,101.009339 54.90625,101.415455 C53.6649179,101.855981 52.3437838,102.026393 51.03125,101.915289 C50.8460272,101.014502 50.5412477,100.142491 50.125,99.3223967 L52.96875,99.3223967 C53.359375,99.3223967 53.484375,99.2130579 53.484375,98.8694215 L53.484375,95.7454545 L49.625,96.5264463 L49,93.9335537 C50.234375,93.7461157 51.78125,93.4961983 53.484375,93.1994215 L53.484375,90.3878512 L49.421875,90.3878512 L49.421875,87.951157 L53.5,87.951157 L53.5,85.498843 C52.328125,85.686281 51.15625,85.8424793 50.046875,85.967438 C49.8875908,85.2225943 49.641101,84.4990978 49.3125,83.8119008 C52.2103941,83.4369274 55.0736758,82.8310317 57.875,82 L59.59375,84.171157 C58.515625,84.4991736 57.328125,84.7803306 56.078125,85.0302479 L56.078125,87.951157 L60.21875,87.951157 C60.046875,86.0142975 59.984375,84.0149587 59.953125,82.0468595 L62.640625,82.0468595 C62.603886,84.0174917 62.6769156,85.9886406 62.859375,87.951157 L68.71875,87.951157 L68.71875,90.3878512 L63.125,90.3878512 C63.296875,91.6842975 63.515625,92.9338843 63.75,94.0272727 C64.5281371,93.1188008 65.2138139,92.1351014 65.796875,91.0907438 L68.0625,92.0747934 Z M66.5,87.388843 C65.6278224,86.0631863 64.5761621,84.8646899 63.375,83.8275207 L65.359375,82.4842149 C66.5396604,83.48973 67.5894784,84.6389007 68.484375,85.9049587 L66.5,87.388843 Z" id="_复合路径_2-copy" fill="#FF77BF" fill-rule="nonzero"></path>
                <path d="M91.671875,85.311405 L91.671875,86.4672727 C91.390625,96.1047107 91.15625,99.5254545 90.265625,100.665702 C89.7819257,101.340646 89.0298779,101.7735 88.203125,101.85281 C87.0743136,101.932252 85.9413114,101.932252 84.8125,101.85281 C84.7192142,100.967709 84.4310698,100.11423 83.96875,99.3536364 C85.34375,99.478595 86.625,99.478595 87.1875,99.478595 C87.5440243,99.5151857 87.8970207,99.3821327 88.140625,99.1193388 C88.765625,98.4320661 89.046875,95.1987603 89.28125,87.5919008 L84.59375,87.5919008 C84.0850757,88.7902459 83.4513605,89.9316032 82.703125,90.9970248 C82.1773949,90.5610485 81.6241707,90.1593109 81.046875,89.7942975 L81.046875,99.8534711 L75.328125,99.8534711 L75.328125,101.415455 L73,101.415455 L73,85.4676033 L75.4375,85.4676033 C75.7336548,84.329287 75.9425932,83.1700622 76.0625,82 L78.859375,82.3904959 C78.484375,83.4682645 78.109375,84.5460331 77.734375,85.5144628 L81.078125,85.5144628 L81.078125,88.997686 C82.4338304,86.8677192 83.4166402,84.5224327 83.984375,82.0624793 L86.421875,82.6247934 C86.1932948,83.5513717 85.9115793,84.4640366 85.578125,85.3582645 L91.671875,85.311405 Z M78.765625,87.7012397 L75.328125,87.7012397 L75.328125,91.1844628 L78.75,91.1844628 L78.765625,87.7012397 Z M78.765625,97.6354545 L78.765625,93.4180992 L75.328125,93.4180992 L75.328125,97.6354545 L78.765625,97.6354545 Z M85.921875,96.4639669 C85.0280431,94.7414447 84.0260398,93.0772084 82.921875,91.4812397 L84.921875,90.4347107 C86.0500953,91.9696746 87.093326,93.5652899 88.046875,95.2143802 L85.921875,96.4639669 Z" id="_复合路径_3-copy" fill="#FF77BF" fill-rule="nonzero"></path>
                <path d="M104.359375,92.8401653 C103.452879,92.0948639 102.508944,91.3962704 101.53125,90.7471074 C100.505829,92.1188799 99.1369707,93.1963649 97.5625,93.8710744 C97.1268425,93.2263599 96.6006121,92.6476978 96,92.1528926 C97.6153059,91.6766261 98.9892611,90.6046253 99.84375,89.1538843 L96.25,89.1538843 L96.25,87.1233058 L97.6875,87.1233058 C97.171875,86.7952893 96.484375,86.4047934 96.125,86.2017355 C97.2425085,85.0265832 98.0294962,83.5770647 98.40625,82 L100.671875,82.468595 C100.546875,82.8747107 100.421875,83.3120661 100.234375,83.7338017 L105.578125,83.7338017 L105.578125,85.7175207 L102.796875,85.7175207 L102.796875,86.6859504 C102.808628,86.8314988 102.808628,86.9777574 102.796875,87.1233058 L106.109375,87.1233058 L106.109375,89.1226446 L102.546875,89.1226446 C103.453125,89.5912397 105.671875,90.8252066 106.171875,91.1844628 L104.359375,92.8401653 Z M100.34375,87.1233058 C100.353734,86.9672669 100.353734,86.8107497 100.34375,86.6547107 L100.34375,85.7175207 L99.265625,85.7175207 C98.9778981,86.2131262 98.6485899,86.6834109 98.28125,87.1233058 L100.34375,87.1233058 Z M99.109375,93.152562 L113.171875,93.152562 L113.171875,102.227686 L110.546875,102.227686 L110.546875,101.493554 L101.640625,101.493554 L101.640625,102.212066 L99.109375,102.212066 L99.109375,93.152562 Z M101.625,95.1519008 L101.625,96.3546281 L110.53125,96.3546281 L110.53125,95.1519008 L101.625,95.1519008 Z M110.53125,99.478595 L110.53125,98.2133884 L101.625,98.2133884 L101.625,99.478595 L110.53125,99.478595 Z M115.015625,83.6869421 L115.015625,91.8561157 L106.828125,91.8561157 L106.828125,83.702562 L115.015625,83.6869421 Z M112.46875,85.9518182 L109.1875,85.9518182 L109.1875,89.5912397 L112.46875,89.5912397 L112.46875,85.9518182 Z" id="_复合路径_4-copy" fill="#FF77BF" fill-rule="nonzero"></path>
                <path d="M119,100.400165 C119.831406,99.3349384 120.451874,98.1209198 120.828125,96.8232231 L123.046875,97.7760331 C122.623224,99.1442365 122.013342,100.44769 121.234375,101.649752 L119,100.400165 Z M122.703125,88.7633884 L119.1875,88.7633884 L119.1875,87.3107438 L122.703125,87.3107438 L122.703125,86.5922314 L120.046875,86.5922314 L120.046875,85.0302479 L122.703125,85.0302479 L122.703125,84.358595 L119.578125,84.358595 L119.578125,82.7966116 L122.703125,82.7966116 L122.703125,82 L125.046875,82 L125.046875,82.9059504 L127.890625,82.9059504 L127.890625,84.4679339 L124.984375,84.4679339 L124.984375,85.1395868 L127.59375,85.1395868 L127.59375,86.7015702 L124.984375,86.7015702 L124.984375,87.3107438 L128.109375,87.3107438 L128.109375,88.8727273 L124.984375,88.8727273 L124.984375,89.7161983 L122.703125,89.7161983 L122.703125,88.7633884 Z M136.375,96.1515702 L129.34375,96.1515702 C130.059075,96.586388 130.7155,97.111354 131.296875,97.7135537 L129.734375,99.1505785 C129.01558,98.3161559 128.165975,97.6039899 127.21875,97.0419008 L128.296875,96.0890909 L120.71875,96.0890909 L120.71875,94.5271074 L133.78125,94.5271074 L133.78125,93.7304959 L121.578125,93.7304959 L121.578125,92.1685124 L133.78125,92.1685124 L133.78125,91.4187603 L120.84375,91.4187603 L120.84375,89.8567769 L136.296875,89.8567769 L136.375,96.1515702 Z M131.3125,99.7128926 C132.234375,99.7128926 132.40625,99.478595 132.515625,97.8853719 C133.203412,98.2774999 133.954183,98.5470539 134.734375,98.6819835 C134.4375,101.165537 133.75,101.80595 131.515625,101.80595 L127.390625,101.80595 C124.4375,101.80595 123.6875,101.165537 123.6875,99.0880992 L123.6875,96.7763636 L126.234375,96.7763636 L126.234375,99.0412397 C126.234375,99.6191736 126.453125,99.7128926 127.65625,99.7128926 L131.3125,99.7128926 Z M131.921875,88.7790083 L128.796875,88.7790083 L128.796875,87.3107438 L131.921875,87.3107438 L131.921875,86.5922314 L129.25,86.5922314 L129.25,85.0302479 L131.84375,85.0302479 L131.84375,84.358595 L128.828125,84.358595 L128.828125,82.7966116 L131.84375,82.7966116 L131.84375,82 L134.234375,82 L134.234375,82.9059504 L137.515625,82.9059504 L137.515625,84.4679339 L134.234375,84.4679339 L134.234375,85.1395868 L137.171875,85.1395868 L137.171875,86.7015702 L134.234375,86.7015702 L134.234375,87.3107438 L137.921875,87.3107438 L137.921875,88.8727273 L134.234375,88.8727273 L134.234375,89.7161983 L131.84375,89.7161983 L131.921875,88.7790083 Z M136.765625,96.6826446 C137.630611,98.003395 138.318759,99.4317502 138.8125,100.93124 L136.265625,101.649752 C135.821157,100.135867 135.191392,98.6826403 134.390625,97.3230579 L136.765625,96.6826446 Z" id="_复合路径_5-copy" fill="#FF77BF" fill-rule="nonzero"></path>
                <path d="M154.703125,97.1043802 C156.265625,98.7600826 158.734375,99.6504132 162.328125,99.9315702 C161.679656,100.637087 161.151768,101.44449 160.765625,102.321405 C156.4375,101.743471 153.828125,100.322066 152.078125,97.5417355 C150.953125,99.8690909 148.578125,101.399835 143.234375,102.227686 C142.975384,101.403868 142.555867,100.639432 142,99.9784298 C146.203125,99.4161157 148.25,98.4164463 149.28125,97.12 L143.03125,97.12 L143.03125,94.7926446 L150.140625,94.7926446 C150.140625,94.4490083 150.265625,94.0585124 150.3125,93.6680165 L142.46875,93.6680165 L142.46875,91.45 L150.75,91.45 L150.75,90.3097521 L144.359375,90.3097521 L144.359375,88.1542149 L150.734375,88.1542149 L150.734375,87.0608264 L143.359375,87.0608264 L143.359375,84.7959504 L147.21875,84.7959504 C146.876392,84.1304824 146.473661,83.4978291 146.015625,82.9059504 L148.296875,82 C148.944974,82.7522193 149.472106,83.6006218 149.859375,84.5147934 L149.234375,84.7959504 L153.921875,84.7959504 C154.516604,83.9072 155.03911,82.9722222 155.484375,82 L158.25,82.7185124 C157.78125,83.4682645 157.28125,84.1867769 156.8125,84.8115702 L160.78125,84.8115702 L160.78125,87.0764463 L153.390625,87.0764463 L153.390625,88.1698347 L159.984375,88.1698347 L159.984375,90.3253719 L153.390625,90.3253719 L153.390625,91.4656198 L161.953125,91.4656198 L161.953125,93.7304959 L153.109375,93.7304959 C153.109375,94.1209917 153,94.4802479 152.9375,94.855124 L161.5,94.855124 L161.5,97.1668595 L154.703125,97.1043802 Z" id="_复合路径_6-copy" fill="#FF77BF" fill-rule="nonzero"></path>
                <path d="M185.21875,96.651405 L176.859375,96.651405 L176.859375,99.4161157 C176.859375,100.759421 176.53125,101.399835 175.515625,101.759091 C174.147326,102.129391 172.726413,102.266683 171.3125,102.165207 C171.062379,101.296636 170.70549,100.462421 170.25,99.6816529 L173.65625,99.6816529 C174.09375,99.6816529 174.21875,99.572314 174.21875,99.291157 L174.21875,96.651405 L166,96.651405 L166,94.2928099 L174.21875,94.2928099 L174.21875,92.9495041 C175.064984,92.6023002 175.88038,92.1842864 176.65625,91.6999174 L169.859375,91.6999174 L169.859375,89.4819008 L179.578125,89.4819008 L180.09375,89.3569421 L181.65625,90.6221488 C180.188086,91.9310685 178.541443,93.0249613 176.765625,93.8710744 L176.765625,94.2771901 L185.125,94.2771901 L185.21875,96.651405 Z M168.71875,90.2785124 L166.3125,90.2785124 L166.3125,85.592562 L169.609375,85.592562 C169.149546,84.8071782 168.627014,84.0602043 168.046875,83.3589256 L170.21875,82.3904959 C171.002796,83.240673 171.670118,84.1914233 172.203125,85.217686 L171.390625,85.6081818 L175.015625,85.6081818 C174.647913,84.6386425 174.176424,83.7116862 173.609375,82.8434711 L175.875,82 C176.594294,82.9512865 177.168264,84.0040949 177.578125,85.1239669 L176.3125,85.6238017 L179.109375,85.6238017 C179.816054,84.5928861 180.437887,83.5063454 180.96875,82.374876 L183.640625,83.1714876 C183.0625,84.0149587 182.40625,84.8584298 181.8125,85.6238017 L184.9375,85.6238017 L184.9375,90.3097521 L182.484375,90.3097521 L182.484375,87.8261983 L168.734375,87.8261983 L168.71875,90.2785124 Z" id="_复合路径_7-copy" fill="#FF77BF" fill-rule="nonzero"></path>
                <path d="M205.984375,83 L205.984375,101.525124 L203.21875,101.525124 L203.21875,100.166198 L193.65625,100.166198 L193.65625,101.571983 L191,101.571983 L191,83 L205.984375,83 Z M193.65625,85.5928926 L193.65625,90.278843 L203.21875,90.278843 L203.21875,85.5928926 L193.65625,85.5928926 Z M203.21875,97.5889256 L203.21875,92.7623967 L193.65625,92.7623967 L193.65625,97.5889256 L203.21875,97.5889256 Z" id="_复合路径_8-copy" fill="#FF77BF" fill-rule="nonzero"></path>
                <path d="M219.296875,96.5580165 C219.461887,97.3425636 219.724338,98.1034187 220.078125,98.8228926 C218.391406,99.8909797 216.820447,101.131628 215.390625,102.524793 C215.036644,101.842481 214.583847,101.216143 214.046875,100.666033 C214.735243,100.069549 215.128974,99.2024847 215.125,98.2918182 L215.125,91.6690083 L212,91.6690083 L212,89.2166942 L217.6875,89.2166942 L217.6875,97.7295041 L219.296875,96.5580165 Z M216.84375,88.2482645 C215.777245,86.9182173 214.595593,85.684688 213.3125,84.5619835 L215.015625,83 C216.325408,84.0332294 217.553048,85.1664629 218.6875,86.3895041 L216.84375,88.2482645 Z M228.046875,99.9631405 C229.1875,99.9631405 229.359375,99.4633058 229.515625,96.6204959 C230.273178,97.0817262 231.094464,97.4290787 231.953125,97.651405 C231.65625,101.353306 230.890625,102.337355 228.25,102.337355 L224.203125,102.337355 C221.359375,102.337355 220.453125,101.587603 220.453125,98.8072727 L220.453125,90.9504959 L228.078125,90.9504959 L228.078125,86.5769421 L219.984375,86.5769421 L219.984375,84.0465289 L230.609375,84.0465289 L230.609375,94.433719 L228.015625,94.433719 L228.015625,93.3715702 L223.03125,93.3715702 L223.03125,98.8853719 C223.03125,99.7913223 223.21875,99.9475207 224.40625,99.9475207 L228.046875,99.9631405 Z" id="_复合路径_9-copy" fill="#FF77BF" fill-rule="nonzero"></path>
                <path d="M358.6875,53.3393388 C351.31795,53.3393388 345.34375,47.3671134 345.34375,40 C345.34375,43.5378126 343.937895,46.9307257 341.435456,49.432337 C338.933018,51.9339482 335.538983,53.3393388 332,53.3393388 C339.36955,53.3393388 345.34375,59.3115643 345.34375,66.6786777 C345.34375,59.3115643 351.31795,53.3393388 358.6875,53.3393388 L358.6875,53.3393388 Z" id="_路径_82-copy" stroke-opacity="0.29797894" stroke="#FFFFFF" stroke-width="1.5625" stroke-linecap="round" stroke-linejoin="round" fill="#FFEE23" fill-rule="nonzero"></path>
                <path d="M335.0625,38.0279339 C329.522394,38.0279339 325.03125,33.538275 325.03125,28 C325.03125,33.538275 320.540106,38.0279339 315,38.0279339 C320.540106,38.0279339 325.03125,42.5175928 325.03125,48.0558678 C325.03125,45.3962943 326.088111,42.8456501 327.969335,40.9650477 C329.850559,39.0844453 332.402047,38.0279339 335.0625,38.0279339 L335.0625,38.0279339 Z" id="_路径_83-copy" stroke-opacity="0.29797894" stroke="#FFFFFF" stroke-width="1.5625" stroke-linecap="round" stroke-linejoin="round" fill="#FFEE23" fill-rule="nonzero"></path>
                <g id="_编组_35-copy" transform="translate(106.000000, 136.000000)" stroke="#000000" fill-rule="nonzero" stroke-width="0.5" fill="#FFFFFF">
                    <ellipse id="_路径_84" cx="3.296875" cy="3.7331405" rx="3.171875" ry="3.17082645"></ellipse>
                    <ellipse id="_路径_85" cx="19.34375" cy="3.7331405" rx="3.171875" ry="3.17082645"></ellipse>
                    <ellipse id="_路径_86" cx="35.390625" cy="3.7331405" rx="3.171875" ry="3.17082645"></ellipse>
                    <ellipse id="_路径_87" cx="51.4375" cy="3.7331405" rx="3.171875" ry="3.17082645"></ellipse>
                    <ellipse id="_路径_88" cx="67.484375" cy="3.7331405" rx="3.171875" ry="3.17082645"></ellipse>
                    <ellipse id="_路径_89" cx="83.53125" cy="3.7331405" rx="3.171875" ry="3.17082645"></ellipse>
                    <ellipse id="_路径_90" cx="99.578125" cy="3.7331405" rx="3.171875" ry="3.17082645"></ellipse>
                    <ellipse id="_路径_91" cx="115.625" cy="3.7331405" rx="3.171875" ry="3.17082645"></ellipse>
                </g>
                <g id="_编组_36-copy" transform="translate(106.000000, 128.000000)" fill-rule="nonzero" fill="#000000">
                    <rect id="_矩形_12" x="0.953125" y="0.374545455" width="4.96875" height="13.2612397" rx="2.34375"></rect>
                    <rect id="_矩形_13" x="16.96875" y="0.374545455" width="4.96875" height="13.2612397" rx="2.34375"></rect>
                    <rect id="_矩形_14" x="33" y="0.374545455" width="4.96875" height="13.2612397" rx="2.34375"></rect>
                    <rect id="_矩形_15" x="49.03125" y="0.374545455" width="4.96875" height="13.2612397" rx="2.34375"></rect>
                    <rect id="_矩形_16" x="65.046875" y="0.374545455" width="4.96875" height="13.2612397" rx="2.34375"></rect>
                    <rect id="_矩形_17" x="81.078125" y="0.374545455" width="4.96875" height="13.2612397" rx="2.34375"></rect>
                    <rect id="_矩形_18" x="97.109375" y="0.374545455" width="4.96875" height="13.2612397" rx="2.34375"></rect>
                    <rect id="_矩形_19" x="113.140625" y="0.374545455" width="4.96875" height="13.2612397" rx="2.34375"></rect>
                </g>
            </g>
        </g>
    </g>
</svg>
