<?xml version="1.0" encoding="UTF-8" standalone="no"?>
<svg width="114px" height="86px" viewBox="0 0 114 86" version="1.1" xmlns="http://www.w3.org/2000/svg" xmlns:xlink="http://www.w3.org/1999/xlink">
    <!-- Generator: Sketch 42 (36781) - http://www.bohemiancoding.com/sketch -->
    <title>Group 11@3x</title>
    <desc>Created with Sketch.</desc>
    <defs></defs>
    <g id="Page-1" stroke="none" stroke-width="1" fill="none" fill-rule="evenodd">
        <g id="Group-11">
            <g id="Group-9-Copy">
                <rect id="Rectangle-15" fill-opacity="0.8" fill="#1B2A37" x="0" y="0" width="114" height="30" rx="15"></rect>
                <g id="Group" transform="translate(16.000000, 8.000000)">
                    <path d="M8.61862301,0.713100602 L8.61862301,4.19214017 L5.41216616,6.61115568 L8.61862301,9.03008205 L8.61862301,12.5091216 L9.59958203,12.5091216 L9.59958203,13.2222222 L8.61862301,13.2222222 L0.980869885,13.2222222 L0,13.2222222 L0,12.5091216 L0.980869885,12.5091216 L0.980869885,9.03008205 L4.18732674,6.61115568 L0.980869885,4.19214017 L0.980869885,0.713100602 L0,0.713100602 L0,0 L0.980869885,0 L8.61862301,0 L9.59958203,0 L9.59958203,0.713100602 L8.61862301,0.713100602 Z M7.90556698,3.83683778 L7.90556698,0.713100602 L1.69401505,0.713100602 L1.69401505,3.83683778 L4.77942307,6.16448729 L4.79974645,6.14906649 L4.82015894,6.16448729 L7.90556698,3.83683778 Z" id="Combined-Shape" fill="#FFFFFF"></path>
                    <polygon id="Path-Copy" fill="#FFFFFF" points="9.59958203 13.2222222 9.59958203 12.5091216 8.61862301 12.5091216 0.980869885 12.5091216 0 12.5091216 0 13.2222222"></polygon>
                    <polygon id="Path" fill="#FFFFFF" points="9.59958203 0.713100602 9.59958203 0 8.61862301 0 0.980869885 0 0 0 0 0.713100602"></polygon>
                    <polygon id="Path" fill="#2A3E4E" points="7.90556698 9.38538444 7.90556698 12.5091216 1.69401505 12.5091216 1.69401505 9.38538444 4.79974645 7.04240327"></polygon>
                    <path d="M2.22892964,11.9742962 L2.22892964,9.65190579 L2.6603555,9.32637536 L2.6603555,11.9742962 L2.22892964,11.9742962 Z M3.0169058,11.9742962 L3.0169058,9.05744729 L4.79974645,7.71236128 L7.37065239,9.65190579 L7.37065239,11.9742962 L3.0169058,11.9742962 Z" id="Combined-Shape" fill="#FFFFFF"></path>
                </g>
                <text id="正在加载" font-family="SourceHanSansCN-Medium, Source Han Sans CN" font-size="12" font-weight="400" fill="#FFFFFF">
                    <tspan x="32" y="20">正在加载</tspan>
                </text>
                <g id="Group-7" transform="translate(86.000000, 14.000000)" fill="#FFFFFF">
                    <polygon id="Path" points="2 2.00171278 0 2.00171278 0 0 2 0"></polygon>
                    <polygon id="Path-Copy-2" points="7 2.00171278 5 2.00171278 5 0 7 0"></polygon>
                    <polygon id="Path-Copy-3" points="12 2.00171278 10 2.00171278 10 0 12 0"></polygon>
                </g>
            </g>
            <path d="M22.7041906,64.3494594 C20.2534225,61.6019713 16.7547969,60 13,60 C5.82029825,60 0,65.8202983 0,73 C0,80.1797017 5.82029825,86 13,86 C20.1797017,86 26,80.1797017 26,73 C26,72.4477153 25.5522847,72 25,72 C24.4477153,72 24,72.4477153 24,73 C24,79.0751322 19.0751322,84 13,84 C6.92486775,84 2,79.0751322 2,73 C2,66.9248678 6.92486775,62 13,62 C16.1786699,62 19.1364944,63.3543462 21.2116822,65.6807816 C21.5793167,66.0929264 22.2114527,66.1290092 22.6235975,65.7613747 C23.0357423,65.3937402 23.0718251,64.7616042 22.7041906,64.3494594 Z" id="Oval" fill="#1B2A37" fill-rule="nonzero"></path>
        </g>
    </g>
</svg>