<?xml version="1.0" encoding="UTF-8" standalone="no"?>
<svg width="30px" height="534px" viewBox="0 0 30 534" version="1.1" xmlns="http://www.w3.org/2000/svg" xmlns:xlink="http://www.w3.org/1999/xlink">
    <!-- Generator: Sketch 41 (35326) - http://www.bohemiancoding.com/sketch -->
    <title>Group 35</title>
    <desc>Created with Sketch.</desc>
    <defs>
        <path d="M9.49299065,256 L0.656820121,256 C0.294644492,256 2.15876694e-08,256.293277 2.15876694e-08,256.653677 L2.15876694e-08,265.44761 C2.15876694e-08,265.808052 0.29462312,266.101287 0.656820143,266.101287 L9.49292654,266.101287 C9.85467462,266.101287 10.1493619,265.808393 10.1497894,265.44761 L10.1497894,256.653677 C10.1498108,256.293213 9.85512352,256 9.49299065,256 Z M21.3431799,256 L12.5070735,256 C12.1448337,256 11.8501465,256.293277 11.8501465,256.653677 L11.8501465,265.44761 C11.8501465,265.808052 12.1448337,266.101287 12.5070735,266.101287 L21.3431799,266.101287 C21.7048852,266.101287 21.9995724,265.808393 22,265.44761 L22,256.653677 C22,256.293213 21.7053127,256 21.3431799,256 Z M20.755537,264.862757 L13.0946309,264.862757 L13.0946309,257.23853 L20.7555156,257.23853 L20.7555156,264.862757 L20.755537,264.862757 Z M9.49299065,267.898713 L0.656820121,267.898713 C0.294644492,267.898713 0,268.19199 0,268.55239 L0,277.346216 C0,277.706723 0.294623099,278 0.656820121,278 L9.49292652,278 C9.8546746,278 10.1493618,277.707042 10.1497894,277.346216 L10.1497894,268.552369 C10.1498108,268.19199 9.85512352,267.898713 9.49299065,267.898713 Z M21.3431799,267.898713 L12.5070735,267.898713 C12.1448337,267.898713 11.8501465,268.19199 11.8501465,268.55239 L11.8501465,277.346216 C11.8501465,277.706723 12.1448337,278 12.5070735,278 L21.3431799,278 C21.7048852,278 21.9995724,277.707042 22,277.346216 L22,268.552369 C22,268.19199 21.7053127,267.898713 21.3431799,267.898713 Z" id="path-1"></path>
        <filter x="-50%" y="-50%" width="200%" height="200%" filterUnits="objectBoundingBox" id="filter-2">
            <feOffset dx="0" dy="0" in="SourceAlpha" result="shadowOffsetOuter1"></feOffset>
            <feGaussianBlur stdDeviation="1" in="shadowOffsetOuter1" result="shadowBlurOuter1"></feGaussianBlur>
            <feColorMatrix values="0 0 0 0 0.309803922   0 0 0 0 0.862745098   0 0 0 0 0.780392157  0 0 0 0.5 0" type="matrix" in="shadowBlurOuter1"></feColorMatrix>
        </filter>
        <filter x="-50%" y="-50%" width="200%" height="200%" filterUnits="objectBoundingBox" id="filter-3">
            <feOffset dx="0" dy="0" in="SourceAlpha" result="shadowOffsetOuter1"></feOffset>
            <feGaussianBlur stdDeviation="2" in="shadowOffsetOuter1" result="shadowBlurOuter1"></feGaussianBlur>
            <feColorMatrix values="0 0 0 0 0.309803922   0 0 0 0 0.862745098   0 0 0 0 0.780392157  0 0 0 0.3 0" type="matrix" in="shadowBlurOuter1" result="shadowMatrixOuter1"></feColorMatrix>
            <feMerge>
                <feMergeNode in="shadowMatrixOuter1"></feMergeNode>
                <feMergeNode in="SourceGraphic"></feMergeNode>
            </feMerge>
        </filter>
    </defs>
    <g id="02-08迭代" stroke="none" stroke-width="1" fill="none" fill-rule="evenodd">
        <g id="Group-35" transform="translate(4.000000, 0.000000)">
            <g id="Group-30">
                <g id="Group-29">
                    <g id="Group-22" transform="translate(0.000000, 96.000000)" fill-opacity="0.5" fill="#FDA49E">
                        <path d="M17.0949104,21.9793913 C16.8533543,21.9793913 16.5993447,21.9071208 16.3406349,21.764877 L11.786539,19.2603122 C11.3917864,19.0431102 10.590333,19.0431102 10.1955804,19.2603122 L5.64106712,21.7649 C5.02107735,22.1055085 4.39763927,22.0220276 4.04367315,21.581582 C3.87292778,21.3697556 3.69056362,20.9858445 3.79311189,20.3607026 L4.66238905,15.0567478 C4.74218296,14.5714146 4.50791874,13.8170311 4.17110623,13.4737349 L0.486309406,9.71665781 C0.0662546923,9.28829557 -0.0920592609,8.77670512 0.0520881303,8.31291978 C0.196235543,7.84911147 0.612029297,7.53250888 1.19296771,7.44454839 L6.28381122,6.67086835 C6.74976995,6.60018296 7.36334635,6.13391662 7.5718692,5.69257509 L9.8489062,0.866326843 C10.1084726,0.315706667 10.5251229,0 10.9910597,0 C11.4574357,0 11.8736468,0.315706667 12.1332132,0.866579551 L14.4102721,5.69257511 C14.6183777,6.13416933 15.2319101,6.60018298 15.6974296,6.67086838 L20.7891297,7.44454841 C21.3696508,7.53250888 21.7853787,7.84911147 21.92957,8.3129198 C22.0737393,8.77670514 21.9154254,9.28829559 21.4953926,9.71665784 L17.8109911,13.4737119 C17.4741786,13.8167785 17.2399144,14.5715984 17.319291,15.0571843 L18.1890294,20.3606796 C18.2911164,20.9860512 18.1087742,21.3699853 17.9379849,21.5817658 C17.7312192,21.8380434 17.4321842,21.9793913 17.0949104,21.9793913 Z M10.9910597,17.7109535 C11.5136627,17.7109535 12.0139286,17.8278819 12.4000934,18.0401448 L16.8747688,20.5009477 L16.0201195,15.2896627 C15.8673843,14.3535234 16.241513,13.1486096 16.8910878,12.4864595 L20.5107185,8.79535854 L15.5082347,8.03516315 C14.6102292,7.89896111 13.629772,7.154226 13.2282107,6.30248648 L10.9910597,1.56079882 L8.75351332,6.30269323 C8.35190806,7.15420303 7.37149487,7.89893814 6.47302803,8.03516315 L1.47102747,8.79533557 L5.09103155,12.4864365 C5.74062832,13.1488164 6.11519633,14.3539829 5.96160457,15.2896398 L5.10732858,20.500695 L9.58202594,18.0401448 C9.9681688,17.8278819 10.4684787,17.7109535 10.9910597,17.7109535 Z" id="Shape-Copy-2"></path>
                    </g>
                    <g id="Group-21" transform="translate(5.500000, 192.000000)" fill="#92CBF7">
                        <path d="M15.8763644,4.335375 L2.0055515,4.335375 C0.898090368,4.335375 -1.95399252e-14,3.364625 -1.95399252e-14,2.168375 C-2.01516311e-14,0.97075 0.898090368,0 2.0055515,0 L13.9231556,0 C14.2675154,0 14.5471356,0.3025 14.5471356,0.67375 C14.5471356,1.04775 14.2675154,1.348875 13.9231556,1.348875 L2.0055515,1.348875 C1.58680998,1.348875 1.24795993,1.716 1.24795993,2.167 C1.24795993,2.619375 1.58680998,2.985125 2.0055515,2.985125 L15.8763644,2.985125 C16.0995095,2.985125 16.304748,3.113 16.4163206,3.322 C16.5278931,3.531 16.5278931,3.7895 16.4163206,3.997125 C16.3127509,4.20059716 16.1049696,4.33023046 15.8763644,4.334 L15.8763644,4.335375 L15.8763644,4.335375 Z M15.8763644,22 L2.0055515,22 C0.899467808,21.99725 0.00275487843,21.027875 0.00137743922,19.831625 C0.00137743922,19.460375 0.2809976,19.157875 0.625357404,19.157875 C0.969717208,19.157875 1.24933737,19.460375 1.24933737,19.831625 C1.24933737,20.048875 1.32922884,20.257875 1.46972764,20.409125 C1.60634384,20.5613553 1.80081612,20.649187 2.0055515,20.651125 L15.8763644,20.651125 C16.0995095,20.651125 16.304748,20.779 16.4163206,20.988 C16.5278931,21.197 16.5278931,21.454125 16.4163206,21.66175 C16.3131275,21.8657556 16.1052717,21.9959648 15.8763644,22 L15.8763644,22 Z" id="Shape-Copy-3"></path>
                        <path d="M0.624016165,20.50675 C0.279664615,20.50675 5.11573351e-05,20.20425 5.11573351e-05,19.833 L5.11573351e-05,2.165625 C-0.00281785805,1.93024343 0.115152087,1.70976043 0.312722364,1.58125 C0.503183639,1.46070625 0.746226097,1.46070625 0.936687372,1.58125 C1.13373241,1.71008367 1.2511522,1.93050948 1.24798117,2.165625 L1.24798117,19.83025 C1.24798117,20.202875 0.968367714,20.504 0.624016165,20.504 L0.624016165,20.50675 Z M15.8746576,22 C15.530306,22 15.2506926,21.6975 15.2506926,21.32625 L15.2506926,3.658875 C15.2506926,3.287625 15.530306,2.985125 15.8746576,2.985125 C16.2190091,2.985125 16.5,3.287625 16.5,3.658875 L16.5,21.32625 C16.5,21.6975 16.2203865,22 15.876035,22 L15.876035,22 L15.8746576,22 Z M13.9242504,4.335375 C13.5798989,4.335375 13.3002854,4.032875 13.3002854,3.661625 L13.3002854,0.67375 C13.3002854,0.301125 13.5798989,0 13.9242504,0 C14.268602,0 14.5482154,0.301125 14.5482154,0.67375 L14.5482154,3.658875 C14.5482154,4.0315 14.268602,4.334 13.9242504,4.334 L13.9242504,4.335375 Z M11.867783,8.724375 L4.35678696,8.724375 C4.01243541,8.724375 3.73282195,8.421875 3.73282195,8.04925 C3.73282195,7.676625 4.01243541,7.3755 4.35678696,7.3755 L11.8664056,7.3755 C12.2107571,7.3755 12.4889932,7.676625 12.4889932,8.04925 C12.4889932,8.4205 12.2107571,8.723 11.8664056,8.723 L11.867783,8.724375 Z M8.24933688,11.78375 L4.35678696,11.78375 C4.01243541,11.78375 3.73282195,11.48125 3.73282195,11.11 C3.73282195,10.736 4.01243541,10.434875 4.35678696,10.434875 L8.24795947,10.434875 C8.59231102,10.434875 8.87192448,10.737375 8.87192448,11.108625 C8.87192448,11.48125 8.59368843,11.782375 8.24795947,11.782375 L8.24933688,11.782375 L8.24933688,11.78375 Z" id="Shape-Copy-4"></path>
                    </g>
                    <g id="Group-23" fill="#4FDCC7" opacity="0.5">
                        <path d="M10.992402,0 C4.92147512,0 1.17239551e-13,4.92147512 1.17239551e-13,10.992402 C1.17239551e-13,17.0633288 4.92147512,21.9848683 10.992402,21.9848683 C17.0633932,21.9848683 21.9848683,17.0633288 21.9848683,10.992402 C21.9848683,4.92147512 17.0634146,0 10.992402,0 Z M10.992402,20.2743415 C5.86612293,20.2743415 1.7104839,16.118681 1.7104839,10.9924234 C1.7104839,5.86616585 5.86614439,1.7104839 10.992402,1.7104839 C16.1186595,1.7104839 20.2743415,5.86614439 20.2743415,10.992402 C20.2743415,16.1186595 16.118681,20.2743415 10.992402,20.2743415 Z M11.5840195,10.4098634 L11.5840195,4.48166829 L9.85745951,4.48166829 L9.85745951,9.94947317 L9.85745951,11.0430127 L9.85745951,12.1364449 L16.5867337,12.1364449 L16.5867337,10.4098634 L11.5840195,10.4098634 Z" id="Combined-Shape-Copy"></path>
                    </g>
                    <g id="Group-24" transform="translate(0.000000, 32.000000)" fill="#FFC021" opacity="0.5">
                        <path d="M9.05381589,21.9972936 C8.49596341,21.9972936 7.97346778,21.7768014 7.58375675,21.3759782 L5.91255643,19.649052 C5.61084467,19.3372131 5.61791604,18.8411057 5.92748488,18.5371415 C6.27791052,18.1945912 6.47355174,17.7362824 6.4790517,17.2456874 C6.48455165,16.7558797 6.29912463,16.2936337 5.95734177,15.9432086 C5.27220464,15.2399961 4.06535759,15.2258216 3.36686343,15.9109223 C3.21757896,16.057392 2.99050943,16.1337768 2.80743953,16.1353518 C2.59844128,16.1322019 2.39887152,16.0471549 2.25351559,15.8959603 L0.5846724,14.172184 C0.203604157,13.7831728 -0.0053940961,13.2634413 0.000105857924,12.7129983 C0.00639151966,12.1617679 0.226389681,11.6467612 0.620029247,11.2608999 L11.5083668,0.567817105 C12.2987888,-0.203118018 13.6486346,-0.185793633 14.4154854,0.600103458 L16.0882571,2.3278171 C16.3899688,2.63965603 16.3828975,3.13655089 16.0725429,3.43972762 C15.722903,3.78306543 15.5264761,4.24216162 15.5209761,4.7327567 C15.5154762,5.22335178 15.7009032,5.68559787 16.0419003,6.03681039 C16.7262517,6.73766051 17.9338845,6.75340995 18.6347358,6.0675218 C18.7840203,5.921052 18.9953756,5.86120413 19.1941597,5.84309227 C19.4031579,5.84624216 19.6027277,5.93207661 19.7472979,6.08248377 L21.4153554,7.807835 C21.7956379,8.19448377 22.0046362,8.71264037 21.9999219,9.26229585 C21.9952077,9.81352628 21.7759953,10.3301079 21.3831414,10.7159692 L10.4908753,21.4106269 C10.1027357,21.789401 9.59281138,21.9972936 9.05381589,21.9972936 Z M7.52325725,19.0505733 L8.71046161,20.2782422 C8.88881727,20.4601482 9.20702889,20.466448 9.39324162,20.2837545 L20.2831506,9.59224664 C20.3758641,9.50089988 20.4277208,9.37884171 20.4292922,9.24890883 C20.4300779,9.12055089 20.3813641,9.00006766 20.2917934,8.90872091 L19.104589,7.68026453 C18.5813077,7.99604082 17.9794556,8.16455983 17.3540322,8.16455983 C16.4292542,8.16455983 15.5649757,7.79996028 14.9183383,7.13690883 C14.2827007,6.48566945 13.9393465,5.62574999 13.9495607,4.71464485 C13.9574178,4.07049272 14.1404877,3.45626453 14.4775563,2.92629585 L13.2895662,1.69941442 C13.112782,1.51908332 12.7922132,1.51357102 12.6060005,1.69468959 L1.71844864,12.3869849 C1.62494942,12.4783316 1.57309271,12.6003898 1.57152129,12.7295352 C1.57073559,12.8586806 1.61944946,12.9799513 1.70902014,13.072873 L2.8954388,14.298967 C3.41872014,13.9831907 4.01978654,13.8146717 4.64442418,13.8146717 C5.56920216,13.8146717 6.43505206,14.1800587 7.08090381,14.8438976 C7.71575564,15.4943495 8.06068133,16.354269 8.04968142,17.2645867 C8.04261005,17.9071639 7.85954016,18.521392 7.52325725,19.0505733 Z M7.18933147,12.8004077 C6.9881903,12.8004077 6.78704912,12.7232354 6.63383612,12.5696784 C6.3266244,12.2617768 6.3266244,11.7640945 6.63383612,11.4561929 L11.0204423,7.0589491 C11.327654,6.75104753 11.825007,6.75104753 12.1322187,7.0589491 C12.4386447,7.36606319 12.4386447,7.86453299 12.1322187,8.17243455 L7.74561254,12.5696784 C7.59161383,12.7232354 7.39047265,12.8004077 7.18933147,12.8004077 Z M9.53702613,15.1525867 C9.33588496,15.1525867 9.13474378,15.0754144 8.98153078,14.9218574 C8.67431906,14.6139558 8.67431906,14.1162735 8.98153078,13.8083719 L13.368137,9.41112807 C13.6753487,9.1032265 14.171916,9.1032265 14.4791277,9.41112807 C14.7863394,9.71824216 14.7863394,10.216712 14.4791277,10.5246135 L10.0925215,14.9218574 C9.93852278,15.0754144 9.7373816,15.1525867 9.53702613,15.1525867 Z" id="Shape-Copy-2"></path>
                    </g>
                    <g id="Group-26" transform="translate(2.750000, 128.000000)" fill-opacity="0.5" fill="#4FDCC7">
                        <path d="M18.23606,17.3860222 C17.617274,16.36938 16.9343956,15.5560513 16.9072861,15.5225817 C15.871888,14.2845808 14.7205931,13.3297113 13.4830449,12.6836807 C12.95056,12.4057158 12.4082018,12.1869279 11.8584327,12.027367 C12.2849179,11.7288112 12.6966291,11.355604 13.0688714,10.9180532 C14.0993447,9.71095122 14.6959459,8.2207179 14.7674491,6.69444422 L14.8241544,6.71503515 L14.7501889,5.76530717 L14.7181308,5.34320585 L14.7107438,5.3406351 C14.5603743,3.97394727 14.0944201,1.17622812 13.2192648,0.198172024 L13.0417618,4.87804863e-08 L6.19325558,0 L6.01575261,0.198171976 C5.13811108,1.17879883 4.6746431,3.97394722 4.52427359,5.34063505 L4.51688659,5.3432058 L4.48482847,5.76530712 L4.41086294,6.7150351 L4.46756826,6.69444417 C4.53907147,8.22071785 5.13564873,9.70838044 6.16612212,10.9180531 C6.55316222,11.3710533 6.97964744,11.7571143 7.42339288,12.0582409 C6.90814425,12.2126603 6.40276882,12.4211402 5.90231809,12.6836806 C4.66969454,13.3297113 3.52088587,14.2794393 2.48546393,15.5148694 C2.39672439,15.6126825 1.71384604,16.3822337 1.087673,17.3371281 C0.106494049,18.8350737 -0.206580522,19.9752864 0.131141244,20.8169183 C0.439291156,21.5838988 1.2158576,21.9725555 2.43863183,21.9725555 L16.9466834,21.9725555 C18.0609716,21.9725555 18.7832951,21.601919 19.0914689,20.8761203 C19.4366494,20.0447714 19.1580713,18.9045587 18.23606,17.3860222 Z M6.75041165,1.26887473 L12.4821434,1.26887473 C12.8839814,1.95608724 13.2562475,3.55441666 13.4460621,4.93912463 C13.4435998,4.93912463 13.4386751,4.93655388 13.4361889,4.93655388 C13.3646857,4.91853371 13.2932064,4.89794278 13.2241894,4.87992261 C13.2192648,4.87735185 13.2143162,4.87735185 13.2093915,4.87478112 C13.135426,4.85676095 13.0614844,4.83874078 12.9875188,4.82072061 C12.9801318,4.81814985 12.9727209,4.81814985 12.9677962,4.81557912 C12.8149405,4.77953878 12.6621087,4.74609415 12.5092529,4.71519527 C12.5067906,4.71519527 12.5043283,4.71519527 12.5018659,4.71262451 C12.2651953,4.66373044 12.0285247,4.62254861 11.7894157,4.58650827 C11.5502828,4.55046793 11.3111498,4.51959402 11.0695546,4.49643237 L11.0646299,4.49643237 C10.9093118,4.48098293 10.7540177,4.46812922 10.5962373,4.45782127 C10.5888503,4.45782127 10.5814394,4.45782127 10.5715901,4.45525051 C10.4951622,4.45010902 10.4212205,4.44496754 10.3447927,4.44237183 L10.3324571,4.44237183 C10.2609539,4.43980107 10.1894746,4.43465959 10.1179714,4.43465959 L10.0908619,4.43465959 C10.0193586,4.43208883 9.94787935,4.4295181 9.87637614,4.4295181 L9.83200638,4.4295181 C9.76050317,4.4295181 9.68656154,4.42694734 9.61505832,4.42694734 C9.54355511,4.42694734 9.46961347,4.42694734 9.39811026,4.4295181 L9.35374051,4.4295181 C9.28223729,4.4295181 9.210758,4.43208885 9.13925479,4.43465959 L9.11214525,4.43465959 C9.04064204,4.43723034 8.96916274,4.43980107 8.89765953,4.44237183 L8.88286163,4.44237183 C8.80643376,4.44494259 8.73249212,4.45008407 8.65606425,4.45525051 C8.64867725,4.45525051 8.63880403,4.45525051 8.63141703,4.45782127 C8.47609897,4.46810424 8.3208048,4.48098293 8.16548671,4.49643237 L8.16056206,4.49643237 C7.92142912,4.51959402 7.68229618,4.55049288 7.44316324,4.58650827 L7.4407009,4.58650827 C7.2040303,4.62254861 6.96489736,4.66373044 6.73071299,4.71262451 C6.72825064,4.71262451 6.72578833,4.71262451 6.72332598,4.71519527 C6.57047024,4.74606917 6.41763841,4.77953876 6.26724499,4.81557912 C6.25985799,4.81814988 6.25244709,4.81814988 6.24506011,4.82072061 C6.17109458,4.83874078 6.09715294,4.85676095 6.02318739,4.87478112 C6.01826273,4.87735188 6.01333807,4.87735188 6.00838949,4.87992261 C5.93688627,4.89794278 5.86540698,4.91596295 5.79390377,4.93655388 C5.79144143,4.93655388 5.78651677,4.93912463 5.78403055,4.93912463 C5.97630752,3.55439168 6.34611132,1.95606229 6.75041165,1.26887473 Z M7.07335946,10.0867292 C6.16368372,9.03661737 5.66323297,7.7239651 5.66323297,6.38560539 L5.66323297,6.29036305 C5.82347569,6.24146898 5.98371844,6.19512071 6.14396116,6.15136812 C6.95009949,5.93774671 7.77349805,5.79875178 8.60923215,5.73697902 C8.69058469,5.73183754 8.76947488,5.7266711 8.85082741,5.72152959 L8.86808763,5.72152959 C8.94697782,5.7163881 9.02340569,5.71381734 9.10229591,5.71122166 L9.12448079,5.71122166 C9.20337098,5.7086509 9.28226119,5.70608017 9.35868906,5.70350941 L9.37348696,5.70350941 C9.4548395,5.70093866 9.53619203,5.70093866 9.61754456,5.70093866 C9.69889709,5.70093866 9.78024963,5.70093866 9.86160216,5.70350941 L9.87393772,5.70350941 C9.95282791,5.70608017 10.0317181,5.70608017 10.1106083,5.71122166 L10.1303309,5.71122166 C10.2092211,5.71379241 10.2881113,5.7189339 10.3670015,5.72152959 L10.3817994,5.72152959 C11.4665157,5.78330234 12.5364342,5.97376207 13.5718562,6.29033807 L13.5718562,6.38558041 C13.5718562,7.7239651 13.0714054,9.03659239 12.1592673,10.0867042 C11.3851871,10.9798259 10.3867479,11.5563466 9.61759236,11.5563466 C8.84587885,11.5563467 7.84743966,10.9798259 7.07335946,10.0867292 Z M9.69146227,12.9925444 C11.0473458,12.9925444 12.3711951,13.4043628 13.6063049,14.2022421 L9.56327767,17.6408255 L5.75692104,14.2150958 C6.9993939,13.4095043 8.32816788,12.9925444 9.69146227,12.9925444 Z M17.9870778,20.3562059 C17.895852,20.5749688 17.5137366,20.6985143 16.9442688,20.6985143 L2.43619339,20.6985143 C1.77303757,20.6985143 1.33421679,20.5595194 1.23806638,20.3175948 C1.11973107,20.0241805 1.27751147,19.2777909 2.07131426,18.0655225 C2.67037777,17.1518099 3.35571846,16.3899709 3.36310546,16.3822587 L3.38036568,16.3642385 C3.7994639,15.8623443 4.23828468,15.4145105 4.6894171,15.0232831 L9.54104497,19.385887 L14.6835865,15.0130001 C15.1396675,15.409369 15.5809505,15.8597735 16.0049734,16.3668093 C16.032083,16.3976832 16.6705916,17.1646886 17.2277477,18.080972 C17.9747422,19.3138063 18.1103377,20.0653623 17.9870778,20.3562059 Z M9.1959601,3.84266454 L10.036595,3.84266454 L10.036595,3.28930546 L10.5567683,3.28930546 L10.5567683,2.40135022 L10.036595,2.40135022 L10.036595,1.8479662 L9.1959601,1.8479662 L9.1959601,2.40135022 L8.67578679,2.40135022 L8.67578679,3.28930546 L9.1959601,3.28930546 L9.1959601,3.84266454 Z" id="Shape-Copy-3"></path>
                    </g>
                    <g id="Group-28" transform="translate(0.000000, 224.000000)" fill-opacity="0.5" fill="#FDA49E">
                        <path d="M21.5505098,5.42978873 L16.4409667,0.415039706 C15.878802,-0.138346569 14.9625451,-0.138346569 14.3989569,0.415039706 L1.62754706,12.9489574 C1.14859412,14.1704966 0.288264706,19.4028946 0,21.3769848 C0.216527451,21.5900181 0.335672549,21.8536946 0.606660784,21.9732279 C2.50948824,21.6896436 8.08361961,20.2136809 8.78045882,19.9668926 L21.5504882,7.43452794 C22.1140765,6.87982598 22.1140765,5.98153578 21.5504882,5.42983186 L21.5504882,5.42983186 L21.5504882,5.42983186 L21.5505098,5.42978873 Z M2.1380549,20.4681044 L1.62756863,19.9668926 L2.06646863,17.3889672 L4.54727059,19.8243887 L2.1380549,20.4681044 L2.1380549,20.4681044 Z M7.75810588,18.9631103 L6.15346471,19.3952809 L2.35902549,15.6708966 L2.65013725,13.9513377 L12.8660745,3.92462206 L13.8885353,4.92702402 L4.18308431,14.4525495 L5.2041,15.4548005 L14.909551,5.92944755 L15.9305667,6.93174167 L8.2687,14.4525279 L9.29113922,15.4547789 L16.9531569,7.93565343 L17.9742157,8.93805539 L7.75825686,18.9630672 L7.75810588,18.9631103 Z M18.9964824,7.93569657 L13.8885353,2.92241422 L15.4200157,1.41744167 L20.5280059,6.43219069 L18.9964824,7.93569657 Z" id="Shape-Copy-4"></path>
                    </g>
                    <g id="Group-25" transform="translate(0.000000, 64.000000)" fill="#2598F0" opacity="0.5">
                        <path d="M21.8067147,3.98778286 L19.6650478,1.607936 C19.5367613,1.457984 19.3652773,1.37214629 19.1512236,1.37214629 L11.6556029,1.37214629 L11.6556029,0.643254857 C11.6556029,0.300105143 11.3771046,0 10.9702947,0 C10.6062552,0 10.2849864,0.300105143 10.2849864,0.643254857 L10.2849864,1.37214629 L4.80252004,1.37214629 C4.43848062,1.37214629 4.11721175,1.69377371 4.11721175,2.05821943 L4.11721175,6.86073143 C4.11721175,7.22517714 4.43848062,7.54680457 4.80252004,7.54680457 L10.2849864,7.54680457 L10.2849864,8.91895086 L2.8323372,8.91895086 C2.6180826,8.91895086 2.44679948,8.98326629 2.31831203,9.13344457 L0.176645137,11.5774057 C-0.0588817124,11.8347177 -0.0588817124,12.2206606 0.176645137,12.4779726 L2.31831203,14.9006377 C2.42532631,15.050816 2.59660943,15.0936091 2.8323372,15.0936091 L10.2849864,15.0936091 L10.2849864,21.3110857 C10.2849864,21.6542354 10.6062552,21.9543406 10.9702947,21.9543406 C11.3343341,21.9543406 11.6556029,21.6542354 11.6556029,21.3110857 L11.6556029,15.0936091 L17.1595676,15.0936091 C17.523607,15.0936091 17.8448758,14.8148 17.8448758,14.407536 L17.8448758,9.60499886 C17.8448758,9.19773486 17.523607,8.91892571 17.1595676,8.91892571 L11.6556029,8.91892571 L11.6556029,7.54680457 L19.1512236,7.54680457 C19.3652521,7.54680457 19.5367613,7.46096686 19.6650478,7.31101486 L21.8067147,4.90964571 C22.0422416,4.63103771 22.0209693,4.24506971 21.8067147,3.98778286 Z M16.4742341,13.7214377 L3.13210777,13.7214377 L1.61148033,12.027664 L3.13210777,10.291072 L16.4742341,10.291072 L16.4742341,13.7214377 Z M18.8514279,6.17465829 L5.48782833,6.17465829 L5.48782833,2.74429257 L18.8514279,2.74429257 L20.3718293,4.43806629 L18.8514279,6.17465829 L18.8514279,6.17465829 Z" id="Shape-Copy-2"></path>
                    </g>
                    <g id="Group-27" transform="translate(5.000000, 160.000000)" fill-opacity="0.5" fill="#FFC021">
                        <path d="M8.23103581,6.0952381 C3.69278161,6.0952381 0,9.66239317 0,14.0470086 C0,18.4328449 3.69278161,22 8.23103581,22 C12.7699219,22 16.4620716,18.4322344 16.4620716,14.0470086 C16.4620716,9.66239317 12.7699219,6.0952381 8.23103581,6.0952381 Z M8.23103581,20.7796093 C4.38912749,20.7796093 1.26378563,17.7594627 1.26378563,14.0476191 C1.26378563,10.3363858 4.38912751,7.31684983 8.23103581,7.31684983 C12.0729441,7.31684983 15.198286,10.3363859 15.198286,14.0476191 C15.198286,17.7588523 12.0729441,20.7796093 8.23103581,20.7796093 Z M16.4620716,1.22100122 L16.4620716,4.52808303 C16.4620716,5.18070818 16.1751923,5.74786326 15.6077525,6.21428571 L14.384408,7.17826618 C14.266876,7.27106226 14.125332,7.3162393 13.9850518,7.3162393 C13.8018029,7.3162393 13.6198178,7.23931622 13.4953349,7.09157509 C13.2748043,6.83028083 13.3152454,6.44566545 13.5856955,6.23321123 L14.7989297,5.27716729 C15.1559492,4.98351648 15.198286,4.70818073 15.198286,4.52869353 L15.198286,1.22100122 L11.3936593,1.22100122 L11.3936593,4.98595848 C11.3936593,5.32295483 11.1105714,5.59645909 10.7617665,5.59645909 C10.4129617,5.59645909 10.1298737,5.32295481 10.1298737,4.98595848 L10.1298737,1.22100122 L6.49649003,1.22100122 L6.49649003,4.98595848 C6.49649003,5.32295483 6.21403393,5.59645909 5.86459722,5.59645909 C5.51579238,5.59645909 5.23270442,5.32295481 5.23270442,4.98595848 L5.2327044,1.22100122 L1.26378563,1.22100122 L1.26378563,4.52808303 C1.26378563,4.67704518 1.43186913,5.09523809 1.66061433,5.27411479 L2.87637611,6.23260075 C3.14682623,6.44566547 3.18726737,6.83028085 2.96673678,7.09096461 C2.74683808,7.35286937 2.3487456,7.39194141 2.07766359,7.1788767 L0.864429374,6.22283275 C0.324161001,5.8009768 0,5.02991453 0,4.52808303 L0,1.22100122 C0,0.548229559 0.566807844,0 1.26378563,0 L15.1989179,0 C15.8952638,0 16.4620716,0.548840059 16.4620716,1.22100122 Z M12.486202,11.7594628 L10.0230838,11.7594628 L9.19972748,9.3150183 C9.11189438,8.95787544 8.77319983,8.57264955 8.23545905,8.57264955 C7.69708638,8.57264955 7.35839183,8.95787544 7.28572414,9.26617824 L6.44720237,11.7594627 L3.86655212,11.7594627 C3.38125843,11.7594627 2.97558325,12.0323565 2.83340737,12.4548229 C2.66911525,12.9438339 2.90228369,13.3565323 3.15693651,13.51221 L5.34202185,15.0470085 L4.53319906,17.4511599 C4.35816475,17.8064713 4.40302914,18.2899877 4.83271624,18.591575 C5.01406948,18.7191697 5.22764926,18.7869352 5.44944364,18.7869352 C5.73379541,18.7869352 5.94547949,18.6752136 6.04595046,18.6141636 L8.23609094,17.076923 L10.2884788,18.5140415 C10.3693611,18.5824175 10.6650869,18.8064713 11.0612837,18.8064713 C11.2679127,18.8064713 11.4650632,18.7442002 11.6318829,18.6275946 C12.0483003,18.3351648 12.1051707,17.8400488 11.9484612,17.4792429 L11.1295281,15.0445665 L13.1654868,13.6129426 C13.494703,13.4236874 13.7702082,12.9847375 13.5951739,12.4645909 C13.4479429,12.0286935 13.0359488,11.7582417 12.4893615,11.7582417 C12.4880977,11.7594628 12.4874658,11.7594628 12.486202,11.7594628 Z M9.64331626,14.5805861 L10.5140646,17.1678877 L8.23482718,15.5683761 L5.95622168,17.1697192 L6.82760187,14.5805861 L4.54710069,12.980464 L7.36534265,12.980464 L8.23419527,10.3907204 L9.10494356,12.980464 L11.9219217,12.980464 L9.64331626,14.5805861 Z" id="Shape-Copy-3"></path>
                    </g>
                    <g id="Shape-Copy-2">
                        <use fill="black" fill-opacity="1" filter="url(#filter-2)" xlink:href="#path-1"></use>
                        <use fill="#4FDCC7" fill-rule="evenodd" xlink:href="#path-1"></use>
                    </g>
                    <g id="Group-Copy" filter="url(#filter-3)" transform="translate(0.000000, 320.000000)">
                        <path d="M21.7254821,5.60490808 L16.9461355,0.315942414 C16.7666295,0.116358804 16.542247,0.0165669989 16.2954263,0.0165669989 L5.70457371,0.0165669989 C5.45775299,0.0165669989 5.23337052,0.116358804 5.05386454,0.315942414 L0.274517928,5.60490808 C0.0950119522,5.80449169 0.00525896414,6.05397121 0.00525896414,6.32839867 L0.00525896414,8.42402658 C0.00525896414,8.67350609 0.0950119522,8.9229856 0.229641434,9.09762126 L10.3268526,21.6464408 C10.6858645,22.0955039 11.3141355,22.0955039 11.6731474,21.6464408 L21.7703586,9.09762126 C21.9274263,8.9229856 21.994741,8.67350609 21.994741,8.42402658 L21.994741,6.32839867 C21.994741,6.05397121 21.904988,5.80449169 21.7254821,5.60490808 Z M20.177243,8.72340199 L11,20.1495637 L1.82275697,8.72340199 L1.82275697,6.30345072 L6.26552988,1.38870432 L15.7569084,1.38870432 L20.1996813,6.30345072 L20.1996813,8.72340199 L20.177243,8.72340199 Z" id="Shape" fill="#4FDCC7"></path>
                        <path d="M6.26552988,1.36375637 L1.82275697,6.27850277 L1.82275697,8.69845404 L11,20.1495637 L20.177243,8.72340199 L20.177243,6.30345072 L15.7344701,1.36375637 L6.26552988,1.36375637 Z M11,16.3325271 L4.17877291,6.20365891 L8.21765737,6.20365891 L7.90352191,7.15168106 L11,11.8418959 L14.0964781,7.17662901 L13.7823426,6.22860687 L17.8212271,6.22860687 L11,16.3325271 Z" id="Shape" fill="#4FDCC7"></path>
                        <polygon id="Shape" fill="#FFFFFF" points="14.0964781 7.15168106 11 11.8418959 7.90352191 7.15168106 8.21765737 6.20365891 4.17877291 6.20365891 11 16.3075792 11 16.3325271 17.8212271 6.22860687 13.7823426 6.22860687"></polygon>
                    </g>
                    <g id="Group-2" transform="translate(0.000000, 352.000000)">
                        <path d="M21.7254821,5.60490808 L16.9461355,0.315942414 C16.7666295,0.116358804 16.542247,0.0165669989 16.2954263,0.0165669989 L5.70457371,0.0165669989 C5.45775299,0.0165669989 5.23337052,0.116358804 5.05386454,0.315942414 L0.274517928,5.60490808 C0.0950119522,5.80449169 0.00525896414,6.05397121 0.00525896414,6.32839867 L0.00525896414,8.42402658 C0.00525896414,8.67350609 0.0950119522,8.9229856 0.229641434,9.09762126 L10.3268526,21.6464408 C10.6858645,22.0955039 11.3141355,22.0955039 11.6731474,21.6464408 L21.7703586,9.09762126 C21.9274263,8.9229856 21.994741,8.67350609 21.994741,8.42402658 L21.994741,6.32839867 C21.994741,6.05397121 21.904988,5.80449169 21.7254821,5.60490808 Z M20.177243,8.72340199 L11,20.1495637 L1.82275697,8.72340199 L1.82275697,6.30345072 L6.26552988,1.38870432 L15.7569084,1.38870432 L20.1996813,6.30345072 L20.1996813,8.72340199 L20.177243,8.72340199 Z" id="Shape" fill="#C5C8D0"></path>
                        <path d="M6.26552988,1.36375637 L1.82275697,6.27850277 L1.82275697,8.69845404 L11,20.1495637 L20.177243,8.72340199 L20.177243,6.30345072 L15.7344701,1.36375637 L6.26552988,1.36375637 Z M11,16.3325271 L4.17877291,6.20365891 L8.21765737,6.20365891 L7.90352191,7.15168106 L11,11.8418959 L14.0964781,7.17662901 L13.7823426,6.22860687 L17.8212271,6.22860687 L11,16.3325271 Z" id="Shape" fill="#C5C8D0"></path>
                        <polygon id="Shape" fill="#FFFFFF" points="14.0964781 7.15168106 11 11.8418959 7.90352191 7.15168106 8.21765737 6.20365891 4.17877291 6.20365891 11 16.3075792 11 16.3325271 17.8212271 6.22860687 13.7823426 6.22860687"></polygon>
                    </g>
                    <path d="M9.49299065,288 L0.656820121,288 C0.294644492,288 2.15876694e-08,288.293277 2.15876694e-08,288.653677 L2.15876694e-08,297.44761 C2.15876694e-08,297.808052 0.29462312,298.101287 0.656820143,298.101287 L9.49292654,298.101287 C9.85467462,298.101287 10.1493619,297.808393 10.1497894,297.44761 L10.1497894,288.653677 C10.1498108,288.293213 9.85512352,288 9.49299065,288 Z M21.3431799,288 L12.5070735,288 C12.1448337,288 11.8501465,288.293277 11.8501465,288.653677 L11.8501465,297.44761 C11.8501465,297.808052 12.1448337,298.101287 12.5070735,298.101287 L21.3431799,298.101287 C21.7048852,298.101287 21.9995724,297.808393 22,297.44761 L22,288.653677 C22,288.293213 21.7053127,288 21.3431799,288 Z M20.755537,296.862757 L13.0946309,296.862757 L13.0946309,289.23853 L20.7555156,289.23853 L20.7555156,296.862757 L20.755537,296.862757 Z M9.49299065,299.898713 L0.656820121,299.898713 C0.294644492,299.898713 0,300.19199 0,300.55239 L0,309.346216 C0,309.706723 0.294623099,310 0.656820121,310 L9.49292652,310 C9.8546746,310 10.1493618,309.707042 10.1497894,309.346216 L10.1497894,300.552369 C10.1498108,300.19199 9.85512352,299.898713 9.49299065,299.898713 Z M21.3431799,299.898713 L12.5070735,299.898713 C12.1448337,299.898713 11.8501465,300.19199 11.8501465,300.55239 L11.8501465,309.346216 C11.8501465,309.706723 12.1448337,310 12.5070735,310 L21.3431799,310 C21.7048852,310 21.9995724,309.707042 22,309.346216 L22,300.552369 C22,300.19199 21.7053127,299.898713 21.3431799,299.898713 Z" id="Shape-Copy-2" fill="#C5C8D0"></path>
                </g>
                <g id="diyiubu-copy" transform="translate(0.000000, 384.000000)">
                    <circle id="Oval-112" fill="#FFFFFF" cx="11" cy="11" r="11"></circle>
                    <path d="M6.74193548,12.383871 C7.42783751,12.383871 7.98387097,11.8278375 7.98387097,11.1419355 C7.98387097,10.4560335 7.42783751,9.9 6.74193548,9.9 C6.05603346,9.9 5.5,10.4560335 5.5,11.1419355 C5.5,11.8278375 6.05603346,12.383871 6.74193548,12.383871 Z M11,12.383871 C11.685902,12.383871 12.2419355,11.8278375 12.2419355,11.1419355 C12.2419355,10.4560335 11.685902,9.9 11,9.9 C10.314098,9.9 9.75806452,10.4560335 9.75806452,11.1419355 C9.75806452,11.8278375 10.314098,12.383871 11,12.383871 Z M15.2580645,12.383871 C15.9439665,12.383871 16.5,11.8278375 16.5,11.1419355 C16.5,10.4560335 15.9439665,9.9 15.2580645,9.9 C14.5721625,9.9 14.016129,10.4560335 14.016129,11.1419355 C14.016129,11.8278375 14.5721625,12.383871 15.2580645,12.383871 Z" id="Icon-Copy" fill="#3D3D3D"></path>
                </g>
                <g id="Group-10-Copy" transform="translate(0.000000, 416.000000)">
                    <g id="dierbu">
                        <path d="M22,11 C22,17.0751429 17.0751429,22 11,22 C4.92485714,22 0,17.0751429 0,11 C0,4.92485714 4.92485714,0 11,0 C17.0751429,0 22,4.92485714 22,11" id="Fill-1" fill="#348BF4"></path>
                        <path d="M22,11 C22,17.0751429 17.0751429,22 11,22 C4.92485714,22 0,17.0751429 0,11 C0,4.92485714 4.92485714,0 11,0 C17.0751429,0 22,4.92485714 22,11" id="Fill-3" fill="#FFFFFF"></path>
                    </g>
                    <g id="Group-12" transform="translate(2.933333, 2.933333)" fill="#4FDCC7">
                        <path d="M8.07868546,0.00241279762 C7.77002267,0.00241279762 7.46684594,0.0209949405 7.16859582,0.0560165179 C6.43763311,0.138537798 5.73698807,0.32074003 5.07833661,0.5853375 C5.07833661,0.5853375 10.5092966,5.94787024 10.6539011,6.14721414 L10.6539011,0.42861369 C10.4920444,0.373641518 10.3267048,0.324143155 10.1599937,0.278047917 C9.49659612,0.0999870536 8.79863997,0.00241279762 8.07868546,0.00241279762 L8.07868546,0.00241279762 Z" id="Shape"></path>
                        <path d="M13.7514831,2.33205893 C13.5337733,2.11483512 13.305687,1.91405074 13.0701295,1.72785119 C12.4941658,1.27136429 11.8699827,0.904348958 11.2175031,0.627957589 C11.2175031,0.627957589 11.2574755,8.24924702 11.2175031,8.49261548 L15.271355,4.44860461 C15.1955066,4.29595015 15.1135948,4.14399792 15.027406,3.99487262 C14.6836072,3.40094628 14.2606576,2.83932262 13.7514831,2.33205893 L13.7514831,2.33205893 Z" id="Shape"></path>
                        <path d="M15.5309681,5.08309836 C15.5309681,5.08309836 10.1579545,10.5012695 9.95675705,10.6455692 L15.6888004,10.6455692 C15.7438956,10.4840738 15.7935588,10.3190673 15.8389812,10.1527283 C16.018072,9.48935298 16.1159909,8.79509747 16.1159909,8.07606577 C16.1159909,7.76875818 16.0966814,7.46560997 16.0614732,7.16798958 C15.9788215,6.43864048 15.7969876,5.73957738 15.5309681,5.08309836 L15.5309681,5.08309836 Z" id="Shape"></path>
                        <path d="M7.55987427,11.2477423 L11.6136359,15.2917891 C11.7679854,15.2154979 11.918906,15.1350653 12.0690507,15.0484747 C12.6643238,14.7067757 13.2265181,14.284086 13.7363603,13.7753999 C13.9532941,13.5588423 14.15386,13.3305988 14.341234,13.0955671 C14.7979661,12.5207991 15.1666327,11.8987475 15.4435341,11.24704 C15.4435702,11.24704 7.80452707,11.2869772 7.55987427,11.2477423 L7.55987427,11.2477423 Z" id="Shape"></path>
                        <path d="M5.4799736,9.97742232 L5.4799736,15.696653 C5.64262431,15.7516432 5.80787368,15.8018257 5.97393512,15.8465705 C6.63810872,16.0252976 7.33467532,16.1228719 8.05533363,16.1228719 C8.36253468,16.1228719 8.66636107,16.1036055 8.96401566,16.0692501 C9.69499642,15.9860626 10.3956595,15.8046527 11.0542749,15.5392269 C11.0549426,15.5392449 5.62463221,10.1781707 5.4799736,9.97742232 L5.4799736,9.97742232 Z" id="Shape"></path>
                        <path d="M4.90949605,7.59208378 L0.857105891,11.6360766 C0.932954213,11.7907838 1.0149563,11.9420338 1.10105488,12.0904749 C1.44350022,12.6857876 1.86713557,13.2466911 2.37697778,13.754729 C2.59400179,13.9719708 2.82275585,14.171981 3.05833139,14.3582885 C3.63494467,14.8154597 4.25712468,15.1818088 4.91164355,15.4580921 C4.9116255,15.4581101 4.87028158,7.83613646 4.90949605,7.59208378 L4.90949605,7.59208378 Z" id="Shape"></path>
                        <path d="M0.293558091,5.97599554 C0.115116928,6.63868661 0.0173243848,7.33368036 0.0173243848,8.05273006 C0.0173243848,8.35926339 0.0366158091,8.66307783 0.0717337808,8.96010402 C0.154439672,9.69010134 0.335605817,10.3892185 0.602924683,11.0449952 C0.602924683,11.0449952 5.97539687,5.6268061 6.17655824,5.48313661 L0.44379299,5.48313661 C0.388679791,5.64394777 0.339070694,5.80962054 0.293558091,5.97599554 L0.293558091,5.97599554 Z" id="Shape"></path>
                        <path d="M4.02562759,1.1077442 C3.42900104,1.45009137 2.86680671,1.87288914 2.35831797,2.38013482 C2.13925474,2.59807887 1.93946488,2.82630432 1.75275854,3.05996756 C1.29525041,3.63473557 0.927395973,4.25747143 0.649790753,4.90982708 C0.649790753,4.90982708 8.29015123,4.86925967 8.53410022,4.90845863 L4.48097017,0.864447768 C4.32671096,0.941387202 4.17441879,1.0218558 4.02562759,1.1077442 L4.02562759,1.1077442 Z" id="Shape"></path>
                    </g>
                </g>
                <g id="Group-11-Copy" transform="translate(0.000000, 448.000000)">
                    <g id="dierbu-copy">
                        <path d="M22,11 C22,17.0751429 17.0751429,22 11,22 C4.92485714,22 0,17.0751429 0,11 C0,4.92485714 4.92485714,0 11,0 C17.0751429,0 22,4.92485714 22,11" id="Fill-1" fill="#348BF4"></path>
                        <path d="M22,11 C22,17.0751429 17.0751429,22 11,22 C4.92485714,22 0,17.0751429 0,11 C0,4.92485714 4.92485714,0 11,0 C17.0751429,0 22,4.92485714 22,11" id="Fill-3" fill="#FFFFFF"></path>
                    </g>
                    <path d="M6.79456,8.27883205 C6.36028,8.27883205 5.93425333,7.99081501 5.93425333,7.56311359 C5.93425333,7.12707181 6.36030667,6.84739513 6.78629333,6.84739513 C7.22057333,6.84739513 7.49912,7.12712535 7.49912,7.56311359 C7.50737333,7.99089533 7.22052,8.27883205 6.79454667,8.27883205 L6.79456,8.27883205 Z M10.7844667,6.84738174 C11.2187467,6.84738174 11.4972933,7.12711197 11.4972933,7.5631002 C11.4972933,7.99088195 11.2186933,8.27881866 10.7844667,8.27881866 C10.3584133,8.27881866 9.92416,7.99080162 9.92416,7.5631002 C9.92416,7.12705842 10.3584133,6.84738174 10.7844667,6.84738174 Z M13.85688,8.40214361 C14.03712,8.40214361 14.2173733,8.41043043 14.4057733,8.43500974 C13.9059867,6.12344341 11.4480667,4.41239675 8.64608,4.41239675 C5.50821333,4.41239675 2.93556,6.55940487 2.93554667,9.28236673 C2.93554667,10.8618552 3.78758667,12.1451335 5.22137333,13.1487217 L4.64788,14.8762349 L6.64701333,13.8726333 C7.35984,14.0124381 7.93336,14.1606503 8.64614667,14.1606503 C8.81814667,14.1606503 8.99842667,14.1523635 9.17865333,14.1359907 C9.064,13.7575817 8.99841333,13.3462665 8.99841333,12.9349112 C8.99841333,10.4342207 11.1367467,8.40227748 13.8568667,8.40227748 L13.85688,8.40214361 Z" id="Shape" fill="#4FDCC7"></path>
                    <path d="M15.774,12.1450531 C15.4954,12.1450531 15.2086267,11.8653229 15.2086267,11.5773862 C15.21688,11.2893692 15.49548,11.0015663 15.774,11.0015663 C16.2082533,11.0015663 16.495,11.2895834 16.495,11.5773862 C16.495,11.8654032 16.2081467,12.1450531 15.774,12.1450531 Z M12.6360933,12.1450531 C12.3574933,12.1450531 12.07072,11.8653229 12.07072,11.5773862 C12.07072,11.2894495 12.3575733,11.0015663 12.6360933,11.0015663 C13.0703467,11.0015663 13.34892,11.2895834 13.34892,11.5773862 C13.3571733,11.8654032 13.07032,12.1450531 12.6360933,12.1450531 Z M19.0593467,12.8690316 C19.0593467,10.5739318 16.77352,8.70650669 14.2090533,8.70650669 C11.4972533,8.70650669 9.35876,10.5738247 9.35876,12.8690316 C9.35876,15.1641314 11.4970933,17.0233233 14.2090533,17.0233233 C14.7825467,17.0233233 15.3560933,16.8752183 15.9214267,16.7353063 L17.4945333,17.599103 L17.06028,16.1677732 C18.20732,15.3039765 19.0593067,14.1606369 19.0593067,12.8690584 L19.0593467,12.8690316 Z" id="Shape" fill="#4FDCC7"></path>
                </g>
            </g>
            <path d="M0,490.352923 L10.3529485,490.352923 L10.3529485,480 L0,480 L0,490.352923 Z M2.58825593,482.588231 L7.76471767,482.588231 L7.76471767,487.764693 L2.58825593,487.764693 L2.58825593,482.588231 Z M11.6470765,480 L11.6470765,490.352949 L22.0000251,490.352949 L22.000025,480 L11.6470765,480 Z M19.4117691,487.764693 L14.2353074,487.764693 L14.2353074,482.588231 L19.4117691,482.588231 L19.4117691,487.764693 Z M3.88235884,486.47059 L6.47058971,486.47059 L6.47058971,483.882334 L3.88235884,483.882334 L3.88235884,486.47059 Z M0,502 L10.3529485,502 L10.3529485,491.647051 L0,491.647051 L0,502 Z M2.58825593,494.235282 L7.76471767,494.235282 L7.76471767,499.411744 L2.58825593,499.411744 L2.58825593,494.235282 Z M18.1176662,483.882334 L15.5294103,483.882334 L15.5294103,486.470565 L18.1176412,486.470565 L18.1176412,483.882334 L18.1176662,483.882334 Z M11.6470765,502 L14.2353074,502 L14.2353074,499.411769 L11.6470765,499.411769 L11.6470765,502 Z M14.2353074,494.235282 L14.2353074,499.411744 L16.8235383,499.411744 L16.8235383,494.235282 L14.2353074,494.235282 Z M19.4117691,499.411769 L16.8235383,499.411769 L16.8235383,502 L22,502 L22,496.823513 L19.4117691,496.823513 L19.4117691,499.411769 Z M19.4117691,494.235282 L22,494.235282 L22,491.647051 L19.4117691,491.647051 L19.4117691,494.235282 Z M11.6470765,491.647051 L11.6470765,494.235282 L14.2353074,494.235282 L14.2353074,491.647051 L11.6470765,491.647051 Z M3.88235884,498.117641 L6.47058971,498.117641 L6.47058971,495.52941 L3.88235884,495.52941 L3.88235884,498.117641 Z" id="Shape-Copy-4" fill="#3D3D3D"></path>
            <g id="Group-10-Copy-3" transform="translate(0.000000, 512.000000)" fill="#FFFFFF">
                <path d="M10.9999245,22 C4.93431959,22 0,17.0656552 0,10.9998993 C0,4.93434473 4.93431957,0 10.9999245,0 C17.0656553,0 21.9999748,4.93434475 21.9999748,10.9998993 C21.9999748,17.0656552 17.0656553,22 10.9999245,22 L10.9999245,22 Z M10.9999245,1.57848502 C5.80483912,1.57848502 1.57845989,5.80483908 1.57845989,10.9998993 C1.57845989,16.1942802 5.80481394,20.4214898 10.9999245,20.4214898 C16.1942802,20.4214898 20.4214898,16.1942802 20.4214898,10.9998993 C20.4214898,5.8048391 16.1942802,1.57848502 10.9999245,1.57848502 L10.9999245,1.57848502 Z M11.9441789,10.8161172 L15.3416333,7.45560235 C15.6503601,7.15085133 15.6527506,6.65342597 15.3478738,6.34472431 C15.0429969,6.03587169 14.5448419,6.03348119 14.2368448,6.33833286 L10.83471,9.70284869 L7.48451205,6.34228348 C7.1772447,6.03514195 6.68064973,6.03348117 6.37348303,6.34074852 C6.06621568,6.64716033 6.06548594,7.14448501 6.37192291,7.45175236 L9.71746571,10.8074611 L6.3443441,14.1444233 C6.03561728,14.4501053 6.03322678,14.9465996 6.33810364,15.2554271 C6.49205184,15.4110361 6.69406169,15.4887148 6.89680129,15.4887148 C7.09629484,15.4887148 7.29591419,15.4125962 7.44913266,15.2616676 L10.8269095,11.9209058 L14.2321645,15.3371571 C14.3853829,15.4911304 14.5865624,15.5681045 14.7884465,15.5681045 C14.9896259,15.5681045 15.1899498,15.4911304 15.3431683,15.3387423 C15.650335,15.0323054 15.6511654,14.5357356 15.3447536,14.2277385 L11.9441789,10.8161172 L11.9441789,10.8161172 Z" id="Shape"></path>
            </g>
        </g>
    </g>
</svg>