<?xml version="1.0" encoding="UTF-8" standalone="no"?>
<svg width="375px" height="214px" viewBox="0 0 375 214" version="1.1" xmlns="http://www.w3.org/2000/svg" xmlns:xlink="http://www.w3.org/1999/xlink">
    <!-- Generator: Sketch 42 (36781) - http://www.bohemiancoding.com/sketch -->
    <title>Group 23</title>
    <desc>Created with Sketch.</desc>
    <defs>
        <rect id="path-1" x="0" y="0" width="375" height="160"></rect>
        <linearGradient x1="100%" y1="0%" x2="0%" y2="100%" id="linearGradient-3">
            <stop stop-color="#4FDCC7" offset="0%"></stop>
            <stop stop-color="#19A4C2" offset="100%"></stop>
        </linearGradient>
        <rect id="path-4" x="0" y="0" width="379" height="189.494681"></rect>
    </defs>
    <g id="Page-1" stroke="none" stroke-width="1" fill="none" fill-rule="evenodd">
        <g id="Group-23">
            <g id="Group-19" transform="translate(0.000000, 200.000000)" fill-rule="nonzero" fill="#FFFFFF">
                <g id="Group-10-Copy">
                    <path d="M1.47368421,7 C1.47368421,3.948 3.948,1.47368421 7,1.47368421 L7,3.13157895 C7,3.437 7.24757895,3.68421054 7.55263158,3.68421054 C7.85805263,3.68421054 8.32005263,3.13157895 8.32005263,3.13157895 L11.4210526,0 L7,0 C3.13415789,0 0,3.13415789 0,7 C0,8.83915789 0.714736846,10.5073684 1.87489474,11.7566842 L2.91678948,10.7147895 C2.02336842,9.73294737 1.47368421,8.43242105 1.47368421,7 Z" id="Shape"></path>
                    <path d="M12.1251053,2.24331579 L11.0832105,3.28521052 C11.977,4.26705263 12.5263158,5.56757895 12.5263158,7 C12.5263158,10.052 10.052,12.5263158 7,12.5263158 L7,10.8687895 L7,10.868421 C7,10.5633684 6.75242105,10.3157895 6.44736842,10.3157895 C6.14194737,10.3157895 5.67994737,10.868421 5.67994737,10.868421 L5.67994737,10.868421 L5.67994737,10.868421 L2.57894737,14 L7,14 C10.8662105,14 14,10.8658421 14,7 C14,5.16084211 13.2852632,3.49263158 12.1251053,2.24331579 Z" id="Shape"></path>
                </g>
            </g>
            <g id="4acb4699beb085787de425b639b763df-copy">
                <mask id="mask-2" fill="white">
                    <use xlink:href="#path-1"></use>
                </mask>
                <use id="Mask" fill="#4FDCC7" xlink:href="#path-1"></use>
                <g id="Group-2" mask="url(#mask-2)">
                    <g transform="translate(-3.000000, -17.000000)" id="Path-2-+-Path-2-Copy-+-Path-2-Copy-2-+-Path-2-Copy-2-Mask">
                        <g>
                            <mask id="mask-5" fill="white">
                                <use xlink:href="#path-4"></use>
                            </mask>
                            <use id="Mask" fill="url(#linearGradient-3)" xlink:href="#path-4"></use>
                            <path d="M-26.2132641,132.443516 C-26.2132641,132.443516 22.0216568,159.578624 64.5663178,159.578624 C107.110979,159.578624 183.260593,131.769051 183.260593,131.769051 C183.260593,131.769051 248.566294,108.90804 298.746411,127.990556 C348.926529,147.073073 475.826405,164.560722 505.790636,164.560722 C535.754866,164.560722 615.370061,106.117021 615.370061,106.117021 L600.531413,194.032236 L231.357636,313.718109 L-18.834931,303.116711 L-90.96,204.879572 L-26.2132641,132.443516 Z" id="Path-2" fill-opacity="0.814424819" fill="#F4F7F9" opacity="0.201201026" mask="url(#mask-5)"></path>
                            <path d="M-123.237264,132.443516 C-123.237264,132.443516 -75.0023432,159.578624 -32.4576822,159.578624 C10.0869788,159.578624 86.2365931,131.769051 86.2365931,131.769051 C86.2365931,131.769051 151.542294,108.90804 201.722411,127.990556 C251.902529,147.073073 378.802405,164.560722 408.766636,164.560722 C438.730866,164.560722 518.346061,106.117021 518.346061,106.117021 L503.507413,194.032236 L134.333636,313.718109 L-115.858931,303.116711 L-187.984,204.879572 L-123.237264,132.443516 Z" id="Path-2-Copy" fill="#DBF9F9" opacity="0.227728545" mask="url(#mask-5)"></path>
                            <path d="M-4.98926405,112.23075 C-4.98926405,112.23075 43.2456568,139.365858 85.7903178,139.365858 C128.334979,139.365858 204.484593,111.556285 204.484593,111.556285 C204.484593,111.556285 269.790294,88.6952737 319.970411,107.77779 C370.150529,126.860307 497.050405,144.347956 527.014636,144.347956 C556.978866,144.347956 636.594061,85.9042553 636.594061,85.9042553 L621.755413,173.81947 L252.581636,293.505343 L2.38906902,282.903945 L-69.736,184.666806 L-4.98926405,112.23075 Z" id="Path-2-Copy-2" fill="#FDFFD9" opacity="0.116180037" mask="url(#mask-5)"></path>
                            <path d="M-74.0563668,192.825947 C-74.0563668,192.825947 8.77200791,80.1556034 120.933018,111.684405 C233.094028,143.213206 325.133973,197.294146 412.490145,173.382815 C499.846316,149.471484 458.980277,268.891687 458.980277,268.891687 L108.214188,331.730928 C108.214188,331.730928 -161.706667,303.887543 -161.706667,293.700286 C-161.706667,283.51303 -74.0563668,192.825947 -74.0563668,192.825947 Z" id="Path-3" fill="#0BEDF3" opacity="0.1" mask="url(#mask-5)"></path>
                        </g>
                    </g>
                </g>
            </g>
        </g>
    </g>
</svg>