<?xml version="1.0" encoding="UTF-8" standalone="no"?>
<svg width="25px" height="861px" viewBox="0 0 25 861" version="1.1" xmlns="http://www.w3.org/2000/svg" xmlns:xlink="http://www.w3.org/1999/xlink">
    <!-- Generator: Sketch 42 (36781) - http://www.bohemiancoding.com/sketch -->
    <title>Group 11</title>
    <desc>Created with Sketch.</desc>
    <defs>
        <path d="M3,1.99372003 C3,0.89261886 3.89541558,0 5.00528672,0 L18.3280466,0 C19.4355359,0 20.3333333,0.902275927 20.3333333,1.99372003 L20.3333333,17.2333529 L3,17.2333529 L3,1.99372003 Z" id="path-1"></path>
        <mask id="mask-2" maskContentUnits="userSpaceOnUse" maskUnits="objectBoundingBox" x="0" y="0" width="17.3333333" height="17.2333529" fill="white">
            <use xlink:href="#path-1"></use>
        </mask>
    </defs>
    <g id="会员中心" stroke="none" stroke-width="1" fill="none" fill-rule="evenodd">
        <g id="Group-11">
            <path d="M10.3440922,332 C9.73920696,332 9.15458488,331.750321 8.69809721,331.297157 C8.32070379,330.922156 7.94489964,330.54548 7.56926576,330.168549 L7.30059503,329.899393 C6.75752085,329.355233 6.6474927,328.750655 6.96409677,328.051446 C7.21372473,327.500358 7.20529595,326.888739 6.94045647,326.374107 C6.67584404,325.858793 6.18317223,325.495802 5.58901457,325.377776 C5.51097036,325.36253 5.43059901,325.356 5.35281022,325.349668 L5.24533625,325.340583 L5.23171399,325.303815 L5.22127025,325.305945 C5.14890199,325.32809 5.06603322,325.349498 4.98316446,325.370877 C4.80530881,325.417156 4.62123799,325.464854 4.45218004,325.537651 C4.19517337,325.64767 3.94721982,325.703744 3.71549947,325.703744 C3.30626401,325.703744 2.94206716,325.53856 2.60199307,325.19885 L2.34027536,324.937587 C1.96509556,324.562757 1.58988738,324.188125 1.21604143,323.811903 C0.261319523,322.851631 0.261319523,321.460794 1.21604143,320.504866 C5.14234035,316.574468 9.06990357,312.645334 12.9987305,308.717465 C13.4615468,308.254818 14.0502839,308 14.6566165,308 C15.2621828,308 15.8509199,308.254051 16.314389,308.715506 C16.6812819,309.081024 17.0469829,309.447365 17.4127974,309.813791 L17.6895848,310.091323 C18.2368875,310.639429 18.3447588,311.248522 18.0187894,311.953153 C17.7386817,312.558839 17.7813647,313.249132 18.1330745,313.799709 C18.477661,314.339071 19.0688388,314.661064 19.7143353,314.661064 C19.7391676,314.661064 19.7638579,314.660667 19.7890591,314.659758 C20.0128332,314.651638 20.2675978,314.585882 20.5462298,314.464535 C20.8021865,314.353153 21.0501684,314.296738 21.2836767,314.296738 C21.6933662,314.296738 22.0574212,314.46144 22.3965587,314.800327 L22.6715581,315.074877 C23.0430486,315.446158 23.4133754,315.815963 23.7826806,316.187273 C24.7379418,317.14854 24.7393607,318.539319 23.7854051,319.494425 C19.8555811,323.428782 15.9243474,327.36173 11.9917047,331.293268 C11.5357279,331.748987 10.9507085,332 10.3440922,332 L10.3440922,332 Z M11.9520299,324.538198 L11.9520015,324.538226 C12.1587477,324.538226 12.3600166,324.45112 12.5183754,324.292977 C13.5651037,323.247679 14.6111422,322.201691 15.6564905,321.155013 L16.7993699,320.011385 C16.9552029,319.855599 17.0301538,319.671988 17.0351486,319.428782 C17.0156233,319.115108 16.8566118,318.885673 16.5759932,318.765433 C16.4678381,318.719154 16.3603358,318.695589 16.2565512,318.695589 C16.074694,318.695589 15.9067145,318.766654 15.7570399,318.907307 C15.5778787,319.07553 15.4026908,319.252923 15.2332639,319.424325 L15.2093682,319.448401 C15.1493528,319.509609 15.0889787,319.570463 15.0282488,319.630961 L14.1473426,320.511964 C13.2485462,321.410596 12.3502146,322.309693 11.4523483,323.209256 C11.127429,323.535053 11.1135229,323.997814 11.4194562,324.309728 C11.5637954,324.45694 11.753003,324.538198 11.9520299,324.538198 Z M8.70102032,321.302339 L8.70102032,321.302339 L8.71347901,321.302538 L8.71651564,321.302538 C8.94653321,321.294361 9.13406635,321.209781 9.30667176,321.03642 C10.2929519,320.047642 11.2803105,319.060113 12.2675272,318.072243 L13.5305379,316.808802 C13.5677721,316.771665 13.598706,316.740207 13.6271992,316.705228 C13.7931637,316.501544 13.8430269,316.232246 13.7609812,315.985094 C13.6788503,315.737886 13.47778,315.552401 13.2235829,315.488633 C13.1581393,315.472165 13.0926389,315.463591 13.0298346,315.463591 C12.8189166,315.463591 12.6319511,315.552742 12.4412961,315.743819 C11.6081529,316.579167 10.774357,317.413067 9.94050426,318.247649 L8.25077618,319.938361 C8.20210497,319.986911 8.14693481,320.042304 8.10555719,320.10329 C7.93561947,320.354417 7.91637803,320.615537 8.04825855,320.879583 C8.17650647,321.136672 8.396506,321.278773 8.70102032,321.302339 Z" id="Combined-Shape-Copy-35" fill="#00C940" fill-rule="nonzero"></path>
            <path d="M12.5,132 C19.1171207,132 24.5,137.382879 24.5,144 C24.5,150.617121 19.1171207,156 12.5,156 C5.88287925,156 0.5,150.617121 0.5,144 C0.5,137.382879 5.88287925,132 12.5,132 Z M17.1482347,146.940996 L13.0000806,144.542157 L13.0000806,138 C13.0000806,137.44817 12.5522328,136.999839 11.9999194,136.999839 C11.4480896,136.999839 10.9997582,137.447687 10.9997582,138 L10.9997582,145.000161 C10.9997582,145.371111 11.4606642,145.682089 11.7610027,145.854264 C11.8441883,145.979042 12.0719813,146.092213 12.2107851,146.172497 L16.3357246,148.672417 C16.813558,148.948573 17.3315331,148.78462 17.6076898,148.306303 C17.8843302,147.827986 17.6270353,147.217153 17.1482347,146.940996 Z" id="Combined-Shape-Copy-5" fill="#00C940"></path>
            <path d="M19.1645435,200 C18.9008079,200 18.6234755,199.921086 18.3410113,199.765765 L13.3687641,197.030951 C12.9377658,196.793781 12.0627239,196.793781 11.6317256,197.030951 L6.65902275,199.76579 C5.98210631,200.137711 5.30142493,200.046556 4.9149581,199.565619 C4.72853511,199.334319 4.5294265,198.915115 4.64139062,198.232502 L5.5904837,192.440944 C5.67760419,191.910993 5.42183013,191.087258 5.05409192,190.712402 L1.03096172,186.609929 C0.572338114,186.142187 0.399487974,185.583565 0.556870796,185.077143 C0.714253642,184.570696 1.16822505,184.224987 1.8025045,184.12894 L7.3607828,183.284134 C7.86952528,183.206951 8.53943948,182.69782 8.76710863,182.215905 L11.2532203,176.94597 C11.5366197,176.34473 11.9915264,176 12.5002449,176 C13.009443,176 13.46387,176.34473 13.7472694,176.946246 L16.233405,182.215905 C16.4606186,182.698096 17.1304848,183.206951 17.6387477,183.284134 L23.1979612,184.12894 C23.831785,184.224987 24.2856845,184.570696 24.4431153,185.077143 C24.6005221,185.583565 24.427672,186.142187 23.9690724,186.609929 L19.9463738,190.712377 C19.5786356,191.086982 19.3228615,191.911194 19.4095264,192.441421 L20.359123,198.232477 C20.4705836,198.91534 20.2714989,199.33457 20.085028,199.56582 C19.8592773,199.845658 19.5327852,200 19.1645435,200 Z" id="Shape-Copy" fill="#FFC020"></path>
            <path d="M0.5,90.0049466 C0.5,88.8976452 1.39702623,88 2.50494659,88 L22.4950534,88 C23.6023548,88 24.5,88.8970262 24.5,90.0049466 L24.5,109.995053 C24.5,111.102355 23.6029738,112 22.4950534,112 L2.50494659,112 C1.39764516,112 0.5,111.102974 0.5,109.995053 L0.5,90.0049466 Z M5.75,93.625 C5.75,94.2506521 6.2549254,94.75 6.87778246,94.75 L18.1222175,94.75 C18.7372689,94.75 19.25,94.2463203 19.25,93.625 C19.25,92.9993479 18.7450746,92.5 18.1222175,92.5 L6.87778246,92.5 C6.26273108,92.5 5.75,93.0036797 5.75,93.625 Z M5.75,99.625 C5.75,100.250652 6.2549254,100.75 6.87778246,100.75 L18.1222175,100.75 C18.7372689,100.75 19.25,100.24632 19.25,99.625 C19.25,98.9993479 18.7450746,98.5 18.1222175,98.5 L6.87778246,98.5 C6.26273108,98.5 5.75,99.0036797 5.75,99.625 Z M5.75,105.625 C5.75,106.250652 6.2521838,106.75 6.87165891,106.75 L13.6283411,106.75 C14.2403342,106.75 14.75,106.24632 14.75,105.625 C14.75,104.999348 14.2478162,104.5 13.6283411,104.5 L6.87165891,104.5 C6.25966585,104.5 5.75,105.00368 5.75,105.625 Z" id="Combined-Shape-Copy-6" fill="#2598F0"></path>
            <path d="M18.1768295,220.004424 C17.0301382,220.004424 15.2888664,220.768885 14.0006083,222.297806 C13.5617512,221.844793 12.9954839,221.689069 12.4150599,221.689069 C11.8346359,221.689069 11.2683687,221.844793 10.9710783,222.297806 C9.66866359,220.924608 8.08311521,220.004424 6.79485714,220.004424 C5.6481659,220.004424 4.78460829,220.768885 4.78460829,221.986359 C4.78460829,224.591189 6.79485714,225.497217 7.67257143,225.497217 L17.4689954,225.497217 C18.332553,225.497217 20.3569585,224.577032 20.3569585,221.986359 C20.201235,220.924608 19.3235207,220.004424 18.1768295,220.004424 M9.8243871,223.982452 L7.65841475,223.982452 C7.51684793,223.826728 6.65329032,223.217991 6.5117235,222.297806 C6.5117235,222.142083 6.5117235,221.689069 6.79485714,221.689069 C7.51684793,221.689069 8.80510599,222.297806 9.96595392,223.529438 C9.96595392,223.685161 9.96595392,223.826728 9.8243871,223.982452 M18.4599631,222.297806 C18.3183963,223.062267 17.4548387,223.826728 17.1575484,223.826728 L15.1472995,223.826728 C15.1472995,223.826728 15.0057327,223.826728 15.0057327,223.671005 L15.0057327,223.515281 C16.0108571,222.297806 17.3132719,221.674912 18.1768295,221.674912 C18.4599631,221.844793 18.4599631,222.15624 18.4599631,222.297806 M21.4894931,226.431558 L3.48219355,226.431558 C2.61863594,226.431558 1.89664516,227.196018 1.89664516,228.116203 L1.89664516,230.862599 C1.89664516,231.174046 2.03821198,231.315613 2.3355023,231.315613 L22.6644977,231.315613 C22.9476313,231.315613 23.1033548,231.159889 23.1033548,230.862599 L23.1033548,228.116203 C23.0750415,227.196018 22.3530507,226.431558 21.4894931,226.431558 M10.5463779,232.391521 L3.49635023,232.391521 C3.21321659,232.391521 3.05749309,232.547244 3.05749309,232.844535 L3.05749309,242.173788 C3.05749309,243.093972 3.77948387,243.858433 4.64304147,243.858433 L10.4048111,243.858433 C10.6879447,243.858433 10.8436682,243.70271 10.8436682,243.405419 L10.8436682,232.702968 C10.9710783,232.547244 10.8295115,232.391521 10.5463779,232.391521 M21.4894931,232.391521 L14.4394654,232.391521 C14.1563318,232.391521 13.8590415,232.547244 13.8590415,232.844535 L13.8590415,243.546986 C13.8590415,243.858433 14.0006083,244 14.2978986,244 L20.201235,244 C21.0647926,244 21.7867834,243.235539 21.7867834,242.315355 L21.7867834,232.830378 C21.9283502,232.547244 21.7726267,232.391521 21.4894931,232.391521" id="Shape-Copy-2" fill="#FF4949" fill-rule="nonzero"></path>
            <path d="M12.1211906,264.001179 C13.1408962,263.984441 13.8452982,264.145126 14.4557798,264.530101 C14.6637461,264.694134 14.8717124,264.854819 15.0796786,265.018851 C15.4285253,264.941856 15.7471833,264.794562 16.1496987,264.724262 C17.7765317,264.446411 19.1953984,266.003047 18.8532603,267.673502 C18.5849167,268.972373 17.9140578,270.157425 16.9849181,270.800165 L17.0050439,270.840336 C17.8469719,271.104797 18.6050425,271.724104 19.2624843,272.206159 C21.5534677,273.8967 23.0662546,276.306975 23.7941366,279.57089 C23.9618513,280.317406 23.9886857,281.110788 23.9886857,282.011294 C23.9886857,284.997358 23.0897347,287.086263 20.8356486,287.792608 C20.1547267,288.006855 19.1752726,287.949945 18.2863845,287.949945 L7.58618401,287.949945 C5.46291538,287.949945 4.23524347,288.043678 2.99415439,287.129782 C1.37402998,285.93134 0.622667938,282.858238 1.20966953,279.922389 C1.80002542,276.969801 3.09478323,274.365364 5.04027421,272.79199 C5.62392153,272.319978 6.21092311,271.84127 6.8683649,271.442905 C7.2574631,271.242049 7.6465613,271.037845 8.0356595,270.836989 C7.8344018,270.622742 7.63314411,270.408495 7.43188644,270.190901 C6.92874222,269.548161 6.52958114,268.80834 6.30484336,267.884401 C5.90903659,266.267508 6.72413022,265.21636 7.89813342,264.858166 C8.15976841,264.777824 8.55222091,264.664005 8.92790192,264.720914 C9.33377158,264.784519 9.64572102,264.955247 9.99792198,264.995418 C10.3501229,264.613791 10.8834558,264.309159 11.4369145,264.135084 C11.6683608,264.091565 11.8964529,264.048046 12.1211906,264.001179 L12.1211906,264.001179 Z M11.4141244,281.815268 L11.4141244,281.815268 L11.4141244,283.001192 C11.4293285,283.328082 11.5300561,283.571348 11.716307,283.730992 C11.9025579,283.890635 12.1629291,283.970457 12.4974206,283.970457 C13.1740056,283.970457 13.5275022,283.647369 13.5579106,283.001192 L13.5579106,281.792462 L15.7473092,281.803865 C15.9449633,281.788661 16.1008059,281.71454 16.2148371,281.581504 C16.3288682,281.448468 16.3934859,281.283122 16.4086901,281.085468 C16.3934859,280.895416 16.3288682,280.731972 16.2148371,280.595134 C16.1008059,280.458297 15.9449633,280.382276 15.7473092,280.367072 L13.5579106,280.367072 L13.5579106,279.671482 L15.7359061,279.660079 C15.9335601,279.644875 16.0913033,279.568854 16.2091355,279.432016 C16.3269677,279.295179 16.3934859,279.127933 16.4086901,278.930279 C16.3934859,278.740227 16.3288682,278.584385 16.2148371,278.462751 C16.1008059,278.341118 15.9449633,278.272699 15.7473092,278.257495 L14.0710509,278.257495 L15.8385342,275.383909 C15.9905757,275.186255 16.0665965,274.977198 16.0665965,274.756738 C16.0437903,274.597094 16.0076804,274.467859 15.9582669,274.369032 C15.9088534,274.270205 15.8480368,274.194184 15.775817,274.14097 C15.7035973,274.087755 15.6199744,274.049745 15.5249484,274.026938 C15.4299224,274.004132 15.3253939,273.988928 15.2113627,273.981326 C15.0289128,274.004132 14.8654681,274.064949 14.7210286,274.163776 C14.5765891,274.262603 14.4587569,274.376634 14.3675319,274.505869 L12.4632112,277.698742 L10.7299373,274.528676 C10.6387123,274.39944 10.5208801,274.279707 10.3764406,274.169477 C10.2320011,274.059247 10.0685564,273.99653 9.88610655,273.981326 C9.57442132,274.019336 9.36156312,274.10486 9.24753193,274.237896 C9.13350075,274.370932 9.05747997,274.54388 9.01946957,274.756738 C9.0118675,274.923984 9.04227581,275.077926 9.11069452,275.218564 C9.17911323,275.359203 9.25133297,275.475134 9.32735376,275.566359 L10.8553716,278.257495 L9.21332258,278.257495 C9.00806646,278.272699 8.85032332,278.341118 8.74009318,278.462751 C8.62986304,278.584385 8.56334485,278.740227 8.54053862,278.930279 C8.56334485,279.127933 8.62986304,279.291378 8.74009318,279.420613 C8.85032332,279.549849 9.00806646,279.622068 9.21332258,279.637272 L11.4141244,279.648676 L11.4141244,280.367072 L9.21332258,280.367072 C9.00806646,280.382276 8.85032332,280.450695 8.74009318,280.572328 C8.62986304,280.693961 8.56334485,280.849804 8.54053862,281.039856 C8.56334485,281.229908 8.62986304,281.402855 8.74009318,281.558698 C8.85032332,281.71454 9.00806646,281.800064 9.21332258,281.815268 L11.4141244,281.815268 Z" id="Combined-Shape-Copy-7" fill="#2598F0" fill-rule="nonzero"></path>
            <path d="M0.5,618.992017 C0.5,617.891856 1.40017617,617 2.49201702,617 L9.50798298,617 C10.6081436,617 11.5,617.900176 11.5,618.992017 L11.5,626.007983 C11.5,627.108144 10.5998238,628 9.50798298,628 L2.49201702,628 C1.3918564,628 0.5,627.099824 0.5,626.007983 L0.5,618.992017 Z M0.5,631.992017 C0.5,630.891856 1.40017617,630 2.49201702,630 L9.50798298,630 C10.6081436,630 11.5,630.900176 11.5,631.992017 L11.5,639.007983 C11.5,640.108144 10.5998238,641 9.50798298,641 L2.49201702,641 C1.3918564,641 0.5,640.099824 0.5,639.007983 L0.5,631.992017 Z M13.5,631.992017 C13.5,630.891856 14.4001762,630 15.492017,630 L22.507983,630 C23.6081436,630 24.5,630.900176 24.5,631.992017 L24.5,639.007983 C24.5,640.108144 23.5998238,641 22.507983,641 L15.492017,641 C14.3918564,641 13.5,640.099824 13.5,639.007983 L13.5,631.992017 Z M15,631.992017 L15,639.007983 C15,639.275236 15.2241175,639.5 15.492017,639.5 L22.507983,639.5 C22.7752359,639.5 23,639.275882 23,639.007983 L23,631.992017 C23,631.724764 22.7758825,631.5 22.507983,631.5 L15.492017,631.5 C15.2247641,631.5 15,631.724118 15,631.992017 Z M13.5,618.992017 C13.5,617.891856 14.4001762,617 15.492017,617 L22.507983,617 C23.6081436,617 24.5,617.900176 24.5,618.992017 L24.5,626.007983 C24.5,627.108144 23.5998238,628 22.507983,628 L15.492017,628 C14.3918564,628 13.5,627.099824 13.5,626.007983 L13.5,618.992017 Z" id="Combined-Shape-Copy-24" fill="#FFC021"></path>
            <path d="M0.5,662.992017 C0.5,661.891856 1.40017617,661 2.49201702,661 L9.50798298,661 C10.6081436,661 11.5,661.900176 11.5,662.992017 L11.5,670.007983 C11.5,671.108144 10.5998238,672 9.50798298,672 L2.49201702,672 C1.3918564,672 0.5,671.099824 0.5,670.007983 L0.5,662.992017 Z M0.5,675.992017 C0.5,674.891856 1.40017617,674 2.49201702,674 L9.50798298,674 C10.6081436,674 11.5,674.900176 11.5,675.992017 L11.5,683.007983 C11.5,684.108144 10.5998238,685 9.50798298,685 L2.49201702,685 C1.3918564,685 0.5,684.099824 0.5,683.007983 L0.5,675.992017 Z M13.5,675.992017 C13.5,674.891856 14.4001762,674 15.492017,674 L22.507983,674 C23.6081436,674 24.5,674.900176 24.5,675.992017 L24.5,683.007983 C24.5,684.108144 23.5998238,685 22.507983,685 L15.492017,685 C14.3918564,685 13.5,684.099824 13.5,683.007983 L13.5,675.992017 Z M15,675.992017 L15,683.007983 C15,683.275236 15.2241175,683.5 15.492017,683.5 L22.507983,683.5 C22.7752359,683.5 23,683.275882 23,683.007983 L23,675.992017 C23,675.724764 22.7758825,675.5 22.507983,675.5 L15.492017,675.5 C15.2247641,675.5 15,675.724118 15,675.992017 Z M13.5,662.992017 C13.5,661.891856 14.4001762,661 15.492017,661 L22.507983,661 C23.6081436,661 24.5,661.900176 24.5,662.992017 L24.5,670.007983 C24.5,671.108144 23.5998238,672 22.507983,672 L15.492017,672 C14.3918564,672 13.5,671.099824 13.5,670.007983 L13.5,662.992017 Z" id="Combined-Shape-Copy-26" fill="#FF4949" transform="translate(12.500000, 673.000000) scale(-1, 1) translate(-12.500000, -673.000000) "></path>
            <path d="M0.5,706.992017 C0.5,705.891856 1.40017617,705 2.49201702,705 L9.50798298,705 C10.6081436,705 11.5,705.900176 11.5,706.992017 L11.5,714.007983 C11.5,715.108144 10.5998238,716 9.50798298,716 L2.49201702,716 C1.3918564,716 0.5,715.099824 0.5,714.007983 L0.5,706.992017 Z M0.5,719.992017 C0.5,718.891856 1.40017617,718 2.49201702,718 L9.50798298,718 C10.6081436,718 11.5,718.900176 11.5,719.992017 L11.5,727.007983 C11.5,728.108144 10.5998238,729 9.50798298,729 L2.49201702,729 C1.3918564,729 0.5,728.099824 0.5,727.007983 L0.5,719.992017 Z M13.5,719.992017 C13.5,718.891856 14.4001762,718 15.492017,718 L22.507983,718 C23.6081436,718 24.5,718.900176 24.5,719.992017 L24.5,727.007983 C24.5,728.108144 23.5998238,729 22.507983,729 L15.492017,729 C14.3918564,729 13.5,728.099824 13.5,727.007983 L13.5,719.992017 Z M15,719.992017 L15,727.007983 C15,727.275236 15.2241175,727.5 15.492017,727.5 L22.507983,727.5 C22.7752359,727.5 23,727.275882 23,727.007983 L23,719.992017 C23,719.724764 22.7758825,719.5 22.507983,719.5 L15.492017,719.5 C15.2247641,719.5 15,719.724118 15,719.992017 Z M13.5,706.992017 C13.5,705.891856 14.4001762,705 15.492017,705 L22.507983,705 C23.6081436,705 24.5,705.900176 24.5,706.992017 L24.5,714.007983 C24.5,715.108144 23.5998238,716 22.507983,716 L15.492017,716 C14.3918564,716 13.5,715.099824 13.5,714.007983 L13.5,706.992017 Z" id="Combined-Shape-Copy-27" fill="#2598F0" transform="translate(12.500000, 717.000000) scale(-1, -1) translate(-12.500000, -717.000000) "></path>
            <path d="M0.5,750.992017 C0.5,749.891856 1.40017617,749 2.49201702,749 L9.50798298,749 C10.6081436,749 11.5,749.900176 11.5,750.992017 L11.5,758.007983 C11.5,759.108144 10.5998238,760 9.50798298,760 L2.49201702,760 C1.3918564,760 0.5,759.099824 0.5,758.007983 L0.5,750.992017 Z M0.5,763.992017 C0.5,762.891856 1.40017617,762 2.49201702,762 L9.50798298,762 C10.6081436,762 11.5,762.900176 11.5,763.992017 L11.5,771.007983 C11.5,772.108144 10.5998238,773 9.50798298,773 L2.49201702,773 C1.3918564,773 0.5,772.099824 0.5,771.007983 L0.5,763.992017 Z M13.5,763.992017 C13.5,762.891856 14.4001762,762 15.492017,762 L22.507983,762 C23.6081436,762 24.5,762.900176 24.5,763.992017 L24.5,771.007983 C24.5,772.108144 23.5998238,773 22.507983,773 L15.492017,773 C14.3918564,773 13.5,772.099824 13.5,771.007983 L13.5,763.992017 Z M15,763.992017 L15,771.007983 C15,771.275236 15.2241175,771.5 15.492017,771.5 L22.507983,771.5 C22.7752359,771.5 23,771.275882 23,771.007983 L23,763.992017 C23,763.724764 22.7758825,763.5 22.507983,763.5 L15.492017,763.5 C15.2247641,763.5 15,763.724118 15,763.992017 Z M13.5,750.992017 C13.5,749.891856 14.4001762,749 15.492017,749 L22.507983,749 C23.6081436,749 24.5,749.900176 24.5,750.992017 L24.5,758.007983 C24.5,759.108144 23.5998238,760 22.507983,760 L15.492017,760 C14.3918564,760 13.5,759.099824 13.5,758.007983 L13.5,750.992017 Z" id="Combined-Shape-Copy-28" fill="#00C940" transform="translate(12.500000, 761.000000) scale(1, -1) translate(-12.500000, -761.000000) "></path>
            <path d="M0.5,807.992017 C0.5,806.891856 1.40017617,806 2.49201702,806 L9.50798298,806 C10.6081436,806 11.5,806.900176 11.5,807.992017 L11.5,815.007983 C11.5,816.108144 10.5998238,817 9.50798298,817 L2.49201702,817 C1.3918564,817 0.5,816.099824 0.5,815.007983 L0.5,807.992017 Z M13.5,807.992017 C13.5,806.891856 14.4001762,806 15.492017,806 L22.507983,806 C23.6081436,806 24.5,806.900176 24.5,807.992017 L24.5,815.007983 C24.5,816.108144 23.5998238,817 22.507983,817 L15.492017,817 C14.3918564,817 13.5,816.099824 13.5,815.007983 L13.5,807.992017 Z M15,807.992017 L15,815.007983 C15,815.275236 15.2241175,815.5 15.492017,815.5 L22.507983,815.5 C22.7752359,815.5 23,815.275882 23,815.007983 L23,807.992017 C23,807.724764 22.7758825,807.5 22.507983,807.5 L15.492017,807.5 C15.2247641,807.5 15,807.724118 15,807.992017 Z M0.5,794.992017 C0.5,793.891856 1.40017617,793 2.49201702,793 L9.50798298,793 C10.6081436,793 11.5,793.900176 11.5,794.992017 L11.5,802.007983 C11.5,803.108144 10.5998238,804 9.50798298,804 L2.49201702,804 C1.3918564,804 0.5,803.099824 0.5,802.007983 L0.5,794.992017 Z M2,794.992017 L2,802.007983 C2,802.275236 2.22411753,802.5 2.49201702,802.5 L9.50798298,802.5 C9.7752359,802.5 10,802.275882 10,802.007983 L10,794.992017 C10,794.724764 9.77588247,794.5 9.50798298,794.5 L2.49201702,794.5 C2.2247641,794.5 2,794.724118 2,794.992017 Z M13.5,794.992017 C13.5,793.891856 14.4001762,793 15.492017,793 L22.507983,793 C23.6081436,793 24.5,793.900176 24.5,794.992017 L24.5,802.007983 C24.5,803.108144 23.5998238,804 22.507983,804 L15.492017,804 C14.3918564,804 13.5,803.099824 13.5,802.007983 L13.5,794.992017 Z" id="Combined-Shape-Copy-29" fill="#FFC021"></path>
            <path d="M0.5,851.992017 C0.5,850.891856 1.40017617,850 2.49201702,850 L9.50798298,850 C10.6081436,850 11.5,850.900176 11.5,851.992017 L11.5,859.007983 C11.5,860.108144 10.5998238,861 9.50798298,861 L2.49201702,861 C1.3918564,861 0.5,860.099824 0.5,859.007983 L0.5,851.992017 Z M13.5,851.992017 C13.5,850.891856 14.4001762,850 15.492017,850 L22.507983,850 C23.6081436,850 24.5,850.900176 24.5,851.992017 L24.5,859.007983 C24.5,860.108144 23.5998238,861 22.507983,861 L15.492017,861 C14.3918564,861 13.5,860.099824 13.5,859.007983 L13.5,851.992017 Z M15,851.992017 L15,859.007983 C15,859.275236 15.2241175,859.5 15.492017,859.5 L22.507983,859.5 C22.7752359,859.5 23,859.275882 23,859.007983 L23,851.992017 C23,851.724764 22.7758825,851.5 22.507983,851.5 L15.492017,851.5 C15.2247641,851.5 15,851.724118 15,851.992017 Z M0.5,838.992017 C0.5,837.891856 1.40017617,837 2.49201702,837 L9.50798298,837 C10.6081436,837 11.5,837.900176 11.5,838.992017 L11.5,846.007983 C11.5,847.108144 10.5998238,848 9.50798298,848 L2.49201702,848 C1.3918564,848 0.5,847.099824 0.5,846.007983 L0.5,838.992017 Z M2,838.992017 L2,846.007983 C2,846.275236 2.22411753,846.5 2.49201702,846.5 L9.50798298,846.5 C9.7752359,846.5 10,846.275882 10,846.007983 L10,838.992017 C10,838.724764 9.77588247,838.5 9.50798298,838.5 L2.49201702,838.5 C2.2247641,838.5 2,838.724118 2,838.992017 Z M13.5,838.992017 C13.5,837.891856 14.4001762,837 15.492017,837 L22.507983,837 C23.6081436,837 24.5,837.900176 24.5,838.992017 L24.5,846.007983 C24.5,847.108144 23.5998238,848 22.507983,848 L15.492017,848 C14.3918564,848 13.5,847.099824 13.5,846.007983 L13.5,838.992017 Z" id="Combined-Shape-Copy-30" fill="#FF4949" transform="translate(12.500000, 849.000000) scale(-1, 1) translate(-12.500000, -849.000000) "></path>
            <path d="M12.5,402.649351 C17.6133118,402.649351 21.7727273,406.540793 21.7727273,411.324009 C21.7727273,416.107892 17.6133118,420 12.5,420 C7.38740003,420 3.22727273,416.108558 3.22727273,411.324009 C3.22727273,406.540793 7.38740003,402.649351 12.5,402.649351 Z M21.7727273,397.332001 L21.7727273,400.939727 C21.7727273,401.651682 21.4495415,402.270396 20.8102885,402.779221 L19.4321218,403.830836 C19.2997153,403.932068 19.1402579,403.981352 18.9822244,403.981352 C18.7757841,403.981352 18.5707676,403.897436 18.4305306,403.736264 C18.1820904,403.451215 18.2276496,403.031635 18.532327,402.799867 L19.8991039,401.75691 C20.3013065,401.436563 20.3490013,401.136197 20.3490013,400.940393 L20.3490013,397.332001 L16.0628742,397.332001 L16.0628742,401.439227 C16.0628742,401.80686 15.7439596,402.105228 15.3510113,402.105228 C14.9580629,402.105228 14.6391483,401.80686 14.6391483,401.439227 L14.6391483,397.332001 L10.5459361,397.332001 L10.5459361,401.439227 C10.5459361,401.80686 10.2277333,402.105228 9.83407312,402.105228 C9.44112474,402.105228 9.12221014,401.80686 9.12221014,401.439227 L9.12221012,397.332001 L4.65099871,397.332001 L4.65099871,400.939727 C4.65099871,401.102231 4.84035427,401.558442 5.09804867,401.75358 L6.46767306,402.799201 C6.77235042,403.031635 6.81790965,403.451215 6.56946947,403.735598 C6.32174115,404.021312 5.87326746,404.063936 5.56787824,403.831502 L4.2011013,402.788545 C3.59245843,402.328338 3.22727273,401.487179 3.22727273,400.939727 L3.22727273,397.332001 C3.22727273,396.598069 3.86581381,396 4.65099871,396 L20.3497132,396 C21.1341862,396 21.7727273,396.598735 21.7727273,397.332001 Z M14.0910138,411.906094 L16.6579917,410.160506 L13.4845065,410.160506 L12.5035593,407.335331 L11.5247477,410.160506 L8.34983877,410.160506 L10.9189523,411.906094 L9.93729325,414.730603 L12.5042712,412.983683 L15.071961,414.728605 L14.0910138,411.906094 Z" id="Shape-Copy-5" fill="#2598F0"></path>
            <g id="Group-Copy-2" transform="translate(0.500000, 352.000000)" fill="#00C940">
                <path d="M7.5,5.5 C7.5,7.70535329 9.2932547,9.5 11.5,9.5 C13.7053533,9.5 15.5,7.7067453 15.5,5.5 C15.5,3.29464671 13.7067453,1.5 11.5,1.5 C9.29464671,1.5 7.5,3.2932547 7.5,5.5 Z M6,5.5 C6,2.46243388 8.46861471,0 11.5,0 C14.5375661,0 17,2.46861471 17,5.5 C17,8.53756612 14.5313853,11 11.5,11 C8.46243388,11 6,8.53138529 6,5.5 Z" id="Rectangle-20-Copy" fill-rule="nonzero"></path>
                <path d="M1.69624902,5.99477117 C1.75408028,5.44537422 2.25626735,5 2.79276489,5 L20.8091587,5 C21.3569164,5 21.8484276,5.45092539 21.9056745,5.99477117 L23.5907068,22.0025781 C23.7068274,23.1057238 22.9039356,24 21.7960152,24 L1.80590837,24 C0.698606941,24 -0.105256603,23.1090746 0.0112167141,22.0025781 L1.69624902,5.99477117 Z M13.7275491,11.004302 C12.8541121,11.004302 12.1069396,11.5549659 11.8020274,12.3341293 C11.4971232,11.5549659 10.7499749,11.0042938 9.87652989,11.0042938 C8.73206975,11.0042938 7.80432,11.9496392 7.80432,13.1157685 C7.80432,13.7728308 8.1039204,14.3478261 8.56074382,14.7739213 L11.8020354,17.9952127 L13.776324,16.0600047 C14.099319,15.7604195 14.4012685,15.4660082 14.6657933,15.1881387 L15.0387337,14.8225758 C15.4994239,14.3971798 15.799759,13.7749777 15.799759,13.1157685 C15.799759,11.949631 14.8719931,11.004302 13.7275491,11.004302 L13.7275491,11.004302 Z" id="Combined-Shape-Copy-4"></path>
            </g>
            <path d="M22.2764678,450.221574 C21.986628,450.018686 21.6098362,449.410023 22.0735799,448.917295 C22.5373237,448.424567 22.5373237,447.178256 21.957644,446.540608 C21.1171084,445.584137 19.8707971,446.540608 19.8707971,444.830553 C19.8707971,443.120498 18.3056619,440.656859 11.6103615,440.367019 C11.6103615,440.367019 11.4944255,440.367019 11.2915376,440.396003 L11.2915376,440.396003 C10.0162423,439.816324 8.27720323,440.019212 8.04533135,440.106164 C7.46565166,440.280068 5.55270867,439.700388 4.7411571,440.367019 C3.92960553,441.004667 3.37890982,441.787235 4.01655748,442.946594 C4.19046139,443.265418 4.30639733,443.555258 4.39334928,443.816114 C3.43687779,445.555153 3.52382974,447.06232 3.49484576,447.613016 C3.49484576,447.613016 3.49484576,447.728952 3.52382974,447.931839 C3.55281373,448.163711 3.92960553,448.395583 3.92960553,448.482535 C3.95858951,448.714407 3.95858951,449.467991 3.37890982,450.308526 L3.08906997,450.685318 C2.94415005,450.91719 2.79923012,451.091094 2.6543102,451.236014 L2.19056645,451.844677 C2.19056645,451.873661 2.16158246,451.931629 2.16158246,451.960613 C2.16158246,452.366389 2.74126215,452.250453 3.06008599,452.540293 C3.34992583,452.830133 3.06008599,453.438797 3.06008599,453.438797 C3.06008599,453.438797 2.77024614,453.641684 2.77024614,453.931524 C2.77024614,454.221364 3.26297388,454.540188 3.26297388,454.540188 C3.26297388,454.540188 2.85719809,454.540188 3.26297388,455.438692 C3.37890982,455.525643 3.46586177,455.612595 3.46586177,455.699547 C3.49484576,455.902435 3.46586177,456.047355 3.34992583,456.250243 C3.32094185,456.308211 3.26297388,456.424147 3.23398989,456.511099 C3.17602192,457.090779 3.29195786,457.351635 3.66874966,457.61249 C4.07452545,457.90233 5.8715325,457.90233 6.85698798,457.815378 C7.84244346,457.728426 8.85688292,457.46757 9.05977082,458.366074 C9.26265871,459.264578 8.24821924,459.612385 7.87142744,459.815273 C7.46565166,460.018161 5.63966062,461.264472 5.8715325,461.728216 C7.81345947,465.728006 23.1749714,463.815063 18.4795658,460.829713 C18.4795658,460.829713 16.276783,459.728321 15.7840553,459.032706 C15.2913275,458.33709 15.4072635,457.75741 15.6391353,457.554522 C15.9869432,457.264683 16.4506869,456.887891 16.9434147,456.887891 C17.4361424,456.887891 18.0158221,456.395163 17.8419182,455.757515 C17.7839502,455.554627 18.0448061,455.032916 18.4215979,455.380724 C18.9722936,455.844467 19.5229893,456.395163 20.6243807,454.887996 C20.6243807,454.887996 21.2330444,454.134412 20.9432045,453.293877 C20.9432045,453.264893 20.9721885,453.235909 21.0591405,453.293877 C21.0591405,453.293877 21.8417081,453.380829 22.3344358,452.685213 C23.3488753,451.293982 22.5663077,450.395478 22.2764678,450.221574 Z" id="Shape-Copy-6" fill="#FF4949" fill-rule="nonzero"></path>
            <g id="Group-2-Copy" transform="translate(0.500000, 484.000000)">
                <rect id="Rectangle-2-Copy" fill="#FFC020" x="0" y="7" width="24" height="17.2333529"></rect>
                <use id="Rectangle-3-Copy" stroke="#FFC020" mask="url(#mask-2)" stroke-width="2" fill="#FFFFFF" xlink:href="#path-1"></use>
                <polygon id="Rectangle-2-Copy-2" fill="#FFC020" points="0 11 12 15.087938 24 11 24 21.4622218 5.30529107 20.3885179"></polygon>
                <path d="M13.9232291,4.00000807 C13.0497921,4.00000807 12.3026196,4.54043189 11.9977074,5.30510595 C11.6928032,4.54043189 10.9456549,4 10.0722099,4 C8.92774975,4 8,4.92776589 8,6.07220989 C8,6.71705348 8.2996004,7.28135621 8.75642381,7.69952775 L11.9977154,10.8609162 L13.972004,8.96169526 C14.294999,8.66768113 14.5969485,8.3787447 14.8614733,8.10604238 L15.2344137,7.7472775 C15.6951039,7.32979213 15.995439,6.71916044 15.995439,6.07220989 C15.995439,4.92775782 15.0676731,4.00000807 13.9232291,4.00000807 L13.9232291,4.00000807 Z" id="Shape-Copy-4" fill="#FFC020" fill-rule="nonzero"></path>
            </g>
            <path d="M20.6666667,546.370583 L20.6666667,544.333333 C20.6666667,542.77084 19.3974039,541.5 17.8348856,541.5 L13,541.5 L13,546.370583 C14.6037544,546.611825 15.8333333,547.995654 15.8333333,549.666667 C15.8333333,551.507616 14.3409492,553 12.5,553 C10.6590508,553 9.16666667,551.507616 9.16666667,549.666667 C9.16666667,547.995654 10.3962456,546.611825 12,546.370583 L12,541.5 L7.16511443,541.5 C5.60193882,541.5 4.33333333,542.768896 4.33333333,544.333333 L4.33333333,546.370583 C5.9370877,546.611825 7.16666667,547.995654 7.16666667,549.666667 C7.16666667,551.507616 5.6742825,553 3.83333333,553 C1.99238417,553 0.5,551.507616 0.5,549.666667 C0.5,547.995654 1.72957897,546.611825 3.33333333,546.370583 L3.33333333,544.333333 C3.33333333,542.216662 5.04960284,540.5 7.16511443,540.5 L12,540.5 L12,538.333333 L13,538.333333 L13,540.5 L17.8348856,540.5 C19.9499668,540.5 21.6666667,542.218833 21.6666667,544.333333 L21.6666667,546.370583 C23.270421,546.611825 24.5,547.995654 24.5,549.666667 C24.5,551.507616 23.0076158,553 21.1666667,553 C19.3257175,553 17.8333333,551.507616 17.8333333,549.666667 C17.8333333,547.995654 19.0629123,546.611825 20.6666667,546.370583 Z M12.5,538.333333 C9.92267117,538.333333 7.83333333,536.243995 7.83333333,533.666667 C7.83333333,531.089338 9.92267117,529 12.5,529 C15.0773288,529 17.1666667,531.089338 17.1666667,533.666667 C17.1666667,536.243995 15.0773288,538.333333 12.5,538.333333 Z" id="Combined-Shape-Copy-11" fill="#FF4949"></path>
            <path d="M12.5058599,592.792635 L12.5058599,595 L12.503516,595 L19.1088485,595 C19.612804,595 20.0347202,594.699742 20.1823909,594.247009 C20.3347495,593.794276 20.1917668,593.280554 19.7909464,593.020174 C19.5823323,592.888811 19.3080867,592.797326 19.0643129,592.797326 C16.8758192,592.783256 14.6896678,592.792628 12.5058587,592.792634 Z M12.5011745,592.792634 C10.317365,592.792628 8.13121315,592.783256 5.94271902,592.797326 C5.69894521,592.797326 5.42469968,592.888811 5.21608556,593.020174 C4.81526516,593.280554 4.67228245,593.794276 4.82464108,594.247009 C4.97231175,594.699742 5.39422795,595 5.89818342,595 L12.503516,595 Z M12.501172,575 L12.501172,575 L12.501172,591.326531 L5.64972165,591.326531 C5.64972165,591.326531 4.99106358,591.425053 4.77541752,590.683791 L2.45253443,582.77856 C2.31658365,582.818438 2.17360094,582.83955 2.02358629,582.83955 C1.18209786,582.83955 0.5,582.156932 0.5,581.314802 C0.5,580.472672 1.18444184,579.790054 2.02593027,579.790054 C2.86741869,579.790054 3.54951655,580.472672 3.54951655,581.314802 C3.54951655,581.591602 3.47450923,581.851982 3.34559039,582.07483 L7.67023147,584.561342 C7.67023147,584.561342 8.01714035,584.779498 8.18825081,584.472203 L11.7886024,577.871217 C11.3057427,577.615529 10.9775857,577.108844 10.9775857,576.524748 C10.9775857,575.682618 11.6596836,575 12.501172,575 Z M12.501172,575 C13.3426604,575 14.0247583,575.682618 14.0247583,576.524748 C14.0247583,577.108844 13.6966012,577.615529 13.2137416,577.871217 L16.8140932,584.472203 C16.9852036,584.779498 17.3321125,584.561342 17.3321125,584.561342 L21.6567536,582.07483 C21.5278347,581.851982 21.4528274,581.591602 21.4528274,581.314802 C21.4528274,580.472672 22.1349253,579.790054 22.9764137,579.790054 C23.8179021,579.790054 24.5,580.472672 24.5,581.314802 C24.5,582.156932 23.8179021,582.83955 22.9764137,582.83955 C22.8263991,582.83955 22.6834163,582.818438 22.5474656,582.77856 L20.2245825,590.683791 C20.0089364,591.425053 19.3502783,591.326531 19.3502783,591.326531 L12.501172,591.326531 L12.501172,575 L12.501172,575 Z" id="Combined-Shape-Copy-12" fill="#2598F0" fill-rule="nonzero"></path>
            <g id="病历" transform="translate(0.500000, 0.000000)">
                <rect id="Rectangle-2" fill="#2598F0" x="0" y="2" width="24" height="22" rx="2"></rect>
                <rect id="Rectangle-3" fill="#2598F0" x="6" y="0" width="12" height="5" rx="1"></rect>
                <path d="M11,11.5 L7.99539757,11.5 C7.4556644,11.5 7,11.9477153 7,12.5 C7,13.0561352 7.44565467,13.5 7.99539757,13.5 L11,13.5 L11,16.5046024 C11,17.0443356 11.4477153,17.5 12,17.5 C12.5561352,17.5 13,17.0543453 13,16.5046024 L13,13.5 L16.0046024,13.5 C16.5443356,13.5 17,13.0522847 17,12.5 C17,11.9438648 16.5543453,11.5 16.0046024,11.5 L13,11.5 L13,8.49539757 C13,7.9556644 12.5522847,7.5 12,7.5 C11.4438648,7.5 11,7.94565467 11,8.49539757 L11,11.5 Z" id="Combined-Shape" fill="#FFFFFF"></path>
            </g>
            <g id="项目-(1)" transform="translate(0.500000, 46.000000)" fill-rule="nonzero" fill="#FFC021">
                <g id="Group">
                    <path d="M8.30805501,8.33096927 L8.30805501,11.8108747 C8.30805501,11.9621749 8.4589391,12.1134752 8.60982318,12.1134752 L15.7013752,12.1134752 C15.8522593,12.1134752 16.0031434,11.9621749 16.0031434,11.8108747 L16.0031434,8.33096927 L23.8491159,8.33096927 L18.1155206,0.917257683 C17.6628684,0.312056738 16.9084479,0.00945626478 16.1540275,0.00945626478 L7.55363458,0.00945626478 C6.79921415,0.00945626478 6.04479371,0.312056738 5.59214145,0.917257683 L0.0094302554,8.33096927 L8.30805501,8.33096927 Z M8.4589391,2.73286052 L15.248723,2.73286052 L15.248723,3.79196217 L8.4589391,3.79196217 L8.4589391,2.73286052 L8.4589391,2.73286052 Z M7.40275049,4.69976359 L16.3049116,4.69976359 L16.3049116,5.75886525 L7.40275049,5.75886525 L7.40275049,4.69976359 Z" id="Shape"></path>
                    <path d="M17.8137525,10.2978723 L17.8137525,12.7186761 C17.8137525,13.4751773 17.2102161,14.0803783 16.4557957,14.0803783 L7.85540275,14.0803783 C7.10098232,14.0803783 6.49744597,13.4751773 6.49744597,12.7186761 L6.49744597,10.2978723 L0.0094302554,10.2978723 L0.0094302554,17.2576832 C0.0094302554,18.7706856 1.21650295,19.9810875 2.72534381,19.9810875 L21.2840864,19.9810875 C22.7929273,19.9810875 24,18.7706856 24,17.2576832 L24,10.2978723 L17.8137525,10.2978723 Z" id="Shape"></path>
                </g>
            </g>
        </g>
    </g>
</svg>