<?xml version="1.0" encoding="UTF-8" standalone="no"?>
<svg width="24px" height="330px" viewBox="0 0 24 330" version="1.1" xmlns="http://www.w3.org/2000/svg" xmlns:xlink="http://www.w3.org/1999/xlink">
    <!-- Generator: Sketch 42 (36781) - http://www.bohemiancoding.com/sketch -->
    <title>路易斯</title>
    <desc>Created with Sketch.</desc>
    <defs>
        <path d="M11.5238095,0 L16.7619048,0 C19.6548249,0 22,2.35106163 22,5.23809524 L22,10.4761905 L11.5238095,10.4761905 L11.5238095,0 Z" id="path-1"></path>
        <mask id="mask-2" maskContentUnits="userSpaceOnUse" maskUnits="objectBoundingBox" x="0" y="0" width="10.4761905" height="10.4761905" fill="white">
            <use xlink:href="#path-1"></use>
        </mask>
        <path d="M11.5238095,0 L16.7619048,0 C19.6548249,0 22,2.35106163 22,5.23809524 L22,10.4761905 L11.5238095,10.4761905 L11.5238095,0 Z" id="path-3"></path>
        <mask id="mask-4" maskContentUnits="userSpaceOnUse" maskUnits="objectBoundingBox" x="0" y="0" width="10.4761905" height="10.4761905" fill="white">
            <use xlink:href="#path-3"></use>
        </mask>
    </defs>
    <g id="Page-1" stroke="none" stroke-width="1" fill="none" fill-rule="evenodd">
        <g id="路易斯">
            <g id="Group-8-Copy" transform="translate(1.000000, 186.000000)">
                <path d="M0,5.23809524 C0,2.34517512 2.35106163,0 5.23809524,0 L10.4761905,0 L10.4761905,10.4761905 L0,10.4761905 L0,5.23809524 Z" id="Rectangle-8" fill="#E5E6E8"></path>
                <path d="M0,11.5238095 L10.4761905,11.5238095 L10.4761905,22 L5.23809524,22 C2.34517512,22 0,19.6489384 0,16.7619048 L0,11.5238095 Z" id="Rectangle-8-Copy-2" fill="#E5E6E8"></path>
                <use id="Rectangle-8-Copy" stroke="#E5E6E8" mask="url(#mask-2)" stroke-width="2" xlink:href="#path-1"></use>
                <path d="M11.5238095,11.5238095 L22,11.5238095 L22,16.7619048 C22,19.6548249 19.6489384,22 16.7619048,22 L11.5238095,22 L11.5238095,11.5238095 Z" id="Rectangle-8-Copy-3" fill="#E5E6E8"></path>
            </g>
            <g id="Group-17" transform="translate(1.000000, 124.000000)">
                <path d="M0,5.23809524 C0,2.34517512 2.35106163,0 5.23809524,0 L10.4761905,0 L10.4761905,10.4761905 L0,10.4761905 L0,5.23809524 Z" id="Rectangle-8" fill="#00B9B2"></path>
                <path d="M0,11.5238095 L10.4761905,11.5238095 L10.4761905,22 L5.23809524,22 C2.34517512,22 0,19.6489384 0,16.7619048 L0,11.5238095 Z" id="Rectangle-8-Copy-2" fill="#00B9B2"></path>
                <use id="Rectangle-8-Copy" stroke="#00B9B2" mask="url(#mask-4)" stroke-width="2" xlink:href="#path-3"></use>
                <path d="M11.5238095,11.5238095 L22,11.5238095 L22,16.7619048 C22,19.6548249 19.6489384,22 16.7619048,22 L11.5238095,22 L11.5238095,11.5238095 Z" id="Rectangle-8-Copy-3" fill="#00B9B2"></path>
            </g>
            <g id="Group-9-Copy">
                <path d="M22.9778024,6.37681159 C22.8183821,6.2173913 22.4995415,5.89855072 22.180701,5.42028986 C21.0647589,4.14492754 19.1517155,1.91304348 18.354614,0.956521739 C18.0357734,0.637681159 17.5575126,0 16.6009908,0 L7.19519371,0 C6.71693284,0 6.07925168,0.15942029 5.28215023,0.956521739 C4.80388936,1.5942029 4.00678792,2.55072464 3.20968647,3.50724638 C2.09374444,4.62318841 1.1372227,5.89855072 0.658961828,6.53623188 C-0.138139621,7.49275362 -0.297559911,8.92753623 0.658961828,10.2028986 C1.61548357,11.3188406 3.68794734,13.7101449 6.23867197,16.5797101 L10.0647589,21.0434783 C10.8618604,21.8405797 11.3401212,22 11.8183821,22 C12.296643,22 12.7749039,21.8405797 13.5720053,21.0434783 L17.5575126,16.4202899 C19.9488169,13.7101449 21.8618604,11.4782609 22.9778024,10.2028986 C23.7749039,9.24637681 23.9343241,7.65217391 22.9778024,6.37681159 Z" id="Path" fill="#00B8B1"></path>
                <path d="M16.4782609,8 L11.8550725,13.8985507 L7.39130435,8 L5,8 L5,8.95652174 C5.47826087,8.95652174 5.63768116,9.11594203 5.79710145,9.27536232 L5.95652174,9.43478261 C6.91304348,10.8695652 10.7391304,15.4927536 11.8550725,17.0869565 C12.9710145,15.6521739 16.7971014,10.8695652 17.9130435,9.43478261 L17.9130435,9.27536232 C18.2318841,9.11594203 18.2318841,8.95652174 18.7101449,8.95652174 L18.7101449,8 L16.4782609,8 L16.4782609,8 Z" id="Shape" fill="#FFFFFF" fill-rule="nonzero"></path>
            </g>
            <g id="Group-9-Copy-2" transform="translate(0.000000, 62.000000)">
                <path d="M22.9778024,6.37681159 C22.8183821,6.2173913 22.4995415,5.89855072 22.180701,5.42028986 C21.0647589,4.14492754 19.1517155,1.91304348 18.354614,0.956521739 C18.0357734,0.637681159 17.5575126,0 16.6009908,0 L7.19519371,0 C6.71693284,0 6.07925168,0.15942029 5.28215023,0.956521739 C4.80388936,1.5942029 4.00678792,2.55072464 3.20968647,3.50724638 C2.09374444,4.62318841 1.1372227,5.89855072 0.658961828,6.53623188 C-0.138139621,7.49275362 -0.297559911,8.92753623 0.658961828,10.2028986 C1.61548357,11.3188406 3.68794734,13.7101449 6.23867197,16.5797101 L10.0647589,21.0434783 C10.8618604,21.8405797 11.3401212,22 11.8183821,22 C12.296643,22 12.7749039,21.8405797 13.5720053,21.0434783 L17.5575126,16.4202899 C19.9488169,13.7101449 21.8618604,11.4782609 22.9778024,10.2028986 C23.7749039,9.24637681 23.9343241,7.65217391 22.9778024,6.37681159 Z" id="Path" fill="#E5E6E8"></path>
                <path d="M16.4782609,8 L11.8550725,13.8985507 L7.39130435,8 L5,8 L5,8.95652174 C5.47826087,8.95652174 5.63768116,9.11594203 5.79710145,9.27536232 L5.95652174,9.43478261 C6.91304348,10.8695652 10.7391304,15.4927536 11.8550725,17.0869565 C12.9710145,15.6521739 16.7971014,10.8695652 17.9130435,9.43478261 L17.9130435,9.27536232 C18.2318841,9.11594203 18.2318841,8.95652174 18.7101449,8.95652174 L18.7101449,8 L16.4782609,8 L16.4782609,8 Z" id="Shape" fill="#FFFFFF" fill-rule="nonzero"></path>
            </g>
            <g id="Group-18" transform="translate(1.000000, 248.000000)" fill-rule="nonzero" fill="#00B8B1">
                <path d="M7.82888352,13.3439297 L4.36526601,13.3439297 C4.1351842,13.3085331 3.90575554,13.4114948 3.77925838,13.6069149 C3.65276121,13.802335 3.65276121,14.053808 3.77925838,14.2492281 C3.90575554,14.4446482 4.1351842,14.5476099 4.36526601,14.5122133 L7.82888352,14.5122133 C8.11719961,14.4678578 8.3300312,14.2197795 8.3300312,13.9280715 C8.3300312,13.6363634 8.11719961,13.3882852 7.82888352,13.3439297 L7.82888352,13.3439297 Z M7.82888352,9.22057548 L4.36526601,9.22057548 C4.1351842,9.1851789 3.90575554,9.28814062 3.77925838,9.48356074 C3.65276121,9.67898086 3.65276121,9.93045378 3.77925838,10.1258739 C3.90575554,10.321294 4.1351842,10.4242557 4.36526601,10.3888592 L7.82888352,10.3888592 C8.11719961,10.3445036 8.3300312,10.0964254 8.3300312,9.80471732 C8.3300312,9.51300927 8.11719961,9.26493104 7.82888352,9.22057548 L7.82888352,9.22057548 Z M20.625026,10.5950269 C18.7152043,8.7307153 15.7560737,8.47071919 13.5504172,9.97343525 C11.3447607,11.4761513 10.5037958,14.3251564 11.5398612,16.7847589 C12.5759267,19.2443615 15.2019146,20.632972 17.8180016,20.1046112 C20.4340886,19.5762503 22.3153212,17.2773341 22.3156012,14.6084249 C22.3188986,13.0968726 21.7088574,11.6486448 20.625026,10.5950269 L20.625026,10.5950269 Z M19.5666984,13.8112431 L16.5978834,16.5601459 C16.4921923,16.6658999 16.3488067,16.7253171 16.1992925,16.7253171 C16.0497783,16.7253171 15.9063927,16.6658999 15.8007016,16.5601459 L14.2888051,14.9657823 C14.0724648,14.7380557 14.0816953,14.3780685 14.3094218,14.1617282 C14.5371484,13.945388 14.8971357,13.9546184 15.1134759,14.182345 L16.2267815,15.3643732 L18.7832611,12.9590833 C19.0109877,12.742743 19.3709749,12.7519735 19.5873152,12.9797 C19.8036554,13.2074266 19.794425,13.5674139 19.5666984,13.7837541 L19.5666984,13.8112431 Z" id="Shape"></path>
                <path d="M2.92582135,17.7721748 C2.31630201,17.7497811 1.83827799,17.2411145 1.85374925,16.6313802 L1.85374925,7.16141006 L19.9277851,7.16141006 L19.9277851,2.39206373 C19.9663948,1.11418392 18.9651069,0.0453244056 17.6874293,0.000518317596 L15.7631974,0.000518317596 L14.5949137,0.000518317596 L6.00459247,0.000518317596 L4.80881976,0.000518317596 L2.92582135,0.000518317596 C1.64814379,0.045324394 0.646855843,1.11418391 0.685465579,2.39206373 L0.685465579,16.5901466 C0.646855831,17.8680264 1.64814378,18.936886 2.92582135,18.9816921 L10.3066253,18.9816921 C10.4690626,18.9788392 10.6231627,18.9092457 10.7327053,18.7892689 C10.8421259,18.6692819 10.9011841,18.5117934 10.8976394,18.3494444 C10.8832464,18.0314732 10.6248472,17.7790833 10.3066253,17.7721748 L2.92582135,17.7721748 Z M14.5536801,0 L15.8044309,0 L15.8044309,2.50201986 C15.8044309,2.83601881 15.5336712,3.10677846 15.1996723,3.10677846 C14.8656733,3.10677846 14.5949137,2.83601881 14.5949137,2.50201986 L14.5536801,0 Z M4.80881976,0 L6.045826,0 L6.045826,2.50201986 C6.045826,2.83601882 5.77506635,3.10677847 5.44106739,3.10677847 C5.10706843,3.10677847 4.83630878,2.83601882 4.83630878,2.50201986 L4.80881976,0 Z" id="Shape"></path>
            </g>
            <path d="M8.82888352,322.34393 L5.36526601,322.34393 C5.1351842,322.308533 4.90575554,322.411495 4.77925838,322.606915 C4.65276121,322.802335 4.65276121,323.053808 4.77925838,323.249228 C4.90575554,323.444648 5.1351842,323.54761 5.36526601,323.512213 L8.82888352,323.512213 C9.11719961,323.467858 9.3300312,323.21978 9.3300312,322.928071 C9.3300312,322.636363 9.11719961,322.388285 8.82888352,322.34393 L8.82888352,322.34393 Z M8.82888352,318.220575 L5.36526601,318.220575 C5.1351842,318.185179 4.90575554,318.288141 4.77925838,318.483561 C4.65276121,318.678981 4.65276121,318.930454 4.77925838,319.125874 C4.90575554,319.321294 5.1351842,319.424256 5.36526601,319.388859 L8.82888352,319.388859 C9.11719961,319.344504 9.3300312,319.096425 9.3300312,318.804717 C9.3300312,318.513009 9.11719961,318.264931 8.82888352,318.220575 L8.82888352,318.220575 Z M21.625026,319.595027 C19.7152043,317.730715 16.7560737,317.470719 14.5504172,318.973435 C12.3447607,320.476151 11.5037958,323.325156 12.5398612,325.784759 C13.5759267,328.244361 16.2019146,329.632972 18.8180016,329.104611 C21.4340886,328.57625 23.3153212,326.277334 23.3156012,323.608425 C23.3188986,322.096873 22.7088574,320.648645 21.625026,319.595027 L21.625026,319.595027 Z M20.5666984,322.811243 L17.5978834,325.560146 C17.4921923,325.6659 17.3488067,325.725317 17.1992925,325.725317 C17.0497783,325.725317 16.9063927,325.6659 16.8007016,325.560146 L15.2888051,323.965782 C15.0724648,323.738056 15.0816953,323.378068 15.3094218,323.161728 C15.5371484,322.945388 15.8971357,322.954618 16.1134759,323.182345 L17.2267815,324.364373 L19.7832611,321.959083 C20.0109877,321.742743 20.3709749,321.751973 20.5873152,321.9797 C20.8036554,322.207427 20.794425,322.567414 20.5666984,322.783754 L20.5666984,322.811243 Z" id="Shape" fill="#E5E6E8" fill-rule="nonzero"></path>
            <path d="M3.92582135,326.772175 C3.31630201,326.749781 2.83827799,326.241114 2.85374925,325.63138 L2.85374925,316.16141 L20.9277851,316.16141 L20.9277851,311.392064 C20.9663948,310.114184 19.9651069,309.045324 18.6874293,309.000518 L16.7631974,309.000518 L15.5949137,309.000518 L7.00459247,309.000518 L5.80881976,309.000518 L3.92582135,309.000518 C2.64814379,309.045324 1.64685584,310.114184 1.68546558,311.392064 L1.68546558,325.590147 C1.64685583,326.868026 2.64814378,327.936886 3.92582135,327.981692 L11.3066253,327.981692 C11.4690626,327.978839 11.6231627,327.909246 11.7327053,327.789269 C11.8421259,327.669282 11.9011841,327.511793 11.8976394,327.349444 C11.8832464,327.031473 11.6248472,326.779083 11.3066253,326.772175 L3.92582135,326.772175 Z M15.5536801,309 L16.8044309,309 L16.8044309,311.50202 C16.8044309,311.836019 16.5336712,312.106778 16.1996723,312.106778 C15.8656733,312.106778 15.5949137,311.836019 15.5949137,311.50202 L15.5536801,309 Z M5.80881976,309 L7.045826,309 L7.045826,311.50202 C7.045826,311.836019 6.77506635,312.106778 6.44106739,312.106778 C6.10706843,312.106778 5.83630878,311.836019 5.83630878,311.50202 L5.80881976,309 Z" id="Shape" fill="#E5E6E8" fill-rule="nonzero"></path>
        </g>
    </g>
</svg>