<?xml version="1.0" encoding="UTF-8" standalone="no"?>
<svg width="16px" height="427px" viewBox="0 0 16 427" version="1.1" xmlns="http://www.w3.org/2000/svg" xmlns:xlink="http://www.w3.org/1999/xlink">
    <!-- Generator: Sketch 42 (36781) - http://www.bohemiancoding.com/sketch -->
    <title>guanwangzhuangxiu</title>
    <desc>Created with Sketch.</desc>
    <defs>
        <circle id="path-1" cx="8" cy="8" r="8"></circle>
        <mask id="mask-2" maskContentUnits="userSpaceOnUse" maskUnits="objectBoundingBox" x="0" y="0" width="16" height="16" fill="white">
            <use xlink:href="#path-1"></use>
        </mask>
        <circle id="path-3" cx="8" cy="8" r="4"></circle>
        <mask id="mask-4" maskContentUnits="userSpaceOnUse" maskUnits="objectBoundingBox" x="0" y="0" width="8" height="8" fill="white">
            <use xlink:href="#path-3"></use>
        </mask>
        <circle id="path-5" cx="8" cy="8" r="8"></circle>
        <mask id="mask-6" maskContentUnits="userSpaceOnUse" maskUnits="objectBoundingBox" x="0" y="0" width="16" height="16" fill="white">
            <use xlink:href="#path-5"></use>
        </mask>
        <circle id="path-7" cx="8" cy="8" r="4"></circle>
        <mask id="mask-8" maskContentUnits="userSpaceOnUse" maskUnits="objectBoundingBox" x="0" y="0" width="8" height="8" fill="white">
            <use xlink:href="#path-7"></use>
        </mask>
    </defs>
    <g id="Page-1" stroke="none" stroke-width="1" fill="none" fill-rule="evenodd">
        <g id="guanwangzhuangxiu">
            <path d="M10.5000335,0.0155775661 C10.4380951,0.0155775661 4.50004439,0 4.50004439,0 C3.44210131,0 2.50681109,0.850168665 2.50681109,1.8794227 L2.50011815,1.99992203 L1.92238378,2.01364692 C0.864268592,2.01364692 0,2.97066564 0,3.99993857 L0,14.0000591 C0,15.0292753 0.94215526,16 2.00011748,16 L9.49997473,16 C10.5580708,16 11.5000731,15.1581873 11.5000731,14.1288009 L11.5000731,13.9945956 L12.0002267,14.0000591 C13.0580168,14.0000591 14,13.0293343 14,11.9999291 L14,4.75753032 L14,4.01169736 L10.5000335,0.0155775661 Z M10.5000335,1.01526446 L10.5000335,1.01469732 L12.9999604,4.01169736 L11.500054,4.01169736 C10.9674109,4.01169736 10.5000143,3.03259782 10.5000143,2.5132446 C10.5000335,2.5132446 10.5000335,1.98714235 10.5000335,1.01526446 Z M10.504489,14.0833159 C10.504489,14.5926306 10.024854,15.2423893 9.49999385,15.2423893 L2.00011748,15.2423893 C1.47521906,15.2423893 0.75859667,14.5093927 0.75859667,14.0000591 L0.75859667,3.99993855 C0.75859667,3.49060488 1.42773744,2.77377192 1.95244463,2.77377192 L2.50011815,2.75755158 L2.50011815,11.999948 C2.50011815,13.0293533 3.44210131,14.000078 4.50004439,14.000078 L10.5044699,13.9946145 L10.5044699,14.0833159 L10.504489,14.0833159 Z M13.2414224,11.9999291 C13.2414224,12.5093951 12.5248383,13.2424484 12.0002459,13.2424484 L4.25860144,13.2424484 C3.73389426,13.2424484 3.25873394,12.509414 3.25873394,11.9999291 L3.25873394,1.99992201 C3.25873394,1.49062615 3.73389426,0.757440521 4.25860144,0.757440521 L9.74145591,0.757440521 C9.73340526,1.9092923 9.74145591,3.01274775 9.74145591,3.01274775 C9.74145591,4.05128405 10.4348251,4.75751142 11.5000922,4.75751142 L13.2414416,4.75751142 L13.2414416,11.9999291 L13.2414224,11.9999291 Z M10.5000335,7.0086785 L6.00014205,7.0086785 C5.72399144,7.0086785 5.50010311,7.23256164 5.50010311,7.50876365 C5.50010311,7.78477645 5.72399144,8.0086785 6.00014205,8.0086785 L10.5000335,8.0086785 C10.7762988,8.0086785 11.0002062,7.78477645 11.0002062,7.50876365 C11.0002062,7.23256162 10.7762988,7.0086785 10.5000335,7.0086785 Z M10.5000335,9.50636442 L6.00014205,9.50636442 C5.72399144,9.50636442 5.50010311,9.7302919 5.50010311,10.006355 C5.50010311,10.2825694 5.72399144,10.5063644 6.00014205,10.5063644 L10.5000335,10.5063644 C10.7762988,10.5063644 11.0002062,10.2825694 11.0002062,10.006355 C11.0002062,9.7302919 10.7762988,9.50636442 10.5000335,9.50636442 Z" id="Shape-Copy-7" fill="#FFC020"></path>
            <path d="M10.5000335,26.020549 C10.4380951,26.020549 4.50004439,26.0049715 4.50004439,26.0049715 C3.44210131,26.0049715 2.50681109,26.8551401 2.50681109,27.8843942 L2.50011815,28.0048935 L1.92238378,28.0186184 C0.864268592,28.0186184 0,28.9756371 0,30.00491 L0,40.0050305 C0,41.0342468 0.94215526,42.0049715 2.00011748,42.0049715 L9.49997473,42.0049715 C10.5580708,42.0049715 11.5000731,41.1631587 11.5000731,40.1337724 L11.5000731,39.999567 L12.0002267,40.0050305 C13.0580168,40.0050305 14,39.0343058 14,38.0049005 L14,30.7625018 L14,30.0166688 L10.5000335,26.020549 Z M10.5000335,27.0202359 L10.5000335,27.0196688 L12.9999604,30.0166688 L11.500054,30.0166688 C10.9674109,30.0166688 10.5000143,29.0375693 10.5000143,28.5182161 C10.5000335,28.5182161 10.5000335,27.9921138 10.5000335,27.0202359 Z M10.504489,40.0882874 C10.504489,40.5976021 10.024854,41.2473608 9.49999385,41.2473608 L2.00011748,41.2473608 C1.47521906,41.2473608 0.75859667,40.5143642 0.75859667,40.0050305 L0.75859667,30.00491 C0.75859667,29.4955763 1.42773744,28.7787434 1.95244463,28.7787434 L2.50011815,28.762523 L2.50011815,38.0049195 C2.50011815,39.0343247 3.44210131,40.0050494 4.50004439,40.0050494 L10.5044699,39.999586 L10.5044699,40.0882874 L10.504489,40.0882874 Z M13.2414224,38.0049006 C13.2414224,38.5143666 12.5248383,39.2474199 12.0002459,39.2474199 L4.25860144,39.2474199 C3.73389426,39.2474199 3.25873394,38.5143855 3.25873394,38.0049006 L3.25873394,28.0048935 C3.25873394,27.4955976 3.73389426,26.762412 4.25860144,26.762412 L9.74145591,26.762412 C9.73340526,27.9142638 9.74145591,29.0177192 9.74145591,29.0177192 C9.74145591,30.0562555 10.4348251,30.7624829 11.5000922,30.7624829 L13.2414416,30.7624829 L13.2414416,38.0049006 L13.2414224,38.0049006 Z M10.5000335,33.01365 L6.00014205,33.01365 C5.72399144,33.01365 5.50010311,33.2375331 5.50010311,33.5137351 C5.50010311,33.7897479 5.72399144,34.01365 6.00014205,34.01365 L10.5000335,34.01365 C10.7762988,34.01365 11.0002062,33.7897479 11.0002062,33.5137351 C11.0002062,33.2375331 10.7762988,33.01365 10.5000335,33.01365 Z M10.5000335,35.5113359 L6.00014205,35.5113359 C5.72399144,35.5113359 5.50010311,35.7352634 5.50010311,36.0113264 C5.50010311,36.2875409 5.72399144,36.5113359 6.00014205,36.5113359 L10.5000335,36.5113359 C10.7762988,36.5113359 11.0002062,36.2875409 11.0002062,36.0113264 C11.0002062,35.7352634 10.7762988,35.5113359 10.5000335,35.5113359 Z" id="Shape-Copy-19" fill="#C5C8D0"></path>
            <g id="Group-15" transform="translate(0.000000, 52.000000)" fill="#FFC020">
                <path d="M15.8771269,2.9062374 L14.3178128,1.17184007 C14.2244094,1.06255726 14.0995545,1 13.9437054,1 L8.48626163,1 L8.48626163,0.468794664 C8.48626163,0.218712207 8.28349138,0 7.98729942,0 C7.72224803,0 7.4883372,0.218712207 7.4883372,0.468794664 L7.4883372,1 L3.4966395,1 C3.2315881,1 2.99767728,1.23439733 2.99767728,1.5 L2.99767728,5 C2.99767728,5.26560267 3.2315881,5.5 3.4966395,5.5 L7.4883372,5.5 L7.4883372,6.5 L2.06218027,6.5 C1.90618487,6.5 1.78147631,6.54687214 1.68792661,6.65631986 L0.128612553,8.43744274 C-0.042870851,8.62496793 -0.042870851,8.9062374 0.128612553,9.0937626 L1.68792661,10.8593653 C1.76584203,10.968813 1.89055058,11 2.06218027,11 L7.4883372,11 L7.4883372,15.5312053 C7.4883372,15.7812878 7.72224803,16 7.98729942,16 C8.25235081,16 8.48626163,15.7812878 8.48626163,15.5312053 L8.48626163,11 L12.4936119,11 C12.7586633,11 12.9925741,10.796808 12.9925741,10.5 L12.9925741,6.99998168 C12.9925741,6.70317367 12.7586633,6.49998168 12.4936119,6.49998168 L8.48626163,6.49998168 L8.48626163,5.5 L13.9437054,5.5 C14.0995363,5.5 14.2244094,5.43744274 14.3178128,5.32815993 L15.8771269,3.57807747 C16.0486103,3.37503207 16.0331223,3.09374427 15.8771269,2.9062374 Z M11.9946314,9.99998168 L2.28043853,9.99998168 L1.17329354,8.76558434 L2.28043853,7.49998168 L11.9946314,7.49998168 L11.9946314,9.99998168 Z M13.7254289,4.5 L3.99560171,4.5 L3.99560171,2 L13.7254289,2 L14.8324093,3.23439733 L13.7254289,4.5 L13.7254289,4.5 Z" id="Shape-Copy-11"></path>
            </g>
            <path d="M15.8771269,80.9012659 L14.3178128,79.1668686 C14.2244094,79.0575858 14.0995545,78.9950285 13.9437054,78.9950285 L8.48626163,78.9950285 L8.48626163,78.4638232 C8.48626163,78.2137407 8.28349138,77.9950285 7.98729942,77.9950285 C7.72224803,77.9950285 7.4883372,78.2137407 7.4883372,78.4638232 L7.4883372,78.9950285 L3.4966395,78.9950285 C3.2315881,78.9950285 2.99767728,79.2294259 2.99767728,79.4950285 L2.99767728,82.9950285 C2.99767728,83.2606312 3.2315881,83.4950285 3.4966395,83.4950285 L7.4883372,83.4950285 L7.4883372,84.4950285 L2.06218027,84.4950285 C1.90618487,84.4950285 1.78147631,84.5419007 1.68792661,84.6513484 L0.128612553,86.4324713 C-0.042870851,86.6199965 -0.042870851,86.9012659 0.128612553,87.0887911 L1.68792661,88.8543938 C1.76584203,88.9638415 1.89055058,88.9950285 2.06218027,88.9950285 L7.4883372,88.9950285 L7.4883372,93.5262339 C7.4883372,93.7763163 7.72224803,93.9950285 7.98729942,93.9950285 C8.25235081,93.9950285 8.48626163,93.7763163 8.48626163,93.5262339 L8.48626163,88.9950285 L12.4936119,88.9950285 C12.7586633,88.9950285 12.9925741,88.7918365 12.9925741,88.4950285 L12.9925741,84.9950102 C12.9925741,84.6982022 12.7586633,84.4950102 12.4936119,84.4950102 L8.48626163,84.4950102 L8.48626163,83.4950285 L13.9437054,83.4950285 C14.0995363,83.4950285 14.2244094,83.4324713 14.3178128,83.3231885 L15.8771269,81.573106 C16.0486103,81.3700606 16.0331223,81.0887728 15.8771269,80.9012659 Z M11.9946314,87.9950102 L2.28043853,87.9950102 L1.17329354,86.7606129 L2.28043853,85.4950102 L11.9946314,85.4950102 L11.9946314,87.9950102 Z M13.7254289,82.4950285 L3.99560171,82.4950285 L3.99560171,79.9950285 L13.7254289,79.9950285 L14.8324093,81.2294259 L13.7254289,82.4950285 L13.7254289,82.4950285 Z" id="Shape-Copy-11" fill="#C5C8D0"></path>
            <g id="Group-17" transform="translate(0.000000, 260.000000)" fill="#FFC020">
                <path d="M12.4326621,15.9850118 C12.2569849,15.9850118 12.0722507,15.9324515 11.8840981,15.8290015 L8.57202835,14.0074998 C8.28493556,13.8495347 7.70206035,13.8495347 7.41496754,14.0074998 L4.10259427,15.8290182 C3.65169262,16.0767335 3.1982831,16.0160201 2.9408532,15.695696 C2.81667475,15.5416404 2.68404627,15.2624323 2.75862683,14.8077837 L3.3908284,10.950362 C3.44886034,10.5973924 3.27848636,10.0487499 3.03353181,9.79907992 L0.353679568,7.06666023 C0.0481852308,6.75512405 -0.0669521897,6.38305827 0.0378822766,6.04575984 C0.142716759,5.7084447 0.445112216,5.47818828 0.867612883,5.41421701 L4.57004452,4.85154062 C4.9089236,4.80013306 5.35516098,4.46103027 5.50681396,4.14005461 L7.16284087,0.630055886 C7.35161641,0.229604849 7.65463484,0 7.99349795,0 C8.33268053,0 8.63537949,0.229604849 8.82415503,0.630239673 L10.4801979,4.14005463 C10.6315474,4.46121406 11.0777528,4.80013308 11.4163124,4.85154064 L15.119367,5.41421703 C15.5415642,5.47818828 15.8439117,5.7084447 15.9487782,6.04575985 C16.0536286,6.38305829 15.9384912,6.75512407 15.6330128,7.06666024 L12.9534481,9.79906322 C12.7084936,10.0485662 12.5381196,10.5975261 12.595848,10.9506795 L13.228385,14.807767 C13.3026301,15.2625827 13.1700176,15.5418075 13.0458072,15.6958297 C12.8954322,15.8822134 12.6779521,15.9850118 12.4326621,15.9850118 Z M7.99349795,12.8806934 C8.37357284,12.8806934 8.73740262,12.9657323 9.01824976,13.1201053 L12.2725591,14.9097801 L11.650996,11.1197547 C11.5399158,10.4389261 11.8120094,9.56262518 12.2844275,9.08106145 L14.9168862,6.39662439 L11.2787162,5.84375502 C10.6256212,5.74469899 9.91256147,5.20307345 9.62051688,4.58362653 L7.99349795,1.13512642 L6.36619151,4.5837769 C6.07411496,5.20305675 5.36108718,5.74468229 4.70765675,5.84375502 L1.06983816,6.39660769 L3.7025684,9.08104475 C4.17500242,9.56277554 4.44741551,10.4392603 4.33571241,11.119738 L3.71442078,14.9095964 L6.96874614,13.1201053 C7.24957731,12.9657323 7.61343904,12.8806934 7.99349795,12.8806934 Z" id="Shape-Copy-12"></path>
            </g>
            <g id="Group-18" transform="translate(0.000000, 286.000000)" fill="#C5C8D0">
                <path d="M12.4326621,15.9850118 C12.2569849,15.9850118 12.0722507,15.9324515 11.8840981,15.8290015 L8.57202835,14.0074998 C8.28493556,13.8495347 7.70206035,13.8495347 7.41496754,14.0074998 L4.10259427,15.8290182 C3.65169262,16.0767335 3.1982831,16.0160201 2.9408532,15.695696 C2.81667475,15.5416404 2.68404627,15.2624323 2.75862683,14.8077837 L3.3908284,10.950362 C3.44886034,10.5973924 3.27848636,10.0487499 3.03353181,9.79907992 L0.353679568,7.06666023 C0.0481852308,6.75512405 -0.0669521897,6.38305827 0.0378822766,6.04575984 C0.142716759,5.7084447 0.445112216,5.47818828 0.867612883,5.41421701 L4.57004452,4.85154062 C4.9089236,4.80013306 5.35516098,4.46103027 5.50681396,4.14005461 L7.16284087,0.630055886 C7.35161641,0.229604849 7.65463484,0 7.99349795,0 C8.33268053,0 8.63537949,0.229604849 8.82415503,0.630239673 L10.4801979,4.14005463 C10.6315474,4.46121406 11.0777528,4.80013308 11.4163124,4.85154064 L15.119367,5.41421703 C15.5415642,5.47818828 15.8439117,5.7084447 15.9487782,6.04575985 C16.0536286,6.38305829 15.9384912,6.75512407 15.6330128,7.06666024 L12.9534481,9.79906322 C12.7084936,10.0485662 12.5381196,10.5975261 12.595848,10.9506795 L13.228385,14.807767 C13.3026301,15.2625827 13.1700176,15.5418075 13.0458072,15.6958297 C12.8954322,15.8822134 12.6779521,15.9850118 12.4326621,15.9850118 Z M7.99349795,12.8806934 C8.37357284,12.8806934 8.73740262,12.9657323 9.01824976,13.1201053 L12.2725591,14.9097801 L11.650996,11.1197547 C11.5399158,10.4389261 11.8120094,9.56262518 12.2844275,9.08106145 L14.9168862,6.39662439 L11.2787162,5.84375502 C10.6256212,5.74469899 9.91256147,5.20307345 9.62051688,4.58362653 L7.99349795,1.13512642 L6.36619151,4.5837769 C6.07411496,5.20305675 5.36108718,5.74468229 4.70765675,5.84375502 L1.06983816,6.39660769 L3.7025684,9.08104475 C4.17500242,9.56277554 4.44741551,10.4392603 4.33571241,11.119738 L3.71442078,14.9095964 L6.96874614,13.1201053 C7.24957731,12.9657323 7.61343904,12.8806934 7.99349795,12.8806934 Z" id="Shape-Copy-12"></path>
            </g>
            <path d="M13.2625891,168.64438 C12.8125629,167.905004 12.3159241,167.313492 12.2962081,167.28915 C11.5431913,166.388786 10.7058859,165.694336 9.80585085,165.224495 C9.41858907,165.022339 9.02414675,164.86322 8.62431469,164.747176 C8.93448576,164.530045 9.2339121,164.258621 9.50463372,163.940402 C10.2540689,163.06251 10.6879607,161.978704 10.739963,160.868687 L10.7812032,160.883662 L10.7274101,160.192951 L10.7040951,159.885968 L10.6987228,159.884098 C10.5893631,158.890143 10.2504873,156.855439 9.61401074,156.144125 L9.48491767,156 L4.50418588,156 L4.37509281,156.144125 C3.73680805,156.857308 3.39974044,158.890143 3.29038079,159.884098 L3.28500843,159.885968 L3.26169344,160.192951 L3.20790032,160.883662 L3.24914055,160.868687 C3.30114289,161.978704 3.73501726,163.06064 4.48445245,163.940402 C4.76593616,164.269857 5.07610723,164.550629 5.39883119,164.76963 C5.02410491,164.881935 4.65655914,165.033557 4.29259497,165.224495 C3.39614148,165.694336 2.56064427,166.385047 1.80761013,167.283541 C1.74307229,167.354678 1.24643348,167.914352 0.791034907,168.60882 C0.0774502173,169.698235 -0.15024038,170.527481 0.0953754503,171.139577 C0.319484477,171.697381 0.884260074,171.98004 1.77355042,171.98004 L12.3248606,171.98004 C13.1352521,171.98004 13.6605782,171.710487 13.8847046,171.182633 C14.135745,170.578016 13.9331428,169.74877 13.2625891,168.64438 Z M4.90939029,156.922818 L9.07792247,156.922818 C9.37016829,157.422609 9.64090729,158.58503 9.77895427,159.592091 C9.77716348,159.592091 9.77358191,159.590221 9.77177375,159.590221 C9.71977141,159.577115 9.66778647,159.56214 9.61759231,159.549035 C9.61401074,159.547165 9.61041179,159.547165 9.6068302,159.545295 C9.55303709,159.53219 9.49926135,159.519084 9.44546822,159.505979 C9.44009586,159.504109 9.43470611,159.504109 9.43112454,159.502239 C9.31995673,159.476028 9.20880631,159.451705 9.09763849,159.429233 C9.0958477,159.429233 9.09405692,159.429233 9.09226613,159.427363 C8.92014206,159.391804 8.74801797,159.361854 8.57412051,159.335642 C8.40020564,159.309431 8.22629078,159.286977 8.05058514,159.270133 L8.04700357,159.270133 C7.93404497,159.258897 7.82110376,159.249549 7.70635438,159.242052 C7.70098201,159.242052 7.69559227,159.242052 7.68842913,159.240182 C7.63284522,159.236443 7.57906949,159.232704 7.52348558,159.230816 L7.51451426,159.230816 C7.46251193,159.228946 7.41052699,159.225207 7.35852465,159.225207 L7.33880862,159.225207 C7.28680629,159.223337 7.23482135,159.221468 7.18281901,159.221468 L7.1505501,159.221468 C7.09854776,159.221468 7.04477203,159.219598 6.99276969,159.219598 C6.94076735,159.219598 6.88699162,159.219598 6.83498928,159.221468 L6.80272037,159.221468 C6.75071803,159.221468 6.69873309,159.223337 6.64673075,159.225207 L6.62701473,159.225207 C6.57501239,159.227077 6.52302745,159.228946 6.47102511,159.230816 L6.460263,159.230816 C6.4046791,159.232686 6.35090336,159.236425 6.29531946,159.240182 C6.28994709,159.240182 6.28276657,159.240182 6.27739421,159.242052 C6.16443561,159.24953 6.0514944,159.258897 5.93853579,159.270133 L5.93495422,159.270133 C5.76103936,159.286977 5.58712449,159.309449 5.41320963,159.335642 L5.41141884,159.335642 C5.23929477,159.361854 5.0653799,159.391804 4.89506399,159.427363 C4.8932732,159.427363 4.89148242,159.427363 4.88969163,159.429233 C4.77852381,159.451687 4.66737339,159.476028 4.55799635,159.502239 C4.55262399,159.504109 4.54723424,159.504109 4.5418619,159.505979 C4.48806878,159.519084 4.43429305,159.53219 4.38049992,159.545295 C4.37691835,159.547165 4.37333678,159.547165 4.36973781,159.549035 C4.31773547,159.56214 4.26575053,159.575246 4.2137482,159.590221 C4.2119574,159.590221 4.20837583,159.592091 4.20656767,159.592091 C4.34640547,158.585012 4.61535369,157.422591 4.90939029,156.922818 Z M5.14426142,163.335803 C4.48267907,162.572085 4.11871489,161.617429 4.11871489,160.644077 L4.11871489,160.574809 C4.23525505,160.53925 4.35179523,160.505542 4.46833539,160.473722 C5.05461781,160.318361 5.65345313,160.217274 6.26125975,160.172348 C6.32042523,160.168609 6.37779991,160.164852 6.43696539,160.161112 L6.44951828,160.161112 C6.50689296,160.157373 6.56247687,160.155504 6.61985157,160.153616 L6.63598603,160.153616 C6.69336071,160.151746 6.75073541,160.149876 6.80631932,160.148007 L6.81708143,160.148007 C6.87624691,160.146137 6.93541238,160.146137 6.99457786,160.146137 C7.05374334,160.146137 7.11290882,160.146137 7.1720743,160.148007 L7.18104561,160.148007 C7.2384203,160.149876 7.295795,160.149876 7.35316968,160.153616 L7.36751336,160.153616 C7.42488805,160.155485 7.48226275,160.159225 7.53963743,160.161112 L7.55039954,160.161112 C8.33928417,160.206038 9.1174067,160.344554 9.87044084,160.574791 L9.87044084,160.644058 C9.87044084,161.617429 9.50647665,162.572067 8.84310351,163.335785 C8.28013607,163.985328 7.55399849,164.404616 6.99461263,164.404616 C6.43336644,164.404616 5.70722885,163.985328 5.14426142,163.335803 Z M7.0483362,165.449123 C8.0344333,165.449123 8.99723279,165.748627 9.89549445,166.328903 L6.95511103,168.829691 L4.18685166,166.338252 C5.09046829,165.752367 6.05684937,165.449123 7.0483362,165.449123 Z M13.0815111,170.804513 C13.0151651,170.963614 12.737263,171.053465 12.3231046,171.053465 L1.77177701,171.053465 C1.28948187,171.053465 0.970339482,170.952378 0.900411911,170.776433 C0.814349868,170.56304 0.929099254,170.020212 1.50641037,169.138562 C1.94209292,168.474044 2.44052252,167.919979 2.44589488,167.91437 L2.45844777,167.901264 C2.76324647,167.53625 3.08238886,167.210553 3.41048516,166.926024 L6.93894179,170.098827 L10.678972,166.918546 C11.0106672,167.206814 11.3316004,167.534381 11.6399807,167.903134 C11.6596967,167.925588 12.1240666,168.48341 12.529271,169.149798 C13.0725398,170.046405 13.1711547,170.592991 13.0815111,170.804513 Z M6.68797098,158.794665 L7.29934179,158.794665 L7.29934179,158.392222 L7.67764965,158.392222 L7.67764965,157.746437 L7.29934179,157.746437 L7.29934179,157.343975 L6.68797098,157.343975 L6.68797098,157.746437 L6.30966312,157.746437 L6.30966312,158.392222 L6.68797098,158.392222 L6.68797098,158.794665 Z" id="Shape-Copy-13" fill="#FFC020"></path>
            <path d="M13.2625891,194.619449 C12.8125629,193.880073 12.3159241,193.288561 12.2962081,193.264219 C11.5431913,192.363855 10.7058859,191.669404 9.80585085,191.199564 C9.41858907,190.997408 9.02414675,190.838289 8.62431469,190.722245 C8.93448576,190.505113 9.2339121,190.23369 9.50463372,189.915471 C10.2540689,189.037579 10.6879607,187.953773 10.739963,186.843756 L10.7812032,186.858731 L10.7274101,186.16802 L10.7040951,185.861037 L10.6987228,185.859167 C10.5893631,184.865212 10.2504873,182.830508 9.61401074,182.119194 L9.48491767,181.975069 L4.50418588,181.975069 L4.37509281,182.119194 C3.73680805,182.832377 3.39974044,184.865212 3.29038079,185.859167 L3.28500843,185.861037 L3.26169344,186.16802 L3.20790032,186.858731 L3.24914055,186.843756 C3.30114289,187.953773 3.73501726,189.035709 4.48445245,189.915471 C4.76593616,190.244926 5.07610723,190.525697 5.39883119,190.744699 C5.02410491,190.857004 4.65655914,191.008625 4.29259497,191.199564 C3.39614148,191.669404 2.56064427,192.360116 1.80761013,193.25861 C1.74307229,193.329747 1.24643348,193.889421 0.791034907,194.583889 C0.0774502173,195.673304 -0.15024038,196.50255 0.0953754503,197.114646 C0.319484477,197.67245 0.884260074,197.955109 1.77355042,197.955109 L12.3248606,197.955109 C13.1352521,197.955109 13.6605782,197.685555 13.8847046,197.157702 C14.135745,196.553084 13.9331428,195.723839 13.2625891,194.619449 Z M4.90939029,182.897887 L9.07792247,182.897887 C9.37016829,183.397678 9.64090729,184.560099 9.77895427,185.56716 C9.77716348,185.56716 9.77358191,185.56529 9.77177375,185.56529 C9.71977141,185.552184 9.66778647,185.537209 9.61759231,185.524104 C9.61401074,185.522234 9.61041179,185.522234 9.6068302,185.520364 C9.55303709,185.507259 9.49926135,185.494153 9.44546822,185.481048 C9.44009586,185.479178 9.43470611,185.479178 9.43112454,185.477308 C9.31995673,185.451097 9.20880631,185.426774 9.09763849,185.404302 C9.0958477,185.404302 9.09405692,185.404302 9.09226613,185.402432 C8.92014206,185.366873 8.74801797,185.336922 8.57412051,185.310711 C8.40020564,185.2845 8.22629078,185.262046 8.05058514,185.245202 L8.04700357,185.245202 C7.93404497,185.233966 7.82110376,185.224617 7.70635438,185.217121 C7.70098201,185.217121 7.69559227,185.217121 7.68842913,185.215251 C7.63284522,185.211512 7.57906949,185.207773 7.52348558,185.205885 L7.51451426,185.205885 C7.46251193,185.204015 7.41052699,185.200276 7.35852465,185.200276 L7.33880862,185.200276 C7.28680629,185.198406 7.23482135,185.196537 7.18281901,185.196537 L7.1505501,185.196537 C7.09854776,185.196537 7.04477203,185.194667 6.99276969,185.194667 C6.94076735,185.194667 6.88699162,185.194667 6.83498928,185.196537 L6.80272037,185.196537 C6.75071803,185.196537 6.69873309,185.198406 6.64673075,185.200276 L6.62701473,185.200276 C6.57501239,185.202146 6.52302745,185.204015 6.47102511,185.205885 L6.460263,185.205885 C6.4046791,185.207754 6.35090336,185.211494 6.29531946,185.215251 C6.28994709,185.215251 6.28276657,185.215251 6.27739421,185.217121 C6.16443561,185.224599 6.0514944,185.233966 5.93853579,185.245202 L5.93495422,185.245202 C5.76103936,185.262046 5.58712449,185.284518 5.41320963,185.310711 L5.41141884,185.310711 C5.23929477,185.336922 5.0653799,185.366873 4.89506399,185.402432 C4.8932732,185.402432 4.89148242,185.402432 4.88969163,185.404302 C4.77852381,185.426756 4.66737339,185.451097 4.55799635,185.477308 C4.55262399,185.479178 4.54723424,185.479178 4.5418619,185.481048 C4.48806878,185.494153 4.43429305,185.507259 4.38049992,185.520364 C4.37691835,185.522234 4.37333678,185.522234 4.36973781,185.524104 C4.31773547,185.537209 4.26575053,185.550315 4.2137482,185.56529 C4.2119574,185.56529 4.20837583,185.56716 4.20656767,185.56716 C4.34640547,184.560081 4.61535369,183.39766 4.90939029,182.897887 Z M5.14426142,189.310872 C4.48267907,188.547154 4.11871489,187.592498 4.11871489,186.619146 L4.11871489,186.549878 C4.23525505,186.514319 4.35179523,186.480611 4.46833539,186.448791 C5.05461781,186.29343 5.65345313,186.192343 6.26125975,186.147417 C6.32042523,186.143678 6.37779991,186.139921 6.43696539,186.136181 L6.44951828,186.136181 C6.50689296,186.132442 6.56247687,186.130572 6.61985157,186.128685 L6.63598603,186.128685 C6.69336071,186.126815 6.75073541,186.124945 6.80631932,186.123076 L6.81708143,186.123076 C6.87624691,186.121206 6.93541238,186.121206 6.99457786,186.121206 C7.05374334,186.121206 7.11290882,186.121206 7.1720743,186.123076 L7.18104561,186.123076 C7.2384203,186.124945 7.295795,186.124945 7.35316968,186.128685 L7.36751336,186.128685 C7.42488805,186.130554 7.48226275,186.134294 7.53963743,186.136181 L7.55039954,186.136181 C8.33928417,186.181107 9.1174067,186.319623 9.87044084,186.54986 L9.87044084,186.619127 C9.87044084,187.592498 9.50647665,188.547136 8.84310351,189.310854 C8.28013607,189.960397 7.55399849,190.379685 6.99461263,190.379685 C6.43336644,190.379685 5.70722885,189.960397 5.14426142,189.310872 Z M7.0483362,191.424192 C8.0344333,191.424192 8.99723279,191.723696 9.89549445,192.303972 L6.95511103,194.80476 L4.18685166,192.31332 C5.09046829,191.727436 6.05684937,191.424192 7.0483362,191.424192 Z M13.0815111,196.779582 C13.0151651,196.938683 12.737263,197.028534 12.3231046,197.028534 L1.77177701,197.028534 C1.28948187,197.028534 0.970339482,196.927447 0.900411911,196.751501 C0.814349868,196.538109 0.929099254,195.99528 1.50641037,195.113631 C1.94209292,194.449112 2.44052252,193.895048 2.44589488,193.889439 L2.45844777,193.876333 C2.76324647,193.511319 3.08238886,193.185622 3.41048516,192.901093 L6.93894179,196.073896 L10.678972,192.893614 C11.0106672,193.181883 11.3316004,193.50945 11.6399807,193.878203 C11.6596967,193.900657 12.1240666,194.458479 12.529271,195.124867 C13.0725398,196.021473 13.1711547,196.56806 13.0815111,196.779582 Z M6.68797098,184.769734 L7.29934179,184.769734 L7.29934179,184.367291 L7.67764965,184.367291 L7.67764965,183.721505 L7.29934179,183.721505 L7.29934179,183.319044 L6.68797098,183.319044 L6.68797098,183.721505 L6.30966312,183.721505 L6.30966312,184.367291 L6.68797098,184.367291 L6.68797098,184.769734 Z" id="Shape-Copy-20" fill="#C5C8D0"></path>
            <path d="M5.98620786,212.4329 C2.68565935,212.4329 0,215.027195 0,218.216006 C0,221.405705 2.68565935,224 5.98620786,224 C9.28721592,224 11.9724157,221.405261 11.9724157,218.216006 C11.9724157,215.027195 9.28721592,212.4329 5.98620786,212.4329 Z M5.98620786,223.112443 C3.19209272,223.112443 0.919116825,220.915973 0.919116825,218.21645 C0.919116825,215.517372 3.19209273,213.321345 5.98620786,213.321345 C8.78032299,213.321345 11.0532989,215.517372 11.0532989,218.21645 C11.0532989,220.915529 8.780323,223.112443 5.98620786,223.112443 Z M11.9724157,208.888001 L11.9724157,211.293151 C11.9724157,211.767788 11.7637762,212.180264 11.3510928,212.519481 L10.4613877,213.220557 C10.3759098,213.288045 10.2729687,213.320901 10.1709468,213.320901 C10.0376748,213.320901 9.905322,213.264957 9.81478899,213.157509 C9.6544031,212.967477 9.68381484,212.687757 9.88050584,212.533245 L10.762858,211.83794 C11.0225085,211.624376 11.0532989,211.424131 11.0532989,211.293595 L11.0532989,208.888001 L8.2862977,208.888001 L8.2862977,211.626152 C8.2862977,211.87124 8.08041553,212.070152 7.8267393,212.070152 C7.57306305,212.070152 7.36718089,211.87124 7.36718089,211.626152 L7.36718088,208.888001 L4.72472002,208.888001 L4.72472002,211.626152 C4.72472002,211.87124 4.51929741,212.070152 4.26516162,212.070152 C4.01148537,212.070152 3.80560321,211.87124 3.80560321,211.626152 L3.8056032,208.888001 L0.919116825,208.888001 L0.919116825,211.293151 C0.919116825,211.401487 1.04135937,211.705628 1.20771951,211.83572 L2.0919099,212.532801 C2.28860089,212.687757 2.31801264,212.967477 2.15762675,213.157065 C1.99770042,213.347541 1.70817862,213.375957 1.51102806,213.221001 L0.628675908,212.525697 C0.235753456,212.218892 0,211.65812 0,211.293151 L0,208.888001 C0,208.398712 0.412223887,208 0.919116825,208 L11.0537585,208 C11.5601918,208 11.9724157,208.399156 11.9724157,208.888001 Z M9.08087419,216.552337 L7.2895155,216.552337 L6.69071089,214.774559 C6.62683227,214.514818 6.38050897,214.234654 5.98942477,214.234654 C5.597881,214.234654 5.3515577,214.514818 5.29870847,214.739039 L4.68887445,216.552337 L2.8120379,216.552337 C2.45909704,216.552337 2.16406054,216.750805 2.06065991,217.058053 C1.94117473,217.413697 2.11075177,217.713842 2.29595382,217.827062 L3.8851068,218.943279 L3.29687204,220.691753 C3.16957436,220.950161 3.20220301,221.301809 3.51470272,221.521145 C3.64659598,221.613942 3.80192673,221.663226 3.96323174,221.663226 C4.17003302,221.663226 4.32398508,221.581974 4.39705488,221.537573 L5.98988432,220.41958 L7.48253004,221.464757 C7.54135352,221.514485 7.75642685,221.677434 8.04456998,221.677434 C8.19484557,221.677434 8.3382278,221.632146 8.45955123,221.547342 C8.76240023,221.334665 8.80376047,220.974581 8.68978999,220.712177 L8.09420229,218.941503 L9.57489949,217.900322 C9.81432943,217.762682 10.0146969,217.443445 9.88739921,217.065157 C9.78032209,216.748141 9.48069002,216.551449 9.08317198,216.551449 C9.08225287,216.552337 9.08179331,216.552337 9.08087419,216.552337 Z M7.01332092,218.604063 L7.6465924,220.485736 L5.98896522,219.322455 L4.33179758,220.487068 L4.96552863,218.604063 L3.30698232,217.440337 L5.35661284,217.440337 L5.98850565,215.556888 L6.62177714,217.440337 L8.67048854,217.440337 L7.01332092,218.604063 Z" id="Shape-Copy-14" fill="#FFC020"></path>
            <path d="M5.98620786,238.427929 C2.68565935,238.427929 0,241.022224 0,244.211035 C0,247.400734 2.68565935,249.995029 5.98620786,249.995029 C9.28721592,249.995029 11.9724157,247.40029 11.9724157,244.211035 C11.9724157,241.022224 9.28721592,238.427929 5.98620786,238.427929 Z M5.98620786,249.107472 C3.19209272,249.107472 0.919116825,246.911001 0.919116825,244.211479 C0.919116825,241.5124 3.19209273,239.316374 5.98620786,239.316374 C8.78032299,239.316374 11.0532989,241.5124 11.0532989,244.211479 C11.0532989,246.910557 8.780323,249.107472 5.98620786,249.107472 Z M11.9724157,234.883029 L11.9724157,237.28818 C11.9724157,237.762816 11.7637762,238.175293 11.3510928,238.514509 L10.4613877,239.215586 C10.3759098,239.283074 10.2729687,239.31593 10.1709468,239.31593 C10.0376748,239.31593 9.905322,239.259986 9.81478899,239.152538 C9.6544031,238.962506 9.68381484,238.682785 9.88050584,238.528273 L10.762858,237.832968 C11.0225085,237.619404 11.0532989,237.41916 11.0532989,237.288624 L11.0532989,234.883029 L8.2862977,234.883029 L8.2862977,237.62118 C8.2862977,237.866268 8.08041553,238.065181 7.8267393,238.065181 C7.57306305,238.065181 7.36718089,237.866268 7.36718089,237.62118 L7.36718088,234.883029 L4.72472002,234.883029 L4.72472002,237.62118 C4.72472002,237.866268 4.51929741,238.065181 4.26516162,238.065181 C4.01148537,238.065181 3.80560321,237.866268 3.80560321,237.62118 L3.8056032,234.883029 L0.919116825,234.883029 L0.919116825,237.28818 C0.919116825,237.396516 1.04135937,237.700656 1.20771951,237.830748 L2.0919099,238.527829 C2.28860089,238.682785 2.31801264,238.962506 2.15762675,239.152094 C1.99770042,239.34257 1.70817862,239.370986 1.51102806,239.21603 L0.628675908,238.520725 C0.235753456,238.213921 0,237.653148 0,237.28818 L0,234.883029 C0,234.393741 0.412223887,233.995029 0.919116825,233.995029 L11.0537585,233.995029 C11.5601918,233.995029 11.9724157,234.394185 11.9724157,234.883029 Z M9.08087419,242.547365 L7.2895155,242.547365 L6.69071089,240.769587 C6.62683227,240.509847 6.38050897,240.229683 5.98942477,240.229683 C5.597881,240.229683 5.3515577,240.509847 5.29870847,240.734067 L4.68887445,242.547365 L2.8120379,242.547365 C2.45909704,242.547365 2.16406054,242.745833 2.06065991,243.053082 C1.94117473,243.408726 2.11075177,243.70887 2.29595382,243.82209 L3.8851068,244.938307 L3.29687204,246.686781 C3.16957436,246.945189 3.20220301,247.296838 3.51470272,247.516174 C3.64659598,247.60897 3.80192673,247.658254 3.96323174,247.658254 C4.17003302,247.658254 4.32398508,247.577002 4.39705488,247.532602 L5.98988432,246.414609 L7.48253004,247.459786 C7.54135352,247.509514 7.75642685,247.672462 8.04456998,247.672462 C8.19484557,247.672462 8.3382278,247.627174 8.45955123,247.54237 C8.76240023,247.329694 8.80376047,246.969609 8.68978999,246.707205 L8.09420229,244.936531 L9.57489949,243.89535 C9.81432943,243.75771 10.0146969,243.438474 9.88739921,243.060186 C9.78032209,242.743169 9.48069002,242.546477 9.08317198,242.546477 C9.08225287,242.547365 9.08179331,242.547365 9.08087419,242.547365 Z M7.01332092,244.599091 L7.6465924,246.480765 L5.98896522,245.317484 L4.33179758,246.482097 L4.96552863,244.599091 L3.30698232,243.435366 L5.35661284,243.435366 L5.98850565,241.551916 L6.62177714,243.435366 L8.67048854,243.435366 L7.01332092,244.599091 Z" id="Shape-Copy-21" fill="#C5C8D0"></path>
            <g id="Group-14" transform="translate(0.000000, 104.000000)" fill="#FFC020">
                <path d="M11.5464468,3.153 L1.45858291,3.153 C0.653156632,3.153 0,2.447 0,1.577 C-4.44877013e-16,0.706 0.653156632,0 1.45858291,0 L10.1259313,0 C10.3763748,0 10.5797349,0.22 10.5797349,0.49 C10.5797349,0.762 10.3763748,0.981 10.1259313,0.981 L1.45858291,0.981 C1.15404362,0.981 0.907607221,1.248 0.907607221,1.576 C0.907607221,1.905 1.15404362,2.171 1.45858291,2.171 L11.5464468,2.171 C11.7087342,2.171 11.8579985,2.264 11.9391422,2.416 C12.0202859,2.568 12.0202859,2.756 11.9391422,2.907 C11.8638188,3.05497975 11.7127052,3.14925851 11.5464468,3.152 L11.5464468,3.153 L11.5464468,3.153 Z M11.5464468,16 L1.45858291,16 C0.654158406,15.998 0.00200354795,15.293 0.00100177397,14.423 C0.00100177397,14.153 0.204361891,13.933 0.454805385,13.933 C0.705248878,13.933 0.908608995,14.153 0.908608995,14.423 C0.908608995,14.581 0.966711886,14.733 1.06889283,14.843 C1.16825006,14.9537129 1.30968445,15.0175905 1.45858291,15.019 L11.5464468,15.019 C11.7087342,15.019 11.8579985,15.112 11.9391422,15.264 C12.0202859,15.416 12.0202859,15.603 11.9391422,15.754 C11.8640927,15.9023677 11.7129249,15.9970653 11.5464468,16 L11.5464468,16 Z" id="Shape-Copy-15"></path>
                <path d="M0.453829938,14.914 C0.203392448,14.914 3.72053346e-05,14.694 3.72053346e-05,14.424 L3.72053346e-05,1.575 C-0.00204935131,1.4038134 0.0837469723,1.24346213 0.227434447,1.15 C0.365951737,1.06233182 0.542709889,1.06233182 0.681227179,1.15 C0.824532661,1.24369722 0.90992887,1.4040069 0.907622671,1.575 L0.907622671,14.422 C0.907622671,14.693 0.704267429,14.912 0.453829938,14.912 L0.453829938,14.914 Z M11.5452055,16 C11.294768,16 11.0914128,15.78 11.0914128,15.51 L11.0914128,2.661 C11.0914128,2.391 11.294768,2.171 11.5452055,2.171 C11.795643,2.171 12,2.391 12,2.661 L12,15.51 C12,15.78 11.7966448,16 11.5462073,16 L11.5462073,16 L11.5452055,16 Z M10.1267276,3.153 C9.87629008,3.153 9.67293484,2.933 9.67293484,2.663 L9.67293484,0.49 C9.67293484,0.219 9.87629008,0 10.1267276,0 C10.3771651,0 10.5805203,0.219 10.5805203,0.49 L10.5805203,2.661 C10.5805203,2.932 10.3771651,3.152 10.1267276,3.152 L10.1267276,3.153 Z M8.63111488,6.345 L3.16857234,6.345 C2.91813484,6.345 2.7147796,6.125 2.7147796,5.854 C2.7147796,5.583 2.91813484,5.364 3.16857234,5.364 L8.63011313,5.364 C8.88055062,5.364 9.08290411,5.583 9.08290411,5.854 C9.08290411,6.124 8.88055062,6.344 8.63011313,6.344 L8.63111488,6.345 Z M5.99951773,8.57 L3.16857234,8.57 C2.91813484,8.57 2.7147796,8.35 2.7147796,8.08 C2.7147796,7.808 2.91813484,7.589 3.16857234,7.589 L5.99851598,7.589 C6.24895347,7.589 6.45230871,7.809 6.45230871,8.079 C6.45230871,8.35 6.24995522,8.569 5.99851598,8.569 L5.99951773,8.569 L5.99951773,8.57 Z" id="Shape-Copy-16"></path>
            </g>
            <path d="M11.5464468,133.153 L1.45858291,133.153 C0.653156632,133.153 0,132.447 0,131.577 C-4.44877013e-16,130.706 0.653156632,130 1.45858291,130 L10.1259313,130 C10.3763748,130 10.5797349,130.22 10.5797349,130.49 C10.5797349,130.762 10.3763748,130.981 10.1259313,130.981 L1.45858291,130.981 C1.15404362,130.981 0.907607221,131.248 0.907607221,131.576 C0.907607221,131.905 1.15404362,132.171 1.45858291,132.171 L11.5464468,132.171 C11.7087342,132.171 11.8579985,132.264 11.9391422,132.416 C12.0202859,132.568 12.0202859,132.756 11.9391422,132.907 C11.8638188,133.05498 11.7127052,133.149259 11.5464468,133.152 L11.5464468,133.153 L11.5464468,133.153 Z M11.5464468,146 L1.45858291,146 C0.654158406,145.998 0.00200354795,145.293 0.00100177397,144.423 C0.00100177397,144.153 0.204361891,143.933 0.454805385,143.933 C0.705248878,143.933 0.908608995,144.153 0.908608995,144.423 C0.908608995,144.581 0.966711886,144.733 1.06889283,144.843 C1.16825006,144.953713 1.30968445,145.017591 1.45858291,145.019 L11.5464468,145.019 C11.7087342,145.019 11.8579985,145.112 11.9391422,145.264 C12.0202859,145.416 12.0202859,145.603 11.9391422,145.754 C11.8640927,145.902368 11.7129249,145.997065 11.5464468,146 L11.5464468,146 Z" id="Shape-Copy-15" fill="#C5C8D0"></path>
            <path d="M0.453829938,144.914 C0.203392448,144.914 3.72053346e-05,144.694 3.72053346e-05,144.424 L3.72053346e-05,131.575 C-0.00204935131,131.403813 0.0837469723,131.243462 0.227434447,131.15 C0.365951737,131.062332 0.542709889,131.062332 0.681227179,131.15 C0.824532661,131.243697 0.90992887,131.404007 0.907622671,131.575 L0.907622671,144.422 C0.907622671,144.693 0.704267429,144.912 0.453829938,144.912 L0.453829938,144.914 Z M11.5452055,146 C11.294768,146 11.0914128,145.78 11.0914128,145.51 L11.0914128,132.661 C11.0914128,132.391 11.294768,132.171 11.5452055,132.171 C11.795643,132.171 12,132.391 12,132.661 L12,145.51 C12,145.78 11.7966448,146 11.5462073,146 L11.5462073,146 L11.5452055,146 Z M10.1267276,133.153 C9.87629008,133.153 9.67293484,132.933 9.67293484,132.663 L9.67293484,130.49 C9.67293484,130.219 9.87629008,130 10.1267276,130 C10.3771651,130 10.5805203,130.219 10.5805203,130.49 L10.5805203,132.661 C10.5805203,132.932 10.3771651,133.152 10.1267276,133.152 L10.1267276,133.153 Z M8.63111488,136.345 L3.16857234,136.345 C2.91813484,136.345 2.7147796,136.125 2.7147796,135.854 C2.7147796,135.583 2.91813484,135.364 3.16857234,135.364 L8.63011313,135.364 C8.88055062,135.364 9.08290411,135.583 9.08290411,135.854 C9.08290411,136.124 8.88055062,136.344 8.63011313,136.344 L8.63111488,136.345 Z M5.99951773,138.57 L3.16857234,138.57 C2.91813484,138.57 2.7147796,138.35 2.7147796,138.08 C2.7147796,137.808 2.91813484,137.589 3.16857234,137.589 L5.99851598,137.589 C6.24895347,137.589 6.45230871,137.809 6.45230871,138.079 C6.45230871,138.35 6.24995522,138.569 5.99851598,138.569 L5.99951773,138.569 L5.99951773,138.57 Z" id="Shape-Copy-16" fill="#C5C8D0"></path>
            <path d="M15.673098,341.943966 L11.9570667,338.296876 C11.5482196,337.894413 10.881851,337.894413 10.4719686,338.296876 L1.18367059,347.412452 C0.835341176,348.300844 0.209647059,352.106225 0,353.541927 C0.15747451,353.69686 0.24412549,353.888625 0.441207843,353.975558 C1.82508235,353.769315 5.87899608,352.695887 6.38578824,352.516405 L15.6730824,343.401958 C16.0829647,342.998538 16.0829647,342.345236 15.6730824,341.943997 L15.6730824,341.943997 L15.6730824,341.943997 L15.673098,341.943966 Z M1.55494902,352.880923 L1.18368627,352.516405 L1.50288627,350.64155 L3.30710588,352.412766 L1.55494902,352.880923 L1.55494902,352.880923 Z M5.64225882,351.786381 L4.47524706,352.100687 L1.7156549,349.392044 L1.92737255,348.141456 L9.3571451,340.849299 L10.1007529,341.578319 L3.04224314,348.505974 L3.7848,349.234883 L10.8433098,342.307354 L11.5858667,343.036295 L6.0136,348.505958 L6.75719216,349.234868 L12.3295686,343.766413 L13.0721569,344.495432 L5.64236863,351.78635 L5.64225882,351.786381 Z M13.8156235,343.766444 L10.1007529,340.120421 L11.2145569,339.025895 L14.9294588,342.672985 L13.8156235,343.766444 Z" id="Shape-Copy-17" fill="#C5C8D0"></path>
            <path d="M15.6922287,315.953749 L11.9716615,312.302215 C11.5623154,311.899262 10.8951334,311.899262 10.4847508,312.302215 L1.18511538,321.428898 C0.836360799,322.318372 0.209902955,326.128389 0,327.56584 C0.157666724,327.720962 0.244423471,327.912961 0.441746384,328 C1.82731006,327.793506 5.88617201,326.71877 6.39358276,326.539069 L15.692213,317.413517 C16.1025957,317.009606 16.1025957,316.355508 15.692213,315.95378 L15.692213,315.95378 L15.692213,315.95378 L15.6922287,315.953749 Z M1.556847,326.904031 L1.18513109,326.539069 L1.50472071,324.66193 L3.31114255,326.435304 L1.556847,326.904031 L1.556847,326.904031 Z M5.6491458,325.808156 L4.48070957,326.122845 L1.71774904,323.410902 L1.92972511,322.15879 L9.36856648,314.857748 L10.113082,315.587656 L3.04595652,322.523752 L3.78941975,323.253549 L10.8565452,316.31758 L11.6000084,317.047409 L6.02094023,322.523736 L6.76544002,323.253534 L12.3446182,317.778416 L13.0881128,318.508324 L5.64925573,325.808125 L5.6491458,325.808156 Z M13.832487,317.778448 L10.113082,314.127982 L11.2282454,313.032123 L14.9476818,316.683656 L13.832487,317.778448 Z" id="Shape-Copy-22" fill="#FFC020"></path>
            <path d="M7,424.461073 C6.03486034,424.461073 5.25117318,423.703026 5.25117318,422.769464 C5.25117318,421.835901 6.03486034,421.077854 7,421.077854 C7.96513966,421.077854 8.74882682,421.834388 8.74882682,422.769464 C8.74882682,423.704539 7.96513966,424.461073 7,424.461073 L7,424.461073 Z M7,420.230536 C5.54994413,420.230536 4.37519553,421.36685 4.37519553,422.769464 C4.37519553,424.172077 5.54994413,425.308391 7,425.308391 C8.44849162,425.308391 9.62480447,424.172077 9.62480447,422.769464 C9.62480447,421.36685 8.44849162,420.230536 7,420.230536 L7,420.230536 Z M12.0259218,420.359147 C12.8330726,421.023384 13.5119553,421.835901 14,422.769464 C12.689162,425.281155 10.0487151,427 7,427 C3.95128492,427 1.31083799,425.281155 0,422.769464 C0.486480447,421.835901 1.16536313,421.024897 1.97407821,420.359147 L0.993296089,418.849106 C0.752402235,418.478404 0.894748603,418.001788 1.31396648,417.786933 C1.73318436,417.572077 2.26815642,417.699175 2.50905028,418.071389 L3.38659218,419.424072 C4.22346369,418.995873 5.14636872,418.708391 6.12558659,418.59945 L6.12558659,416.845805 C6.12558659,416.378267 6.51821229,416 7,416 C7.48335196,416 7.87441341,416.37978 7.87441341,416.845805 L7.87441341,418.59945 C8.85363128,418.708391 9.77653631,418.995873 10.6134078,419.424072 L11.4909497,418.071389 C11.7318436,417.699175 12.2683799,417.572077 12.6860335,417.786933 C13.1036872,418.001788 13.249162,418.476891 13.0067039,418.849106 L12.0259218,420.359147 L12.0259218,420.359147 Z" id="Shape-Copy-18" fill="#FFFFFF" fill-rule="nonzero"></path>
            <g id="Group-20" transform="translate(0.000000, 390.000000)" stroke="#C5C8D0" stroke-width="2">
                <use id="Oval-2-Copy" mask="url(#mask-2)" xlink:href="#path-1"></use>
                <use id="Oval-2-Copy-2" mask="url(#mask-4)" xlink:href="#path-3"></use>
            </g>
            <g id="Group-19" transform="translate(0.000000, 364.000000)" stroke="#FFC020" stroke-width="2">
                <use id="Oval-2-Copy-3" mask="url(#mask-6)" xlink:href="#path-5"></use>
                <use id="Oval-2-Copy-4" mask="url(#mask-8)" xlink:href="#path-7"></use>
            </g>
        </g>
    </g>
</svg>