<?xml version="1.0" encoding="UTF-8" standalone="no"?>
<svg width="196px" height="149px" viewBox="0 0 196 149" version="1.1" xmlns="http://www.w3.org/2000/svg" xmlns:xlink="http://www.w3.org/1999/xlink">
    <!-- Generator: Sketch 41 (35326) - http://www.bohemiancoding.com/sketch -->
    <title>空态</title>
    <desc>Created with Sketch.</desc>
    <defs>
        <path d="M21,37 L175,37 L165.729152,58.8169459 L174.696526,109.976782 C175.077995,112.153101 173.604487,113.917355 171.386581,113.917355 L25.3878916,113.917355 C23.1783906,113.917355 21.6003813,112.146472 21.8641889,109.95467 L28.0191766,58.8169459 L21,37 Z" id="path-1"></path>
        <filter x="-50%" y="-50%" width="200%" height="200%" filterUnits="objectBoundingBox" id="filter-2">
            <feOffset dx="0" dy="1" in="SourceAlpha" result="shadowOffsetOuter1"></feOffset>
            <feGaussianBlur stdDeviation="0.5" in="shadowOffsetOuter1" result="shadowBlurOuter1"></feGaussianBlur>
            <feColorMatrix values="0 0 0 0 0.0495577285   0 0 0 0 0.614477041   0 0 0 0 0.53006381  0 0 0 0.474892437 0" type="matrix" in="shadowBlurOuter1"></feColorMatrix>
        </filter>
        <circle id="path-3" cx="165.5" cy="58.5" r="4.5"></circle>
        <filter x="-50%" y="-50%" width="200%" height="200%" filterUnits="objectBoundingBox" id="filter-4">
            <feMorphology radius="2" operator="dilate" in="SourceAlpha" result="shadowSpreadOuter1"></feMorphology>
            <feOffset dx="0" dy="0" in="shadowSpreadOuter1" result="shadowOffsetOuter1"></feOffset>
            <feGaussianBlur stdDeviation="1" in="shadowOffsetOuter1" result="shadowBlurOuter1"></feGaussianBlur>
            <feComposite in="shadowBlurOuter1" in2="SourceAlpha" operator="out" result="shadowBlurOuter1"></feComposite>
            <feColorMatrix values="0 0 0 0 0.0467209589   0 0 0 0 0.368303571   0 0 0 0 0.320250997  0 0 0 0.423629982 0" type="matrix" in="shadowBlurOuter1"></feColorMatrix>
        </filter>
        <mask id="mask-5" maskContentUnits="userSpaceOnUse" maskUnits="objectBoundingBox" x="-2" y="-2" width="13" height="13">
            <rect x="159" y="52" width="13" height="13" fill="white"></rect>
            <use xlink:href="#path-3" fill="black"></use>
        </mask>
        <circle id="path-6" cx="29.5" cy="58.5" r="4.5"></circle>
        <filter x="-50%" y="-50%" width="200%" height="200%" filterUnits="objectBoundingBox" id="filter-7">
            <feMorphology radius="2" operator="dilate" in="SourceAlpha" result="shadowSpreadOuter1"></feMorphology>
            <feOffset dx="0" dy="0" in="shadowSpreadOuter1" result="shadowOffsetOuter1"></feOffset>
            <feGaussianBlur stdDeviation="1" in="shadowOffsetOuter1" result="shadowBlurOuter1"></feGaussianBlur>
            <feComposite in="shadowBlurOuter1" in2="SourceAlpha" operator="out" result="shadowBlurOuter1"></feComposite>
            <feColorMatrix values="0 0 0 0 0.0467209589   0 0 0 0 0.368303571   0 0 0 0 0.320250997  0 0 0 0.423629982 0" type="matrix" in="shadowBlurOuter1"></feColorMatrix>
        </filter>
        <mask id="mask-8" maskContentUnits="userSpaceOnUse" maskUnits="objectBoundingBox" x="-2" y="-2" width="13" height="13">
            <rect x="23" y="52" width="13" height="13" fill="white"></rect>
            <use xlink:href="#path-6" fill="black"></use>
        </mask>
        <ellipse id="path-9" cx="154" cy="124" rx="2" ry="2"></ellipse>
        <filter x="-50%" y="-50%" width="200%" height="200%" filterUnits="objectBoundingBox" id="filter-10">
            <feMorphology radius="0.5" operator="dilate" in="SourceAlpha" result="shadowSpreadOuter1"></feMorphology>
            <feOffset dx="0" dy="1" in="shadowSpreadOuter1" result="shadowOffsetOuter1"></feOffset>
            <feGaussianBlur stdDeviation="0.5" in="shadowOffsetOuter1" result="shadowBlurOuter1"></feGaussianBlur>
            <feComposite in="shadowBlurOuter1" in2="SourceAlpha" operator="out" result="shadowBlurOuter1"></feComposite>
            <feColorMatrix values="0 0 0 0 0.121568627   0 0 0 0 0.803921569   0 0 0 0 0.701960784  0 0 0 0.42725317 0" type="matrix" in="shadowBlurOuter1"></feColorMatrix>
        </filter>
        <circle id="path-11" cx="166.5" cy="131.5" r="1.5"></circle>
        <filter x="-50%" y="-50%" width="200%" height="200%" filterUnits="objectBoundingBox" id="filter-12">
            <feOffset dx="0" dy="1" in="SourceAlpha" result="shadowOffsetOuter1"></feOffset>
            <feGaussianBlur stdDeviation="0.5" in="shadowOffsetOuter1" result="shadowBlurOuter1"></feGaussianBlur>
            <feColorMatrix values="0 0 0 0 0.121568627   0 0 0 0 0.803921569   0 0 0 0 0.701960784  0 0 0 0.42725317 0" type="matrix" in="shadowBlurOuter1"></feColorMatrix>
        </filter>
        <path d="M177.464823,121.464823 L175.750065,121.464823 C175.442033,121.464823 175.181981,121.720339 175.181981,122.035534 C175.181981,122.341511 175.43632,122.606245 175.750065,122.606245 L177.464823,122.606245 L177.464823,124.321003 C177.464823,124.629035 177.720339,124.889087 178.035534,124.889087 C178.341511,124.889087 178.606245,124.634747 178.606245,124.321003 L178.606245,122.606245 L180.321003,122.606245 C180.629035,122.606245 180.889087,122.350729 180.889087,122.035534 C180.889087,121.729557 180.634747,121.464823 180.321003,121.464823 L178.606245,121.464823 L178.606245,119.750065 C178.606245,119.442033 178.350729,119.181981 178.035534,119.181981 C177.729557,119.181981 177.464823,119.43632 177.464823,119.750065 L177.464823,121.464823 Z" id="path-13"></path>
        <filter x="-50%" y="-50%" width="200%" height="200%" filterUnits="objectBoundingBox" id="filter-14">
            <feOffset dx="0" dy="1" in="SourceAlpha" result="shadowOffsetOuter1"></feOffset>
            <feGaussianBlur stdDeviation="0.5" in="shadowOffsetOuter1" result="shadowBlurOuter1"></feGaussianBlur>
            <feComposite in="shadowBlurOuter1" in2="SourceAlpha" operator="out" result="shadowBlurOuter1"></feComposite>
            <feColorMatrix values="0 0 0 0 0.121568627   0 0 0 0 0.803921569   0 0 0 0 0.701960784  0 0 0 0.42725317 0" type="matrix" in="shadowBlurOuter1"></feColorMatrix>
        </filter>
        <mask id="mask-15" maskContentUnits="userSpaceOnUse" maskUnits="objectBoundingBox" x="0" y="0" width="5.70710678" height="5.70710678" fill="white">
            <use xlink:href="#path-13"></use>
        </mask>
        <circle id="path-16" cx="22" cy="13" r="2"></circle>
        <filter x="-50%" y="-50%" width="200%" height="200%" filterUnits="objectBoundingBox" id="filter-17">
            <feMorphology radius="0.5" operator="dilate" in="SourceAlpha" result="shadowSpreadOuter1"></feMorphology>
            <feOffset dx="0" dy="1" in="shadowSpreadOuter1" result="shadowOffsetOuter1"></feOffset>
            <feGaussianBlur stdDeviation="0.5" in="shadowOffsetOuter1" result="shadowBlurOuter1"></feGaussianBlur>
            <feComposite in="shadowBlurOuter1" in2="SourceAlpha" operator="out" result="shadowBlurOuter1"></feComposite>
            <feColorMatrix values="0 0 0 0 0.121568627   0 0 0 0 0.803921569   0 0 0 0 0.701960784  0 0 0 0.42725317 0" type="matrix" in="shadowBlurOuter1"></feColorMatrix>
        </filter>
        <circle id="path-18" cx="9.5" cy="14.5" r="1.5"></circle>
        <filter x="-50%" y="-50%" width="200%" height="200%" filterUnits="objectBoundingBox" id="filter-19">
            <feOffset dx="0" dy="1" in="SourceAlpha" result="shadowOffsetOuter1"></feOffset>
            <feGaussianBlur stdDeviation="0.5" in="shadowOffsetOuter1" result="shadowBlurOuter1"></feGaussianBlur>
            <feColorMatrix values="0 0 0 0 0.121568627   0 0 0 0 0.803921569   0 0 0 0 0.701960784  0 0 0 0.42725317 0" type="matrix" in="shadowBlurOuter1"></feColorMatrix>
        </filter>
        <path d="M3.46482323,3.46482323 L1.75006454,3.46482323 C1.44203305,3.46482323 1.18198052,3.7203391 1.18198052,4.03553391 C1.18198052,4.34151063 1.43632039,4.60624458 1.75006454,4.60624458 L3.46482323,4.60624458 L3.46482323,6.32100328 C3.46482323,6.62903476 3.7203391,6.8890873 4.03553391,6.8890873 C4.34151063,6.8890873 4.60624458,6.63474742 4.60624458,6.32100328 L4.60624458,4.60624458 L6.32100328,4.60624458 C6.62903476,4.60624458 6.8890873,4.35072871 6.8890873,4.03553391 C6.8890873,3.72955718 6.63474742,3.46482323 6.32100328,3.46482323 L4.60624458,3.46482323 L4.60624458,1.75006454 C4.60624458,1.44203305 4.35072871,1.18198052 4.03553391,1.18198052 C3.72955718,1.18198052 3.46482323,1.43632039 3.46482323,1.75006454 L3.46482323,3.46482323 Z" id="path-20"></path>
        <filter x="-50%" y="-50%" width="200%" height="200%" filterUnits="objectBoundingBox" id="filter-21">
            <feOffset dx="0" dy="1" in="SourceAlpha" result="shadowOffsetOuter1"></feOffset>
            <feGaussianBlur stdDeviation="0.5" in="shadowOffsetOuter1" result="shadowBlurOuter1"></feGaussianBlur>
            <feComposite in="shadowBlurOuter1" in2="SourceAlpha" operator="out" result="shadowBlurOuter1"></feComposite>
            <feColorMatrix values="0 0 0 0 0.121568627   0 0 0 0 0.803921569   0 0 0 0 0.701960784  0 0 0 0.42725317 0" type="matrix" in="shadowBlurOuter1"></feColorMatrix>
        </filter>
        <mask id="mask-22" maskContentUnits="userSpaceOnUse" maskUnits="objectBoundingBox" x="0" y="0" width="5.70710678" height="5.70710678" fill="white">
            <use xlink:href="#path-20"></use>
        </mask>
    </defs>
    <g id="02-08迭代" stroke="none" stroke-width="1" fill="none" fill-rule="evenodd">
        <g id="空态">
            <path d="M16.658415,47.152675 C15.4997526,45.9637854 15.9124972,45 17.5650558,45 L179.521048,45 C181.180434,45 181.489918,45.8635353 180.221715,46.9209106 L165.766453,58.9731039 L169.876907,80.6145248 C173.483874,99.6050984 160.736435,115 141.409642,115 L57.5423996,115 C38.2133967,115 24.1117026,99.4119957 26.0462672,80.174438 L28.1783128,58.9731039 L16.658415,47.152675 Z" id="Rectangle-27-Copy" fill="#24BAA4"></path>
            <g id="Rectangle-27">
                <use fill="black" fill-opacity="1" filter="url(#filter-2)" xlink:href="#path-1"></use>
                <use fill="#1FCDB3" fill-rule="evenodd" xlink:href="#path-1"></use>
            </g>
            <g id="Group-16" transform="translate(55.000000, 0.000000)">
                <rect id="Rectangle-23" fill="#4FDCC7" x="0" y="0" width="86" height="132" rx="2"></rect>
                <rect id="Rectangle-23" fill="#FFFFFF" x="4" y="15" width="78" height="113" rx="2"></rect>
                <g id="Group-13" transform="translate(28.500000, 6.000000)" fill="#FFFFFF">
                    <rect id="Rectangle-24" x="7" y="0" width="22" height="4" rx="2"></rect>
                    <rect id="Rectangle-24-Copy" x="0" y="0" width="4" height="4" rx="2"></rect>
                </g>
                <g id="Group-15" transform="translate(29.500000, 38.000000)" fill="#4FDCC7">
                    <g id="Group-14">
                        <rect id="Rectangle-25" x="0" y="0" width="4" height="4" rx="2"></rect>
                        <rect id="Rectangle-25-Copy" x="23" y="0" width="4" height="4" rx="2"></rect>
                    </g>
                    <rect id="Rectangle-26" x="8" y="11" width="13" height="2" rx="1"></rect>
                </g>
            </g>
            <g id="Oval-3">
                <use fill="black" fill-opacity="1" filter="url(#filter-4)" xlink:href="#path-3"></use>
                <use fill="#FFFFFF" fill-rule="evenodd" xlink:href="#path-3"></use>
                <use stroke="#4FDCC7" mask="url(#mask-5)" stroke-width="4" xlink:href="#path-3"></use>
            </g>
            <g id="Oval-3-Copy">
                <use fill="black" fill-opacity="1" filter="url(#filter-7)" xlink:href="#path-6"></use>
                <use fill="#FFFFFF" fill-rule="evenodd" xlink:href="#path-6"></use>
                <use stroke="#4FDCC7" mask="url(#mask-8)" stroke-width="4" xlink:href="#path-6"></use>
            </g>
            <g id="Group-19" transform="translate(0.000000, 16.000000)" fill-opacity="0.326737998" fill="#4FDCC7">
                <g id="Group-18" transform="translate(171.000000, 0.000000)">
                    <rect id="Rectangle-28" x="0" y="0" width="3.2" height="12.9230769" rx="1.6"></rect>
                    <rect id="Rectangle-28-Copy" transform="translate(12.056854, 8.942016) rotate(-315.000000) translate(-12.056854, -8.942016) " x="10.4568542" y="2.48047785" width="3.2" height="12.9230769" rx="1.6"></rect>
                    <rect id="Rectangle-28-Copy-2" transform="translate(17.600000, 19.384615) rotate(-270.000000) translate(-17.600000, -19.384615) " x="16" y="12.9230769" width="3.2" height="12.9230769" rx="1.6"></rect>
                </g>
                <g id="Group-17" transform="translate(12.500000, 10.500000) scale(-1, 1) translate(-12.500000, -10.500000) ">
                    <rect id="Rectangle-28-Copy-3" x="0" y="0" width="3.33333333" height="12.9230769" rx="1.66666667"></rect>
                    <rect id="Rectangle-28-Copy-4" transform="translate(12.559223, 8.942016) rotate(-315.000000) translate(-12.559223, -8.942016) " x="10.8925565" y="2.48047785" width="3.33333333" height="12.9230769" rx="1.66666667"></rect>
                    <rect id="Rectangle-28-Copy-5" transform="translate(18.333333, 19.384615) rotate(-270.000000) translate(-18.333333, -19.384615) " x="16.6666667" y="12.9230769" width="3.33333333" height="12.9230769" rx="1.66666667"></rect>
                </g>
            </g>
            <ellipse id="Oval-5" fill="#1FCDB3" opacity="0.152518657" cx="98.5" cy="144.5" rx="50.5" ry="4.5"></ellipse>
            <g id="Oval-6" opacity="0.539470616">
                <use fill="black" fill-opacity="1" filter="url(#filter-10)" xlink:href="#path-9"></use>
                <use stroke="#1FCDB3" stroke-width="1" fill="#FFFFFF" fill-rule="evenodd" xlink:href="#path-9"></use>
            </g>
            <g id="Oval-6-Copy" opacity="0.437033582">
                <use fill="black" fill-opacity="1" filter="url(#filter-12)" xlink:href="#path-11"></use>
                <use fill="#1FCDB3" fill-rule="evenodd" xlink:href="#path-11"></use>
            </g>
            <g id="Combined-Shape" opacity="0.528509795" transform="translate(178.035534, 122.035534) rotate(-315.000000) translate(-178.035534, -122.035534) ">
                <use fill="black" fill-opacity="1" filter="url(#filter-14)" xlink:href="#path-13"></use>
                <use stroke="#1FCDB3" mask="url(#mask-15)" stroke-width="2" fill="#D8D8D8" fill-rule="evenodd" xlink:href="#path-13"></use>
            </g>
            <g id="Group-20" opacity="0.573810634" transform="translate(26.000000, 117.000000)">
                <g id="Oval-6-Copy-2" transform="translate(22.000000, 13.000000) scale(-1, 1) translate(-22.000000, -13.000000) ">
                    <use fill="black" fill-opacity="1" filter="url(#filter-17)" xlink:href="#path-16"></use>
                    <use stroke="#1FCDB3" stroke-width="1" fill="#FFFFFF" fill-rule="evenodd" xlink:href="#path-16"></use>
                </g>
                <g id="Oval-6-Copy-3" transform="translate(9.500000, 14.500000) scale(-1, 1) translate(-9.500000, -14.500000) ">
                    <use fill="black" fill-opacity="1" filter="url(#filter-19)" xlink:href="#path-18"></use>
                    <use fill="#1FCDB3" fill-rule="evenodd" xlink:href="#path-18"></use>
                </g>
                <g id="Combined-Shape-Copy-2" transform="translate(4.035534, 4.035534) scale(-1, 1) rotate(-315.000000) translate(-4.035534, -4.035534) ">
                    <use fill="black" fill-opacity="1" filter="url(#filter-21)" xlink:href="#path-20"></use>
                    <use stroke="#1FCDB3" mask="url(#mask-22)" stroke-width="2" fill="#D8D8D8" fill-rule="evenodd" xlink:href="#path-20"></use>
                </g>
            </g>
        </g>
    </g>
</svg>