<?xml version="1.0" encoding="UTF-8" standalone="no"?>
<svg width="60px" height="56px" viewBox="0 0 60 56" version="1.1" xmlns="http://www.w3.org/2000/svg" xmlns:xlink="http://www.w3.org/1999/xlink">
    <!-- Generator: Sketch 42 (36781) - http://www.bohemiancoding.com/sketch -->
    <title>Group 10@3x</title>
    <desc>Created with Sketch.</desc>
    <defs>
        <circle id="path-1" cx="41.5" cy="34.5" r="10.5"></circle>
        <mask id="mask-2" maskContentUnits="userSpaceOnUse" maskUnits="objectBoundingBox" x="0" y="0" width="21" height="21" fill="white">
            <use xlink:href="#path-1"></use>
        </mask>
    </defs>
    <g id="Page-1" stroke="none" stroke-width="1" fill="none" fill-rule="evenodd">
        <g id="微信预约" transform="translate(-158.000000, -470.000000)">
            <g id="Group-10" transform="translate(158.000000, 470.000000)">
                <path d="M0,49.4591625 C0,52.5407625 13.4316,55.0391625 30,55.0391625 C46.5684,55.0391625 60,52.5410625 60,49.4591625 C60,46.3772625 46.5684,43.8791625 30,43.8791625 C13.4316,43.8791625 0,46.3772625 0,49.4591625 Z" id="Shape" fill="#E5F8F7" fill-rule="nonzero"></path>
                <path d="M5.4801,49.5590625 C5.4801,51.1055625 16.458,52.3589625 30,52.3589625 C43.542,52.3589625 54.5199,51.1052625 54.5199,49.5590625 C54.5199,48.0125625 43.542,46.7591625 30,46.7591625 C16.458,46.7591625 5.4801,48.0125625 5.4801,49.5590625 Z" id="Shape" fill="#95E2DE" fill-rule="nonzero"></path>
                <path d="M16.8399,6.5990625 L11.6601,6.5990625 C9.7602,6.5990625 8.28,8.1989625 8.28,9.9791625 L8.28,45.5591625 C8.28,47.4590625 9.8799,48.9392625 11.6601,48.9392625 L38.9601,48.9392625 C40.86,48.9392625 42.3402,47.3393625 42.3402,45.5591625 L42.3402,9.9989625 C42.3402,8.0990625 40.7403,6.6188625 38.9601,6.6188625 L33.78,6.6188625" id="Shape" fill="#E5F8F7" fill-rule="nonzero"></path>
                <path d="M42.36,33.1190625 C41.9601,33.1190625 41.6601,32.8190625 41.6601,32.4191625 L41.6601,9.9989625 C41.6601,8.4989625 40.4601,7.2989625 38.9601,7.2989625 L33.78,7.2989625 C33.3801,7.2989625 33.0801,6.9989625 33.0801,6.5990625 C33.0801,6.1991625 33.3801,5.8991625 33.78,5.8991625 L38.9601,5.8991625 C41.2602,5.8991625 43.14,7.7990625 43.14,10.0790625 L43.14,32.4989625 C43.0599,32.8190625 42.7599,33.1190625 42.36,33.1190625 Z M38.88,49.7591625 L11.5599,49.7591625 C9.2598,49.7591625 7.38,47.8592625 7.38,45.5792625 L7.38,9.9992625 C7.38,7.6991625 9.2799,5.8193625 11.5599,5.8193625 L16.74,5.8193625 C17.1399,5.8193625 17.4399,6.1193625 17.4399,6.5192625 C17.4399,6.9191625 17.1399,7.2191625 16.74,7.2191625 L11.5599,7.2191625 C10.0599,7.2191625 8.8599,8.4191625 8.8599,9.9191625 L8.8599,45.4991625 C8.8599,46.9991625 10.0599,48.1991625 11.5599,48.1991625 L38.8599,48.1991625 C40.3599,48.1991625 41.5599,46.9991625 41.5599,45.4991625 L41.5599,39.2192625 C41.5599,38.8193625 41.8599,38.5193625 42.2598,38.5193625 C42.6597,38.5193625 42.9597,38.8193625 42.9597,39.2192625 L42.9597,45.4991625 C43.0599,47.8790625 41.16,49.7591625 38.88,49.7591625 L38.88,49.7591625 Z" id="Shape" fill="#00B9B2" fill-rule="nonzero"></path>
                <path d="M34.68,8.8991625 L33.6801,8.8991625 L33.6801,9.2990625 L16.74,9.2990625 L16.74,8.8991625 L15.7401,8.8991625 C13.14,8.8991625 11.0601,11.0990625 11.0601,13.7792625 L11.0601,42.6791625 C11.0601,44.7791625 12.66,46.4591625 14.7402,46.4591625 L35.6802,46.4591625 C37.6803,46.4591625 39.3603,44.7590625 39.3603,42.6791625 L39.3603,13.7789625 C39.36,11.0990625 37.2801,8.8991625 34.68,8.8991625 L34.68,8.8991625 Z" id="Shape" fill="#B7EBE9" fill-rule="nonzero"></path>
                <path d="M16.74,8.9990625 L15.7401,8.9990625 C13.3401,8.9990625 11.3601,10.9991625 11.3601,13.3790625 L11.3601,40.8791625 C11.3601,42.6791625 12.8601,44.1590625 14.64,44.1590625 L35.58,44.1590625 C37.38,44.1590625 38.8599,42.6590625 38.8599,40.8791625 L38.8599,13.3790625 C38.8599,10.9790625 36.8598,8.9990625 34.4799,8.9990625 L33.48,8.9990625" id="Shape" fill="#FFFFFF" fill-rule="nonzero"></path>
                <path d="M35.7801,44.8790625 L14.8599,44.8790625 C12.66,44.8790625 10.8798,43.0790625 10.8798,40.8989625 L10.8798,13.3790625 C10.8798,10.5791625 13.1799,8.2991625 15.9597,8.2991625 L16.9596,8.2991625 L16.9596,9.6992625 L15.96,9.6992625 C13.9599,9.6992625 12.3801,11.2991625 12.3801,13.2791625 L12.3801,40.7792625 C12.3801,42.1793625 13.5801,43.3793625 14.9802,43.3793625 L35.9202,43.3793625 C37.3203,43.3793625 38.5203,42.1793625 38.5203,40.7792625 L38.5203,13.2791625 C38.5203,11.2790625 36.9204,9.6992625 34.9404,9.6992625 L33.9405,9.6992625 L33.9405,8.2991625 L34.9404,8.2991625 C37.7403,8.2991625 40.0203,10.5992625 40.0203,13.3790625 L40.0203,40.8791625 C39.7599,43.0790625 37.98,44.8790625 35.7801,44.8790625 L35.7801,44.8790625 Z" id="Shape" fill="#00B9B2" fill-rule="nonzero"></path>
                <path d="M16.44,9.4991625 L16.44,10.1990625 L34.1799,10.1990625 L34.1799,8.1989625 C34.1799,6.5990625 32.88,5.2988625 31.2798,5.2988625 L27.9999,5.2988625 C28.2,4.8989625 28.3998,4.3988625 28.3998,3.8987625 C28.3998,2.1986625 26.9997,0.8186625 25.3197,0.8186625 C23.6397,0.8186625 22.2396,2.2187625 22.2396,3.8987625 C22.2396,4.3988625 22.3395,4.8986625 22.6395,5.2988625 L19.3395,5.2988625 C17.7396,5.2988625 16.4394,6.5987625 16.4394,8.1989625 L16.4394,9.4991625" id="Shape" fill="#FFFFFF" fill-rule="nonzero"></path>
                <path d="M34.8801,10.8989625 L15.7401,10.8989625 L15.7401,8.0990625 C15.7401,6.0989625 17.34,4.5191625 19.32,4.5191625 L21.6201,4.5191625 C21.6201,4.3190625 21.5202,4.0190625 21.5202,3.8192625 C21.5202,1.7192625 23.2203,0.0392625 25.3002,0.0392625 C27.3801,0.0392625 29.0802,1.7393625 29.0802,3.8192625 C29.0802,4.0193625 29.0802,4.3193625 28.9803,4.5191625 L31.2804,4.5191625 C33.2805,4.5191625 34.8603,6.1190625 34.8603,8.0990625 C34.8801,8.0990625 34.8801,10.8989625 34.8801,10.8989625 Z M17.1399,9.4991625 L33.3798,9.4991625 L33.3798,8.1992625 C33.3798,6.9992625 32.3799,5.9993625 31.1799,5.9993625 L26.7,5.9993625 L27.3,4.8992625 C27.5001,4.4993625 27.6,4.1993625 27.6,3.7991625 C27.6,2.4992625 26.4999,1.4990625 25.2999,1.4990625 C24.0999,1.4990625 22.9998,2.5991625 22.9998,3.7991625 C22.9998,4.1990625 23.0997,4.4990625 23.2998,4.8992625 L23.8998,5.9993625 L19.44,5.9993625 C18.24,5.9993625 17.2401,6.9992625 17.2401,8.1992625 L17.2401,9.4991625 L17.1399,9.4991625 L17.1399,9.4991625 Z M34.4799,19.9589625 L16.0401,19.9589625 C15.6402,19.9589625 15.3402,19.6589625 15.3402,19.2590625 C15.3402,18.8591625 15.6402,18.5591625 16.0401,18.5591625 L34.38,18.5591625 C34.7799,18.5591625 35.0799,18.8591625 35.0799,19.2590625 C35.1801,19.6589625 34.8801,19.9589625 34.4799,19.9589625 Z M30.2001,25.7390625 L16.0401,25.7390625 C15.6402,25.7390625 15.3402,25.4390625 15.3402,25.0391625 C15.3402,24.6392625 15.6402,24.3392625 16.0401,24.3392625 L30.1002,24.3392625 C30.5001,24.3392625 30.8001,24.6392625 30.8001,25.0391625 C30.9,25.4390625 30.6,25.7390625 30.2001,25.7390625 Z M25.5201,31.5191625 L16.0401,31.5191625 C15.6402,31.5191625 15.3402,31.2191625 15.3402,30.8192625 C15.3402,30.4193625 15.6402,30.1193625 16.0401,30.1193625 L25.5,30.1193625 C25.8999,30.1193625 26.1999,30.4193625 26.1999,30.8192625 C26.22,31.2191625 25.92,31.5191625 25.5201,31.5191625 Z" id="Shape" fill="#00B9B2" fill-rule="nonzero"></path>
                <path d="M24.2199,3.8189625 C24.2197392,4.2119368 24.4292399,4.57514581 24.7694853,4.77177219 C25.1097306,4.96839858 25.5290292,4.96857012 25.8694353,4.77222219 C26.2098414,4.57587427 26.4196393,4.2128368 26.4198,3.8198625 L26.4198,3.8189625 C26.4200485,3.21147689 25.9277856,2.71881103 25.3203,2.7185625 C24.7128144,2.71831397 24.2201485,3.21057689 24.2199,3.8180625 L24.2199,3.8189625 L24.2199,3.8189625 Z" id="Shape" fill="#00B9B2" fill-rule="nonzero"></path>
                <polygon id="Shape" fill="#E5F8F7" fill-rule="nonzero" points="17.04 8.0990625 33.3801 8.0990625 33.3801 9.4991625 17.04 9.4991625"></polygon>
                <use id="Oval-6" stroke="#00B9B2" mask="url(#mask-2)" stroke-width="3" fill="#FFFFFF" xlink:href="#path-1"></use>
                <path d="M40.9328554,39.2246853 C40.9328554,39.4855564 41.0720284,39.7266112 41.2979494,39.8570467 C41.5238703,39.9874822 41.8022164,39.9874822 42.0281373,39.8570467 C42.2540583,39.7266112 42.3932313,39.4855564 42.3932313,39.2246853 C42.3932313,38.9638143 42.2540583,38.7227595 42.0281373,38.592324 C41.8022164,38.4618885 41.5238703,38.4618885 41.2979494,38.592324 C41.0720284,38.7227595 40.9328554,38.9638143 40.9328554,39.2246853 L40.9328554,39.2246853 Z" id="Shape" fill="#00B9B2" fill-rule="nonzero"></path>
                <path d="M41.6630434,29.0020539 C39.6472928,29.0020539 38.0131082,30.6356544 38.0121503,32.6511946 C38.0121503,32.6518021 38.0121036,32.6523862 38.0121036,32.6529937 C38.0121036,33.0562653 38.3390199,33.383205 38.7422915,33.383205 C39.1455631,33.383205 39.4724795,33.0562886 39.4724795,32.6529937 C39.4724795,31.4431789 40.4532519,30.4624298 41.6630434,30.4624298 C42.8728348,30.4624298 43.8535839,31.4431789 43.8535839,32.6529937 C43.8535839,33.8628085 42.8728348,34.8435576 41.6630434,34.8435576 C41.2600755,34.8435576 40.9333928,35.1699833 40.9329021,35.5728343 C40.9329021,35.5731614 40.9328554,35.5734184 40.9328554,35.5737455 C40.9328554,35.5740259 40.9329021,35.5743296 40.9329021,35.5746567 L40.9329021,37.0331869 L40.9329021,37.0350093 C40.9333928,37.4378136 41.2600989,37.764286 41.6630434,37.764286 C42.0660346,37.764286 42.3927407,37.4378136 42.3932313,37.0350093 L42.3932313,37.0331869 L42.3932313,36.2308025 C44.0596823,35.8925076 45.3139598,34.4192345 45.3139598,32.6529703 C45.3139598,30.6366357 43.6793546,29.0020539 41.6630434,29.0020539 Z" id="Shape" fill="#00B9B2" fill-rule="nonzero"></path>
            </g>
        </g>
    </g>
</svg>