<?xml version="1.0" encoding="UTF-8" standalone="no"?>
<svg width="112px" height="145px" viewBox="0 0 112 145" version="1.1" xmlns="http://www.w3.org/2000/svg" xmlns:xlink="http://www.w3.org/1999/xlink">
    <!-- Generator: Sketch 41 (35326) - http://www.bohemiancoding.com/sketch -->
    <title>zanwusousuo copy 2</title>
    <desc>Created with Sketch.</desc>
    <defs>
        <path d="M70.8089469,139.887193 L34.4115365,139.887193 C33.8428615,139.887193 33.3816506,139.426208 33.3816506,138.857361 C33.3816506,138.288513 33.8428615,137.827528 34.4115365,137.827528 L70.8088168,137.827528 C71.3774917,137.827528 71.8385725,138.288513 71.8385725,138.857361 C71.8385725,139.426208 71.3777519,139.887193 70.8089469,139.887193 Z" id="path-1"></path>
        <filter x="-50%" y="-50%" width="200%" height="200%" filterUnits="objectBoundingBox" id="filter-2">
            <feOffset dx="0" dy="1" in="SourceAlpha" result="shadowOffsetOuter1"></feOffset>
            <feGaussianBlur stdDeviation="1" in="shadowOffsetOuter1" result="shadowBlurOuter1"></feGaussianBlur>
            <feColorMatrix values="0 0 0 0 0   0 0 0 0 0.721568627   0 0 0 0 0.694117647  0 0 0 0.3 0" type="matrix" in="shadowBlurOuter1"></feColorMatrix>
        </filter>
        <path d="M67.2096805,13.9794424 C66.039675,13.9794424 64.9814269,13.1766543 64.7047004,11.9880855 L62.6610613,3.21180297 C62.3385389,1.82702602 63.1995526,0.442899628 64.5844863,0.12035316 C65.9690297,-0.201933086 67.3531828,0.659275093 67.6757051,2.04405204 L69.7194744,10.8204647 C70.0419967,12.2052416 69.180983,13.589368 67.7960493,13.9119145 C67.5995956,13.9574535 67.4030118,13.9793123 67.2096805,13.9793123 L67.2096805,13.9794424 Z" id="path-3"></path>
        <filter x="-50%" y="-50%" width="200%" height="200%" filterUnits="objectBoundingBox" id="filter-4">
            <feOffset dx="0" dy="2" in="SourceAlpha" result="shadowOffsetOuter1"></feOffset>
            <feGaussianBlur stdDeviation="2" in="shadowOffsetOuter1" result="shadowBlurOuter1"></feGaussianBlur>
            <feColorMatrix values="0 0 0 0 1   0 0 0 0 0.752941176   0 0 0 0 0.129411765  0 0 0 0.3 0" type="matrix" in="shadowBlurOuter1"></feColorMatrix>
        </filter>
        <path d="M95.863952,36.6124721 C95.6949498,36.6124721 95.5234756,36.5956877 95.3516111,36.5608178 L86.51939,34.7769888 C85.1256094,34.4955576 84.224134,33.1373234 84.5056743,31.7436989 C84.7872146,30.349684 86.1453473,29.4486617 87.5387376,29.7297026 L96.3709587,31.5135316 C97.7647393,31.7949628 98.6662147,33.153197 98.3846744,34.5468216 C98.1377412,35.768829 97.064011,36.6124721 95.863952,36.6124721 L95.863952,36.6124721 Z" id="path-5"></path>
        <filter x="-50%" y="-50%" width="200%" height="200%" filterUnits="objectBoundingBox" id="filter-6">
            <feOffset dx="0" dy="2" in="SourceAlpha" result="shadowOffsetOuter1"></feOffset>
            <feGaussianBlur stdDeviation="2" in="shadowOffsetOuter1" result="shadowBlurOuter1"></feGaussianBlur>
            <feColorMatrix values="0 0 0 0 1   0 0 0 0 0.752941176   0 0 0 0 0.129411765  0 0 0 0.3 0" type="matrix" in="shadowBlurOuter1"></feColorMatrix>
        </filter>
        <path d="M81.7855058,18.9122305 C81.0441858,18.9122305 80.30833,18.5935874 79.7993717,17.9773792 C78.8937331,16.8810595 79.048294,15.2583086 80.1444017,14.3527323 L87.718148,8.09501859 C88.8143858,7.18944238 90.4368854,7.34375465 91.342524,8.44007435 C92.2481627,9.53639405 92.0936018,11.159145 90.9974941,12.0647212 L83.4236176,18.3224349 C82.9436721,18.7188848 82.3627675,18.9122305 81.7853757,18.9122305 L81.7855058,18.9122305 Z" id="path-7"></path>
        <filter x="-50%" y="-50%" width="200%" height="200%" filterUnits="objectBoundingBox" id="filter-8">
            <feOffset dx="0" dy="2" in="SourceAlpha" result="shadowOffsetOuter1"></feOffset>
            <feGaussianBlur stdDeviation="2" in="shadowOffsetOuter1" result="shadowBlurOuter1"></feGaussianBlur>
            <feColorMatrix values="0 0 0 0 1   0 0 0 0 0.752941176   0 0 0 0 0.129411765  0 0 0 0.3 0" type="matrix" in="shadowBlurOuter1"></feColorMatrix>
        </filter>
        <path d="M106.654075,132.644535 L45.9354337,132.644535 L88.4956364,117.216952 C91.1325397,116.261152 93.2392782,114.335632 94.4281485,111.795204 C95.6167586,109.254777 95.745169,106.403253 94.7894412,103.766283 L92.0307626,96.1548885 C91.6914571,95.2188662 90.657408,94.7352416 89.7224964,95.0747026 C88.786544,95.4139033 88.3030857,96.4475093 88.6423912,97.3832714 L91.4010699,104.994665 C92.0285509,106.72658 91.9445051,108.599145 91.1636341,110.267695 C90.3830233,111.936115 88.9993906,113.200669 87.2676055,113.828327 L39.3712774,131.190019 C37.6392321,131.817546 35.7670672,131.733364 34.0986416,130.952565 C32.4302161,130.171766 31.1658868,128.78816 30.5382757,127.056245 L4.07413795,54.0380483 C2.7784541,50.462974 4.63253488,46.5001673 8.20734211,45.2042565 L56.1035401,27.8424349 C57.8351951,27.2146468 59.7074901,27.2989591 61.3761759,28.0797584 C63.0444713,28.8604275 64.3089307,30.2441636 64.9358913,31.9742565 L75.74592,61.9052416 C76.0839244,62.8415242 77.1165424,63.3261896 78.0530152,62.9880297 C78.9889676,62.6498699 79.473857,61.6169145 79.1355923,60.6807621 L68.3250432,30.7479554 C67.3693154,28.110855 65.4439388,26.0040892 62.9037011,24.8151301 C60.3634634,23.626171 57.5120222,23.4980112 54.8755092,24.4536803 L6.9791811,41.8155019 C1.53598188,43.7886431 -1.28735734,49.8225651 0.685636499,55.2663011 L27.1497743,128.284368 C28.4367413,131.835632 31.4517205,134.269758 34.9033213,134.986933 C35.1027673,135.116394 35.340073,135.192379 35.595593,135.192379 L36.497849,135.192379 C36.6753078,135.201357 36.853157,135.207732 37.0316567,135.207732 C37.2098961,135.207732 37.3883958,135.201617 37.5671557,135.192379 L106.653945,135.192379 C107.357666,135.192379 107.927902,134.62197 107.927902,133.918327 C107.927902,133.214684 107.357666,132.644275 106.653945,132.644275 L106.654075,132.644535 Z" id="path-9"></path>
        <filter x="-50%" y="-50%" width="200%" height="200%" filterUnits="objectBoundingBox" id="filter-10">
            <feOffset dx="0" dy="1" in="SourceAlpha" result="shadowOffsetOuter1"></feOffset>
            <feGaussianBlur stdDeviation="1" in="shadowOffsetOuter1" result="shadowBlurOuter1"></feGaussianBlur>
            <feColorMatrix values="0 0 0 0 0   0 0 0 0 0.721568627   0 0 0 0 0.694117647  0 0 0 0.3 0" type="matrix" in="shadowBlurOuter1"></feColorMatrix>
        </filter>
        <path d="M91.3516312,54.0168401 C90.2339266,53.4103903 88.6330239,54.1996468 87.7757831,55.7795911 L64.4785835,98.7227695 C64.3748923,98.9139033 64.3215506,99.124684 64.3279256,99.3185502 L64.4807952,104.069312 C64.4083285,104.074257 64.3356016,104.089349 64.2641757,104.115892 L57.0271328,106.813625 C56.62733,106.962342 56.424111,107.407323 56.5732076,107.807026 C56.6891283,108.117862 56.9835487,108.310037 57.2970941,108.310037 C57.3866041,108.310037 57.4778055,108.294164 57.5665349,108.261245 L64.5320553,105.66474 C64.55079,106.244257 64.9816871,106.477937 65.4297577,106.206784 L70.9084747,102.889721 C71.0744846,102.789275 71.2221502,102.629628 71.3259714,102.438494 L94.6231711,59.4954461 C95.4804119,57.9152416 95.2691266,56.1428625 94.151422,55.5362825 L91.3516312,54.0168401 Z" id="path-11"></path>
        <filter x="-50%" y="-50%" width="200%" height="200%" filterUnits="objectBoundingBox" id="filter-12">
            <feOffset dx="0" dy="1" in="SourceAlpha" result="shadowOffsetOuter1"></feOffset>
            <feGaussianBlur stdDeviation="1" in="shadowOffsetOuter1" result="shadowBlurOuter1"></feGaussianBlur>
            <feColorMatrix values="0 0 0 0 0   0 0 0 0 0.721568627   0 0 0 0 0.694117647  0 0 0 0.3 0" type="matrix" in="shadowBlurOuter1"></feColorMatrix>
        </filter>
        <path d="M31.8666151,96.3134944 C31.5534601,96.3134944 31.2586494,96.1215799 31.1427287,95.8106134 C30.9937621,95.4107807 31.1969811,94.9659294 31.5965238,94.8170818 L36.1377272,93.1242007 C36.5370096,92.9750929 36.9823481,93.1783271 37.1311846,93.5781599 C37.2801511,93.9778625 37.076802,94.4227138 36.6772594,94.5715613 L32.1360559,96.2644424 C32.0471964,96.2976208 31.9561252,96.3132342 31.8666151,96.3132342 L31.8666151,96.3134944 Z M40.2676788,93.1818401 C39.9542636,93.1818401 39.6597131,92.9899257 39.5437924,92.678829 C39.3948258,92.2791264 39.5980448,91.8342751 39.9975875,91.6854275 L47.2345002,88.9875651 C47.6346934,88.838197 48.0791211,89.0418216 48.2279576,89.4413941 C48.3769242,89.8412268 48.1737051,90.2860781 47.7741625,90.4349257 L40.5372497,93.1327881 C40.4482601,93.1659665 40.3570587,93.1815799 40.2675487,93.1815799 L40.2676788,93.1818401 Z M51.3643218,89.0453346 C51.0509065,89.0453346 50.756356,88.8534201 50.6404353,88.5424535 C50.4914688,88.1426208 50.6946878,87.6977695 51.0943605,87.5489219 L58.3312733,84.8510595 C58.730946,84.7016914 59.1758942,84.905316 59.3246005,85.3050186 C59.4735671,85.7047212 59.2703481,86.1495725 58.8708055,86.2984201 L51.6338927,88.9962825 C51.5449031,89.029461 51.4537017,89.0450743 51.3641917,89.0450743 L51.3643218,89.0453346 Z M62.4607045,84.9086989 C62.1472893,84.9086989 61.8527388,84.7167844 61.7368181,84.4056877 C61.5878515,84.0059851 61.7910705,83.5610037 62.1907433,83.4122862 L69.427656,80.7145539 C69.8274589,80.565316 70.2721468,80.7688104 70.4209833,81.168513 C70.5698197,81.5682156 70.3667308,82.013197 69.9670581,82.1619145 L62.7301453,84.8596468 C62.6412858,84.8928253 62.5502145,84.9084387 62.4607045,84.9084387 L62.4607045,84.9086989 Z" id="path-13"></path>
        <filter x="-50%" y="-50%" width="200%" height="200%" filterUnits="objectBoundingBox" id="filter-14">
            <feOffset dx="0" dy="1" in="SourceAlpha" result="shadowOffsetOuter1"></feOffset>
            <feGaussianBlur stdDeviation="1" in="shadowOffsetOuter1" result="shadowBlurOuter1"></feGaussianBlur>
            <feColorMatrix values="0 0 0 0 0   0 0 0 0 0.721568627   0 0 0 0 0.694117647  0 0 0 0.3 0" type="matrix" in="shadowBlurOuter1"></feColorMatrix>
        </filter>
    </defs>
    <g id="1-16迭代" stroke="none" stroke-width="1" fill="none" fill-rule="evenodd">
        <g id="zanwusousuo-copy-2" transform="translate(2.000000, 2.000000)">
            <g id="Shape">
                <use fill="black" fill-opacity="1" filter="url(#filter-2)" xlink:href="#path-1"></use>
                <use fill="#00B8B1" fill-rule="evenodd" xlink:href="#path-1"></use>
            </g>
            <g id="Shape">
                <use fill="black" fill-opacity="1" filter="url(#filter-4)" xlink:href="#path-3"></use>
                <use fill="#FFC020" fill-rule="evenodd" xlink:href="#path-3"></use>
            </g>
            <g id="Shape">
                <use fill="black" fill-opacity="1" filter="url(#filter-6)" xlink:href="#path-5"></use>
                <use fill="#FFC020" fill-rule="evenodd" xlink:href="#path-5"></use>
            </g>
            <g id="Shape">
                <use fill="black" fill-opacity="1" filter="url(#filter-8)" xlink:href="#path-7"></use>
                <use fill="#FFC020" fill-rule="evenodd" xlink:href="#path-7"></use>
            </g>
            <g id="Shape">
                <use fill="black" fill-opacity="1" filter="url(#filter-10)" xlink:href="#path-9"></use>
                <use fill="#00B8B1" fill-rule="evenodd" xlink:href="#path-9"></use>
            </g>
            <g id="Shape">
                <use fill="black" fill-opacity="1" filter="url(#filter-12)" xlink:href="#path-11"></use>
                <use fill="#00B8B1" fill-rule="evenodd" xlink:href="#path-11"></use>
            </g>
            <path d="M42.0710199,112.388903 L36.7601342,114.36868 C36.3603314,114.517398 36.1571124,114.962379 36.306209,115.362082 C36.4221297,115.672918 36.7166802,115.865093 37.0300955,115.865093 C37.1196055,115.865093 37.2108069,115.849219 37.2995363,115.816301 L42.610422,113.836524 C43.0102248,113.687807 43.2134438,113.242825 43.0643472,112.843123 C42.9153806,112.44329 42.4708227,112.239796 42.0710199,112.389164 L42.0710199,112.388903 Z" id="Shape" fill="#00B8B1" opacity="0.969999969"></path>
            <path d="M53.1676628,108.252268 L45.9307501,110.95 C45.5309472,111.098717 45.3277282,111.543699 45.4768249,111.943401 C45.5927456,112.254238 45.887166,112.446413 46.2007113,112.446413 C46.2902214,112.446413 46.3814227,112.430539 46.4701521,112.397621 L53.7070649,109.699888 C54.1068678,109.551171 54.3100868,109.10619 54.1609901,108.706487 C54.0118934,108.306654 53.5673356,108.10303 53.1676628,108.252528 L53.1676628,108.252268 Z" id="Shape" fill="#00B8B1" opacity="0.969999969"></path>
            <g id="Shape" opacity="0.969999969">
                <use fill="black" fill-opacity="1" filter="url(#filter-14)" xlink:href="#path-13"></use>
                <use fill="#00B8B1" fill-rule="evenodd" xlink:href="#path-13"></use>
            </g>
        </g>
    </g>
</svg>